<?xml version="1.0" encoding="utf-8" ?>
<svg baseProfile="full" height="300mm" version="1.1" viewBox="0,0,200,300" width="200mm" xmlns="http://www.w3.org/2000/svg" xmlns:ev="http://www.w3.org/2001/xml-events" xmlns:xlink="http://www.w3.org/1999/xlink"><defs /><rect fill="#222222" height="300" width="200" x="0" y="0" /><text fill="#FFFFFF" style="font-size:12px; font-family:Arial; font-weight:bold;" x="10" y="20">All Running Tracks</text><text fill="#FFFFFF" style="font-size:4px; font-family:Arial" x="10" y="280">ATHLETE</text><text fill="#FFFFFF" style="font-size:9px; font-family:Arial" x="10" y="290">Ryan</text><text fill="#FFFFFF" style="font-size:4px; font-family:Arial" x="120" y="280">STATISTICS</text><text fill="#FFFFFF" style="font-size:3px; font-family:Arial" x="120" y="285">Number: 24</text><text fill="#FFFFFF" style="font-size:3px; font-family:Arial" x="120" y="290">Weekly: 2.7</text><text fill="#FFFFFF" style="font-size:3px; font-family:Arial" x="141" y="285">Total: 66.1 km</text><text fill="#FFFFFF" style="font-size:3px; font-family:Arial" x="141" y="290">Avg: 2.8 km</text><text fill="#FFFFFF" style="font-size:3px; font-family:Arial" x="167" y="285">Min: 1.5 km</text><text fill="#FFFFFF" style="font-size:3px; font-family:Arial" x="167" y="290">Max: 3.6 km</text><polyline fill="none" points="22.100255101919174,62.515448789752554 22.22116956464015,63.51264562239521 22.140559922903776,65.85604820100707 22.100255101919174,66.05548607188393 21.9793406391982,66.20506440868485 21.81812135549262,66.25492384145036 21.5359876092989,66.20506440868485 20.004404414677992,65.25773397978628 19.03708871291019,64.36026093695546 18.230992294847965,63.01404752288363 17.303981413831934,61.717689498502295 16.860628383932635,60.969788689457346 16.659104279242456,60.62076782400254 16.256056070094928,59.22468125662999 15.893312681932002,54.58764378470369 15.732093398459256,53.34111898712581 15.36935001029633,51.74556146582472 15.288740368327126,50.44916620099684 15.16782590560615,49.85082847985905 14.885692159412429,46.80926428543171 14.68416805495508,45.61257682577707 14.764777696691453,43.51836498649209 15.16782590560615,41.07510370874661 15.409654831280932,40.22743807671941 15.36935001029633,39.23018204674008 15.651483756722882,37.83401934517315 16.09483678662218,36.68716769394814 16.659104279242456,35.64003934469656 17.42489587655291,34.64277165097883 18.674345324747264,33.59563784376951 19.762575489236042,32.997274413122796 20.568671907531098,32.747956047503976 23.34970455011353,32.14959132357035 24.840982923517004,32.0 26.211346834432334,32.0 28.347502342890948,32.24931884097168 30.080609641969204,32.79781973332865 31.088230164488778,33.047138067136984 32.94225192628801,33.69536499353126 34.55444476264529,34.19400036163279 35.803894210839644,34.493181278259726 37.053343659034,34.892088812048314 40.11651004781015,36.13867224060232 40.88230164535344,36.53757810083334 41.88992216810584,37.285525495535694 42.494494481477886,37.93374541722005 44.18729695980437,40.027987073670374 44.42912588524632,40.42688897848711 44.993393377866596,41.7731799124449 45.23522230354138,42.770429476950085 45.31583194527775,43.36877799872309 45.31583194527775,45.06409385340521 45.23522230354138,45.712300920364214 45.15461266157217,47.90622458292637 45.03369819908403,48.60428862943081 44.751564452424645,49.252489846083336 44.63064998970367,50.05027448837063 44.308211422525346,51.496255016943906 43.582724645966664,53.69014632969629 43.381200541509315,53.98931237612851 42.937847511610016,54.13889531392488 41.970531809842214,54.039173361758 40.76138718239963,54.18875628040405 40.27772933174856,54.13889531392488 39.713461838895455,54.288478194503114 39.06858470453881,54.38820008325274 38.22218346525915,54.338339141977485 36.972734017064795,54.039173361758 36.36816170345992,54.039173361758 35.32023635995574,54.288478194503114 35.07840743428096,54.637504694168456 35.19932189723477,55.385417576355394 35.44115082267672,56.43249321565963 35.48145564366132,57.379844957235036 35.23962671821937,59.52384308210458 34.99779779277742,60.47118735793629 34.87688332982361,62.06670938807656 34.83657850883901,63.31320645852247 34.99779779277742,64.41012060441426 34.99779779277742,67.10253323090728 34.83657850883901,67.55126687209122 33.506519419141114,67.95014078883105 32.82133746356703,68.0 28.669940910069272,67.50140760390786 27.70262520830147,67.30197046804824 24.115496147423983,66.90309589225217 22.9063515199814,66.65379907633178 22.543608131818473,66.50422091092332 22.301779206609353,66.30478326792945 22.140559922903776,65.85604820100707 21.9793406391982,63.36306625904399" stroke="#4dd2ff" stroke-linecap="round" stroke-linejoin="round" stroke-width="0.5"><title>2023-12-24 3.0km</title><desc>10429577857</desc></polyline><polyline fill="none" points="68.51528338412754,65.28312886322965 68.38857794459909,67.63426839292515 68.17740221181884,68.0 67.88175618625246,68.0 67.62834530696273,67.89550528849941 65.93893944541924,66.85055671058944 65.64329341938719,66.58931915098219 64.33400387689471,64.55166048914543 63.19365492044017,62.879727889288915 62.30671684280969,60.737554307532264 62.26448169630021,60.16282291064272 62.30671684280969,58.43862389851711 62.095541110262275,57.55039734242018 61.29307332565077,51.75075323757483 60.99742730008438,50.549014945252566 60.82848671381362,49.55627196666319 60.701781274518,47.988778171507875 60.701781274518,44.644771429680986 60.99742730008438,42.45025221994729 61.377543619135395,40.46472474379698 61.33530847239308,39.41970643008244 61.504249058663845,38.27018321614014 62.51789257558994,36.12788137496682 63.616006385535,34.82159428449813 64.2917687301524,34.19457500640419 65.43211768683977,33.46305130625842 67.45940472069196,32.67927446842077 70.41586497845128,32.15675574625493 72.40091686579399,32.0 73.75244155526161,32.05225192208309 75.99090432189405,32.57477077713702 78.98959972616285,33.567554771725554 80.08771353634074,33.9855683677888 82.66405747504905,34.71709113786346 85.5360474397894,35.70986995779094 89.33721062843688,37.904425155575154 90.35085414536297,38.949447321967455 91.44896795554087,40.30797216601786 92.2936708861962,42.13674851934775 92.46261147246696,42.81600623516715 92.6315520585049,44.906022935931105 92.54708176548593,46.73477883153828 92.54708176548593,47.4662789113645 92.42037632595748,49.03377469917177 92.16696544666775,49.817520351323765 92.08249515364878,50.91476175398566 91.19555707625113,53.99747192495852 90.98438134347089,54.67671004089061 90.77320561092347,54.99020417738939 90.43532443861477,55.19920013542287 90.18191355909221,55.19920013542287 87.69003991340287,55.19920013542287 86.42298551718704,55.40819598734379 85.83169346558861,55.303698074654676 85.07146082795225,55.40819598734379 83.80440643173642,55.251449108473025 83.25534952664748,55.35594703440438 80.4678298549261,54.99020417738939 78.4405428210739,54.937955171160866 77.21572357136756,54.781208112923196" stroke="#4dd2ff" stroke-linecap="round" stroke-linejoin="round" stroke-width="0.5"><title>2023-12-23 2.5km</title><desc>10424144317</desc></polyline><polyline fill="none" points="111.38626706926152,48.88165849016514 110.399812056683,48.81386173359351 110.07099371915683,49.08504870842444 110.07099371915683,49.28843884897651 110.34500900050625,50.98335367103573 110.61902428185567,51.864707249973435 110.78343345038593,53.35622537357267 110.83823650679551,56.135861656221095 110.94784261914901,56.74602377950214 111.33146401308477,58.0341415249859 111.93429763196036,59.18666529201437 115.27728406363167,63.72894059645478 115.82531462609768,64.27129924186738 117.9626338200178,65.49160417728126 119.99034690158442,66.0339610305964 121.7988477582112,65.9661664540181 123.82656083977781,66.30513925018022 124.81301585258916,66.5763173319865 126.73112282110378,66.6441118310322 131.49898871569894,67.52543953276472 133.96512624714524,67.66102828073781 135.77362710377201,68.0 136.15724849747494,67.79661699431017 136.21205155388452,66.37293378351023 135.99283932871185,63.52555596228922 136.21205155388452,60.94934388343245 136.15724849747494,60.4069818604039 136.43126377859153,58.57650596095482 136.3764607226476,57.01720672118245 136.59567294758745,54.50875924876891 136.4860668350011,53.5596138855326 136.54086989117786,52.068096330564 136.3764607226476,50.03420203423593 136.3764607226476,49.559625582478475 136.59567294758745,48.88165849016514 136.59567294758745,47.39012785395607 136.3764607226476,45.288418514071964 136.4860668350011,43.25449836428743 136.21205155388452,39.932412105903495 136.3764607226476,38.16966405574931 136.26685460982844,36.06791838182835 136.43126377859153,34.77974758442724 136.43126377859153,32.677988551557064 136.3764607226476,32.54239091015188 136.32165766623802,32.40679323422955 135.44480876624584,32.4745920766145 129.85489702783525,32.0 128.26560839661397,32.0 127.16954727144912,32.20339665591018 126.12828920246102,32.0 125.74466780852526,32.1355977790663 124.59380362718366,32.067798893898726 123.93616695213132,32.20339665591018 122.73049971461296,32.88138494908344" stroke="#4dd2ff" stroke-linecap="round" stroke-linejoin="round" stroke-width="0.5"><title>2023-12-19 1.7km</title><desc>10404110587</desc></polyline><polyline fill="none" points="161.5242467247881,57.065536115522264 160.63631066749804,56.46637861363706 161.7664111040067,56.71602768381126 154.86472629429772,41.73680262561538 155.3490550527349,40.188916805636836 155.30869432282634,38.84075321801356 155.47013724269345,37.79217833947041 155.55085870227776,37.59244947388652 155.95446600113064,36.993262267584214 156.64059840911068,35.69502018461935 157.28637008718215,34.846167271753075 157.77069884561934,34.29690852708882 158.61827417323366,33.54791809193557 159.5465709604323,33.04859034172841 160.3941462880466,32.64912768447539 161.36280380515382,32.499329083249904 162.45254351198673,32.199731709377375 164.26877635670826,32.0 166.08500920119695,32.0 168.9909817527514,32.39946331738611 172.74452963168733,33.647783565946156 174.15715517755598,33.9473798351537 174.96436977526173,34.19704321824247 175.65050218324177,34.49663906858768 177.34565283847041,34.89609984692652 178.7986391140148,35.395425248367246 179.68657517130487,35.79488511243835 180.97811852768064,36.593803622119594 182.1485796943307,37.64238169975579 183.8437303493265,39.58973356024944 184.48950202716514,40.78809913696023 184.69130567694083,41.43721229786752 185.09491297556087,43.18481932213763 185.13527370546944,44.28331118641654 185.09491297556087,46.080836700915825 184.93347005615942,48.27780115909991 184.73166640661657,48.976832727872534 184.69130567694083,49.526070944964886 183.92445180891082,52.2223201446468 183.39976232056506,53.67029818758601 183.31904086098075,53.82008871503058 183.03651575162075,53.969879185257014 182.5925477228593,53.969879185257014 180.049821740482,53.77015854549245 178.87936057383195,54.269459954317426 178.5564747347962,54.3193900603801 175.56978072342463,54.11966959835263 175.32761634420604,54.219529842055636 175.125812694896,54.56904049505829 175.04509123507887,55.068340888567036 175.08545196498744,55.56764064723393 175.44869853393175,57.16539561047102 175.6101414533332,58.26384837774094 175.44869853393175,59.41222753201146 174.96436977526173,61.05989610686083 174.8836483154446,62.15833798403037 174.8836483154446,63.057060871535214 174.7625661259517,63.35663471050793 174.8836483154446,66.70186039269902 174.80292685586028,67.75035810095142 174.7222053958103,68.0 174.56076247664168,68.0 173.3095798501745,67.9500716329494 171.08973970660008,67.60057288533426 169.55603197123855,67.4507876126736 168.42593153449707,67.20114536467008 166.77114160940982,67.1012884209922 162.57362570171244,66.35236053465633 162.08929694304243,66.05278898021788 161.96821475331672,65.75321719734347 161.92785402340814,64.15549716402893 161.60496818460524,62.40798343671486 161.8874932937324,61.259613040310796 161.96821475331672,59.46215698434389 161.84713256382383,58.36370756791439 161.80677183391526,56.51630844044848 161.68568964418955,56.21672938487609" stroke="#4dd2ff" stroke-linecap="round" stroke-linejoin="round" stroke-width="0.5"><title>2023-11-19 2.2km</title><desc>10341819005</desc></polyline><polyline fill="none" points="18.944325055694208,94.32332805366605 19.023294162470847,93.54178924046573 19.102263269014657,92.27178527906653 19.023294162470847,91.68562818897772 19.102263269014657,91.24600978460512 19.062778715975583,90.12253824420623 19.181232375791296,89.73176476464141 19.102263269014657,89.29214412489091 19.181232375791296,88.16866687205038 19.14174782251939,86.60556262140744 19.181232375791296,85.5797720013943 19.062778715975583,85.04245201224694 19.023294162470847,84.01665721970494 19.023294162470847,82.84431696054526 19.102263269014657,82.1604501575639 19.023294162470847,81.08579986557015 19.22071692929603,80.2553862176137 19.497108802897856,79.62036280534812 19.576077909674495,79.18073059758171 19.45762424939312,77.81298273432185 19.576077909674495,77.12910697708139 19.29968603607267,76.34753319245647 19.37865514284931,75.51710930463742 19.45762424939312,75.17516953506856 19.69453156972304,75.02862382627791 19.734016123227775,74.88207806175342 19.85246978327632,74.29589444459998 19.85246978327632,73.66086118336534 20.0104079968296,72.97697803616757 20.128861656878144,73.07467570304289 20.049892550101504,72.68388488609344 20.168346210150048,72.39079151247279 20.99752183118835,72.14654686374706 23.564017800381407,72.0 24.709069848060608,72.09769791524741 26.248967429623008,72.48848932847613 28.69700973853469,73.27007096249145 29.486700806068256,73.66086118336534 30.039484553271905,73.80740741366753 32.05319677526131,74.24704576935619 36.31752853933722,75.76135181088466 37.85742612089962,76.6406235480099 39.19990093563683,77.81298273432185 40.58186030341312,79.66921079737949 41.29258226417005,81.08579986557015 41.568974138004705,81.91621171872248 41.805881458101794,83.38164002326084 41.76639690459706,84.06550465273904 41.647943244548514,84.70052071905229 41.68742779805325,85.77516090194695 41.490005031228065,88.11981996052782 40.93722128402442,90.41561809318955 40.14753021649085,93.10217295956681 40.06856110971421,94.32332805366605 39.67371557606384,95.88640091149136 39.5552619160153,96.66793495623278 39.5947464692872,96.91216401927522 39.713200129335746,97.15639292701962 40.344952983316034,97.54715885670157 40.423922090092674,97.69369597788318 40.46340664359741,98.13330700609367 40.344952983316034,98.9148364814173 40.108045663218945,99.11021860176697 37.77845701435581,99.50098254476325 36.75185862649232,99.45213707353105 35.804229345638305,99.15906411645119 35.17247649165802,99.15906411645119 33.98793989047408,99.89174609037582 33.7905171236489,100.18481848866213 33.71154801687226,100.47789066360565 33.63257891009562,100.91749850689666 33.71154801687226,101.16172486916184 33.90897078369744,101.50364151567919 34.38278542435728,101.89440302475123 35.13299193815328,102.33400924777379 35.488352918531746,102.62707978361868 35.60680657881312,102.87130505946698 35.60680657881312,103.06668516836362 35.44886836502701,103.84820461075287 35.21196104492992,104.38549830546253 34.9355691713281,104.53203281905735 34.185362657299265,104.23896373587195 32.2506195420865,103.06668516836362 31.737320348154753,102.87130505946698 31.579382134834304,102.92015009588795 31.500413027824834,103.01784015048179 31.500413027824834,103.4086001199903 31.69783579511568,106.97426648731926 31.579382134834304,107.8534668085631 31.500413027824834,108.0 31.06608294090256,107.95115560898557 29.92103089322336,107.26733348463313 28.93391705886461,106.8765774386411 27.946803224505857,106.77888836502098 27.275565817253664,106.77888836502098 24.630100741283968,106.29044262474054 23.879894227255136,106.29044262474054 22.85329583962448,106.1927534021379 21.1554600445088,105.80199626355898 19.576077909674495,105.80199626355898 19.062778715975583,105.50892814877443 18.904840502422303,105.26470454919036 18.865355948917568,104.72741208379739 18.983809609198943,103.06668516836362 18.904840502422303,101.65017712811823 19.023294162470847,100.33135460401536 18.944325055694208,96.91216401927522 18.983809609198943,96.32601400726708 18.904840502422303,96.03293866588501 18.70741773559712,96.22832225161255 18.273087648442015,96.17947636445751 18.194118541898206,96.03293866588501 18.273087648442015,95.64217119658133" stroke="#4dd2ff" stroke-linecap="round" stroke-linejoin="round" stroke-width="0.5"><title>2023-11-08 2.5km</title><desc>10341819064</desc></polyline><polyline fill="none" points="67.04680528002791,95.05823372778832 67.08688803575933,95.35575041765696 67.32738457038067,95.40533651053556 67.9687086630147,95.95078311656835 68.40961897652596,96.04995514487382 68.56994999945164,96.19871314003831 68.69019826687872,96.34747107839212 68.85052929003723,96.74415863666218 68.69019826687872,97.68628997117048 68.77036377857439,98.18214765441371 68.69019826687872,98.87634735193569 68.69019826687872,100.51267032290343 68.89061204576865,102.44649771240074 68.89061204576865,104.67782509647077 68.81044653430581,105.8182763865625 68.73028102284297,106.01661540105124 68.52986724372022,106.16536959569203 68.08895693020895,106.0662001388846 67.44763283780776,105.6695220595866 66.76622598944232,105.1736738930631 65.88440536241978,104.28114560531685 63.760019306093454,101.2068658733333 63.399274504045025,100.36391397268744 63.038529701996595,99.12427551596193 62.998446946265176,97.83504734226153 62.75795041164383,95.05823372778832 62.637702144216746,94.16568229690893 62.43728836555965,93.71940581567469 62.51745387702249,93.37230153282871 62.2368745864369,92.03346783452434 62.07654356327839,89.95082850393374 61.79596427292563,88.90950466916547 61.59555049426854,87.86817805460305 61.4352194708772,85.38881778379437 61.51538498257287,84.29789427213836 61.87612978438847,81.42180857207859 62.036460807779804,80.87634165032068 62.07654356327839,79.38870071465499 62.2368745864369,78.54570166594931 62.357122853863984,78.04981902174768 62.75795041164383,77.50434738470358 63.67985379463062,75.37204184877919 64.48150890995748,74.47944537282456 65.40341229294427,73.73561341583263 66.80630874517374,72.94219109832193 67.56788110500202,72.69424629313289 69.73234991705976,72.44630133037572 70.49392227712087,72.1983562099631 71.69640495022759,72.0 73.7807082508225,72.09917811767082 74.5823633663822,72.29753427690594 75.22368745878339,72.29753427690594 76.10550808580592,72.49589033561642 79.91336988494731,73.83479109220207 84.24230750906281,75.12409858818864 85.8456177401822,75.71916214909288 86.88776939036325,76.21504775629728 88.01008655223995,76.9588749850227 88.93198993522674,77.70270079554757 90.45513465465046,79.48787695355713 91.05637599155307,80.47963795560645 91.53736906079575,81.66974782969919 91.81794835114852,83.05820476036752 91.89811386261135,83.85160650176113 91.81794835114852,85.6367545198882 91.53736906079575,88.81033082562499 91.37703803763725,89.70289450971177 90.5353001661133,92.72767847386422 90.13447260856628,93.71940581567469 89.97414158540778,93.86816469958285 89.77372780651785,93.96733725714148 88.01008655223995,93.91775098151993 86.44685907685198,94.01692352659302 85.56503844982944,94.3640272358316 84.7233005783055,94.5127858738997 82.91957656829618,94.31444101047236 82.39850074308924,94.46319966748706 81.87742491811514,94.41361345475889 81.71709389518946,94.5127858738997 81.71709389518946,94.71113063624944 81.83734216238372,95.30616431843373 82.35841798735783,96.94250226460281 82.39850074308924,97.73587576777209 82.23816972016357,98.82676170018385 81.75717665068805,100.7605974469916 81.51668011606671,102.00023070411407 81.47659736033529,103.19027492508758 81.59684562776238,103.88446571081295 81.55676287179813,104.42990046183695 81.67701113922521,104.92574957342003 81.67701113922521,105.91744590632152 81.55676287179813,107.6529084231006 81.47659736033529,107.90083100955235 81.11585255828686,107.95041550786118 80.51461122161709,107.85124650478247 80.03361815214157,108.0 79.55262508289889,108.0 75.58443226083182,107.4049856789934 73.74062549509108,107.25623195702792 71.73648770619184,106.76038580734166 70.01292920764536,106.56204717088258 69.65218440559693,106.46287781497813 69.33152235927992,106.21495431457879 69.0108603129629,106.26453902735375 68.89061204576865,106.21495431457879 68.73028102284297,105.96703065681504 68.6501155111473,105.71910684148315 68.69019826687872,104.28114560531685 68.56994999945164,102.8927642100607 68.81044653430581,100.85976825249963 68.77036377857439,99.9672300950333 68.81044653430581,96.79374455314246 68.69019826687872,96.44664300579461 68.61003275518306,96.49622895996436 68.6501155111473,96.59540084959008 68.6501155111473,96.54581490799319 68.61003275518306,96.49622895996436 68.04887417447753,96.54581490799319" stroke="#4dd2ff" stroke-linecap="round" stroke-linejoin="round" stroke-width="0.5"><title>2023-11-03 3.1km</title><desc>10389486333</desc></polyline><polyline fill="none" points="114.03413281077519,95.75243898434564 113.9940500499215,96.24829912555288 114.27462937613018,96.49622895990615 114.67545698466711,96.64498678478412 115.27669839793816,96.59540084938635 115.51719496329315,96.79374455311336 115.31678115879185,97.2400175172661 115.47711220220663,97.38877505861456 115.51719496329315,97.73587576774298 115.39694668049924,99.0251042691234 115.43702944135293,104.33073056375724 115.31678115879185,105.47118286852492 115.23661563685164,105.71910684151226 115.11636735452339,105.8182763865043 114.75562250660732,105.7686916171806 113.87380176712759,105.37201323531917 113.27256035408936,104.92574957359466 112.55107065849006,104.23156064053182 110.82751194084994,101.75230436769198 110.06593948416412,100.36391397257103 109.82544291904196,99.47137468089932 109.66511187562719,98.03339041533764 108.86345665808767,91.98388131285901 108.58287733187899,90.84338957842556 108.58287733187899,90.05000205730903 108.18204972310923,87.27313302643597 108.14196696225554,85.53757984418189 108.22213248419575,84.8929438383202 108.18204972310923,84.14913173849345 108.5427945710253,81.62015999059076 108.70312561444007,80.97551751087303 108.6630428538192,80.43004996521631 108.74320837529376,79.4382888370892 109.02378770173527,77.95064241698128 110.06593948416412,75.76875073794508 110.46676709293388,75.22327591115027 111.82958096265793,73.98355755899684 113.23247759323567,73.09095790571882 114.07421557162888,72.79342423402704 116.59942950680852,72.19835620981758 117.36100196326151,72.24794524643221 118.48331926786341,72.04958906196407 119.88621589844115,72.0 122.61184363788925,72.4958903354418 124.05482302932069,73.09095790571882 127.70235426886939,74.13232396941748 131.87096139974892,75.47121910893475 132.79286489984952,75.86792789719766 133.95526496507227,76.46299032337265 134.6767546609044,76.95887498481898 135.8792374872137,78.04981902151485 136.5606444219593,78.89281914176536 137.2821341175586,80.1325218914717 137.84329276974313,81.17386915659881 138.2842031395994,82.26480140481726 138.44453418301418,82.95902942898101 138.52469970472157,83.95078160581761 138.3643686613068,85.38881778347422 138.48461694386788,86.38056378281908 138.3242859004531,88.1657002279535 138.00362381339073,89.50454720068956 137.6829617265612,90.39710929628927 137.48254792182706,91.09132284778752 137.36229963949881,92.18222736113239 136.80114098708145,93.71940581547096 136.600727182813,93.9177509812871 136.19989957427606,94.0169235264184 133.19369250861928,93.86816469937912 132.15154072572477,94.0665097895835 130.1474026821088,94.0169235264184 128.66434052982368,94.2648547787685 128.46392672532238,94.46319966739975 128.42384396470152,94.81030297957477 128.46392672532238,95.25657821277855 128.82467157323845,96.44664300559089 129.02508537773974,97.2400175172661 128.22343016020022,101.35562190183555 128.26351292105392,103.09110471198801 128.383761203615,104.1323906921607 128.3035956819076,105.91744590635062 128.22343016020022,106.46287781497813 128.22343016020022,107.35540111133014 128.14326463826,107.9504155079776 126.4998714425601,108.0 124.89656100748107,107.80166199384257 122.69200915959664,107.35540111133014 121.40936081157997,107.20664737044717 120.96845044195652,107.25623195699882 120.20687798550352,107.05789357281174 118.28290546359494,106.85955508769257 115.07628459343687,106.06620013900101 114.1543810935691,105.6199372713163 112.95189826725982,104.72741000453243 112.190325810574,103.83488069562009 111.74941544095054,103.1406898216519 110.82751194084994,101.90106018836377 110.26635328866541,100.81018285281607 109.90560844074935,99.71930246677948 109.66511187562719,98.33090483624255 109.54486359283328,96.69457271377905 109.18411874515004,94.16568229685072 109.18411874515004,93.62023319481523 109.34444978833199,93.37230153262499 109.54486359283328,93.32271518133348 111.54900163668208,93.62023319481523 113.55313968029805,93.47147421652335 114.67545698466711,93.52106054889737 115.35686391964555,93.66981950830086 115.47711220220663,93.81857841112651 115.47711220220663,94.11609604628757 115.31678115879185,96.29788510510116 115.11636735452339,96.44664300559089 114.75562250660732,96.39705704510561 114.67545698466711,96.29788510510116 114.67545698466711,95.95078311651014 114.55520870210603,95.75243898434564 114.35479489783756,95.60368081901106" stroke="#4dd2ff" stroke-linecap="round" stroke-linejoin="round" stroke-width="0.5"><title>2023-11-02 3.4km</title><desc>10389486352</desc></polyline><polyline fill="none" points="162.42352775111794,95.320819939574 162.30294729070738,95.27109685583855 162.18236683076248,94.97275822091615 162.18236683076248,93.82912467903225 162.14217334380373,93.67995484001585 161.94120591017418,93.58050824908423 161.94120591017418,93.43133831545128 162.10197985707782,91.44240043015452 161.90101242344826,90.6965461159416 161.86081893672235,89.30428092452348 161.90101242344826,89.15510936017381 161.9813993969001,89.30428092452348 161.9813993969001,88.75731824352988 162.14217334380373,88.65787040116265 162.0617863703519,88.75731824352988 162.14217334380373,88.8070421552984 162.02159288385883,88.85676606060588 161.78043196327053,88.75731824352988 161.86081893672235,88.75731824352988 161.94120591017418,88.35952672240091 162.0617863703519,85.92304482878535 162.02159288385883,85.27662871783832 162.10197985707782,84.48103819182143 161.9813993969001,83.28764936863445 162.0617863703519,82.24343116156524 162.0617863703519,81.24893503964995 162.18236683076248,81.0500355118129 162.3833342641592,80.25443638910656 162.42352775111794,79.16048495305586 162.54410821129568,78.36488198698498 162.58430169778876,76.52504392983974 162.9862365652807,75.03327699002693 162.9862365652807,73.5912302066863 163.10681702545844,73.5415043606481 163.06662353873253,73.29287503610249 163.14701051218435,73.14369736533263 163.06662353873253,72.9945196378394 163.0264300517738,73.04424555326113 162.9862365652807,72.84534185327357 163.06662353873253,72.59671208605869 163.2675909723621,72.4475341499201 163.6695258396212,72.248630146496 164.51358906109817,72.19890412973473 164.6341695212759,72.09945207758574 165.11649136198685,72.0 167.5281005660072,72.09945207758574 169.7789358231239,72.7458899653866 171.22590134548955,73.34260091360193 175.44621745240875,74.43656862110947 176.611828567693,74.93382565837237 178.29995501041412,75.28190520839416 179.38517915224656,75.72943560327985 180.9929186217487,76.62449485703837 181.83698184299283,77.32065063831396 182.43988414411433,77.91735460743075 183.52510828594677,79.25993520999327 184.0074301266577,79.95608630083734 184.93188032135367,81.74618341668975 185.01226729503833,82.14398166327737 185.09265426849015,82.93957694270648 185.0524607815314,85.27662871783832 184.73091288772412,87.06670148498961 184.65052591450512,89.30428092452348 184.5299454543274,90.00041413964937 184.04762361338362,91.93963584958692 183.52510828594677,93.38161499146372 183.28394736535847,93.7296781259065 183.08297993172891,93.8788479459763 182.6810450644698,93.97829446100513 181.11349908192642,93.92857120657573 179.7871140197385,93.7296781259065 178.58130941772833,93.92857120657573 177.29511784226634,94.07774095080094 175.68737837299705,93.97829446100513 175.20505653205328,94.07774095080094 175.00408909842372,94.37608026823727 175.08447607187554,95.71860438163276 175.44621745240875,96.91195528116077 175.52660442586057,97.45890656014672 174.84331515152007,101.53615563205676 174.80312166479416,103.0278215042199 174.92370212520473,103.62448626046535 175.00408909842372,104.71836928342236 174.88350863824598,107.303898814891 174.84331515152007,107.701671072311 174.76292817806825,107.9005570494337 174.48157377075404,108.0 171.62783621274866,107.65194956233609 168.61332470807247,107.1050125346519 167.68887451314367,107.00556935655186 166.64384385803714,106.80668292447808 164.2322346540168,106.50835308682872 162.54410821129568,106.40890975718503 162.14217334380373,106.3094664021337 161.74023847654462,106.16030132203014 160.3736599276308,105.36475326830987 159.6501771665644,104.81781304292963 158.88650091853924,103.97254028148018 156.8366330950521,100.84004294520128 156.39450474083424,99.69642655609641 156.1533438207116,98.6522521506995 156.1533438207116,97.90641158318613 156.1935373074375,97.26001527442713 156.07295684702694,96.16611139569432 156.03276336053386,94.82358881810796 155.79160243994556,93.28216832486214 155.71121546672657,93.33189166130614 155.63082849304192,92.43687063685502 155.4298610596452,91.69101821878576 155.3494740857277,91.04461163948872 154.90734573174268,85.27662871783832 154.90734573174268,84.33186478810967 155.02792619215325,82.8898522851232 155.2288936257828,81.54728414170677 155.14850665233098,81.19921016710578 155.1083131658379,81.09976040312904 155.02792619215325,81.09976040312904 154.98773270542733,80.95058570991387 155.2288936257828,80.10526137330453 155.4298610596452,78.6135080876993 155.67102198000066,77.61900273663923 155.99256987357512,77.1217491129355 156.39450474083424,76.12723996894783 156.876826581778,75.28190520839416 157.64050282980315,74.38684288252261 158.44437256432138,73.79013352739275 160.0119185470976,72.9945196378394 161.57946452964097,72.6464380522666 162.02159288385883,72.6464380522666 162.26275380398147,72.7458899653866 162.42352775111794,72.94479371592752 162.54410821129568,73.34260091360193 162.54410821129568,74.53602007901645 162.46372123761103,75.8786122877209 162.54410821129568,78.26543150248472 162.3833342641592,80.45333632137044 162.3833342641592,81.24893503964995 162.26275380398147,81.94508259053691 162.22256031725556,82.74067827453837 162.50391472456977,84.67993597505847 162.46372123761103,87.16614973195828 162.58430169778876,88.06118281601812 162.58430169778876,89.30428092452348 162.54410821129568,89.95069037971552 162.22256031725556,92.03908285751822 162.0617863703519,92.5363175185339 162.0617863703519,93.92857120657573 161.94120591017418,95.12192756679724 161.90101242344826,96.116388419352 161.78043196327053,96.36500323744258 161.41869058273733,96.46444912045263" stroke="#4dd2ff" stroke-linecap="round" stroke-linejoin="round" stroke-width="0.5"><title>2023-10-27 3.6km</title><desc>10389486363</desc></polyline><polyline fill="none" points="20.87607735162601,136.21583436543006 20.835883860010654,136.36500323741348 20.916270843474194,136.4147261820326 21.840721155982465,136.5141720524116 22.122075598919764,136.61361789749935 22.202462582616135,136.76278661785182 22.122075598919764,137.1605695936014 22.08188210707158,139.0500332051306 22.08188210707158,140.24337394174654 22.16226909076795,141.03893241059268 22.122075598919764,143.52504219749244 22.202462582616135,144.32059399259742 22.202462582616135,145.41447506909026 22.08188210707158,145.8122492475668 21.80052766413428,146.0111361852032 21.559366713045165,146.0111361852032 20.95646433555521,145.6630839780555 19.67027259641327,144.76809116633376 19.1075637107715,144.0719842305116 18.18311339826323,143.17698777848273 17.097889118362218,141.4864333382866 16.494986741105095,139.69642655612552 16.33421277347952,138.80142009348492 16.052858330775052,137.75724329895456 15.731310395989567,133.9782944608305 15.731310395989567,133.28216832465841 15.771503887837753,133.33189166116063 15.208795001963153,131.19378248328576 15.007827542722225,129.15510935994098 14.766666591865942,125.52525042518391 14.806860083714128,123.63572148475214 15.04802103457041,121.99480736811529 15.128408018499613,121.44783446620568 15.409762461204082,120.95058570991387 15.61072992044501,119.75718611554476 15.811697379685938,117.8179040090472 16.494986741105095,115.92833783655078 16.937115151202306,115.13272829627385 17.298856577835977,114.73492291933508 17.781178479781374,114.23766562904348 18.223306890111417,113.88958514976548 20.554529416840523,112.7458899654157 22.041688615223393,112.49726013489999 22.925945435650647,112.54698611368076 23.207299878587946,112.7458899654157 23.36807384598069,112.4475341499201 23.609234797069803,112.29835615685442 23.890589240007102,112.24863014643779 23.970976223703474,112.39780815856648 23.850395747926086,112.34808216095553 23.930782731855288,112.14917810677434 24.573878601193428,112.0 27.065875095548108,112.09945207755663 29.79903254075907,112.69616401195526 32.57238347781822,113.74040770670399 34.823219020850956,114.18793986516539 37.03386107226834,114.88409998305724 38.27985931956209,115.48080766925705 40.450307878665626,116.37586749196635 41.81688660173677,117.32065063819755 42.45998247107491,117.86762931136764 42.90211088117212,118.36488198689767 44.10791563661769,120.0058113312407 44.509850554866716,120.70196109460085 44.95197896519676,121.99480736811529 45.19313991628587,123.18820013551158 45.23333340813406,124.4810381916468 45.19313991628587,126.12194187866407 44.992172457044944,128.1606308100745 44.710818014340475,129.105385492614 44.22849611192942,131.4921240004187 43.94714166922495,132.58604094976909 43.786367701832205,133.23244498192798 43.62559373443946,133.4810616328905 43.34423929173499,133.67995483984123 42.94230437325314,133.82912467885762 40.20914692804217,133.87884794577258 38.92295518890023,134.22691063774982 38.03869836847298,134.32635706433211 35.948636792600155,134.0280177089735 35.26534743141383,134.22691063774982 35.18496044748463,134.32635706433211 35.18496044748463,134.92303509285557 35.62708885781467,136.56389497805503 35.74766933335923,137.1605695936014 35.70747584151104,137.55835216492414 35.385927906958386,138.40363878605422 35.14476695586927,139.54725895440788 35.024186480324715,140.54170855719713 34.943799496628344,143.42559810946113 35.104573463788256,144.91725677720387 35.104573463788256,146.0608579039108 34.9839929882437,147.70167107248562 34.943799496628344,147.9005570493755 34.7830255292356,148.0 31.446965706301853,147.60222804598743 30.442128410330042,147.35362036922015 26.704133668914437,147.0552909487742 25.498328913701698,146.80668292444898 24.975813519675285,146.75696130067809 24.01116971555166,146.50835308679962 22.403430041624233,146.45863142513554 21.679947188589722,146.21002302173292 21.15743179456331,145.9614144603256 20.23298148228787,145.2653096479189 19.429111645324156,144.56920359676587 18.866402759682387,144.02226225906634 17.700791496085003,142.08310044556856 16.977308643050492,141.03893241059268 16.494986741105095,140.0942065489362 16.61556721641682,139.54725895440788 16.374406265327707,138.50308415087056 16.374406265327707,137.65779774455586 16.45479324902408,137.4589065600885 16.45479324902408,137.0114010249672 16.575373724568635,136.36500323741348 17.25866308598779,136.3152802863624 18.062532922718674,136.4147261820326 18.66543530044146,136.21583436543006 18.82620926760137,135.42026608789456 19.067370218690485,135.22137376570026" stroke="#4dd2ff" stroke-linecap="round" stroke-linejoin="round" stroke-width="0.5"><title>2023-10-25 3.2km</title><desc>10389486356</desc></polyline><polyline fill="none" points="68.79797114687972,137.24515984018217 68.75772206508555,137.3447430478118 68.75772206508555,137.89245023753028 68.63697481923737,138.88827952949214 68.71747298305854,140.232645058044 68.8784693107009,141.17867729405407 68.63697481923737,143.7180156832619 68.63697481923737,145.46068936720258 68.55647665518336,145.8590136921266 68.27473308192566,146.05817570278305 68.0332385902293,145.95859471010044 67.30875511514023,145.56027048631222 66.06103357486427,144.56445815516054 65.29630101821385,143.61843409575522 64.33032305142842,142.074916252197 63.807084986241534,141.42763276587357 63.36434508464299,140.6309746990446 63.04235242912546,139.58535852757632 62.96185426530428,138.9878623194818 62.55936344596557,134.50661170866806 62.317868954269215,133.51077127773897 62.35811803629622,133.3116028876684 62.438616200117394,133.3116028876684 62.39836711809039,133.36139499463025 62.317868954269215,132.61451272529666 62.07637446280569,131.36970577813918 61.8751290529035,130.1248948755092 61.7946308888495,128.88008001673734 61.55313639715314,127.23691834599595 61.39214006974362,125.24519798898837 61.59338547941297,123.55222772274283 61.59338547941297,122.40697898165672 61.754381807288155,121.21193324713386 61.95562721695751,120.81358385863132 62.036125380545855,120.11647145400639 62.036125380545855,119.26997615204891 62.23737079044804,118.22430295919185 63.002103347331285,116.23253677369212 63.404594166669995,115.38603307795711 64.04857947770506,114.589322045882 65.01455744425766,113.7428147988685 65.73904091934673,113.29466316266917 66.34277714858763,113.09548449309659 68.15398583607748,112.64733211626299 69.80419819569215,112.44815311749699 70.00544360512868,112.3485635802499 70.12619085097685,112.14938442938728 70.36768534267321,112.14938442938728 70.72992708021775,112.0 71.97764862049371,112.0497948162083 72.94362658704631,112.0 74.23159720934927,112.14938442938728 76.16355314245448,112.64733211626299 77.0490329451859,113.045689809951 78.6187471409794,113.493841730844 80.0274650088977,113.99178770850995 80.75194848398678,114.19096592214191 81.5971792046912,114.29055499119568 82.76440258091316,114.73870548792183 83.73038054769859,114.98767776449677 85.82333280867897,115.68479929704336 87.07105434895493,116.2823310518288 88.19802864314988,117.07903864013497 89.40550110139884,118.22430295919185 90.12998457625508,119.17038834912819 91.21670978888869,120.86337755431305 91.6192006082274,122.00863080861745 91.86069509992376,123.2036741124466 91.94119326374494,124.44850701050018 91.90094418195076,125.54395668811048 91.45820428058505,129.22862857603468 90.93496621516533,130.9215743090026 90.49222631379962,133.11243439640384 90.25073182210326,133.66014750371687 89.88849008455873,133.90910775383236 89.36525201960467,133.8095236728841 87.87603598763235,133.9588997849496 87.19180159480311,133.90910775383236 85.58183831698261,134.15806784585584 81.99967002402991,134.058483828092 81.83867369638756,134.10827584005892 81.67767736851238,134.30744382500416 81.63742828648537,134.556403663737 81.67767736851238,135.05432286663563 82.12041726987809,136.49828497576527 82.20091543369927,137.39453464225517 82.03991910605691,138.63932244389434 81.67767736851238,139.98368882681825 81.63742828648537,141.0790950609662 81.71792645053938,142.67240775178652 81.5971792046912,144.0167602939764 81.71792645053938,144.86320212029386 81.71792645053938,146.20754714420764 81.67767736851238,147.75104870498762 81.5971792046912,147.85062924184604 81.39593379478902,148.0 79.86646868102252,147.95020975355874 79.14198520616628,147.75104870498762 77.57227101060562,147.60167785192607 76.64654212561436,147.4025166259671 75.11707701184787,147.25314564013388 73.26561924256384,146.90461311829858 68.9589674747549,146.40670897782547 68.43572940956801,146.25733761215815 66.90626429556869,145.36110822265618 65.94028632901609,144.56445815516054 65.53779550967738,144.0167602939764 65.21580285415985,143.41927084483905 63.968081313883886,141.62679702942842 63.444843248697,140.73055704604485 63.283846920821816,140.232645058044 63.283846920821816,139.48577588965418 62.96185426530428,138.48994811656303 63.04235242912546,137.6434925190115 63.122850593179464,137.4443262302375 63.002103347331285,137.0459933488455 63.002103347331285,136.4484932674386 63.08260151115246,136.348909831926 63.56559049454518,136.19953463127604 64.33032305142842,136.0999511324335" stroke="#4dd2ff" stroke-linecap="round" stroke-linejoin="round" stroke-width="0.5"><title>2023-10-23 3.1km</title><desc>10389486351</desc></polyline><polyline fill="none" points="114.65541450097226,135.55409475110355 114.33475237339735,135.8020250267 114.17442130949348,136.04995514452457 114.17442130949348,136.14912714762613 114.49508343706839,136.34747107807198 115.13640769268386,136.49622895967332 115.4570698204916,136.49622895967332 115.5773181184195,136.69457271366264 115.5773181184195,136.84333046292886 115.5372353522107,138.38049055080046 115.41698705451563,139.1242755157291 115.3368215225637,140.41349942889065 115.49715258646756,142.39691251434851 115.4570698204916,145.37201323520276 115.3368215225637,145.81827638638788 115.01615939475596,145.96703065678594 114.73558003292419,145.86786114948336 113.09218662814237,144.8761646906496 112.45086237275973,144.23156064053182 111.20829662773758,142.39691251434851 110.96780003188178,142.00023070391035 110.76738620200194,141.40520723199006 110.04589641443454,139.96723009482957 109.72523428685963,138.8267616998928 109.68515152065083,137.3391892176296 109.04382726526819,133.52106054860633 109.04382726526819,133.22354245965835 109.12399279745296,133.17395608930383 109.04382726526819,132.38057330826996 108.76324790343642,131.24008273362415 108.68308237148449,129.60372086751158 108.32233747793362,127.22354589961469 108.24217194598168,125.1904682808381 108.40250300988555,123.7028437978006 108.60291683976538,122.56232785212342 108.68308237148449,121.02510543164681 108.76324790343642,120.67798985313857 108.88349620159715,119.43828883682727 109.16407556319609,117.90105410513934 109.92564811650664,116.16545922358637 110.56697237235494,115.12409858795581 111.12813109578565,114.33067909473903 111.88970364909619,113.78520225698594 113.25251769204624,113.09095790574793 114.37483513937332,112.69424629298737 116.90004939516075,112.148767166771 117.50129088480026,112.148767166771 117.46120811882429,112.39671231879038 117.42112535284832,112.29753427678952 117.46120811882429,112.24794524649042 117.98228407651186,112.148767166771 120.54758109827526,112.0 121.18890535389073,112.04958906187676 121.91039514122531,112.34712330094771 123.8343679078389,112.84301319497172 126.07900280226022,113.98355755902594 128.84471365413629,114.47944537259173 131.69059003773145,115.37204184857546 133.57448003836907,116.21504775591893 134.33605259191245,116.8596981028677 135.1377079114318,117.35558226026478 135.89928046474233,118.14899560066988 136.9815151458606,119.43828883682727 137.78317046514712,120.87634165002964 138.0637498269789,121.52098429363105 138.1839981249068,121.96727473058854 138.4244947207626,123.75243137194775 138.34432918881066,127.22354589961469 138.1839981249068,128.56239610616467 137.5827566352673,130.94256290484918 137.02159791183658,132.52933270274661 136.74101855023764,133.66981950803893 136.6207702520769,133.91775098117068 136.46043918817304,134.01692352630198 135.89928046474233,133.81857841086457 133.4141489744652,133.76899211629643 132.89307301701047,133.91775098117068 132.0112521655392,134.31444101015222 131.57034174003638,134.36402723551146 130.16744493111037,134.06650978929247 128.60421705828048,133.96733725682134 128.36372046242468,134.06650978929247 128.64429982425645,135.20699210074963 129.16537578194402,136.59540084926994 129.24554131366313,137.28960337044555 129.16537578194402,137.8350473419705 128.60421705828048,139.32261793338694 128.40380322863348,140.71101203447324 128.60421705828048,142.248156882677 128.56413429230452,142.69442360731773 128.36372046242468,143.339030197385 128.24347216449678,145.22325873802765 128.24347216449678,147.50415479554795 128.2033893985208,147.85124650475336 128.12322386656888,147.95041550786118 127.80256173899397,148.0 123.5938713119831,147.25623195702792 122.51163663086481,147.25623195702792 119.86617407691665,146.7108011576056 117.7818702463992,146.5620471709699 115.3368215225637,146.16536959566292 114.77566279890016,146.01661540105124 113.41284875618294,145.07450418404187 112.29053130908869,143.93405071963207 110.96780003188178,141.90106018830556 110.16614471236244,140.81018285258324 110.0058136486914,140.26474304086878 110.0058136486914,139.37220352212898 109.6450687549077,138.08297616790514 109.68515152065083,137.8846331196837 109.8855653507635,137.28960337044555 109.92564811650664,136.59540084926994 110.08597918064333,136.09954114927677 110.52688960614614,135.9507831162773 111.88970364909619,136.00036913348595 112.00995194702409,135.9507831162773 112.17028301092796,135.55409475110355 112.53102790447883,135.00864759052638" stroke="#4dd2ff" stroke-linecap="round" stroke-linejoin="round" stroke-width="0.5"><title>2023-10-20 3.2km</title><desc>10389486346</desc></polyline><polyline fill="none" points="161.829436365515,135.50244960805867 161.86968544730917,136.19953463127604 162.3124253489077,136.54807667766 162.35267443070188,136.84682675643126 161.90993452933617,140.28243628525524 162.11117993900552,142.47324401992955 161.99043269339018,143.66822489266633 162.11117993900552,144.46487678281846 162.11117993900552,145.41089879814535 161.90993452933617,145.95859471010044 161.62819095584564,146.10796618970926 161.3464473823551,146.05817570278305 160.05847676005214,145.26152705281856 159.3339932851959,144.66403950224048 157.64353184355423,142.2242892125214 156.91904836846516,140.97951280264533 156.7178029587958,140.48160113123595 156.55680663115345,139.933897561481 156.3153121394571,138.78869671424036 156.23481397540309,137.39453464225517 155.87257223809138,134.35723580533522 155.7115759102162,133.70993956635357 155.7518249922432,133.16222652877332 155.59082866436802,132.0667981559236 155.42983233672567,131.31991341806133 155.30908509064466,130.17468738753814 154.86634518927895,127.58546836741152 154.8260961077176,125.24519798898837 155.1078396809753,123.30326089001028 155.1883378450293,122.25759846437722 155.1883378450293,121.01275860355236 155.34933417267166,119.96709006320452 155.42983233672567,118.77203688456211 155.63107774639502,117.97533273985027 156.39581030327827,116.03335959816468 156.79830112261698,115.28644428757252 157.44228643388487,114.5395275526389 158.48876256449148,113.64322559069842 160.34022033354267,112.69712685010745 162.35267443070188,112.24897401739145 162.95641065994278,112.29876880199299 163.19790515163913,112.44815311749699 163.15765606961213,112.74692157766549 163.19790515163913,112.74692157766549 163.11740698781796,112.89630572224269 163.15765606961213,113.09548449309659 163.2381542334333,112.5975373761321 163.51989780715667,112.3485635802499 163.8016413806472,112.24897401739145 165.2103592485655,112.0 167.66555324732326,112.14938442938728 170.16099632764235,112.69712685010745 170.96597796631977,113.09548449309659 172.61619032616727,113.69302019802853 175.31287881615572,114.34034951610374 178.57305445359088,115.33623868584982 179.82077599386685,115.88397664992954 180.58550855051726,116.2823310518288 181.87347917282023,117.27821528402274 183.6041896964889,119.17038834912819 184.16767684346996,120.06667766335886 184.89216031855904,121.46090140912565 185.13365481002256,122.65594638418406 185.17390389204957,123.4526410086255 185.01290756440721,125.49416358745657 185.0531566462014,125.99209430962219 185.0531566462014,126.6394033022807 184.89216031855904,128.3821529656998 184.69091490888968,129.3780064349703 183.84568418795243,132.66430492079235 183.32244612276554,133.70993956635357 183.08095163106918,133.90910775383236 182.83945713937283,133.9588997849496 181.06849753390998,133.90910775383236 179.82077599386685,133.75973162276205 178.57305445359088,134.2078598451917 177.68757465062663,134.35723580533522 176.11786045506597,134.058483828092 175.27262973436154,134.15806784585584 175.07138432445936,134.30744382500416 175.15188248851337,134.95473907669657 175.67512055370025,136.64766006253194 175.71536963549443,137.0459933488455 175.51412422582507,138.1911992909445 175.11163340648636,139.38619322612067 174.95063707861118,140.232645058044 174.95063707861118,141.1288861806388 174.829889832763,143.17031663865782 174.95063707861118,143.96696954141953 174.99088616063818,144.7636208240001 174.95063707861118,146.40670897782547 174.87013891479,147.7012584268523 174.66889350512065,148.0 173.17967747314833,148.0 171.00622704834677,147.7012584268523 169.47676193458028,147.4025166259671 166.3775826250203,147.0539842370199 165.57260098611005,146.8548227326537 165.17011016700417,146.6556611272099 164.2443812820129,146.50628985645017 162.71491616824642,146.40670897782547 162.03068177518435,146.20754714420764 161.86968544730917,146.05817570278305 161.829436365515,145.8590136921266 161.95018361136317,144.0167602939764 161.789187283488,141.87575221635052 161.90993452933617,140.53139232681133 161.90993452933617,138.53973956531263 161.99043269339018,137.59370095626218 161.95018361136317,136.59786837321008 161.86968544730917,136.4484932674386 161.62819095584564,136.59786837321008 161.30619830009528,136.49828497576527 161.10495289065875,136.0999511324335 160.9037074809894,135.9007840588456" stroke="#4dd2ff" stroke-linecap="round" stroke-linejoin="round" stroke-width="0.5"><title>2023-10-19 3.1km</title><desc>10389486342</desc></polyline><polyline fill="none" points="20.521341202314943,175.9007840588456 20.400593956466764,176.19953463127604 20.48109212052077,176.39870155294193 22.010557234287262,176.69745174545096 22.211802643956617,177.0459933488455 22.211802643956617,177.84265870650415 22.050806316314265,179.087445084122 22.13130448013544,179.73473243735498 22.050806316314265,180.33222750626737 22.171553561929613,181.82596119176014 22.211802643956617,184.31550467689522 22.13130448013544,185.75943264891976 22.050806316314265,185.95859471010044 21.889809988439083,186.10796618970926 21.4068210052792,186.05817570278305 20.521341202314943,185.56027048631222 19.23337058024481,184.5146674721036 18.468638023128733,183.5188524828991 16.939172909595072,181.0790950609662 16.37568576238118,179.43598456101608 16.295187598327175,178.93807092757197 15.892696778988466,174.6559875549283 15.731700451346114,174.2078598451917 15.570704123470932,172.66430492079235 15.40970779559575,171.5688751556445 15.208462386159226,169.129043305089 15.047466058051214,168.48173842657707 14.966967894462869,167.33650409802794 14.966967894462869,166.0418873471208 14.84622064861469,165.39457736702752 14.966967894462869,164.24933401265298 15.047466058051214,162.4567724748631 15.248711467953399,161.21193324713386 15.369458713568747,159.12059443828184 15.651202287292108,157.87574460782344 16.174440352711827,156.5810965873825 16.979421991389245,155.23664988277596 17.623407302657142,154.5395275526389 19.11262333439663,153.44404709836817 20.7628356940113,152.69712685010745 23.057033364661038,152.09958962598466 23.298527856357396,152.199179226649 23.419275102205575,152.39835835201666 23.3387769383844,152.9461004245095 23.258278774563223,152.9461004245095 23.258278774563223,153.0954844930966 23.21802969253622,152.99589512031525 23.258278774563223,152.9461004245095 23.137531528482214,152.8963057222427 23.057033364661038,152.69712685010745 23.137531528482214,152.49794787660358 23.37902602017857,152.24897401739145 23.862015003571287,152.09958962598466 25.713472773088142,152.09958962598466 27.04169247718528,152.0 27.44418329652399,152.09958962598466 27.88692319765687,152.14938442938728 29.738380967173725,152.647332116263 30.986102507216856,153.045689809951 32.23382404772565,153.59343097702367 33.24005109607242,153.8921985635825 34.89026345568709,154.24076045982656 36.94296663464047,155.08726663081325 38.83467348618433,155.58521058273618 39.881149616790935,156.03335959816468 41.57161105819978,157.12883281050017 42.899830762296915,158.42347902056645 43.34257066366263,159.02100659740972 43.62431423715316,159.2699761520489 43.94630689267069,159.917296253494 44.389046794269234,160.51482155142003 44.71103944978677,161.26172689226223 44.87203577742912,162.1082178898505 45.15377935115248,162.65594638418406 45.15377935115248,163.30326089001028 45.073281187331304,165.0958185538766 44.87203577742912,167.28671122525702 44.831786695634946,169.07925065996824 44.71103944978677,169.7265545510745 44.46954495809041,170.22447989330976 44.42929587606341,170.7224046024785 43.94630689267069,172.7140971100307 43.50356699130498,173.8095236728841 43.26207249960862,173.9588997849496 42.69858535262756,173.90910775383236 40.64588217344135,173.90910775383236 37.98944276524708,174.35723580533522 37.34545745444484,174.35723580533522 36.33923040586524,174.2078598451917 35.212256111437455,174.15806784585584 35.01101070153527,174.2078598451917 34.85001437389292,174.35723580533522 34.85001437389292,174.50661170866806 35.01101070153527,174.80536334434873 35.614746930776164,176.79703509251704 35.25250519323163,178.0916162984213 35.05125978356227,180.38201872084755 34.85001437389292,182.02512525272323 34.809765291865915,182.92136227432638 34.9707616197411,183.76780646760017 35.01101070153527,185.36110822265618 34.930512537714094,187.7012584268523 34.809765291865915,188.0 33.24005109607242,187.95020975355874 30.34211719641462,187.55188755484414 29.698131885146722,187.4025166259671 27.846674115862697,187.20335529878503 24.103509495267645,186.55608028627466 22.493546217447147,186.45649942028103 21.7288136605639,186.25733761215815 21.084828349761665,185.8590136921266 20.642088448163122,185.51047992991516 19.91760497307405,185.06236463718233 18.95162700652145,184.16613251384115 18.388139859307557,183.46906166698318 17.502660056808963,181.7761701605923 17.05992015544325,181.17867729405407 16.65742933587171,180.38201872084755 16.536682090023533,179.933897561481 16.61718025407754,179.28661053749966" stroke="#4dd2ff" stroke-linecap="round" stroke-linejoin="round" stroke-width="0.5"><title>2023-10-17 3.1km</title><desc>10389486303</desc></polyline><polyline fill="none" points="68.98747772909701,152.60002700067707 69.27039521629922,152.25001136152423 70.24039802933112,152.0500022849592 72.22082043951377,152.0 73.35249038832262,152.0500022849592 74.68624425656162,152.65002920938423 75.85833098902367,152.80003579735057 76.50499953120016,153.0500466504891 78.68750586081296,153.95008440542733 81.03167932596989,154.30009853164665 82.24418284231797,154.80011817163904 83.2141856555827,155.05012775337673 84.83085701102391,155.7001519219193 85.55835912073962,155.90015914215473 86.56877871789038,156.30017327782116 87.41753117926419,156.90019371834933 88.34711720864289,157.75022110901773 89.31712002190761,158.8502538287721 90.16587248328142,160.05028601415688 90.77212424157187,161.35031675023492 91.17629208043218,162.90034778119298 91.25712564820424,163.60035979311215 90.85295780934393,168.90041031493456 89.68087107688189,173.35039758172934 89.51920394110493,173.75039397116052 89.31712002190761,174.00039150810335 89.11503610247746,174.10039047838654 88.6300346958451,174.00039150810335 85.72002625628375,173.9503920133575 85.23502484965138,174.200389423233 84.38627238827758,174.40038723649923 83.94168776553124,174.70038376600132 82.8100178167224,174.200389423233 82.00168213900179,174.10039047838654 81.67834786814637,174.15038995389477 81.27418002928607,174.00039150810335 81.11251289374195,174.10039047838654 80.99126254208386,174.25038888605195 80.87001219042577,174.65038436022587 80.87001219042577,175.25037680906826 81.11251289374195,176.15036376623902 81.3145968131721,176.65035563040874 81.35501359705813,177.15034685921273 80.95084575843066,179.50029712126707 80.87001219042577,180.75026494523627 80.66792827099562,181.75023634472745 80.82959540677257,184.35015008668415 80.78917862265371,186.0000864333124 80.9104289743118,186.85005094157532 80.87001219042577,187.70001361315371 80.74876183876768,188.0 79.69792545796372,187.95000228466233 78.04083731886931,187.70001361315371 77.43458556057885,187.70001361315371 74.84791139210574,187.3000314081437 73.10998968500644,187.1500379764766 71.53373511368409,186.90004879655316 69.43206235207617,186.70005733822472 68.13872526749037,186.40006996018928 66.44122034450993,185.50010645310977 65.71371823456138,184.95012774071074 64.66288185375743,183.80016976658953 63.127044066088274,181.50024373320048 62.48037552414462,180.25027829236933 62.48037552414462,179.65029346980737 62.11662446917035,178.45032107952284 62.076207685051486,177.90033251067507 62.31870838836767,176.55035730852978 62.43995874025859,176.45035896109766 62.68245944357477,176.3503605882579 64.0566300956998,176.30036139220465" stroke="#4dd2ff" stroke-linecap="round" stroke-linejoin="round" stroke-width="0.5"><title>2023-10-16 2.0km</title><desc>10389486277</desc></polyline><polyline fill="none" points="113.97542059211992,176.24932637109305 114.9413986816071,176.24932637109305 115.34388955216855,176.29911810459453 115.5048859003,176.3987015527673 115.625633161515,176.64766006241553 115.5451349876821,177.84265870641684 115.4243877264671,178.44015666141058 115.38413863931783,179.3364018848515 115.3036404652521,179.9338975615101 115.5048859003,181.9255432348873 115.5451349876821,184.26571396223153 115.4243877264671,185.75943264894886 115.34388955216855,186.00838520965772 115.14264411688782,186.10796618965105 114.74015324632637,186.05817570292857 114.2571642016992,185.75943264894886 113.08994067693129,184.86320212020655 112.44595528393984,184.26571396223153 112.08371350052767,183.76780646757106 111.39947902038693,182.62261682827375 110.79574271454476,181.87575221637962 110.35300275683403,181.02930393491988 110.15175732178614,180.48160113111953 109.99076097342186,179.5355672116566 109.82976462529041,179.0874450841511 109.66876827692613,177.89245023738476 109.74926645099185,176.64766006241553 109.42727375449613,175.6518250743975 109.10528105823323,174.25765183815383 109.10528105823323,173.11243439634563 108.86378653580323,171.36970577811007 108.46129566524178,169.62696940646856 108.3002993168775,168.5315311473969 108.1795520556625,167.18712546033203 108.13930296874605,165.19540485015023 108.3002993168775,163.85098771302728 108.6625411005225,161.90904370197677 108.58204292645678,161.1123459378141 108.6625411005225,160.1662652383675 108.86378653580323,159.36956392935826 109.10528105823323,157.97533273973386 110.07125914725475,156.03335959804826 110.83599180169404,154.83829441739363 111.43972810753621,154.1909659221419 112.24470984889194,153.5436363570625 113.33143519912846,152.99589512037346 113.77417515683919,152.84651101366035 115.867127683945,152.44815311738057 117.11484938277863,152.09958962586825 118.08082747203298,152.049794816121 119.28830008395016,152.0 121.30075443699025,152.24897401744965 122.83021974517033,152.69712685007835 124.15843961806968,153.04568980980548 124.76217592391185,153.29466316255275 125.96964853582904,153.69302019788302 128.30409558536485,154.29055499107926 129.7128136320971,154.88808887283085 130.75928989565,155.13706105432357 132.2887552040629,155.58521058259066 133.57672599004582,156.1827424891817 134.62320225359872,156.9296560906223 136.31366390991025,158.57286100025522 137.44063834752887,160.1662652383675 137.9638764790725,161.16213959563174 138.2053710015025,162.15801142071723 138.40661643701605,163.40284764196258 138.52736369799823,166.2410594332905 138.28586917556822,168.5813238619303 137.88337830500677,170.27427239250392 137.68213286995888,171.36970577811007 137.44063834752887,172.21617493251688 136.79665295453742,173.70993956626626 136.63565660617314,173.85931571634137 136.39416208397597,173.95889978477499 135.26718764635734,173.70993956626626 134.34145864401944,173.85931571634137 133.49622781551443,173.85931571634137 131.36302620149218,174.25765183815383 130.23605176410638,174.10827584002982 129.22982458746992,174.10827584002982 128.7870846297592,174.0086918095767 128.62608828162774,174.05848382788827 128.54559010756202,174.15806784568122 128.50534102041274,174.70577949096332 128.62608828162774,175.6518250743975 128.94808097812347,176.69745174542186 128.94808097812347,177.3447430478118 128.46509193326347,179.78452372786705 128.22359741083346,181.67658807936823 128.26384649798274,183.0209440391336 128.46509193326347,183.76780646757106 128.50534102041274,184.41508608715958 128.38459375919774,185.75943264894886 128.34434467204846,187.05398423713632 128.22359741083346,187.65146814260515 128.02235197578557,187.95020975370426 127.61986110499129,188.0 125.20491588162258,187.5020972516213 120.01278365100734,186.8050323408097 118.72481286502443,186.7054515381169 117.19534755684435,186.40670897779637 115.94762585801072,186.40670897779637 115.625633161515,186.35691852899618 115.38413863931783,186.1577566700871 115.22314229095355,185.90880420431495 115.38413863931783,185.41089879814535 115.46463681338355,184.81341147524654 115.14264411688782,182.5230349621561 115.34388955216855,181.17867729396676 115.38413863931783,179.38619322609156 115.58538407436572,178.19119929085718 115.38413863931783,176.54807667751447 115.3036404652521,176.4484932674095 115.1828932040371,176.4484932674095" stroke="#4dd2ff" stroke-linecap="round" stroke-linejoin="round" stroke-width="0.5"><title>2023-10-13 3.0km</title><desc>10389482249</desc></polyline><polyline fill="none" points="161.06788962660357,175.80036908315378 160.90622247057036,176.20036298126797 160.9870560488198,176.400359777821 161.1891399936285,176.55035730844247 162.0378925630357,176.75035392702557 162.15914293006063,177.5003403411829 162.07830935204402,178.2503253252653 161.9974757740274,180.1502808855439 162.15914293006063,182.30021953082178 162.07830935204402,183.6501750004245 162.07830935204402,184.75013529110583 161.95705898525193,185.80009451758815 161.8358086179942,186.0000864333997 161.63372467295267,186.10008235325222 161.1891399936285,186.0000864333997 160.5828881582711,185.6001024999132 159.087466964731,184.30015190757695 157.02621072460897,181.3502480899915 156.6220428342931,180.45027302973904 156.21787494421005,179.2503030798107 156.17745815520175,177.55033938455745 155.7732902651187,175.30037613844615 155.7328734761104,174.40038723652833 155.61162310908549,173.40039715263993 155.6520398980938,173.3003980043868 155.69245668686926,173.35039758161292 155.69245668686926,173.25039842084516 155.32870558579452,171.15041016886244 154.96495448471978,167.75040541938506 154.80328732845373,165.9503910066851 154.84370411769487,165.00038007908734 155.0862048517447,162.90034778122208 155.2074552187696,160.40029471192975 155.61162310908549,157.85022421073518 156.4603756784927,156.0001627143356 156.78370999055915,155.5001445999369 157.43037861492485,154.70011429456645 158.4407983403653,153.8500803122588 160.29997063521296,152.75003360773553 162.19955971906893,152.30001361481845 163.37164660077542,152.15000683593098 163.69498091284186,152.0 167.3324919247534,152.15000683593098 169.75749926595017,152.65002920947154 172.5058409194462,153.70007412455743 174.36501321406104,154.0000864425965 175.21376578346826,154.30009853179217 176.34543587593362,154.80011817169725 178.56835927208886,155.5001445999369 179.78086294280365,156.0001627143356 181.11461698054336,156.70018700658693 182.0846199169755,157.55021482947632 183.66087468876503,159.45027037902037 184.46921046916395,160.85030543711036 184.71171120321378,161.50032002016087 185.07546230452135,163.1503522139974 185.19671267154627,164.2503698313376 185.19671267154627,165.50038611644413 185.07546230452135,166.30039445424336 185.03504551528022,167.2004018893349 184.873378359247,168.50040899342275 184.67129441420548,169.40041139465757 184.3075433128979,170.4504115935415 183.98420900083147,172.60040325514274 183.82254184479825,173.10039963168674 183.66087468876503,173.35039758161292 183.33754037646577,173.6003953727777 181.3975345036015,173.9503920133575 180.8316994572524,174.00039150798693 180.30628120014444,173.9003925122961 179.61919578677043,173.9003925122961 177.3558556016069,174.55038552981569 177.11335486755706,174.55038552981569 176.18376872013323,174.20038942308747 175.45626651775092,174.15038995392388 175.2945993617177,174.30038834249717 175.2541825727094,175.05037942784838 175.41584972874261,175.80036908315378 175.77960082981735,176.85035219829297 175.82001761882566,178.20032637083204 175.45626651775092,180.70026630852954 175.13293220545165,182.20022264504223 175.09251541644335,183.3001869902073 175.17334899445996,183.85016800934682 175.01168183842674,185.25011622457532 174.97126504941843,187.25003360401024 174.89043147140183,187.75001136021456 174.7691811043769,187.95000228483696 174.40543000306934,188.0 172.18250660714693,187.60001810005633 170.92958614742383,187.60001810005633 169.99999999976717,187.50002256163862 167.37290871376172,187.10004015328013 165.63498678593896,186.90004879661137 163.81623127986677,186.6000615709636 163.2908130227588,186.6000615709636 162.6441443983931,186.45006787250168 162.15914293006063,186.20007824760978 161.9166421960108,185.85009250606527 161.8762254070025,184.20015553024132 161.75497503997758,183.55017845783732 161.79539182898588,182.8002035782847 161.67414146196097,182.30021953082178 161.9974757740274,181.000258033484 162.07830935204402,179.2503030798107 162.23997650807723,178.15032741011237 161.9974757740274,176.60035647253972 161.95705898525193,176.50035813794238 161.8762254070025,176.60035647253972" stroke="#4dd2ff" stroke-linecap="round" stroke-linejoin="round" stroke-width="0.5"><title>2023-10-10 3.0km</title><desc>10389482309</desc></polyline><polyline fill="none" points="20.640674146125093,216.19871313960175 20.640674146125093,216.39705704484368 20.760922444052994,216.49622895967332 21.803074359195307,216.69457271366264 22.083653721027076,216.6449867845513 22.243984784930944,216.89291636671987 22.083653721027076,217.8350473419705 22.003488189075142,219.76888800488086 22.003488189075142,220.90935364557663 22.203902018722147,222.29774209941388 22.243984784930944,225.57035247661406 22.123736487003043,225.86786114948336 21.88323989114724,226.01661540105124 21.562577763339505,225.96703065678594 21.281998401507735,225.81827638638788 19.758853294653818,224.77699490601663 19.19769457099028,224.23156064053182 18.596453081816435,223.43820034735836 17.15347350668162,221.10769515580614 16.712563080945984,220.01681560167344 16.35181818716228,218.67800470697694 16.35181818716228,217.48794672108488 16.191487123491243,216.19871313960175 16.151404357515275,214.66154445472057 15.870824995683506,213.32271518110065 15.790659463964403,213.37230153250857 15.870824995683506,213.37230153250857 15.670411166036502,212.28140034715761 15.630328399827704,210.9921495586459 15.269583506276831,208.81033082524664 14.989004144445062,205.24005566598498 15.069169676396996,204.74418153159786 15.109252442372963,203.1077924161218 15.309666272252798,201.22345705213957 15.510080102132633,200.18210991940578 15.5501628681086,199.4878769532079 15.710493931779638,198.29776042239973 16.07123882556334,197.10764026045217 16.431983719347045,196.36381331522716 17.03322520898655,195.42163048189832 17.674549464369193,194.62821159375017 18.836949677439407,193.78520225698594 20.239846486365423,193.1901357457391 22.72497797640972,192.4958903353545 23.36630223202519,192.24794524649042 24.248123083263636,192.24794524649042 26.49275797745213,192.0 27.57499265857041,192.24794524649042 28.65722733992152,192.59506832674379 30.180372446542606,192.9421910981764 33.707655852194875,194.08273517218186 35.23080095881596,194.42985661971034 36.152704576030374,194.8761551695934 38.3572567042429,195.66957355337217 39.76015351340175,196.06628214009106 41.04280202416703,196.81010965252062 42.64611266297288,198.29776042239973 43.72834734432399,199.58705316690612 44.369671599706635,200.77716576409875 44.73041649349034,201.96727473058854 45.01099585532211,203.3061429775844 44.97091308934614,206.03345296974294 44.489919897634536,209.55413403720013 44.00892670592293,211.53760233544745 43.72834734432399,213.22354245965835 43.48785074846819,213.66981950803893 43.20727138663642,213.91775098117068 42.92669202503748,213.96733725682134 41.72420904575847,213.91775098117068 41.002719258423895,214.01692352630198 40.28122947085649,213.96733725682134 39.27916032169014,214.11609604617115 38.557670534122735,214.11609604617115 37.59568415093236,214.31444101015222 36.83411159762181,214.26485477865208 35.95229074615054,214.36402723551146 35.4312147886958,214.31444101015222 35.15063542686403,214.46319966713781 35.11055266088806,214.85988914151676 35.11055266088806,215.30616431808448 35.35104925674386,216.04995514452457 35.591545852599666,217.28960337044555 35.55146308639087,217.68628997087944 35.23080095881596,218.87634735155734 34.99030436296016,220.61184119107202 34.70972500136122,221.70271908139694 34.789890533080325,222.69442360731773 34.99030436296016,223.88446571084205 35.03038712893613,224.77699490601663 34.99030436296016,227.60332388678216 34.95022159721702,227.85124650475336 34.82997329905629,228.0 34.66964223515242,228.0 34.389062873553485,227.90083100952324 33.827904149889946,227.75207747647073 31.62335202144459,227.4049856789934 27.735323722707108,226.95872434272314 25.731185424141586,226.6116318393906 24.60886797704734,226.5620471709699 24.007626487407833,226.4132931274362 23.08572286996059,226.31412373372586 22.404315848834813,226.115784870286 22.243984784930944,225.86786114948336 22.16381925297901,225.61993727111258 22.123736487003043,224.97533444990404 22.203902018722147,223.88446571084205 21.963405422866344,222.59525326816947 22.16381925297901,220.71101203447324 22.04357095505111,220.16557208404993 22.16381925297901,219.22344673718908 22.083653721027076,218.72759037755895 22.16381925297901,218.18214765400626 22.04357095505111,217.58711835858412 22.003488189075142,216.59540084926994 21.88323989114724,216.39705704484368 21.60266052908264,216.39705704484368" stroke="#4dd2ff" stroke-linecap="round" stroke-linejoin="round" stroke-width="0.5"><title>2023-10-08 3.0km</title><desc>10389482199</desc></polyline><polyline fill="none" points="69.92791148507968,192.1502154591435 70.57547955051996,192.25035906667472 72.11345370602794,192.0 73.89426588616334,192.05007182614645 75.31082102959044,192.40057443018304 76.48453814839013,192.9012918950466 78.14393131621182,193.35193706888822 79.92474349634722,193.90272491483483 80.81514958641492,194.1030112131266 85.38859904906712,195.55508383069537 85.9147481021937,195.75536928887595 87.61461427411996,196.7567950518569 88.7073853847105,197.75821826889296 89.23353443806991,198.4091419944889 90.56914357305504,200.26176517191925 91.09529262618162,201.41339140373748 91.33813065080903,202.51494377924246 91.50002266722731,203.86684475661605 91.21671163849533,207.22154195376788 91.17623863439076,208.0727292355441 90.93340060999617,209.3244718965143 90.48819756461307,210.42600214775302 89.96204851171933,212.97953770065214 89.75968349119648,213.5302981006098 89.51684546656907,213.83071253972594 89.23353443806991,213.88078159056022 86.15758612682112,213.88078159056022 83.89109789766371,214.63181659035035 81.58413666416891,214.48160970499157 81.42224464775063,214.48160970499157 81.30082563543692,214.63181659035035 81.26035263156518,214.78202341854922 81.4627176518552,214.98229910014197 81.74602868035436,215.93360719786142 81.8269746885635,216.98505031690001 81.34129863954149,219.5886116756301 81.0579876108095,222.29229179603863 81.01751460670494,223.24358223986928 81.21987962722778,224.44520899065537 81.13893361925147,225.2462914545904 81.13893361925147,227.34912517195335 81.0579876108095,227.89986548107117 80.9770416028332,228.0 77.29399823024869,227.5493944643822 75.83697008271702,227.24899048756924 73.36811683303677,227.048721042549 71.70872366521508,226.7483166838938 68.55182934598997,226.44791209633695 68.02568029239774,226.29770971651305 66.52817914099433,225.49662939060363 65.43540803040378,224.3951412824972 64.46405593212694,223.14344651199644 63.41175782564096,221.59133947268128 62.84513576840982,220.4397722335416 62.44040572736412,218.93772294919472 62.44040572736412,218.23676465649623 62.278513711178675,217.48573653012863 62.03567568655126,215.13250579475425 61.83331066602841,213.9809196732822 61.87378367013298,213.5302981006098 62.1166216947604,213.33002168062376 63.978379883104935,213.6304362724477 66.52817914099433,213.48022900524666 67.78284226800315,213.5302981006098 68.14709930494428,213.6304362724477 68.26851831702515,213.9809196732822 68.06615329673514,215.88353840779746 68.06615329673514,216.48436346740345 67.4590582351666,216.53443218095344 67.21622021053918,216.4342947473924" stroke="#4dd2ff" stroke-linecap="round" stroke-linejoin="round" stroke-width="0.5"><title>2023-10-07 2.2km</title><desc>10389482165</desc></polyline><polyline fill="none" points="114.40122523065656,214.70038376611774 115.49247825657949,215.3003761387081 115.6945621506311,215.9503668428806 115.573311814107,216.45035896124318 115.3308111417573,216.95035044426913 115.4116446992848,217.00034955749288 115.24997758422978,218.15032741017058 115.29039436299354,220.55027036051615 115.37122792052105,221.70023783526267 115.20956080546603,223.85016800943413 115.3308111417573,225.4501084202493 115.24997758422978,225.9500884640729 115.04789369064383,226.25007618544623 114.60330912424251,226.15008030369063 113.83539032819681,225.7000985214545 113.39080576202832,225.35011233508703 112.50163662969135,224.5001445861417 111.93580172699876,223.75017151769134 110.4403809136711,221.55024226839305 110.03621312626638,220.800263575773 109.59162855986506,218.95031002064934 109.42996144504286,216.40035977805383 109.1470439939294,215.20037747349124 109.18746077246033,215.15037813142408 109.1470439939294,214.3503877928597 109.02579365763813,213.75039397142245 109.10662721516564,213.30039800464874 108.50037553394213,209.60041164892027 108.2578748613596,207.00040041544707 108.17704130406491,205.3503843723738 108.33870841911994,204.0003660977818 108.45995875517838,201.35031675046775 108.70245942776091,200.2002897800994 108.86412654258311,197.9502272871032 109.95537956850603,195.80015554485726 110.64246480725706,194.8501201007457 111.73371783341281,193.90008236200083 113.10788831068203,193.10004880206543 114.03747422201559,192.70003141183406 116.34123061038554,192.20000910197268 118.96832122886553,192.0 119.93832391873002,192.0 121.8379125194624,192.40001810219837 125.7987568366807,193.750076193508 128.62793134874664,194.250096532749 130.12335216230713,195.100129650702 132.7504427805543,195.9501609314757 134.52878104546107,196.95019538054476 135.49878373532556,197.75022110907594 137.07503810641356,199.60027437389363 137.4792058938183,200.2002897800994 137.92379045998678,201.25031453868723 138.44920858368278,203.30035479782964 138.40879180515185,205.550386685587 138.48962536244653,206.1003925226978 138.36837502615526,206.7503984294599 138.1662911325693,208.6004093622032 137.64087300864048,210.7004112280265 137.35795555775985,212.40040452676476 137.07503810641356,213.50039627571823 136.99420454888605,213.70039444501163 136.83253743383102,213.90039251267444 136.63045354024507,214.00039150824887 135.78170118643902,213.8503930052102 134.2458635943476,214.00039150824887 133.47794479806907,214.00039150824887 132.30585821461864,214.2003894233494 131.09335485217161,214.25038888631389 130.24460249836557,214.10039047850296 128.83001524256542,214.10039047850296 128.5875145699829,214.15038995421492 128.50668101245537,214.3503877928597 128.46626423392445,214.70038376611774 128.54709779121913,215.20037747349124 128.99168235762045,216.60035647288896 129.1937662512064,217.70033647693344 129.23418302997015,218.75031452055555 129.11293269367889,219.50029712138348 128.70876490627415,220.800263575773 128.54709779121913,222.00022879743483 128.5875145699829,223.1001937018591 128.6683481275104,223.1001937018591 128.83001524256542,223.75017151769134 128.34501389763318,227.40002699766774 128.26418034010567,227.70001361315371 128.0620964462869,228.0 127.73876221640967,228.0 123.81833467818797,227.45002478273818 120.62540915724821,227.15003797662212 118.200402432587,226.70005733828293 116.13914671679959,226.50006577841123 115.97747960151173,226.15008030369063 115.9370628229808,224.30015190769336 115.81581248692237,222.10022573417518 115.9370628229808,221.4502451919834 116.098729937803,219.2003042526776 116.05831315927207,218.40032215075917 115.97747960151173,218.15032741017058 115.6945621506311,217.70033647693344 115.29039436299354,216.60035647288896 114.96706013311632,216.7503539272584 114.6437259032391,216.7503539272584" stroke="#4dd2ff" stroke-linecap="round" stroke-linejoin="round" stroke-width="0.5"><title>2023-10-03 3.0km</title><desc>10389482190</desc></polyline><polyline fill="none" points="160.5888219254557,216.33277184635517 160.66943158768117,216.58207522137673 161.7979668600019,216.73165717045777 162.0801006781403,216.93109968031058 161.95918618468568,217.72886870612274 162.0801006781403,218.87565883807838 161.999491015682,220.3216068347101 162.0801006781403,225.90590767809772 162.03979584714398,226.15520496928366 161.83827169123106,226.25492384142126 161.51583304209635,226.20506440845202 161.23369922372513,226.05548607185483 160.02455428917892,225.1580148541252 158.9766286793165,224.16082220405224 157.2032161084935,221.41852934582857 156.92108229035512,220.91992858459707 156.51803397852927,219.7731444289093 156.27620499162003,218.87565883807838 156.27620499162003,217.62914766662288 155.91346151125617,214.28847819421208 155.71193735557608,213.64028529945062 155.71193735557608,213.34111898668925 155.75224218680523,213.19153574481606 155.71193735557608,212.64306336978916 155.3088890442159,209.70124390674755 155.06706005707383,206.85912618343718 154.86553590139374,205.36326647855458 155.06706005707383,203.76767650575493 155.06706005707383,203.06960385167622 155.3088890442159,200.7260651405959 155.47010836866684,200.0778498335858 155.42980353767052,199.37977061260608 155.59102286212146,198.5321013169887 156.07468083593994,197.08607299625874 157.0016919525806,195.39072265880532 157.76748374430463,194.34359084849712 158.6138851987198,193.69536499344395 159.82303013349883,193.04713806710788 160.7903460811358,192.69809235536377 162.20101517159492,192.2991825902136 163.32955044391565,192.14959132357035 164.21625672932714,192.14959132357035 165.38509683287703,192.0 166.79576592333615,192.04986378081958 168.4482640007045,192.34904633296537 169.41557994834147,192.64822865687893 170.38289589597844,192.8975470858859 172.68027127208188,193.74522855877876 175.46130462153815,194.2937273591233 176.75105921854265,194.9419522252574 177.75867999740876,195.24113257139106 180.2575795291923,196.2882619855518 181.2652003080584,196.93648355541518 182.19221142446622,197.6844301892852 182.91769838519394,198.48223836012767 183.48196602170356,199.13045630409033 184.28806264442392,200.62633977859514 184.69111095601693,201.67345481627854 185.01354960538447,202.96987908537267 185.09415926784277,204.76492099941242 185.1344640988391,205.01423172661453 185.1344640988391,205.61257682566065 184.97324477415532,206.26078298597713 184.81202544970438,207.90622458260623 184.5701964625623,209.55165927685448 183.76409983960912,212.9920913335227 183.52227085246705,213.69014632931794 183.3610515280161,213.83972938117222 182.9580032164231,213.98931237586658 179.5723973994609,213.83972938117222 177.7989848286379,214.3882000829908 177.0734978679102,214.43806101789232 175.98526742658578,214.28847819421208 175.42099979054183,214.0890343406645 175.3000852970872,214.0890343406645 175.1791708036326,214.23861724024755 175.25978046585806,215.38541757612256 175.62252394622192,216.68179652708932 175.70313360868022,217.67900818947237 175.66282877745107,218.1277526106278 174.8164273230359,221.26894918392645 174.73581766081043,221.71768949824036 174.8164273230359,223.0140475227672 175.017951478716,224.75913809836493 174.89703698526137,226.6537990764482 174.89703698526137,227.60112613384263 174.85673215426505,227.85042234766297 174.73581766081043,227.95014078883105 174.5342935048975,228.0 173.48636789503507,227.9002815714921 172.07569880457595,227.60112613384263 167.07789974147454,227.05267390568042 164.21625672932714,226.55408030559192 163.53107459959574,226.55408030559192 162.402539327275,226.35464268823853 162.0801006781403,226.20506440845202 161.87857652222738,225.85604820086155 161.91888135345653,225.10815528186504 161.75766202877276,222.66502847606898 161.7979668600019,221.81740949850064 162.03979584714398,220.2218864543247 162.0801006781403,218.22747352326405 161.999491015682,217.13054208896938 161.87857652222738,216.48235389046022 161.63674753555097,216.63193587746355 161.31430888641626,216.58207522137673" stroke="#4dd2ff" stroke-linecap="round" stroke-linejoin="round" stroke-width="0.5"><title>2023-10-01 3.0km</title><desc>10389482184</desc></polyline><polyline fill="none" points="20.387661527609453,253.93085063516628 20.54955354402773,254.7319544821512 20.954283585073426,255.082436902856 21.035229593282565,255.33278129814425 21.237594613572583,255.53305669987458 21.56137864640914,255.78340080889757 21.60185165051371,256.2340198039019 21.885162679012865,256.4342947473924 21.925635683350265,256.7847756535921 21.885162679012865,258.48710704719997 22.128000703640282,262.1420878318313 21.966108687454835,263.2936500944197 21.966108687454835,265.8471022336453 21.925635683350265,266.04737228967133 21.723270662827417,266.1975747648394 21.278067617677152,266.14750727958744 20.46860753581859,265.69689962486154 19.092525396728888,264.4952766923525 18.606849347474054,263.89446385146584 17.878335273824632,262.7429033452645 16.542726138839498,260.3897040163283 16.178469101898372,259.0378597464005 15.895158073166385,255.43291901174234 15.733266056748107,254.2312647686049 15.53090103645809,253.58036718977382 15.49042803235352,252.27856880507898 15.288063011830673,251.52752931852592 15.247590007726103,250.6262800442055 15.045224987203255,249.4746807484771 14.842859966680408,247.27161184471333 14.802386962575838,245.36895151174394 14.883332970784977,244.01705568973557 15.49042803235352,237.80828936299076 16.866510171443224,235.30472686479334 17.31171321636066,234.75394097957178 18.444957331055775,233.70243851441774 19.497255437774584,233.00143531148206 20.347188523504883,232.65093324211193 23.22077181423083,232.0 27.065707203233615,232.0 28.037059301510453,232.1502154591435 29.534560452913865,232.55078973647323 31.436791645362973,233.30186540842988 32.85334678879008,233.60229527621414 33.905644895043224,233.95279649895383 35.11983501794748,234.15308277189615 35.645984071306884,234.30329740970046 36.455444152932614,234.75394097957178 39.28855443978682,235.7052979338041 41.1907856320031,236.6566525902599 42.24308373848908,237.45779157118523 43.61916587781161,239.21027741095168 44.30720694735646,240.31183594762115 44.71193698840216,241.21310882279067 45.035721021238714,242.51494377924246 45.15714003331959,243.61649307375774 45.19761303742416,245.4690917582775 44.995248016901314,246.37035283262958 44.75240999250673,248.4732873197645 44.26673394301906,250.82655783894006 43.983422914519906,251.92808388956473 43.78105789422989,252.32863805326633 43.45727386162616,252.67912261240417 42.93112480803393,252.77926100071636 39.733757484704256,252.5289149825694 37.58868826786056,252.72919180977624 35.484092054888606,252.57898419885896 35.3626730425749,252.62905340877478 35.16030802205205,253.02960685981088 35.11983501794748,254.33140276224003 35.20078102615662,255.33278129814425 35.44361905078404,256.4342947473924 35.484092054888606,257.1352562477696 35.32220003847033,259.5886116756301 34.9579430015292,260.94045405546785 34.99841600563377,261.39106715115486 35.32220003847033,262.3423597715155 35.24125403026119,262.89310708042467 35.32220003847033,263.19351437911973 35.24125403026119,263.7943282890483 35.3626730425749,264.1948703864764 34.99841600563377,265.79703470374807 34.83652398921549,267.24899048756924 34.715104976901785,267.5493944643822 34.55321296071634,267.74966365494765 33.54138785833493,268.0 32.974765801103786,268.0 30.263074526796117,267.3991925047012 27.227599219419062,267.09878841330647 24.07070490042679,266.54804698427324 22.856514777289703,266.49797954346286 22.532730744685978,266.3477771828766 22.492257740348577,266.09743978775805 22.573203748790547,264.79568276915234 22.492257740348577,262.39242774041486 22.573203748790547,261.19079472791054 22.492257740348577,260.6400450387446 22.28989272005856,260.48984044449753 22.006581691326573,260.4397722335416 21.925635683350265,260.2895675627806 21.885162679012865,259.83895320721786 21.966108687454835,258.53717550614965 21.925635683350265,257.23539350301144 21.804216670803726,256.38422602112405 21.682797658722848,256.38422602112405" stroke="#4dd2ff" stroke-linecap="round" stroke-linejoin="round" stroke-width="0.5"><title>2023-09-30 3.0km</title><desc>10389482196</desc></polyline><polyline fill="none" points="74.24837710498832,257.5792871375452 74.1677674530074,257.97817119403044 74.1677674530074,260.3714670155605 74.08715780079365,261.1692290446081 74.1274626266677,262.41572896696744 74.0468529749196,264.4599802654411 74.0468529749196,265.8560482010362 74.00654814881273,266.105345523858 73.92593849659897,266.1552049695165 73.68410954042338,266.25492384142126 73.36167093226686,266.1552049695165 72.11222132528201,265.357453080127 70.94338137027808,264.2106818968896 70.45972345792688,263.3630662591022 68.84753041667864,260.96978868937003 68.40417733043432,260.07230583639466 68.20265320013277,259.3742621978163 68.1623483740259,258.97537956081214 68.24295802600682,258.377054845012 67.9205194178503,255.53499998163898 67.83990976586938,254.2386172405386 67.43686150549911,251.79542273652623 67.27564220153727,250.0502744882251 67.15472772344947,249.20262825195096 66.79198428895324,245.76216295780614 66.95320359314792,244.51561011382728 67.19503254932351,241.47400454859599 67.47716633160599,240.27730081172194 67.47716633160599,239.77867317700293 67.59808080969378,238.88114183727885 67.88021459197626,237.83401934508584 68.56539663439617,236.23839874361875 69.00874972087331,235.44058600871358 69.9760655455757,234.3934543315263 70.62094276212156,233.8449556704145 71.91069719521329,232.9972744130646 72.5958792376332,232.74795604756218 74.49020606116392,232.44877379966783 75.2156929296907,232.19945508547244 76.62636184087023,232.0498637809069 77.91611627372913,232.0 81.26141683454625,232.44877379966783 86.25921526248567,234.24386386357946 86.46073939255439,234.44331780797802 86.54134904453531,234.74249853452784 86.54134904453531,236.18853549519554 86.38012974057347,237.8838823843107 86.50104421842843,238.4822383603314 86.38012974057347,238.98086764311302 86.38012974057347,240.57647708817967 86.46073939255439,240.9753784353088 86.38012974057347,241.87290498282528 86.42043456644751,243.31891565668047 86.29952008835971,244.91450745495968 86.33982491446659,246.95884996108362 86.13830078416504,252.1943126746337 86.21891043637879,252.6430633700802 86.05769113218412,252.6430633700802 86.17860561027192,254.0391733616416 86.05769113218412,255.38541757623898 86.05769113218412,256.63193587757996 86.17860561027192,258.2274735234678 85.8561670021154,262.16642929942464 85.89647182822227,264.1109625051322 86.05769113218412,266.40450210220297 86.01738630631007,267.30197046819376 85.89647182822227,267.75070388120366 85.7352525240276,267.9501407890057 85.45311874174513,268.0 82.30934231122956,267.4016890487983 80.37471066182479,267.25211116831633 78.35946935997345,266.95295523648383 75.3366074077785,266.60393969420693 75.01416879938915,266.55408030573744 74.73203501733951,266.35464268835494 74.61112053925171,266.1552049695165 74.57081571314484,265.95576714907656 74.65142536512576,264.6594188460731 74.49020606116392,262.6151685868972 74.49020606116392,262.1165693468938 74.65142536512576,261.1692290446081 74.61112053925171,259.972585392592 74.69173019123264,258.8756588383403 74.69173019123264,257.7787292165449" stroke="#4dd2ff" stroke-linecap="round" stroke-linejoin="round" stroke-width="0.5"><title>2023-09-28 2.6km</title><desc>10389482181</desc></polyline><polyline fill="none" points="120.47271737875417,257.25635000594775 120.6373571457807,257.71461584130884 120.67851708759554,258.9366555059096 120.59619720419869,261.2279698291095 120.67851708759554,263.41743571544066 120.59619720419869,264.3848703184922 120.59619720419869,265.5559722383332 120.6373571457807,266.2178978960728 120.84315685462207,266.67615347984247 121.37823609798215,266.93073968897806 121.91331534134224,267.0834913366998 123.18927353713661,266.93073968897806 123.80667266412638,266.93073968897806 128.33426626119763,267.64358021345106 130.8861826523207,267.7963315893139 132.4091004987713,268.0 132.6149002078455,268.0 132.77953997487202,267.8981658075936 132.8618598585017,267.59266307522194 132.77953997487202,266.67615347984247 132.8206999169197,265.5559722383332 132.6560601494275,264.3848703184922 132.73838003305718,264.07936490667635 132.77953997487202,261.0752159487456 132.90301980031654,259.90410092976526 132.90301980031654,258.2237994878669 132.77953997487202,256.79808364636847 132.90301980031654,255.219606617291 132.8206999169197,254.20123103965307 132.69722009147517,253.7938800837146 132.77953997487202,253.84479897585697 132.8618598585017,253.2846908061765 132.8618598585017,252.46998661599355 133.0676595675759,251.40068485186202 132.69722009147517,250.02586410369258 132.57374026579782,249.05839482264128 132.90301980031654,246.5633316830208 133.02649962576106,245.08665434087743 132.90301980031654,243.91549257814768 132.94417974189855,242.48972581033013 132.90301980031654,241.06395396756125 133.02649962576106,240.401986744022 132.9853396837134,238.9762074702303 133.1088195091579,238.11055329223746 133.1911393927876,237.24489724336308 133.1088195091579,236.3283182111918 133.23229933460243,235.56450074908207 133.0676595675759,234.64791787180002 133.1088195091579,234.29146840868634 132.9853396837134,234.0368614551262 132.69722009147517,233.88409720521304 130.55690311803482,233.5276470623794 128.6223858539015,232.91658893661224 127.55222736718133,232.81474582495866 126.85250835656188,232.45829473048798 125.65887004486285,232.10184331875644 123.18927353713661,232.0 122.24259487562813,232.0509216626815 121.37823609798215,232.3055298786494 121.13127644732594,232.45829473048798 120.01995801902376,232.6110595240898 119.23791912477463,232.91658893661224 118.78515976504423,233.2221181159257 118.08544075465761,233.83317577571142 116.89180244249292,234.3423897799512 116.15092349052429,234.80068183029653 115.53352436353453,235.36081584662315 114.99844512017444,236.02279140119208 114.7514854692854,236.58292370836716 114.21640622615814,238.56884103119955 114.05176645889878,239.74001842655707 113.88712669163942,240.35106614310644 113.92828663345426,240.5038279266737 113.7636468661949,242.3878851327172 113.43436733190902,244.11917313063168 113.5166872155387,248.04000358152553 113.84596675005741,250.68781542329816 114.17524628411047,252.16447211746708 114.33988605136983,252.46998661599355 114.66916558565572,252.52090567638515 118.57936005620286,252.26631030952558 120.01995801902376,252.36814847571077 120.67851708759554,252.2153912167705 120.59619720419869,252.26631030952558 120.59619720419869,252.36814847571077 120.51387732033618,252.7245818535448 120.6373571457807,253.99755561354687 120.59619720419869,255.77971208150848" stroke="#4dd2ff" stroke-linecap="round" stroke-linejoin="round" stroke-width="0.5"><title>2023-09-27 2.2km</title><desc>10389482166</desc></polyline><polyline fill="none" points="167.81123979203403,232.0515782161383 167.56109576835297,232.0 167.3526424150914,232.0 165.8517782727722,232.51578186638653 164.14246077695861,233.392609534465 163.2669566939585,234.0115455709165 162.51652462268248,234.78521428877139 161.724401880987,235.86834801523946 161.30749517446384,236.69359081820585 160.97396980947815,238.03460679319687 160.64044444449246,239.94296803872567 160.3069190797396,242.41866654905607 160.18184706754982,245.513268443814 160.26522840885445,246.9058315960574 160.14015639713034,247.78262816581992 160.34860975015908,249.84567144411267 160.84889779775403,252.32130953171873 160.76551645621657,252.37288516451372 161.4742578570731,257.58199031537515 161.51594852749258,258.97451204733807 161.5993298687972,259.74813316678046 162.34976194007322,261.759541174426 162.59990596375428,262.1205620690889 164.22584211849608,264.4929771005118 165.1430368721485,265.57603152494994 165.60163424885832,265.9370490241272 167.3526424150914,266.55593541811686 168.97857856960036,266.91695204545977 170.187608017819,266.91695204545977 171.3549467951525,267.1232471167168 173.0642642909661,267.1232471167168 174.440056421794,267.53583694488043 175.89922989346087,267.638984336314 179.52631823788397,268.0 179.65139024960808,267.94842635351233 179.73477159091271,267.638984336314 179.69308092049323,266.91695204545977 179.69308092049323,264.6992734041123 179.85984360286966,262.8426028949325 179.81815293221734,261.03749842144316 179.73477159091271,260.6249019856623 179.56800890876912,260.31545438367175 179.3595555552747,260.2123051304952 179.06772086094134,260.2123051304952 178.35897946055047,260.2638797602558 177.7753100716509,260.4186036106257 176.73304330580868,260.47017821430927 173.60624300921336,260.2638797602558 171.98030685447156,260.2638797602558 171.0214214301668,260.3670290003356 169.97915466455743,260.2638797602558" stroke="#4dd2ff" stroke-linecap="round" stroke-linejoin="round" stroke-width="0.5"><title>2023-09-25 1.5km</title><desc>10389482075</desc></polyline></svg>