<?xml version="1.0" encoding="utf-8" ?>
<svg baseProfile="full" height="300mm" version="1.1" viewBox="0,0,200,300" width="200mm" xmlns="http://www.w3.org/2000/svg" xmlns:ev="http://www.w3.org/2001/xml-events" xmlns:xlink="http://www.w3.org/1999/xlink"><defs /><rect fill="#222222" height="300" width="200" x="0" y="0" /><text fill="#FFFFFF" style="font-size:12px; font-family:Arial; font-weight:bold;" x="10" y="20">All Running Tracks</text><text fill="#FFFFFF" style="font-size:4px; font-family:Arial" x="10" y="280">ATHLETE</text><text fill="#FFFFFF" style="font-size:9px; font-family:Arial" x="10" y="290">Ryan</text><text fill="#FFFFFF" style="font-size:4px; font-family:Arial" x="120" y="280">STATISTICS</text><text fill="#FFFFFF" style="font-size:3px; font-family:Arial" x="120" y="285">Number: 25</text><text fill="#FFFFFF" style="font-size:3px; font-family:Arial" x="120" y="290">Weekly: 2.5</text><text fill="#FFFFFF" style="font-size:3px; font-family:Arial" x="141" y="285">Total: 69.1 km</text><text fill="#FFFFFF" style="font-size:3px; font-family:Arial" x="141" y="290">Avg: 2.8 km</text><text fill="#FFFFFF" style="font-size:3px; font-family:Arial" x="167" y="285">Min: 1.5 km</text><text fill="#FFFFFF" style="font-size:3px; font-family:Arial" x="167" y="290">Max: 3.6 km</text><polyline fill="none" points="21.416406526463106,60.005127177690156 21.560704465489835,60.629898646700894 21.560704465489835,61.07616330109886 21.45248101116158,61.65630650371895 21.1999596178066,62.281075034610694 21.091736163245514,62.459580125141656 20.730991315329447,62.54883263609372 20.44239543704316,62.50420638342621 19.684831256745383,62.057943544205045 18.999416045611724,61.56705376578611 18.566522228065878,61.21004258678295 18.02540495665744,60.58527215011418 17.520362169481814,59.64811441057827 16.25775520200841,57.77379142714199 15.897010354092345,56.83662618332892 15.572339991107583,55.54244149586884 15.572339991107583,54.605270295985974 15.355893082218245,52.06150728635839 15.175520658493042,51.30283755750861 15.067297203931957,50.0532603127067 14.850850295042619,49.29458624421386 14.526179932057858,47.15243884822121 14.345807508332655,44.43010767290252 14.345807508332655,42.91273359360639 14.598328901687637,40.63666017758078 14.850850295042619,39.96722401177976 14.959073749603704,39.253157361148624 14.92299926490523,38.315942677960265 15.139446173561737,37.06631920856307 15.752712414832786,35.72743198389071 16.618500049691647,34.43316947936546 17.267840775894,33.80835139020928 17.88110701739788,33.36205207425519 19.36016089352779,32.60334193482413 22.53471555490978,31.844630155799678 23.977694946341217,31.800000000017462 25.384599852841347,31.88926030579023 27.693366879364476,32.42482166382251 28.775601422879845,32.8264921461232 30.254655299242586,33.22816216869978 31.156517418799922,33.54057186865248 32.63557129492983,33.89761118532624 34.47537001920864,34.43316947936546 36.531615651911125,35.2365053887188 37.25310534774326,35.63817265391117 38.551786800147966,36.57539448569878 39.020755102392286,36.977060219069244 40.247287584934384,38.44983064313419 41.00485176546499,39.47630334543646 41.47382006794214,40.592031139618484 41.61811800673604,41.17220819127397 41.654192491667345,42.42181704603718 41.61811800673604,43.93919324732269 41.47382006794214,45.813590088509955 41.00485176546499,48.58053856450715 40.60803243285045,49.964004625042435 40.35551103949547,51.25820987534826 40.13906413060613,51.52597588318167 39.81439376762137,51.61523117378238 37.03665843885392,51.4367205700255 36.67591359117068,51.52597588318167 35.593679047655314,51.92762451208546 35.08863626047969,52.01687970067724 34.69181692809798,51.92762451208546 34.11462517129257,51.65985881065717 32.63557129492983,51.74911406717729 32.52734784083441,52.01687970067724 32.59949681023136,52.32927268164349 32.888092688517645,53.444959630200174 33.03239062754437,54.203624730260344 32.92416717344895,55.36393288880936 32.4551988709718,57.327522575331386 32.346975416643545,58.398566866701 32.346975416643545,58.844834357179934 32.491273355903104,59.42498124667327 32.38304990157485,60.1390068717883 32.52734784083441,60.89765750741935 32.491273355903104,63.6198610002175 32.419124386506155,64.11074790859129 32.09445402328856,64.20000000001164 31.22866638819687,64.11074790859129 30.75969808618538,64.11074790859129 28.12626069667749,63.70911321643507 25.24030191381462,63.39673036048771 24.55488670291379,63.21822574659018 22.823311433196068,63.12897340557538 21.59677895042114,62.90584245388163 21.05566167854704,62.54883263609372 20.947438224218786,62.414953860949026 20.91136373928748,61.96869090810651 20.947438224218786,60.719151622965 20.839214769890532,59.91587401993456" stroke="#4dd2ff" stroke-linecap="round" stroke-linejoin="round" stroke-width="0.5"><title>2023-12-25 3.0km</title><desc>10434040967</desc></polyline><polyline fill="none" points="56.890229591634125,59.26390391078894 56.99905260815285,60.16138106017024 56.92650393070653,62.27044338089763 56.890229591634125,62.44993746466935 56.78140657534823,62.58455796781345 56.636309219989926,62.629431457287865 56.38238884834573,62.58455796781345 55.003963973140344,61.73196058179019 54.13337984168902,60.924234843230806 53.40789306536317,59.712642770580715 52.57358327251859,58.545920548640424 52.17456554551609,57.87280982048833 51.99319385131821,57.55869104160229 51.630450463155285,56.30221313095535 51.303981413831934,52.1288794062275 51.15888405847363,51.00700708839577 50.83241500938311,49.57100531924516 50.75986633147113,48.40424958089716 50.651043315185234,47.8657456318615 50.397122943541035,45.1283378568769 50.21575124934316,44.0513191431819 50.28829992702231,42.16652848783997 50.651043315185234,39.96759333787486 50.86868934798986,39.20469426905038 50.83241500938311,38.30716384205152 51.08633538102731,37.05061741065583 51.48535310802981,36.018450924544595 51.99319385131821,35.076035410223994 52.68240628903732,34.17849448588095 53.80691079236567,33.23607405938674 54.78631794033572,32.69754697181634 55.51180471666157,32.47316044275067 58.01473409519531,31.934632191201672 59.356884631328285,31.800000000017462 60.590212151175365,31.800000000017462 62.51275210850872,32.024386956880335 64.07254867767915,32.518037759989966 64.97940714820288,32.742424260417465 66.64802673389204,33.32582849415485 68.09900028654374,33.77460032547242 69.2235047898721,34.04386315040756 70.34800929320045,34.402879930858035 73.10485904314555,35.524805016524624 73.79407148086466,35.88382029073546 74.70092995115556,36.556972945982125 75.24504503351636,37.14037087550969 76.76856726384722,39.025188366300426 76.98621329688467,39.38420008061803 77.49405404017307,40.59586192117422 77.71170007321052,41.493386529240524 77.78424875065684,42.03190019883914 77.78424875065684,43.55768446804723 77.71170007321052,44.14107082830742 77.63915139553137,46.11560212462791 77.53032837901264,46.74385976648773 77.27640800736845,47.32724086145754 77.16758499084972,48.04524703952484 76.87739028036594,49.34662951523205 76.22445218148641,51.32113169672084 76.04308048752137,51.59038113852148 75.64406276051886,51.72500578252948 74.77347862883471,51.635256025590934 73.68524846434593,51.76988065234036 73.24995639850385,51.72500578252948 72.74211565498263,51.8596303750528 72.16172623424791,51.949380074918736 71.39996511884965,51.90450522775063 70.2754606155213,51.635256025590934 69.73134553316049,51.635256025590934 68.78821272403002,51.8596303750528 68.57056669099256,52.17375422475743 68.67938970751129,52.84687581870821 68.89703574031591,53.78924389407621 68.93331007938832,54.6418604615028 68.71566404635087,56.57145877389121 68.49801801354624,57.424068622116465 68.38919499702752,58.86003844926017 68.35292065795511,59.98188581265276 68.49801801354624,60.969108543969924 68.49801801354624,63.3922799078282 68.35292065795511,63.79614018488792 67.15586747718044,64.15512670995668 66.53920371737331,64.20000000001164 62.802946818992496,63.751266843493795 61.93236268754117,63.571773421252146 58.703946532681584,63.21278630301822 57.61571636819281,62.98841916868696 57.289247318636626,62.85379881982226 57.071601285832,62.674304941116134 56.92650393070653,62.27044338089763 56.78140657534823,60.02675963312504" stroke="#4dd2ff" stroke-linecap="round" stroke-linejoin="round" stroke-width="0.5"><title>2023-12-24 3.0km</title><desc>10429577857</desc></polyline><polyline fill="none" points="92.6637550459709,61.754815976921236 92.54972015041858,63.870841553638456 92.35966199100949,64.20000000001164 92.09358056797646,64.20000000001164 91.86551077663898,64.10595475966693 90.34504550113343,63.16550103953341 90.07896407786757,62.93038723588688 88.90060348948464,61.09649444025126 87.87428942858241,59.5917551003804 87.07604515878484,57.66379887677613 87.03803352685645,57.14654061960755 87.07604515878484,55.59476150866249 86.88598699960858,54.795357608178165 86.16376599343494,49.57567791384645 85.8976845704019,48.4941134507244 85.74563804268837,47.60064476999105 85.63160314713605,46.189900354336714 85.63160314713605,43.18029428672162 85.8976845704019,41.20522699796129 86.23978925752454,39.418252269446384 86.20177762536332,38.47773578707711 86.35382415307686,37.44316489453195 87.26610331819393,35.51509323748178 88.2544057474006,34.33943485605414 88.86259185755625,33.775117505778326 89.88890591845848,33.11674617565586 91.71346424892545,32.411347021581605 94.37427848088555,31.94108017164399 96.16082517965697,31.79999999998836 97.37719739996828,31.84702672989806 99.39181388984434,32.31729369942332 102.09063975373283,33.210799294553 103.0789421829395,33.58701153102447 105.3976517280098,34.24538202409167 107.98244269611314,35.1388829620264 111.40348956594244,37.11398264003219 112.3157687310595,38.05450258977362 113.30407116026618,39.277174949413165 114.06430379790254,40.923073667421704 114.21635032561608,41.53440561165917 114.36839685286395,43.41542064235546 114.29237358924001,45.061300948407734 114.29237358924001,45.71965102021932 114.17833869368769,47.13039722928079 113.95026890211739,47.83576831620303 113.87424563849345,48.823285578604555 113.0760013689287,51.59772473247722 112.88594320951961,52.20903903679573 112.69588505011052,52.49118375967373 112.39179199491628,52.679280121898046 112.16372220334597,52.679280121898046 109.92103592236526,52.679280121898046 108.78068696591072,52.86737638860359 108.248524119379,52.77332826718339 107.56431474536657,52.86737638860359 106.42396578891203,52.72630419762572 105.9298145743087,52.82035233094939 103.4210468698293,52.49118375967373 101.59648853936233,52.44415965402732 100.49415121460333,52.30308730163961" stroke="#4dd2ff" stroke-linecap="round" stroke-linejoin="round" stroke-width="0.5"><title>2023-12-23 2.5km</title><desc>10424144317</desc></polyline><polyline fill="none" points="125.24764036224224,46.99349264113698 124.35983085096814,46.93247556022834 124.06389434728771,47.176543837587815 124.06389434728771,47.35959496407304 124.31050810054876,48.885018303932156 124.5571218538098,49.67823652495281 124.7050901055336,51.0206028362154 124.75441285618581,53.522275490598986 124.8530583572574,54.07142140157521 125.19831761182286,55.23072737248731 125.74086786876433,56.26799876280711 128.74955565738492,60.35604653682094 129.24278316367418,60.84416931765736 131.166370438179,61.94244375958806 132.9913122113794,62.4305649275193 134.61896298243664,62.36954980858718 136.44390475586988,62.6746253251622 137.3317142673768,62.91868559879367 139.05801053903997,62.979700647934806 143.34908984415233,63.772895579459146 145.5686136225704,63.89492545268149 147.1962643933948,64.20000000001164 147.54152364772744,64.01695529487915 147.59084639861248,62.73564040515339 147.39355539600365,60.17300036607776 147.59084639861248,57.854409495106665 147.54152364772744,57.366283674375154 147.7881374009885,55.71885536488844 147.7388146505691,54.31548604904674 147.93610565271229,52.05788332386874 147.8374601516407,51.20365249700262 147.8867829022929,49.86128669750178 147.7388146505691,48.03078183080652 147.7388146505691,47.60366302420152 147.93610565271229,46.99349264113698 147.93610565271229,45.651115068554645 147.7388146505691,43.759576662647305 147.8374601516407,41.92904852787615 147.59084639861248,38.93917089528986 147.7388146505691,37.35269765017438 147.64016914903186,35.4611265436688 147.7881374009885,34.301772825972876 147.7881374009885,32.410189696383895 147.7388146505691,32.28815181914251 147.68949189968407,32.16611391084734 146.90032788948156,32.227132868923945 141.86940732505172,31.800000000017462 140.43904755683616,31.800000000017462 139.45259254425764,31.983056990313344 138.51546028233133,31.800000000017462 138.17020102776587,31.922038001182955 137.13442326453514,31.86101900448557 136.54255025694147,31.983056990313344 135.45744974329136,32.593246454169275" stroke="#4dd2ff" stroke-linecap="round" stroke-linejoin="round" stroke-width="0.5"><title>2023-12-19 1.7km</title><desc>10404110587</desc></polyline><polyline fill="none" points="164.3718220521696,54.35898250399623 163.57267960067838,53.81974075231119 164.58976999367587,54.04442491545342 158.3782536648214,40.563122363062575 158.8141495473683,39.170025125087705 158.777824890567,37.95667789623258 158.92312351823784,37.012960505555384 158.99577283207327,36.83320452651242 159.35901940101758,36.29393604086363 159.97653856803663,35.12551816616906 160.55773307848722,34.36155054459232 160.99362896103412,33.86721767441486 161.75644675572403,33.193126282742014 162.59191386424936,32.7437313075643 163.3547316591721,32.38421491603367 164.22652342449874,32.249396174942376 165.20728916069493,31.97975853845128 166.8418987209443,31.800000000017462 168.47650828096084,31.800000000017462 171.0918835774064,32.15951698567369 174.47007666854188,33.283005209377734 175.74143965984695,33.55264185165288 176.46793279773556,33.777338896441506 177.0854519647546,34.046975161734736 178.6110875546001,34.40648986227461 179.91877520270646,34.855882723553805 180.71791765419766,35.21539660121198 181.880306674866,35.9344232599251 182.93372172489762,36.87814352978603 184.45935731427744,38.63076020425069 185.0405518244952,39.709289223275846 185.22217510920018,40.29349106809241 185.58542167791165,41.86633738994715 185.62174633494578,42.85498006778653 185.58542167791165,44.47275303083006 185.44012305047363,46.45002104318701 185.25849976576865,47.07914945509401 185.22217510920018,47.57346385048004 184.53200662788004,50.00008813018212 184.05978608853184,51.30326836882159 183.9871367746964,51.438079843559535 183.73286417638883,51.572891266754596 183.33329295064323,51.572891266754596 181.04483956634067,51.3931426909694 179.99142451630905,51.842513958894415 179.70082726120017,51.88745105435373 177.01280265115201,51.70770263852319 176.79485470964573,51.797576857876265 176.6132314254064,52.11213644556119 176.54058211157098,52.56150679971324 176.57690676837228,53.010876582528 176.9038286805153,54.44885604942101 177.0491273079533,55.43746354000177 176.9038286805153,56.471004778839415 176.46793279773556,57.95390649620094 176.39528348390013,58.94250418563024 176.39528348390013,59.7513547843846 176.2863095132634,60.02097123945714 176.39528348390013,63.03167435343494 176.32263417029753,63.97532229087665 176.24998485622928,64.20000000001164 176.10468622879125,64.20000000001164 174.97862186515704,64.15506446969812 172.98076573596336,63.840515596821206 171.60042877402157,63.70570885142661 170.58333838102408,63.481030828203075 169.09402744844556,63.391159578895895 165.31626313156448,62.7171244812198 164.88036724878475,62.44751008221647 164.7713932779152,62.17789547762368 164.7350686211139,60.73994744764059 164.44447136600502,59.167185093072476 164.6987439643126,58.13365173630882 164.7713932779152,56.515941285935696 164.6624193075113,55.527336811152054 164.62609465047717,53.86467759642983 164.51712067984045,53.59505644638557" stroke="#4dd2ff" stroke-linecap="round" stroke-linejoin="round" stroke-width="0.5"><title>2023-11-19 2.2km</title><desc>10341819005</desc></polyline><polyline fill="none" points="18.049892550334334,102.89099524830817 18.120964746223763,102.18761031646864 18.19203694211319,101.04460675118025 18.120964746223763,100.51706537010614 18.19203694211319,100.12140880618244 18.156500844284892,99.11028441981762 18.26310913823545,98.7585882882122 18.19203694211319,98.36292971242801 18.26310913823545,97.35180018487154 18.22757304040715,95.94500635928125 18.26310913823545,95.02179480128689 18.156500844284892,94.53820681106299 18.120964746223763,93.61499149777228 18.120964746223763,92.55988526451983 18.19203694211319,91.94440514183952 18.120964746223763,90.97721987904515 18.29864523652941,90.22984759588144 18.547397922724485,89.65832652486279 18.618470118613914,89.26265753785265 18.511861824663356,88.03168446093332 18.618470118613914,87.41619627940236 18.36971743265167,86.71277987325448 18.440789628541097,85.96539837421733 18.511861824663356,85.65765258160536 18.725078412797302,85.52576144368504 18.76061451085843,85.39387025561882 18.86722280504182,84.86630500014871 18.86722280504182,84.29477506506373 19.009367197286338,83.67928023257991 19.115975491236895,83.76720813274733 19.044903295114636,83.41549639750156 19.151511589298025,83.15171236125752 19.897769648116082,82.93189217738109 22.20761602022685,82.80000000001746 23.238162863301113,82.8879281237605 24.62407068675384,83.23964039568091 26.82730876468122,83.94306386625976 27.538030725438148,84.29477506506373 28.0355360978283,84.42666667234153 29.847877097781748,84.8223411924555 33.68577568558976,86.18521662984858 35.071683508809656,86.97656119323801 36.279910841956735,88.03168446093332 37.52367427316494,89.70228971767938 38.16332403779961,90.97721987904515 38.41207672422752,91.72459054688807 38.625293312361464,93.0434760209755 38.589757214300334,93.65895418750006 38.483148920116946,94.23046864717617 38.518685018178076,95.1976448117639 38.34100452810526,97.30783796450123 37.84349915548228,99.37405628390843 37.13277719495818,101.79195566364797 37.06170499883592,102.89099524830817 36.70634401845746,104.29776082036551 36.5997357245069,105.00114146064152 36.6352718223352,105.2209476173739 36.741880116285756,105.44075363434968 37.310457685031,105.7924429710547 37.381529881153256,105.9243263801327 37.417065979214385,106.31997630553087 37.310457685031,107.02335283331922 37.09724109689705,107.1991967416252 35.00061131292023,107.5508842903073 34.076672764029354,107.5069233662216 33.22380641102791,107.24315770485555 32.6552288425155,107.24315770485555 31.589145901380107,107.90257148136152 31.41146541130729,108.16633663984248 31.340393215417862,108.43010159727419 31.269321019062772,108.8257486562361 31.340393215417862,109.04555238227476 31.51807370549068,109.35327736416366 31.9445068819914,109.70496272228775 32.61969274445437,110.10060832303134 32.9395176267717,110.36437180530629 33.04612592095509,110.58417455354356 33.04612592095509,110.76001665156218 32.903981528710574,111.46338414971251 32.6907649403438,111.94694847494247 32.44201225414872,112.0788295371749 31.766826391685754,111.81506736230222 30.025557587854564,110.76001665156218 29.563588313525543,110.58417455354356 29.421443921513855,110.62813508632826 29.350371725158766,110.71605613545398 29.350371725158766,111.06774010803201 29.528052215464413,114.27683983862516 29.421443921513855,115.06812012771843 29.350371725158766,115.20000000001164 28.959474646719173,115.1560400481394 27.92892780387774,114.54060013621347 27.040525353047997,114.18891969480319 26.152122902218252,114.10099952854216 25.548009235644713,114.10099952854216 23.167090667178854,113.66139836231014 22.491904804483056,113.66139836231014 21.567966255592182,113.57347806196776 20.03991404012777,113.22179663722636 18.618470118613914,113.22179663722636 18.156500844284892,112.95803533392609 18.014356452273205,112.73823409428587 17.978820354212075,112.25467087543802 18.085428648162633,110.76001665156218 18.014356452273205,109.48515941534424 18.120964746223763,108.29821914364584 18.049892550334334,105.2209476173739 18.085428648162633,104.6934126065753 18.014356452273205,104.42964479932562 17.836675961967558,104.60549002647167 17.445778883760795,104.5615287280234 17.374706687638536,104.42964479932562 17.445778883760795,104.07795407692902" stroke="#4dd2ff" stroke-linecap="round" stroke-linejoin="round" stroke-width="0.5"><title>2023-11-08 2.5km</title><desc>10341819064</desc></polyline><polyline fill="none" points="55.34212475200184,103.5524103550124 55.37819923227653,103.82017537590582 55.59464611345902,103.86480285949074 56.17183779668994,104.35570480491151 56.568657078780234,104.4449596303748 56.71295499964617,104.57884182603448 56.82117844023742,104.71272397055873 56.965476361103356,105.06974277299014 56.82117844023742,105.91766097405343 56.8933274007868,106.36393288895488 56.82117844023742,106.98871261675959 56.82117844023742,108.46140329062473 57.00155084137805,110.20184794117813 57.00155084137805,112.21004258684115 56.929401880828664,113.2364487478917 56.85725292051211,113.41495386094903 56.67688051937148,113.54883263612282 56.28006123728119,113.45958012499614 55.70286955405027,113.10256985362503 55.08960339054465,112.65630650377716 54.29596482613124,111.8530310447677 52.384017375530675,109.0861792860087 52.05934705375694,108.3275225754187 51.7346767319832,107.21184796435409 51.69860225170851,106.05154260803829 51.482155370526016,103.5524103550124 51.37393192993477,102.7491140672355 51.19355952902697,102.34746523411013 51.265708489343524,102.0350713795342 51.01318712788634,100.83012105108355 50.8688892070204,98.95574565356947 50.61636784579605,98.01855420225183 50.43599544488825,97.08136024913983 50.29169752378948,94.84993600539747 50.363846484338865,93.86810484493617 50.6885168061126,91.27962771488819 50.83281472697854,90.78870748527697 50.8688892070204,89.4498306431924 51.01318712788634,88.69113149936311 51.121410568477586,88.24483711956418 51.482155370526016,87.75391264623613 52.31186841521412,85.83483766391873 53.03335801907815,85.03150083555374 53.863071063766256,84.36205207425519 55.125677870819345,83.647971988481 55.81109299440868,83.42482166382251 57.75911492528394,83.20167119734106 58.44453004933894,82.97852058897843 59.526764455251396,82.80000000001746 61.4026374258101,82.88926030590665 62.12412702967413,83.0677808492328 62.70131871290505,83.0677808492328 63.49495727731846,83.24630130204605 66.9220328964293,84.4513119829935 70.81807675817981,85.6116887293756 72.2610559661407,86.14724593417486 73.19899245142005,86.59354298067046 74.20907789701596,87.26298748652334 75.03879094170406,87.93243071599863 76.4096211893484,89.53908925820724 76.95073839230463,90.43167416003416 77.38363215466961,91.50277304672636 77.6361535161268,92.75238428433659 77.70830247644335,93.46644585157628 77.6361535161268,95.07307906789356 77.38363215466961,97.92929774304503 77.23933423380367,98.73260505875805 76.48177014966495,101.45491062648944 76.12102534761652,102.34746523411013 75.97672742698342,102.48134822963038 75.79635502584279,102.57060353143606 74.20907789701596,102.5259758833854 72.80217316909693,102.615231173957 72.00853460491635,102.92762451226008 71.2509705205448,103.06150728653301 69.62761891144328,102.88299690943677 69.1586506688036,103.01687970076455 68.68968242616393,102.97225210929173 68.54538450576365,103.06150728653301 68.54538450576365,103.24001757262158 68.65360794612207,103.77554788658745 69.12257618876174,105.24825203814544 69.1586506688036,105.96228819098906 69.0143527481705,106.94408553018002 68.58145898557268,108.68453770229826 68.36501210439019,109.80020763369976 68.32893762434833,110.871247432573 68.43716106493957,111.49601913974038 68.40108658466488,111.9869104156387 68.50931002525613,112.43317461607512 68.50931002525613,113.32570131568355 68.40108658466488,114.88761758079636 68.32893762434833,115.11074790859129 68.00426730257459,115.15537395706633 67.46315009938553,115.06612185429549 67.03025633702055,115.20000000001164 66.59736257465556,115.20000000001164 63.02598903467879,114.66448711109115 61.36656294553541,114.53060876132804 59.56283893552609,114.08434722662787 58.01163628697395,113.90584245379432 57.686965964967385,113.81659003347158 57.39837012346834,113.5934588831442 57.10977428173646,113.63808512463584 57.00155084137805,113.5934588831442 56.85725292051211,113.37032759113936 56.785103959962726,113.14719615734066 56.82117844023742,111.8530310447677 56.71295499964617,110.60348778904881 56.929401880828664,108.7737914272584 56.8933274007868,107.97050708555616 56.929401880828664,105.11437009784277 56.82117844023742,104.80197870521806 56.74902947968803,104.84660606397665 56.785103959962726,104.93586076461361 56.785103959962726,104.89123341717641 56.74902947968803,104.84660606397665 56.243986757006496,104.89123341717641" stroke="#4dd2ff" stroke-linecap="round" stroke-linejoin="round" stroke-width="0.5"><title>2023-11-03 3.1km</title><desc>10389486333</desc></polyline><polyline fill="none" points="91.63071952946484,104.17719508594018 91.59464504476637,104.62346921302378 91.84716643835418,104.84660606394755 92.20791128603742,104.98048810631735 92.74902855791152,104.93586076446809 92.96547546656802,105.11437009784277 92.78510304260999,105.51601576554822 92.92940098186955,105.64989755276474 92.96547546656802,105.96228819098906 92.85725201223977,107.12259384221397 92.89332649693824,111.89765750741935 92.78510304260999,112.92406458168989 92.71295407298021,113.14719615739887 92.60473061888479,113.2364487478917 92.28006025590003,113.19182245549746 91.48642159020528,112.83481191183091 90.94530431856401,112.43317461624974 90.29596359236166,111.80840457649902 88.74476074660197,109.57707393096644 88.05934553546831,108.32752257533139 87.84289862704463,107.5242372128123 87.69860068778507,106.23005137383007 86.97711099195294,100.78549318158184 86.72458959859796,99.75905062060338 86.72458959859796,99.0450018515985 86.36384475068189,96.54581972383312 86.32777026598342,94.98382185978699 86.3999192356132,94.40364945449983 86.36384475068189,93.7342185646703 86.68851511389948,91.4581439915637 86.83281305269338,90.8779657598061 86.79673856822774,90.38704496872379 86.86888753762469,89.49445995342103 87.1214089312125,88.1555781752977 88.05934553546831,86.19187566416804 88.42009038361721,85.70094832006725 89.6466228661593,84.58520180312917 90.90922983363271,83.78186211516731 91.66679401439615,83.51408181065926 93.93948655598797,82.97852058886201 94.62490176665597,83.02315072179772 95.63498734077439,82.84463015579968 96.89759430848062,82.80000000001746 99.35065927403048,83.24630130190053 100.64934072620235,83.78186211516731 103.93211884167977,84.71909157247865 107.68386525963433,85.92409719806165 108.51357840956189,86.281135107507 109.55973846837878,86.81669129105285 110.20907919458114,87.26298748634872 111.29131373832934,88.24483711938956 111.90457997960038,89.00353722760337 112.55392070556991,90.11926970235072 113.0589634925127,91.05648224096512 113.4557828255929,92.03832126435009 113.6000807643868,92.66312648609164 113.67222973401658,93.5557034452504 113.52793179498985,94.84993600513553 113.63615524931811,95.74250740456046 113.49185731005855,97.34913020519889 113.20326143177226,98.55409248062642 112.9146655537188,99.35739836670109 112.73429312952794,99.98219056305243 112.62606967519969,100.96400462504243 112.12102688825689,102.34746523393551 111.94065446453169,102.52597588318167 111.57990961661562,102.61523117378238 108.87432325747795,102.48134822945576 107.93638665298931,102.65985881065717 106.13266241387464,102.61523117378238 104.79790647677146,102.83836930090911 104.6175340525806,103.01687970067724 104.58145956788212,103.32927268164349 104.6175340525806,103.73092039150652 104.94220441556536,104.80197870504344 105.12257683975622,105.51601576554822 104.40108714415692,109.22005971166072 104.43716162862256,110.78199424082413 104.54538508295082,111.719151622965 104.47323611355387,113.32570131574175 104.40108714415692,113.81659003350069 104.40108714415692,114.6198610002175 104.32893817429431,115.15537395721185 102.8498842981644,115.20000000001164 101.40690490650013,115.02149579446996 99.42280824342743,114.6198610002175 98.26842473028228,114.48598263342865 97.87160539766774,114.53060876129894 97.18619018676691,114.35210421556258 95.45461491704918,114.17359957893495 92.56865613395348,113.45958012514166 91.73894298402593,113.05794354420505 90.65670844027773,112.25466900409083 89.9712932293769,111.45139262609882 89.57447389676236,110.82662083950709 88.74476074660197,109.71095416953904 88.23971795965917,108.7291645675723 87.91504759644158,107.74737222012482 87.69860068778507,106.49781435265322 87.59037723345682,105.02511544243316 87.26570687047206,102.74911406717729 87.26570687047206,102.25820987534826 87.41000480949879,102.03507137938868 87.59037723345682,101.99044366323506 89.39410147280432,102.25820987534826 91.19782571215183,102.12432679487392 92.20791128603742,102.16895449403091 92.8211775275413,102.30283755750861 92.92940098186955,102.4367205700255 92.92940098186955,102.70448644168209 92.78510304260999,104.66809659459977 92.60473061888479,104.80197870504344 92.28006025590003,104.7573513406096 92.20791128603742,104.66809659459977 92.20791128603742,104.35570480488241 92.09968783170916,104.17719508594018 91.91931540775113,104.04331273713615" stroke="#4dd2ff" stroke-linecap="round" stroke-linejoin="round" stroke-width="0.5"><title>2023-11-02 3.4km</title><desc>10389486352</desc></polyline><polyline fill="none" points="129.18117497581989,103.78873794560786 129.07265256159008,103.74398717022268 128.9641301475931,103.47548239881871 128.9641301475931,102.44621221109992 128.92795600928366,102.31195935601136 128.74708531913348,102.22245742415544 128.74708531913348,102.08820448390907 128.89178187120706,100.29816038714489 128.71091118082404,99.62689150436199 128.67473704298027,98.37385283206822 128.71091118082404,98.23959842417389 128.78325945721008,98.37385283206822 128.78325945721008,97.88158641915652 128.92795600928366,97.79208336104057 128.85560773336329,97.88158641915652 128.92795600928366,97.92633793977438 128.81943359528668,97.97108945454238 128.60238876682706,97.88158641915652 128.67473704298027,97.88158641915652 128.74708531913348,97.52357405013754 128.85560773336329,95.3307403459039 128.81943359528668,94.74896584605449 128.89178187120706,94.03293437263346 128.78325945721008,92.95888443177682 128.85560773336329,92.0190880454029 128.85560773336329,91.12404153568787 128.9641301475931,90.94503196064034 129.14500083774328,90.22899275019881 129.18117497581989,89.24443645775318 129.2896973900497,88.5283937882923 129.32587152789347,86.87253953685286 129.6876129086595,85.52994929102715 129.6876129086595,84.23210718599148 129.79613532265648,84.1873539245862 129.7599611848127,83.96358753248933 129.83230946096592,83.82932762880228 129.7599611848127,83.695067674038 129.72378704650328,83.7398209979292 129.6876129086595,83.56080766793457 129.7599611848127,83.33704087746446 129.94083187519573,83.20278073492227 130.3025732554961,83.0237671318464 131.06223015487194,82.9790137167729 131.17075256910175,82.88950686983299 131.60484222578816,82.80000000001746 133.7752905092202,82.88950686983299 135.8010422408115,83.47130096884212 137.10331121087074,84.00834082224173 140.90159570705146,84.99291175900726 141.9506457108073,85.44044309254969 143.46995950932615,85.7537146875402 144.44666123692878,86.15649204296642 145.89362675952725,86.96204537132871 146.65328365867026,87.58858557447093 147.19589572958648,88.12561914668186 148.1725974571891,89.33394168899395 148.60668711387552,89.96047767074197 149.43869228917174,91.57156507499167 149.51104056555778,91.929583496938 149.58338884147815,92.64561924841837 149.54721470340155,94.74896584605449 149.25782159902155,96.36003133648774 149.18547332286835,98.37385283206822 149.07695090863854,99.00037272568443 148.64286125195213,100.74567226463114 148.1725974571891,102.04345349231153 147.9555526287295,102.35671031332458 147.7746819385793,102.4909631513583 147.41294055781327,102.58046501487843 146.00214917352423,102.53571408591233 144.80840261746198,102.35671031332458 143.72317847586237,102.53571408591233 142.56560605787672,102.66996685572667 141.11864053551108,102.58046501487843 140.68455087882467,102.66996685572667 140.50368018844165,102.93847224142519 140.57602846459486,104.14674394347821 140.90159570705146,105.22075975305052 140.97394398320466,105.71301590412622 140.35898363613524,109.38254006882198 140.32280949805863,110.72503935379791 140.43133191252127,111.26203763441299 140.50368018844165,112.24653235505684 140.39515777421184,114.57350893339026 140.35898363613524,114.93150396508281 140.28663536021486,115.11050134449033 140.03341639367864,115.20000000001164 137.46505259140395,114.88675460609375 134.75199223705567,114.39451128116343 133.91998706175946,114.30501242089667 132.9794594720006,114.12601463202736 130.80901118856855,113.85751777814585 129.2896973900497,113.76801878144033 128.92795600928366,113.67851976188831 128.56621462875046,113.54427118983585 127.3362939346116,112.82827794147306 126.6851594496984,112.33603173863958 125.9978508267086,111.57528625332634 124.15296978550032,108.7560386506666 123.75505426665768,107.72678390049259 123.53800943843089,106.78702693560626 123.53800943843089,106.1157704248617 123.5741835765075,105.53401374697569 123.46566116227768,104.54950025610742 123.42948702420108,103.34122993628262 123.21244219597429,101.95395149238175 123.14009391982108,101.99870249518426 123.06774564366788,101.1931835731666 122.88687495351769,100.52191639691591 122.81452667713165,99.94015047553694 122.41661115852185,94.74896584605449 122.41661115852185,93.89867830928415 122.52513357275166,92.60086705660797 122.70600426313467,91.39255572750699 122.63365598698147,91.0792891503661 122.5974818491377,90.98978436281323 122.52513357275166,90.98978436281323 122.48895943467505,90.85552713891957 122.70600426313467,90.09473523596535 122.88687495351769,88.75215727894101 123.10391978174448,87.85710246296367 123.39331288612448,87.40957420162158 123.75505426665768,86.51451597205596 124.18914392357692,85.7537146875402 124.87645254679956,84.9481585942558 125.59993530763313,84.41112017465639 127.01072669238783,83.695067674038 128.42151807644404,83.38179424701957 128.81943359528668,83.38179424701957 129.03647842351347,83.47130096884212 129.18117497581989,83.65031434435514 129.2896973900497,84.00834082224173 129.2896973900497,85.08241807110608 129.21734911366366,86.29075105892844 129.2896973900497,88.43888835224789 129.14500083774328,90.40800268921885 129.14500083774328,91.12404153568787 129.03647842351347,91.75057433146867 129.00030428543687,92.46661044709617 129.2535232519731,94.21194237755844 129.21734911366366,96.44953475877992 129.32587152789347,97.25506453443086 129.32587152789347,98.37385283206822 129.2896973900497,98.95562134173815 129.00030428543687,100.83517457178095 128.85560773336329,101.28268576666596 128.85560773336329,102.53571408591233 128.74708531913348,103.60973481010296 128.71091118082404,104.50474957740516 128.60238876682706,104.72850291369832 128.27682152437046,104.81800420841319" stroke="#4dd2ff" stroke-linecap="round" stroke-linejoin="round" stroke-width="0.5"><title>2023-10-27 3.6km</title><desc>10389486363</desc></polyline><polyline fill="none" points="163.7884696163237,104.5942509289016 163.75229547382332,104.72850291369832 163.82464375905693,104.77325356384972 164.6566490402911,104.86275484718499 164.9098680387251,104.95225610776106 164.98221632419154,105.08650795608992 164.9098680387251,105.44451263427618 164.87369389622472,107.14502988461754 164.87369389622472,108.21903654761263 164.94604218145832,108.93503916956251 164.9098680387251,111.17253797777812 164.98221632419154,111.88853459336678 164.98221632419154,112.87302756219287 164.87369389622472,113.23102432285668 164.62047489755787,113.41002256670617 164.4034300413914,113.41002256670617 163.86081790179014,113.09677558025578 162.70324533665553,112.29128204972949 162.19680733955465,111.66478580748662 161.3648020583205,110.85928900065483 160.3881002063863,109.33779000450158 159.84548806678504,107.7267839005217 159.700791496085,106.92127808416262 159.44757249741815,105.9815189690853 159.1581793562509,102.58046501479112 159.1581793562509,101.95395149223623 159.19435349898413,101.99870249506785 158.68791550165042,100.07440423496882 158.50704478821717,98.23959842397016 158.28999993251637,94.972725382715 158.32617407501675,93.27214933632058 158.5432189309504,91.7953266313416 158.61556721641682,91.3030510196113 158.86878621485084,90.85552713894867 159.0496569282841,89.78146750401356 159.2305276414845,88.03611360816285 159.84548806678504,86.33550405292772 160.2434036359191,85.61945546665811 160.56897092005238,85.26143062743358 161.00306063168682,84.81389906615368 161.4009762010537,84.5006266348064 163.49907647515647,83.47130096890032 164.8375197534915,83.24753412141581 165.63335089199245,83.29228750232141 165.8865698906593,83.47130096890032 166.0312664611265,83.20278073495138 166.24831131729297,83.06852054121555 166.501530315727,83.0237671318173 166.57387860119343,83.15802734272438 166.46535617299378,83.11327394488035 166.5377044584602,82.93426029614056 167.11649074102752,82.80000000001746 169.35928758583032,82.88950686983299 171.81912928656675,83.42654761078302 174.31514512980357,84.36636693606852 176.34089711867273,84.76914587867213 178.3304749650415,85.39568998478353 179.4518733874429,85.93272690236336 181.40527709084563,86.73828074277844 182.63519794144668,87.58858557441272 183.21398422378115,88.08086638027453 183.6118997929152,88.5283937882341 184.69712407281622,90.00523019814864 185.05886549921706,90.63176498515531 185.45678106858395,91.7953266313416 185.6738259245176,92.86938012196333 185.7100000672508,94.03293437251705 185.6738259245176,95.50974769081222 185.49295521131717,97.34456772907288 185.2397362126503,98.19484694337007 184.8056465005502,100.3429116003972 184.5524275021162,101.32743685480091 184.40773093141615,101.90920048375847 184.26303436094895,102.13295546962763 184.0098153622821,102.31195935589494 183.64807393564843,102.44621221101261 181.18823223514482,102.49096315124189 180.0306596700102,102.80421957399813 179.23482853127643,102.89372135794838 177.3537731131073,102.62521593811107 176.73881268803962,102.80421957399813 176.66646440257318,102.89372135794838 176.66646440257318,103.43073158359039 177.06437997194007,104.90750548025244 177.1729023999069,105.44451263427618 177.13672825717367,105.80251694846083 176.84733511600643,106.56327490747208 176.6302902600728,107.59253305901075 176.52176783210598,108.48753770149779 176.44941954687238,111.08303829852957 176.59411611733958,112.42553109949222 176.59411611733958,113.45477211356047 176.48559368937276,114.93150396525743 176.44941954687238,115.11050134446123 176.30472297617234,115.20000000001164 173.302269135369,114.84200524142943 172.39791556913406,114.61825833233888 169.03372030192986,114.34976185392588 167.94849602202885,114.12601463202736 167.4782321676612,114.08126517065102 166.6100527436938,113.85751777814585 165.16308703739196,113.81276828263071 164.51195246959105,113.58902071957709 164.04168861499056,113.36527301432216 163.20968333398923,112.73877868315321 162.4862004807219,112.11228323710384 161.97976248362102,111.6200360331859 160.93071234645322,109.87479040105245 160.2795777786523,108.93503916956251 159.84548806678504,108.08478589405422 159.95401049475186,107.59253305901075 159.7369656385854,106.65277573579806 159.7369656385854,105.89201797012356 159.80931392405182,105.71301590412622 159.80931392405182,105.3102609225025 159.91783635201864,104.72850291369832 160.53279677731916,104.68375225775526 161.25627963035367,104.77325356384972 161.7988917704206,104.5942509289016 161.9435883408878,103.87823947911966 162.16063319682144,103.69923638913315" stroke="#4dd2ff" stroke-linecap="round" stroke-linejoin="round" stroke-width="0.5"><title>2023-10-25 3.2km</title><desc>10389486356</desc></polyline><polyline fill="none" points="20.918174032354727,156.52064385617268 20.881949858739972,156.61026874303934 20.881949858739972,157.1032052137889 20.773277337430045,157.99945157655748 20.845725684892386,159.20938055225997 20.99062237981707,160.0608095646603 20.773277337430045,162.34621411495027 20.773277337430045,163.91462043049978 20.700828989734873,164.2731123229314 20.447259773733094,164.4523581325193 20.22991473111324,164.3627352390904 19.57787960371934,164.00424343769555 18.454930217470974,163.10801233965321 17.766670916462317,162.25659068618552 16.89729074621573,160.8674246269802 16.42637648782693,160.28486948928912 16.027910576201975,159.5678772291576 15.73811718635261,158.6268226748507 15.66566883889027,158.08907608754816 15.303427101345733,154.05595053781872 15.08608205895871,153.1596941499738 15.122306232806295,152.98044259892777 15.194754580268636,152.98044259892777 15.15853040642105,153.0252554951876 15.08608205895871,152.3530614527699 14.868737016571686,151.23273520034854 14.687616147799417,150.11240538797574 14.615167800104246,148.99207201506943 14.397822757717222,147.51322651139344 14.25292606279254,145.72067819008953 14.434046931564808,144.19700495048892 14.434046931564808,143.16628108348232 14.57894362648949,142.09073992245249 14.760064495261759,141.73222547277692 14.8325128427241,141.10482430862612 14.8325128427241,140.34297853684984 15.013633711496368,139.40187266326393 15.701893012505025,137.60928309633164 16.06413475004956,136.8474297701905 16.64372152998112,136.13038984130253 17.513101699994877,135.36853331897873 18.16513682762161,134.96519684640225 18.708499433705583,134.78593604380148 20.338587252423167,134.38259890463087 21.82377837621607,134.2033378057531 22.004899244755507,134.1137072222191 22.113571766065434,133.93444598646602 22.330916808452457,133.93444598646602 22.656934372149408,133.80000000001746 23.779883758397773,133.8448153345962 24.64926392841153,133.80000000001746 25.80843748850748,133.93444598646602 27.54719782830216,134.38259890463087 28.344129650620744,134.741120828985 29.756872426951304,135.1444575577916 31.02471850812435,135.5926089376444 31.676753635518253,135.77186932993936 32.43746128445491,135.86149949207902 33.487962322775275,136.26483493915293 34.35734249302186,136.4889099880529 36.240999527974054,137.11631936734193 37.36394891398959,137.65409794665175 38.37822577892803,138.3711347761273 39.464950991328806,139.40187266326393 40.11698611872271,140.25334951424156 41.09503881004639,141.77703979890794 41.457280547590926,142.80776772776153 41.67462558997795,143.88330670120195 41.74707393744029,145.00365630947636 41.710849763825536,145.9895610192907 41.312383852666244,149.3057657184545 40.84146959381178,150.829416878114 40.44300368265249,152.80119095675764 40.225658640032634,153.29413275336265 39.89964107633568,153.51819697846076 39.42872681771405,153.42857130561606 38.08843238907866,153.563009806443 37.472621435299516,153.51819697846076 36.0236544853542,153.74226106127026 32.79970302176662,153.65263544529444 32.654806326841936,153.6974482560472 32.50990963191725,153.87669944250956 32.47368545806967,154.10076329737785 32.50990963191725,154.54889057998662 32.908375543076545,155.84845647821203 32.980823890306056,156.65508117803256 32.835927195614204,157.775390199502 32.50990963191725,158.9853199441568 32.47368545806967,159.97118555489578 32.54613380576484,161.4051669766195 32.43746128445491,162.61508426460205 32.54613380576484,163.37688190827612 32.54613380576484,164.5867924297927 32.50990963191725,165.97594383449177 32.43746128445491,166.06556631767307 32.25634041544981,166.20000000001164 30.87982181296684,166.1551887782116 30.227786685572937,165.97594383449177 28.815043909475207,165.84151006673346 27.981887913076207,165.66226496337913 26.605369310826063,165.5278310761496 24.939057318260893,165.21415180646 21.06307072727941,164.7660380800371 20.592156468657777,164.63160385095398 19.215637866174802,163.8249974003993 18.346257696161047,163.10801233965321 17.98401595884934,162.61508426460205 17.694222568767145,162.07734376037843 16.57127318251878,160.46411732648266 16.100358923897147,159.65750134145492 15.955462228739634,159.20938055225997 15.955462228739634,158.53719830070622 15.66566883889027,157.64095330491546 15.73811718635261,156.87914326711325 15.810565534047782,156.69989360723412 15.701893012505025,156.34139401395805 15.701893012505025,155.80364394071512 15.774341360200197,155.71401884875377 16.209031445207074,155.57958116816008 16.89729074621573,155.48995601918432" stroke="#4dd2ff" stroke-linecap="round" stroke-linejoin="round" stroke-width="0.5"><title>2023-10-23 3.1km</title><desc>10389486351</desc></polyline><polyline fill="none" points="56.18987305066548,154.9986852760194 55.901277135824785,155.22182252403582 55.756979178171605,155.44495963008376 55.756979178171605,155.53421443287516 56.045575093245134,155.7127239702677 56.62276692315936,155.84660606371472 56.91136283823289,155.84660606371472 57.01958630629815,156.02511544231675 57.01958630629815,156.1589974166709 56.983511816943064,157.54244149572332 56.8752883488778,158.21184796417947 56.80313937016763,159.3721494860365 56.94743732758798,161.1572212629253 56.91136283823289,163.8348119116854 56.80313937016763,164.23644874777528 56.5145434550941,164.37032759111025 56.26202202937566,164.2810750345525 54.78296796511859,163.38854822161375 54.20577613520436,162.80840457649902 53.08746696473099,161.1572212629253 52.87102002836764,160.80020763352513 52.6906475815922,160.2646865088027 52.0413067729678,158.97050708538154 51.75271085789427,157.94408552991808 51.716636368539184,156.60527029589866 51.13944453862496,153.16895449376898 51.13944453862496,152.90118821369833 51.21159351733513,152.85656048040255 51.13944453862496,152.14251597746625 50.886923112906516,151.11607446026755 50.81477413419634,149.6433487807808 50.490103729767725,147.50119130968233 50.41795475129038,145.67142145277467 50.56225270871073,144.33255941804964 50.74262515548617,143.3060950669169 50.81477413419634,141.92259488851414 50.886923112906516,141.6101908678247 50.99514658120461,140.4944599531591 51.24766800669022,139.11094869463705 51.93308330466971,137.54891330123064 52.510275134816766,136.61168872917187 53.01531798602082,135.89761118529714 53.70073328400031,135.40668203131645 54.92726592277177,134.7818621151673 55.93735162517987,134.4248216637061 58.21004445548169,133.93389045010554 58.751161796273664,133.93389045010554 58.715087306685746,134.1570410869317 58.67901281733066,134.0677808491164 58.715087306685746,134.02315072185593 59.18405566876754,133.93389045010554 61.49282298842445,133.80000000001746 62.07001481833868,133.84463015571237 62.71935562696308,134.11241097087623 64.45093111693859,134.558711875492 66.4711025217548,135.58520180315827 68.96024228865281,136.03150083535002 71.52153103379533,136.8348376637441 73.21703203441575,137.59354298035032 73.90244733262807,138.1737282925751 74.62393711996265,138.62002403425868 75.30935241794214,139.3340960406058 76.28336363099515,140.4944599531591 77.00485341856256,141.78870748504414 77.25737484404817,142.36888586429995 77.36559831211343,142.7705472575617 77.58204524847679,144.37718823476462 77.50989626976661,147.50119130968233 77.36559831211343,148.7061564955511 76.8244809715543,150.84830661438173 76.31943812035024,152.27639943247777 76.06691669486463,153.30283755727578 75.95869322656654,153.52597588306526 75.81439526914619,153.61523117369507 75.30935241794214,153.43672056979267 73.07273407676257,153.39209290468716 72.60376571514644,153.52597588306526 71.81012694886886,153.88299690917484 71.41330756573007,153.92762451196904 70.15070043783635,153.65985881039524 68.74379535228945,153.57060353114503 68.5273484159261,153.65985881039524 68.77986984164454,154.68629289069213 69.2488382034935,155.93586076435167 69.32098718220368,156.56064303341554 69.2488382034935,157.05154260780546 68.74379535228945,158.3903561400657 68.56342290551402,159.63991083102883 68.74379535228945,161.02334119440638 68.70772086293437,161.42498124658596 68.5273484159261,162.00512717766105 68.41912494786084,163.70093286424526 68.41912494786084,165.75373931601644 68.38305045850575,166.0661218542955 68.31090147979558,166.15537395709543 68.02230556495488,166.20000000001164 64.23448418057524,165.53060876132804 63.26047296775505,165.53060876132804 60.879556668922305,165.0397210418596 59.003683221526444,164.90584245388163 56.80313937016763,164.54883263612282 56.298096518963575,164.41495386094903 55.071563880192116,163.5670537656697 54.06147817778401,162.5406456477067 52.87102002836764,160.71095416948083 52.14953024103306,159.72916456733947 52.00523228361271,159.2382687368081 52.00523228361271,158.434983169951 51.6805618791841,157.27467855112627 51.716636368539184,157.09616980774445 51.89700881554745,156.56064303341554 51.93308330466971,155.93586076435167 52.07738126232289,155.48958703436074 52.47420064546168,155.35570480467868 53.70073328400031,155.40033222016064 53.80895675206557,155.35570480467868 53.95325470971875,154.9986852760194 54.277925113914534,154.50778283149702" stroke="#4dd2ff" stroke-linecap="round" stroke-linejoin="round" stroke-width="0.5"><title>2023-10-20 3.2km</title><desc>10389486346</desc></polyline><polyline fill="none" points="92.6464927289635,154.95220464727026 92.68271690257825,155.57958116816008 93.08118281397037,155.89326900991728 93.11740698758513,156.16214408082305 92.71894107642584,159.2541926567501 92.9000619451981,161.22591961795115 92.79138942412101,162.30140240342007 92.9000619451981,163.01838910454535 92.9000619451981,163.86980891835992 92.71894107642584,164.3627352390904 92.46537186019123,164.49716957076453 92.21180264395662,164.4523581325193 91.0526290840935,163.73537434753962 90.4005939566996,163.197635552031 88.87917865905911,161.00186029128963 88.2271435316652,159.88156152240117 88.04602266289294,159.43344101813273 87.90112596796826,158.94050780535326 87.6837809253484,157.9098270428367 87.61133257788606,156.65508117803256 87.28531501418911,153.9215122248279 87.14041831926443,153.33894560972112 87.17664249311201,152.84600387589308 87.0317457979545,151.86011834035162 86.88684910302982,151.18792207626393 86.77817658171989,150.15721864879015 86.3797106705606,147.8269215306791 86.34348649694584,145.72067819008953 86.59705571294762,143.97293480101507 86.6695040606428,143.03183861795696 86.6695040606428,141.9114827432204 86.81440075556748,140.9703810568899 86.88684910302982,139.89483319610008 87.06796997180209,139.17779946589144 87.75622927304357,137.43002363835694 88.11847101058811,136.75779985883855 88.69805779051967,136.08557479738374 89.63988630799577,135.2789030316344 91.3061983003281,134.42741416511126 93.11740698758513,134.02407661566394 93.66076959390193,134.06889192180824 93.87811463652179,134.2033378057531 93.8418904626742,134.4722294199164 93.87811463652179,134.4722294199164 93.80566628905945,134.60667515001842 93.8418904626742,134.78593604380148 93.91433881013654,134.33778363853344 94.16790802637115,134.1137072222191 94.42147724260576,134.02407661566394 95.68932332377881,133.80000000001746 97.89899792242795,133.93444598646602 100.14489669492468,134.42741416511126 100.86938016978092,134.78593604380148 102.35457129357383,135.3237181782315 104.78159093461,135.90631456451956 107.71574900834821,136.8026148172794 108.83869839436375,137.29557898495113 109.52695769560523,137.65409794665175 110.68613125546835,138.550393755635 112.2437707267236,140.25334951424156 112.75090915919282,141.06000989704626 113.40294428658672,142.31481126823928 113.62028932920657,143.39035174576566 113.65651350282133,144.1073769077775 113.51161680812947,145.94474722872837 113.5478409815114,146.39288487867452 113.5478409815114,146.9754629720701 113.40294428658672,148.54393766913563 113.22182341804728,149.44020579147036 112.46111576934345,152.39787442871602 111.99020151048899,153.33894560972112 111.77285646810196,153.51819697846076 111.55551142524928,153.563009806443 109.96164778061211,153.51819697846076 108.83869839436375,153.38375846049166 107.71574900834821,153.78707386067254 106.91881718556397,153.9215122248279 105.50607440946624,153.65263544529444 104.74536676076241,153.74226106127026 104.56424589199014,153.87669944250956 104.63669423968531,154.45926516904728 105.10760849830694,155.98289405630203 105.14383267215453,156.34139401395805 104.96271180314943,157.37207936187042 104.60047006583773,158.4475739035115 104.45557337091304,159.20938055225997 104.45557337091304,160.01599756258656 104.34690084960312,161.85328497481532 104.45557337091304,162.57027258726885 104.49179754476063,163.28725874159136 104.45557337091304,164.7660380800371 104.3831250234507,165.93113258416997 104.20200415467843,166.20000000001164 102.86170972581021,166.20000000001164 100.90560434362851,165.93113258416997 99.52908574114554,165.66226496337913 96.73982436256483,165.34858581333538 96.01534088747576,165.16934045939706 95.65309915016405,164.99009501448018 94.81994315376505,164.8556608708168 93.44342455151491,164.7660380800371 92.82761359773576,164.5867924297927 92.68271690257825,164.4523581325193 92.6464927289635,164.2731123229314 92.75516525027342,162.61508426460205 92.61026855534874,160.68817699473584 92.71894107642584,159.4782530941302 92.71894107642584,157.68576560876681 92.79138942412101,156.83433086064178 92.75516525027342,155.93808153588907 92.68271690257825,155.80364394071512 92.46537186019123,155.93808153588907 92.17557847010903,155.84845647821203 91.9944576015696,155.48995601918432 91.81333673279732,155.31070565295522" stroke="#4dd2ff" stroke-linecap="round" stroke-linejoin="round" stroke-width="0.5"><title>2023-10-19 3.1km</title><desc>10389486342</desc></polyline><polyline fill="none" points="127.46920708240941,155.31070565295522 127.36053456109948,155.57958116816008 127.43298290856183,155.75883139765938 128.8095015110448,156.02770657092333 128.99062237981707,156.34139401395805 128.99062237981707,157.0583928358683 128.8457256848924,158.17870057572145 128.91817403235473,158.76125919364858 128.8457256848924,159.29900475565228 128.95439820596948,160.64336507258122 128.99062237981707,162.88395420921734 128.91817403235473,164.18348938404233 128.8457256848924,164.3627352390904 128.70082898973487,164.49716957076453 128.266138904728,164.4523581325193 127.46920708240941,164.00424343769555 126.31003352254629,163.06320072492235 125.62177422107197,162.16696723463247 124.24525561882183,159.97118555489578 123.73811718611978,158.4923861049174 123.66566883865744,158.04426383483224 123.30342710134573,154.19038879947038 123.15853040642105,153.78707386067254 123.01363371126354,152.39787442871602 122.86873701633886,151.41198764008004 122.68761614756659,149.21613897458883 122.54271945240907,148.6335645839281 122.47027110517956,147.6028536882368 122.47027110517956,146.43769861242617 122.36159858386964,145.85511963031604 122.47027110517956,144.8244006113964 122.54271945240907,143.21109522739425 122.72384032141417,142.09073992245249 122.83251284249127,140.20853499448276 123.08608205872588,139.08817014703527 123.55699631758034,137.9229869286646 124.28147979243658,136.71298489451874 124.86106657260098,136.08557479738374 126.20136100123636,135.09964238852262 127.68655212479644,134.42741416511126 129.75133002828807,133.8896306633833 129.96867507090792,133.97926130398992 130.07734759221785,134.15852251680917 130.0048992447555,134.65149038206437 129.93245089729317,134.65149038206437 129.93245089729317,134.78593604380148 129.89622672344558,134.69630560828955 129.93245089729317,134.65149038206437 129.82377837598324,134.60667515001842 129.75133002828807,134.42741416511126 129.82377837598324,134.2481530889636 130.04112341837026,134.02407661566394 130.47581350337714,133.8896306633833 132.1421254959423,133.8896306633833 133.33752322965302,133.80000000001746 133.69976496696472,133.8896306633833 134.098230878124,133.93444598646602 135.76454287068918,134.38259890463087 136.88749225670472,134.741120828985 138.01044164295308,135.23408787933295 138.9160459865816,135.50297870725626 140.4012371103745,135.81668441387592 142.2486699714791,136.57853996774065 143.95120613765903,137.0266895244713 144.89303465513512,137.43002363835694 146.41444995254278,138.41594952944433 147.60984768602066,139.58113111852435 148.00831359741278,140.11890593767748 148.2618828136474,140.34297853684984 148.55167620372958,140.92556662816787 148.95014211488888,141.46333939628676 149.23993550497107,142.1355542030651 149.38483219989575,142.89739610088873 149.63840141613036,143.39035174576566 149.63840141613036,143.97293480101507 149.56595306890085,145.58623669849476 149.38483219989575,147.55804010274005 149.348608026281,149.17132559398306 149.23993550497107,149.75389909598744 149.02259046258405,150.20203190398752 148.98636628873646,150.65016414225101 148.55167620372958,152.4426873990451 148.15321029233746,153.42857130561606 147.93586524995044,153.563009806443 147.42872681748122,153.51819697846076 145.5812939563766,153.51819697846076 143.1904984889552,153.9215122248279 142.61091170902364,153.9215122248279 141.70530736539513,153.78707386067254 140.6910305004567,153.74226106127026 140.50990963168442,153.78707386067254 140.3650129365269,153.9215122248279 140.3650129365269,154.05595053781872 140.50990963168442,154.3248270098993 141.0532722377684,156.1173315832857 140.72725467407145,157.28245466860244 140.546133805532,159.3438168487919 140.3650129365269,160.82261272746837 140.32878876291215,161.6292260469054 140.47368545806967,162.39102582083433 140.50990963168442,163.8249974003993 140.43746128422208,165.93113258416997 140.32878876291215,166.20000000001164 138.9160459865816,166.1551887782116 136.30790547677316,165.79669879938592 135.7283186968416,165.66226496337913 134.06200670450926,165.4830197689298 130.69315854576416,164.90047225766466 129.24419159581885,164.81084947826457 128.5559322948102,164.63160385095398 127.97634551487863,164.2731123229314 127.57787960348651,163.9594319369353 126.9258444760926,163.55612817345536 126.05646430607885,162.74951926246285 125.54932587360963,162.12215550031397 124.75239405129105,160.59855314454762 124.35392814013176,160.0608095646603 123.99168640235439,159.3438168487919 123.8830138812773,158.94050780535326 123.95546222873963,158.35794948376133" stroke="#4dd2ff" stroke-linecap="round" stroke-linejoin="round" stroke-width="0.5"><title>2023-10-17 3.1km</title><desc>10389486303</desc></polyline><polyline fill="none" points="165.0887299561873,134.3400243006181 165.3433556947857,134.02501022539218 166.21635822649114,133.84500205647782 167.99873839574866,133.80000000001746 169.01724134967662,133.84500205647782 170.2176198309753,134.38502628848073 171.27249789005145,134.5200322176388 171.8544995780103,134.7450419854431 173.81875527463853,135.55507596489042 175.92851139348932,135.87008867852273 177.0197645581793,136.32010635448387 177.89276709011756,136.54511497804197 179.34777131001465,137.13013672974193 180.0025232087355,137.31014322798 180.91190084605478,137.67015595006524 181.67577806138434,138.2101743465464 182.51240548770875,138.97519899814506 183.385408019647,139.96522844591527 184.14928523497656,141.0452574127412 184.69491181732155,142.21528507521725 185.05866287252866,143.61031300309696 185.13141308329068,144.24032381380675 184.7676620283164,149.0103692834673 183.71278396924026,153.01535782357678 183.56728354701772,153.37535457406193 183.385408019647,153.6003523572872 183.20353249227628,153.69035143058863 182.76703122630715,153.6003523572872 180.14802363072522,153.55535281205084 179.7115223647561,153.78035048092715 178.94764514942653,153.96034851286095 178.54751898907125,154.23034538939828 177.5290160351433,153.78035048092715 176.80151392519474,153.69035143058863 176.51051308121532,153.7353509585373 176.14676202647388,153.6003523572872 176.00126160448417,153.69035143058863 175.89213628787547,153.82534999746713 175.78301097126678,154.18534592422657 175.78301097126678,154.72533912817016 176.00126160448417,155.53532738963258 176.1831371318549,155.98532006738242 176.21951223746873,156.4353121733002 175.85576118249446,158.5502674091549 175.78301097126678,159.6752384507272 175.60113544389606,160.57521271027508 175.7466358661186,162.91513507801574 175.71026076050475,164.4000777899928 175.81938607688062,165.1650458474178 175.78301097126678,165.93001225186163 175.6738856548909,166.20000000001164 174.72813291219063,166.15500205621356 173.23675358691253,165.93001225186163 172.6911270043347,165.93001225186163 170.36312025296502,165.57002826733515 168.79899071669206,165.43503417883767 167.3803616024088,165.2100439169153 165.48885611677542,165.03005160440807 164.32485274085775,164.76006296419655 162.79709831019863,163.95009580781334 162.14234641124494,163.45511496663676 161.19659366831183,162.42015278994222 159.81433965964243,160.35021935988334 159.2323379716836,159.22525046314695 159.2323379716836,158.685264122847 158.90496202232316,157.60528897159384 158.86858691670932,157.11029925962794 159.08683754969388,155.89532157767098 159.19596286606975,155.80532306499663 159.4142134990543,155.71532452944666 160.65096708596684,155.6703252530133" stroke="#4dd2ff" stroke-linecap="round" stroke-linejoin="round" stroke-width="0.5"><title>2023-10-16 2.0km</title><desc>10389486277</desc></polyline><polyline fill="none" points="19.57787853293121,206.624393733975 20.44725881330669,206.624393733975 20.809500596718863,206.6692062941438 20.954397310269997,206.75883139751386 21.06306984531693,206.98289405618561 20.990621488541365,208.05839283578098 20.88194895349443,208.59614099527244 20.84572477522306,209.40276169640129 20.773276418447495,209.94050780538237 20.954397310269997,211.73298891138984 20.990621488541365,213.83914256602293 20.88194895349443,215.18348938407144 20.809500596718863,215.40754668871523 20.62837970512919,215.49716957067722 20.266137921484187,215.4523581326357 19.831447781296447,215.18348938407144 18.780946609098464,214.3768819082179 18.20135975535959,213.83914256602293 17.875342150218785,213.39102582080523 17.259531118208542,212.36035514544346 16.716168442973867,211.68817699476494 16.317702481057495,210.92637354144244 16.136581589467824,210.4334410180163 15.99168487591669,209.58201049049967 15.846788162598386,209.17870057575055 15.701891449047253,208.10320521367248 15.774339805589989,206.98289405618561 15.484546378953382,206.08664256695192 15.194752952083945,204.83188665434136 15.194752952083945,203.80119095672853 14.977407881990075,202.23273520031944 14.615166098577902,200.66427246583044 14.470269385026768,199.67837803266593 14.361596849979833,198.46841291431338 14.325372671708465,196.67586436515558 14.470269385026768,195.46588894174783 14.796286990400404,193.71813933178782 14.723838633624837,193.00111134402687 14.796286990400404,192.14963871455984 14.977407881990075,191.432607536437 15.194752952083945,190.17779946577502 16.064133232459426,188.43002363824053 16.752392621245235,187.35446497568046 17.29575529647991,186.77186932993936 18.02023886376992,186.18927272135625 18.998291679192334,185.69630560834776 19.396757641108707,185.56185991229722 21.2804149154108,185.2033378056367 22.40336444438435,184.88963066329597 23.272744724759832,184.8448153345089 24.359470075462013,184.80000000001746 26.170678993221372,185.02407661572215 27.54719777056016,185.42741416508215 28.742595656076446,185.74112082883948 29.28595833131112,185.96519684631494 30.372683682013303,186.3237181781151 32.4736860266421,186.8614994919917 33.74153226870112,187.39927998557687 34.68336090585217,187.62335494888248 36.05987968342379,188.02668952435488 37.219053390668705,188.56446824027807 38.16088202805258,189.2366904815717 39.682297518709674,190.71557490024134 40.69657451263629,192.14963871455984 41.1674888310954,193.0459256360773 41.38483390118927,193.94221027867752 41.5659547932446,195.06256287777796 41.674627328058705,197.61695348998182 41.457282257964835,199.72319147575763 41.09504047431983,201.2468451532477 40.91391958273016,202.23273520031944 40.69657451263629,202.99455743926228 40.116987659130245,204.33894560966291 39.97209094557911,204.47338414471596 39.75474587525241,204.5630098063266 38.74046888155863,204.33894560966291 37.907312779454514,204.47338414471596 37.14660503389314,204.47338414471596 35.226723581319675,204.83188665434136 34.21244658739306,204.6974482560181 33.30684212851338,204.6974482560181 32.90837616682984,204.60782262863358 32.763479453278705,204.6526354450907 32.69103109650314,204.74226106112474 32.65480691823177,205.23520154188736 32.763479453278705,206.08664256695192 33.05327288014814,207.02770657089422 33.05327288014814,207.61026874303934 32.61858273972757,209.8060713550949 32.4012376696337,211.5089292714256 32.4374618481379,212.71884963521734 32.61858273972757,213.39102582080523 32.65480691823177,213.973577478464 32.546134383184835,215.18348938407144 32.50991020468064,216.3485858134518 32.4012376696337,216.88632132834755 32.22011677804403,217.15518877835711 31.857874994399026,217.20000000001164 29.684424293227494,216.75188752645045 25.011505285743624,216.1245291067462 23.852331578498706,216.0349063843023 22.475812800927088,215.766038080008 21.352863271953538,215.766038080008 21.06306984531693,215.7212266761053 20.84572477522306,215.54198100307258 20.700828061671928,215.31792378387763 20.84572477522306,214.86980891833082 20.91817313199863,214.33207032774226 20.62837970512919,212.2707314659492 20.809500596718863,211.0608095646021 20.84572477522306,209.4475739035115 21.026845666812733,208.3720793617831 20.84572477522306,206.89326900977176 20.773276418447495,206.80364394068602 20.66460388340056,206.80364394068602" stroke="#4dd2ff" stroke-linecap="round" stroke-linejoin="round" stroke-width="0.5"><title>2023-10-13 3.0km</title><desc>10389482249</desc></polyline><polyline fill="none" points="55.96110066398978,206.22033217485296 55.81560022360645,206.5803266831499 55.88835044391453,206.76032380005927 56.07022599433549,206.89532157761278 56.83410330675542,207.07531853436376 56.94322863710113,207.75030630707624 56.87047841679305,208.42529279275914 56.7977281967178,210.1352527970157 56.94322863710113,212.07019757776288 56.87047841679305,213.28515750041697 56.87047841679305,214.2751217620098 56.761353086680174,215.22008506584098 56.65222775610164,215.400077790051 56.47035220568068,215.4900741179299 56.07022599433549,215.400077790051 55.52459934260696,215.04009224992478 54.178720268188044,213.87013671681052 52.32358965231106,211.215223281004 51.959838550770655,210.4052457267826 51.596087449928746,209.3252727718209 51.55971233965829,207.79530544611043 51.19596123858355,205.77033852459863 51.159586128545925,204.96034851289005 51.05046079820022,204.06035743741086 51.086835908237845,203.97035820395104 51.12321101827547,204.01535782348947 51.12321101827547,203.92535857876646 50.795835027238354,202.03536915199948 50.46845903620124,198.97536487746402 50.32295859558508,197.35535190603696 50.35933370585553,196.50034207117278 50.577584366546944,194.61031300309696 50.68670969689265,192.3602652407717 51.05046079820022,190.06520178966457 51.814338110620156,188.40014644290204 52.105338991386816,187.9501301399432 52.68734075361863,187.23010286514182 53.596718506421894,186.46507228104747 55.269973571645096,185.47503024697653 56.979603747371584,185.0700122533308 58.03448194079101,184.9350061523437 58.32548282155767,184.80000000001746 61.59924273239449,184.9350061523437 63.78174933930859,185.38502628853894 66.25525682745501,186.3300667121366 67.92851189267822,186.60007779832813 68.69238920509815,186.87008867861005 69.71089228847995,187.32010635454208 71.7115233449731,187.9501301399432 72.80277664843015,188.40014644290204 74.00315528246574,189.03016830593697 74.87615792523138,189.79519334653742 76.29478721995838,191.50524334114743 77.02228942234069,192.76527489343425 77.2405400830321,193.3502880181477 77.56791607406922,194.83531699262676 77.67704140441492,195.82533284823876 77.67704140441492,196.95034750484047 77.56791607406922,197.67035500882776 77.53154096379876,198.48036170040723 77.3860405231826,199.65036809409503 77.20416497276165,200.46037025519763 76.87678898172453,201.40537043419317 76.58578810072504,203.34036292965175 76.44028766034171,203.79035966852098 76.29478721995838,204.01535782348947 76.00378633895889,204.24035583552904 74.25778105319478,204.55535281205084 73.74852951150388,204.60035235719988 73.27565308008343,204.51035326108104 72.65727620804682,204.51035326108104 70.62027004151605,205.0953469768283 70.40201938082464,205.0953469768283 69.56539184809662,204.78035048081074 68.9106398660224,204.7353509585373 68.76513942540623,204.87034950827365 68.72876431536861,205.54534148506355 68.87426475575194,206.22033217485296 69.20164074678905,207.1653169784695 69.23801585705951,208.38029373376048 68.9106398660224,210.63023967770278 68.6196389850229,211.98020038055256 68.58326387475245,212.97016829121276 68.65601409506053,213.46515120842378 68.5105136546772,214.72510460214107 68.47413854440674,216.52503024361795 68.40138832433149,216.97501022421056 68.29226299398579,217.15500205638818 67.96488700271584,217.20000000001164 65.96425594645552,216.8400162900507 64.83662753272802,216.8400162900507 64.0,216.75002030548058 61.63561784219928,216.3900361379492 60.071488107321784,216.21004391694441 58.434608151903376,215.94005541387014 57.96173172048293,215.94005541387014 57.37972995848395,215.80506108526606 56.94322863710113,215.580070422875 56.72497797640972,215.2650832554791 56.688602866372094,213.78013997722883 56.57947753602639,213.1951606120856 56.61585264606401,212.5201832204766 56.50672731571831,212.07019757776288 56.7977281967178,210.9002322301676 56.87047841679305,209.3252727718209 57.01597885740921,208.33529466911568 56.7977281967178,206.94032082529156 56.761353086680174,206.85032232417143 56.688602866372094,206.94032082529156" stroke="#4dd2ff" stroke-linecap="round" stroke-linejoin="round" stroke-width="0.5"><title>2023-10-10 3.0km</title><desc>10389482309</desc></polyline><polyline fill="none" points="91.576606731629,206.57884182565613 91.576606731629,206.75735134037677 91.68483019992709,206.84660606371472 92.62276692339219,207.02511544231675 92.87528834911063,206.98048810611363 93.01958630653098,207.20362473005662 92.87528834911063,208.05154260780546 92.80313937040046,209.79199920440442 92.80313937040046,210.81841828103643 92.9835118171759,212.06796788948122 93.01958630653098,215.0133172289643 92.91136283846572,215.2810750345525 92.69491590210237,215.41495386094903 92.40631998726167,215.37032759111025 92.15379856154323,215.23644874777528 90.78296796535142,214.29929541543243 90.27792511414737,213.80840457649902 89.73680777382106,213.09438031262835 88.43812615610659,210.99692564024008 88.04130677320063,210.01513404151774 87.71663636877201,208.81020423627342 87.71663636877201,207.7391520489764 87.57233841135167,206.57884182565613 87.53626392199658,205.19539000926306 87.28374249627814,203.99044366300222 87.21159351756796,204.03507137930137 87.28374249627814,204.03507137930137 87.1033700495027,203.05326031244476 87.06729556014761,201.8929346028017 86.742625155719,199.929297742754 86.49010373000056,196.71605009940686 86.56225270894356,196.26976337845554 86.59832719829865,194.79701317453873 86.77869964507408,193.10111134694307 86.95907209208235,192.16389892747975 86.99514658143744,191.5390892579162 87.13944453885779,190.4679843802005 87.46411494305357,189.39687623441569 87.78878534748219,188.7274319837161 88.32990268827416,187.87946743372595 88.90709451818839,187.16539043438388 89.95325470995158,186.40668203131645 91.2158618378453,185.8711221712001 93.45248017902486,185.24630130184232 94.02967200893909,185.02315072185593 94.82331077498384,185.02315072185593 96.84348218003288,184.80000000001746 97.8174933930859,185.02315072185593 98.79150460613891,185.33556149408105 100.16233520209789,185.6479719883937 103.33689026720822,186.6744616549986 104.7077208631672,186.98687095777132 105.53743411856703,187.38853965266026 107.52153103402816,188.10261619806988 108.7841381621547,188.45965392611106 109.93852182198316,189.12909868729184 111.38150139688514,190.4679843802005 112.35551261017099,191.62834785023006 112.93270443985239,192.6994491876976 113.257374844281,193.7705472575617 113.50989626999944,194.97552867984632 113.47382178064436,197.4301076727861 113.04092790815048,200.59872063348303 112.60803403542377,202.3838421019318 112.35551261017099,203.90118821369833 112.13906567380764,204.30283755727578 111.8865442480892,204.52597588306526 111.63402282260358,204.57060353114503 110.55178814125247,204.52597588306526 109.9024473328609,204.61523117369507 109.25310652400367,204.57060353114503 108.35124428966083,204.70448644156568 107.70190348103642,204.70448644156568 106.83611573604867,204.88299690917484 106.15070043806918,204.8383693007927 105.3570616717916,204.92762451196904 104.88809330994263,204.88299690917484 104.63557188445702,205.0168797004444 104.5994973948691,205.3739002273942 104.5994973948691,205.7755478862964 104.81594433123246,206.44495963008376 105.03239126736298,207.56064303341554 104.9963167780079,207.9176609737915 104.7077208631672,208.98871261641034 104.49127392680384,210.5506570719881 104.23875250131823,211.53244717326015 104.3109014800284,212.42498124658596 104.49127392680384,213.4960191397695 104.52734841615893,214.29929541543243 104.49127392680384,216.84299149812432 104.45519943768159,217.0661218542955 104.3469759693835,217.20000000001164 104.20267801196314,217.20000000001164 103.9501565862447,217.1107479085913 103.44511373504065,216.97686972885276 101.46101681957953,216.66448711112025 97.96179135050625,216.26285190848284 96.15806688205339,215.95046865547192 95.14798117941245,215.90584245388163 94.60686383885331,215.77196381471003 93.77715058322065,215.68271136036492 93.16388426395133,215.5042063832807 93.01958630653098,215.2810750345525 92.94743732782081,215.05794354403042 92.91136283846572,214.47780100494856 92.9835118171759,213.4960191397695 92.76706488081254,212.33572794136126 92.94743732782081,210.63991083102883 92.83921385975555,210.14901487567113 92.94743732782081,209.30110206350219 92.87528834911063,208.85483133982052 92.94743732782081,208.36393288863474 92.83921385975555,207.828406522749 92.80313937040046,206.93586076435167 92.69491590210237,206.75735134037677 92.44239447638392,206.75735134037677" stroke="#4dd2ff" stroke-linecap="round" stroke-linejoin="round" stroke-width="0.5"><title>2023-10-08 3.0km</title><desc>10389482199</desc></polyline><polyline fill="none" points="129.93512033647858,184.93519391326117 130.51793159544468,185.0253231600218 131.9021083356347,184.80000000001746 133.50483929761685,184.84506464353763 134.77973892656155,185.16051698717638 135.83608433348127,185.61116270555067 137.32953818445094,186.01674336200813 138.93226914666593,186.5124524233688 139.733634627657,186.69271009182557 143.84973914409056,187.99957544764038 144.32327329204418,188.17983236000873 145.8531528469175,189.0811155466654 146.83664684626274,189.98239644203568 147.31018099421635,190.56822779504 148.5122292158194,192.23558865475934 148.98576336354017,193.27205226337537 149.20431758579798,194.26344940133276 149.35002040071413,195.48016028097481 149.0950404747855,198.49938775840565 149.05861477111466,199.26545631198678 148.84006054908969,200.3920247068745 148.4393778082449,201.38340193298063 147.96584366052411,203.68158393059275 147.78371514216997,204.177268290543 147.56516091991216,204.44764128577663 147.31018099421635,204.49270343151875 144.54182751406915,204.49270343151875 142.5019881078042,205.16863493132405 140.42572299786843,205.03344873449532 140.28002018295228,205.03344873449532 140.1707430719398,205.16863493132405 140.1343173685018,205.3038210766972 140.31644588685594,205.4840691901627 140.57142581231892,206.34024647806655 140.6442772198934,207.28654528522748 140.20716877561063,209.62975050805835 139.952188849682,212.06306261644932 139.91576314601116,212.91922401587362 140.09789166459814,214.00068809161894 140.02504025725648,214.72166230913717 140.02504025725648,216.61421265476383 139.952188849682,217.10987893296988 139.87933744257316,217.20000000001164 136.5645984071307,216.7944550179527 135.25327307451516,216.52409143882687 133.03130514966324,216.34384893829701 131.53785129869357,216.07348501551314 128.6966464112047,215.80312088673236 128.2231122632511,215.66793874488212 126.87536122696474,214.94696645156364 125.89186722738668,213.95562715426786 125.01765033905394,212.82910186081426 124.07058204314671,211.4322055254015 123.56062219152227,210.3957950102049 123.19636515481398,209.04395065430435 123.19636515481398,208.41308819086407 123.05066234013066,207.73716287713614 122.83210811787285,205.61925521530793 122.6499795995187,204.58282770597725 122.68640530318953,204.177268290543 122.90495952544734,203.99701951257885 124.58054189477116,204.26739264521166 126.87536122696474,204.132206104754 128.00455804122612,204.177268290543 128.33238937449642,204.26739264521166 128.44166648527607,204.58282770597725 128.25953796692193,206.2951845670177 128.25953796692193,206.83592712067184 127.71315241162665,206.880988962861 127.49459818960167,206.7908652726619" stroke="#4dd2ff" stroke-linecap="round" stroke-linejoin="round" stroke-width="0.5"><title>2023-10-07 2.2km</title><desc>10389482165</desc></polyline><polyline fill="none" points="163.96110270777717,205.2303453895147 164.94323043106124,205.77033852483146 165.12510593561456,206.3553301586071 165.0159806329757,206.80532306511304 164.79773002769798,207.25531539984513 164.8704802293796,207.3003146017727 164.72497982601635,208.3352946691448 164.76135492697358,210.49524332449073 164.8341051286552,211.53021405174513 164.68860472505912,213.46515120848198 164.79773002769798,214.90509757824475 164.72497982601635,215.35507961767144 164.54310432169586,215.62506856690743 164.14297821209766,215.53507227334194 163.4518512955401,215.13008866930613 163.0517251859419,214.81510110158706 162.2514729667455,214.0501301275508 161.74222155450843,213.37515436596004 160.3963428225834,211.39521804155083 160.0325918137096,210.72023721819278 159.63246570411138,209.05527901859023 159.48696530074812,206.760323800263 159.23233959451318,205.68033972615376 159.2687146954704,205.6353403183166 159.23233959451318,204.91534901357954 159.12321429187432,204.37535457429476 159.19596449378878,203.97035820421297 158.6503379805945,200.64037048403407 158.43208737531677,198.30036037391983 158.35933717363514,196.81534593514516 158.50483757723123,195.6003294880211 158.6139628798701,193.21528507542098 158.8322134851478,192.1802608020953 158.97771388851106,190.15520455839578 159.95984161179513,188.2201399903861 160.57821832667105,187.36510809068568 161.56034605018795,186.51007412580657 162.79709947970696,185.79004392187926 163.6337267998606,185.43002827066812 165.70710754953325,184.98000819177832 168.07148910616525,184.79999999998836 168.94449152704328,184.79999999998836 170.6541212676093,185.16001629200764 174.2188811530359,186.3750685741834 176.7651382139884,186.82508687948575 178.11101694614626,187.59011668566382 180.47539850277826,188.35514483833686 182.07590294093825,189.2551758424961 182.9489053618163,189.97519899817416 184.36753429588862,191.64024693649844 184.7312853045296,192.1802608020953 185.1314114141278,193.12528308483888 185.60428772540763,194.97031931806123 185.56791262468323,196.99534801702248 185.64066282636486,197.49035327043384 185.531537523726,198.07535858653137 185.3496620194055,199.74036842599162 184.87678570789285,201.6303701052384 184.62216000212356,203.16036407410866 184.36753429588862,204.1503566481697 184.294784094207,204.33035500050755 184.1492836906109,204.51035326143028 183.9674081862904,204.6003523574327 183.2035310678184,204.46535370469792 181.82127723516896,204.6003523574327 181.13015031837858,204.6003523574327 180.07527239318006,204.78035048101447 178.9840193670243,204.82534999769996 178.22014224878512,204.69035143067595 176.9470137185417,204.69035143067595 176.728763113264,204.73535095879924 176.65601291134953,204.91534901357954 176.61963781062514,205.2303453895147 176.69238801230676,205.68033972615376 177.09251412190497,206.9403208256117 177.27438962622546,207.93030282924883 177.31076472694986,208.87528306851164 177.201639424311,209.55026740927133 176.83788841590285,210.72023721819278 176.69238801230676,211.8002059177088 176.728763113264,212.79017433169065 176.80151331494562,212.79017433169065 176.9470137185417,213.37515436596004 176.51051250798628,216.66002429791843 176.43776230630465,216.93001225186163 176.25588680175133,217.20000000001164 175.96488599479198,217.20000000001164 172.4365012103226,216.70502230446436 169.56286824168637,216.4350341789832 167.3803621896077,216.03005160446628 165.52523204521276,215.850059200573 165.37973164161667,215.53507227334194 165.34335654065944,213.87013671692694 165.23423123825341,211.89020316075766 165.34335654065944,211.30522067280253 165.48885694425553,209.28027382743312 165.45248184353113,208.56028993570362 165.37973164161667,208.3352946691448 165.12510593561456,207.93030282924883 164.76135492697358,206.9403208256117 164.4703541197814,207.07531853453838 164.1793533130549,207.07531853453838" stroke="#4dd2ff" stroke-linecap="round" stroke-linejoin="round" stroke-width="0.5"><title>2023-10-03 3.0km</title><desc>10389482190</desc></polyline><polyline fill="none" points="19.529939732747152,257.6994946617051 19.602488428819925,257.9238676992245 20.618170173838735,258.058491453412 20.872090610209852,258.2379897122737 20.76326756598428,258.9559818354901 20.872090610209852,259.98809295427054 20.79954191413708,261.2894461512333 20.872090610209852,266.3153169102734 20.83581626228988,266.53968447234365 20.654444521991536,266.62943145728786 20.364249737700447,266.5845579675806 20.11032930132933,266.44993746466935 19.022098860237747,265.64221336870105 18.07896581105888,264.7447399836383 16.48289449745789,262.2766764112457 16.228974061086774,261.8279357261199 15.866230580722913,260.79582998601836 15.648584492271766,259.98809295427054 15.648584492271766,258.86623289994895 15.322115360060707,255.85963037479087 15.140743619995192,255.2762567694881 15.140743619995192,255.00700708801742 15.177017967915162,254.8723821703461 15.140743619995192,254.3787570327986 14.778000139631331,251.7311195160728 14.560354051413015,249.17321356508182 14.378982311114669,247.82693983067293 14.560354051413015,246.39090885518817 14.560354051413015,245.76264346649987 14.778000139631331,243.6534586265334 14.923097531776875,243.07006485020975 14.886823183624074,242.44179355134838 15.031920575769618,241.67889118526364 15.467212752206251,240.37746569662704 16.301522757159546,238.8516503929277 16.990735369734466,237.90923176365322 17.75249667884782,237.32582849409664 18.8407271199394,236.74242426038836 19.711311472812667,236.42828311983612 20.980913654435426,236.06926433119224 21.996595399454236,235.93463219123078 22.79463105625473,235.93463219123078 23.84658714942634,235.79999999998836 25.11618933081627,235.8448774027347 26.603437600424513,236.1141416996834 27.47402195329778,236.38340579118812 28.344606306171045,236.6077923772973 30.412244144594297,237.37070570289507 32.91517415945418,237.8643546232197 34.075953296618536,238.44775700272294 34.98281199741177,238.7170193142665 37.23182157613337,239.65943578700535 38.13868027715944,240.24283519986784 38.9729902818799,240.91598717033048 39.62592854653485,241.634014524112 40.13376941927709,242.2174106736784 40.85925637977198,243.56370580074145 41.22199986036867,244.50610933464486 41.51219464465976,245.67289117682958 41.58474334096536,247.28842889945372 41.6210176886525,247.5128085539327 41.6210176886525,248.0513191430946 41.47592029673979,248.6347046873998 41.33082290459424,250.11560212433687 41.113176816143095,251.59649334914866 40.387689855415374,254.69288220017916 40.17004376719706,255.3211316963716 40.02494637505151,255.4557564430579 39.66220289468765,255.59038113825954 36.61515765939839,255.4557564430579 35.019086345564574,255.9493800746859 34.366148080909625,255.99425491609145 33.386740683810785,255.85963037479087 32.87889981130138,255.6801309065777 32.77007676730864,255.6801309065777 32.661253723083064,255.81475551621406 32.733802419155836,256.8468758185045 33.060271551366895,258.0136168743484 33.1328202476725,258.9111073705135 33.0965458995197,259.3149773495388 32.334784590639174,262.1420542655396 32.26223589479923,262.5459205484076 32.334784590639174,263.7126427704934 32.51615633070469,265.2832242885197 32.407333286711946,266.9884191688034 32.407333286711946,267.8410135204613 32.371058938559145,268.0653801128792 32.26223589479923,268.1551267099567 32.080864154268056,268.20000000001164 31.13773110532202,268.1102534143429 29.86812892393209,267.8410135204613 25.370109767187387,267.3474065150949 22.79463105625473,266.89867227501236 22.17796713951975,266.89867227501236 21.16228539450094,266.7191784194147 20.872090610209852,266.5845579675806 20.690718869911507,266.2704433807812 20.726993217831478,265.5973397536727 20.581895825685933,263.3985256284359 20.618170173838735,262.63566854863893 20.83581626228988,261.1996978088864 20.872090610209852,259.40472617093474 20.79954191413708,258.41748788006953 20.690718869911507,257.83411850142875 20.47307278169319,257.9687422896968 20.182877997634932,257.9238676992245" stroke="#4dd2ff" stroke-linecap="round" stroke-linejoin="round" stroke-width="0.5"><title>2023-10-01 3.0km</title><desc>10389482184</desc></polyline><polyline fill="none" points="55.348895374685526,255.53776557164383 55.494598189368844,256.25875903395354 55.8588552265428,256.57419321258203 55.93170663365163,256.7995031683531 56.11383515200578,256.97975102989585 56.405240781605244,257.2050607280107 56.44166648527607,257.61061782352044 56.69664641097188,257.7908652726619 56.73307211487554,258.1062980882416 56.69664641097188,259.6383963424887 56.91520063299686,262.9278790486569 56.76949781854637,263.96428508497775 56.76949781854637,266.26239201027784 56.73307211487554,266.44263506072457 56.55094359628856,266.5778172883438 56.15026085590944,266.5327565516345 55.421746782260016,266.1272096624016 54.18327285698615,265.04574902312015 53.746164412703365,264.50501746634836 53.0905017463956,263.46861301074387 51.88845352479257,261.3507336147013 51.56062219152227,260.1340737717692 51.305642265826464,256.8896271105623 51.159939450910315,255.80813829175895 50.97781093255617,255.22233047080226 50.94138522888534,254.05071192458854 50.75925671053119,253.37477638668497 50.72283100662753,252.56365203979658 50.54070248827338,251.52721267365268 50.358573969919235,249.54445066026528 50.322148266248405,247.8320563605812 50.394999673590064,246.6153501207882 50.94138522888534,241.02746042670333 52.1798591541592,238.7742541783373 52.58054189453833,238.27854688162915 53.600461597787216,237.33219466300216 54.547529893694445,236.70129178033676 55.312469671014696,236.38583991792984 57.898694632574916,235.80000000001746 61.359136482700706,235.80000000001746 62.233353371266276,235.93519391326117 63.58110440755263,236.29571076281718 65.29311248078011,236.9716788675869 66.5680121097248,237.24206574860727 67.5150804053992,237.5575168490759 68.60785151598975,237.73777449471527 69.08138566394337,237.87296766872169 69.80989973759279,238.27854688162915 72.35969899571501,239.13476814041496 74.07170706870966,239.9909873312281 75.01877536461689,240.7120124140929 76.25724928989075,242.28924966987688 76.87648625252768,243.28065235287067 77.24074328946881,244.09179794052034 77.53214891883545,245.26344940133276 77.64142602984793,246.2548437663936 77.67785173351876,247.9221825824643 77.49572321516462,248.73331754936953 77.27716899313964,250.6259585877997 76.84006054862402,252.74390205505188 76.58508062292822,253.73527550059953 76.40295210457407,254.09577424795134 76.11154647520743,254.41121035115793 75.63801232725382,254.50133490067674 72.76038173609413,254.27602348430082 70.82981944084167,254.45627262879862 68.93568284926005,254.32108577899635 68.82640573824756,254.36614806792932 68.64427721966058,254.7266461738327 68.60785151598975,255.8982624860364 68.68070292333141,256.7995031683531 68.89925714558922,257.7908652726619 68.93568284926005,258.42173062299844 68.7899800343439,260.62975050805835 68.46214870130643,261.8464086499298 68.49857440497726,262.25196043602773 68.7899800343439,263.10812379437266 68.71712862723507,263.60379637239384 68.7899800343439,263.87416294121067 68.71712862723507,264.4148954601551 68.82640573824756,264.77538334784913 68.49857440497726,266.21733123337617 68.35287159006111,267.5240914388269 68.24359447904862,267.7944550179527 68.09789166459814,267.97469728946453 67.18724907236174,268.20000000001164 66.6772892207373,268.20000000001164 64.23676707386039,267.65927325421944 61.504839297384024,267.38890957197873 58.663634410128,266.8932422858488 57.57086329953745,266.8481815891282 57.27945766993798,266.71299946459476 57.243031966267154,266.48769580898806 57.31588337360881,265.31611449224874 57.243031966267154,263.1531849663879 57.31588337360881,262.0717152551224 57.243031966267154,261.57604053488467 57.060903447913006,261.44085640006233 56.8059235222172,261.3957950102049 56.73307211487554,261.2606108065229 56.69664641097188,260.8550578865106 56.76949781854637,259.6834579555725 56.73307211487554,258.511854152719 56.62379500363022,257.7458034190349 56.51451789261773,257.7458034190349" stroke="#4dd2ff" stroke-linecap="round" stroke-linejoin="round" stroke-width="0.5"><title>2023-09-30 3.0km</title><desc>10389482196</desc></polyline><polyline fill="none" points="97.82353939441964,258.8213584237965 97.7509907076601,259.1803540746332 97.7509907076601,261.3343203140248 97.67844202066772,262.0523061401618 97.71471636393107,263.1741560702794 97.64216767717153,265.0139822388883 97.64216767717153,266.27044338092674 97.60589333390817,266.49481097148964 97.5333446469158,266.5396844725765 97.31569858640432,266.62943145728786 97.02550383890048,266.5396844725765 95.90099919261411,265.82170777212013 94.84904323332012,264.7896137071948 94.41375111206435,264.02675963321235 92.96277737477794,261.8728098204592 92.56375959725119,261.0650752527581 92.38238788023591,260.43683597803465 92.34611353650689,260.07784160473966 92.41866222326644,259.5393493605079 92.12846747599542,256.98149998349254 92.05591878923588,255.8147555165051 91.69317535497248,253.61588046289398 91.54807798122056,252.04524703940842 91.43925495096482,251.2823654267704 91.11278585996479,248.18594666203717 91.25788323371671,247.06404910245328 91.47552929422818,244.32660409374512 91.72944969823584,243.24957073054975 91.72944969823584,242.80080585929682 91.8382727287244,241.99302765354514 92.09219313249923,241.05061741059762 92.70885697100312,239.61455886927433 93.1078747487627,238.8965274078655 93.9784589910414,237.9541088983824 94.55884848581627,237.46046010340797 95.71962747559883,236.69754697175813 96.33629131386988,236.47316044280888 98.04118545493111,236.20389641969814 98.69412363669835,235.9795095769514 99.96372565673664,235.84487740285113 101.12450464628637,235.79999999998836 104.13527515088208,236.20389641969814 108.63329373602755,237.81947747722734 108.81466545327567,237.9989860272035 108.88721414003521,238.26824868109543 108.88721414003521,239.56968194566434 108.74211676628329,241.09549414587673 108.85093979653902,241.6340145242866 108.74211676628329,242.08278087881627 108.74211676628329,243.51882937937626 108.81466545327567,243.8778405917983 108.74211676628329,244.68561448456603 108.77839110977948,245.98702409100952 108.66956807952374,247.4230567094637 108.70584242301993,249.2629649649898 108.52447070553899,253.9748814071936 108.5970193927642,254.37875703308964 108.45192201877944,254.37875703308964 108.56074504903518,255.63525602547452 108.45192201877944,256.8468758186209 108.45192201877944,257.96874228981324 108.56074504903518,259.40472617110936 108.27055030176416,262.9497863695142 108.30682464526035,264.69986625463935 108.45192201877944,266.76405189200887 108.41564767551608,267.57177342136856 108.30682464526035,267.97563349310076 108.16172727150843,268.1551267101022 107.90780686750077,268.20000000001164 105.07840808015317,267.66152014394174 103.33723959559575,267.5269000514818 101.52352242404595,267.25765971283545 98.80294666695409,266.94354572478915 98.51275191945024,266.8986722751579 98.25883151544258,266.7191784195311 98.15000848518685,266.5396844725765 98.11373414169066,266.36019043417764 98.18628282868303,265.19347696148907 98.04118545493111,263.3536517282191 98.04118545493111,262.9049124122248 98.18628282868303,262.0523061401618 98.15000848518685,260.97532685333863 98.22255717194639,259.9880929545034 98.22255717194639,259.00085629490786" stroke="#4dd2ff" stroke-linecap="round" stroke-linejoin="round" stroke-width="0.5"><title>2023-09-28 2.6km</title><desc>10389482181</desc></polyline><polyline fill="none" points="133.4254456406925,258.5307150053559 133.57362143113278,258.9431542571692 133.61066537885927,260.0429899553128 133.53657748363912,262.10517284620437 133.61066537885927,264.0756921439024 133.53657748363912,264.94638328664587 133.53657748363912,266.00037501449697 133.57362143113278,266.5961081064597 133.75884116929956,267.00853813186404 134.2404124881141,267.23766572008026 134.72198380716145,267.37514220303274 135.87034618342295,267.23766572008026 136.42600539769046,267.23766572008026 140.5008396350313,267.87922219210304 142.79756438708864,268.0166984303796 144.16819044877775,268.20000000001164 144.35341018694453,268.20000000001164 144.50158597738482,268.1083492268226 144.57567387260497,267.83339676770265 144.50158597738482,267.00853813186404 144.5386299251113,266.00037501449697 144.3904541344382,264.94638328664587 144.46454202965833,264.6714284160116 144.50158597738482,261.9676943538652 144.61271782033145,260.91369083678 144.61271782033145,259.4014195390628 144.50158597738482,258.11827528174035 144.61271782033145,256.69764595554443 144.5386299251113,255.78110793567612 144.42749808216467,255.4144920753606 144.50158597738482,255.46031907826546 144.57567387260497,254.95622172555886 144.57567387260497,254.22298795438837 144.76089361077175,253.26061636666418 144.42749808216467,252.02327769331168 144.31636623921804,251.15255534037715 144.61271782033145,248.90699851472164 144.72384966304526,247.5779889067926 144.61271782033145,246.52394332032418 144.64976176759228,245.24075322930003 144.61271782033145,243.95755857080803 144.72384966304526,243.36178806962562 144.68680571531877,242.0785867231898 144.7979375582654,241.29949796301662 144.87202545348555,240.52040751904133 144.7979375582654,239.69548639006098 144.90906940121204,239.00805067416513 144.76089361077175,238.18312608462293 144.7979375582654,237.86232156780898 144.68680571531877,237.63317530960194 144.42749808216467,237.495687484683 142.50121280620806,237.17488235613564 140.76014726841822,236.6249300429481 139.7970046303235,236.53327124245698 139.16725752083585,236.2124652574421 138.09298304026015,235.89165898688952 135.87034618342295,235.80000000001746 135.01833538804203,235.84582949642208 134.2404124881141,236.07497689078446 134.01814880245365,236.2124652574421 133.0179622170981,236.34995357168373 132.3141272123903,236.6249300429481 131.9066437885631,236.89990630431566 131.27689667907543,237.4498581981461 130.2026221982669,237.90815080195898 129.5358311412856,238.32061364725814 128.9801719270181,238.82473426195793 128.49860060797073,239.42051226107287 128.2763369223103,239.9246313375188 127.79476560349576,241.7119569280767 127.64658981305547,242.76601658391883 127.49841402238235,243.31595952881617 127.53545797010884,243.45344513401506 127.38728217966855,245.1490966194542 127.09093059878796,246.70725581757142 127.16501849377528,250.23600322337006 127.46137007488869,252.61903388096835 127.75772165576927,253.9480249057233 127.90589744620956,254.22298795438837 128.20224902709015,254.26881510874955 131.7214240503963,254.03967927856138 133.0179622170981,254.1313336281455 133.61066537885927,253.99385209509637 133.53657748363912,254.03967927856138 133.53657748363912,254.1313336281455 133.46248958841898,254.45212366819032 133.57362143113278,255.5978000522009 133.53657748363912,257.20174087336636" stroke="#4dd2ff" stroke-linecap="round" stroke-linejoin="round" stroke-width="0.5"><title>2023-09-27 2.2km</title><desc>10389482166</desc></polyline><polyline fill="none" points="170.0301158130169,235.84642039451865 169.80498619168065,235.80000000001746 169.61737817362882,235.80000000001746 168.2666004456114,236.26420367974788 166.72821469930932,237.0533485810447 165.94026102451608,237.61039101384813 165.26487216050737,238.30669285991462 164.55196169298142,239.28151321373298 164.1767456571106,240.02423173640273 163.87657282873988,241.23114611388883 163.57640000013635,242.94867123485892 163.27622717176564,245.17679989416501 163.1636623609811,247.96194159943843 163.23870556801558,249.2152484364633 163.12614075746387,250.00436534924665 163.31374877505004,251.86110429972177 163.76400801795535,254.08917857857887 163.68896481068805,254.13559664809145 164.32683207141235,258.8237912838522 164.3643536749296,260.07706084259553 164.43939688196406,260.7733198501228 165.1147857462056,262.5835870570154 165.33991536754183,262.9085058622004 166.80325790680945,265.043679390481 167.6287331848871,266.01842837248114 168.04147082404234,266.34334412173484 169.61737817362882,266.9003418763168 171.0807207126636,267.22525684093125 172.16884721606039,267.22525684093125 173.2194521157071,267.41092240504804 174.75783786177635,267.41092240504804 175.99605077970773,267.7822532503924 177.30930690420792,267.87508590272046 180.57368641416542,268.20000000001164 180.68625122471713,268.15358371817274 180.76129443198442,267.87508590272046 180.7237728284672,267.22525684093125 180.7237728284672,265.22934606371564 180.87385924276896,263.5583426054509 180.8363376390189,261.9337485793221 180.76129443198442,261.5624117871339 180.6112080179155,261.2839089453046 180.42359999986365,261.191074617469 180.16094877501018,261.191074617469 179.5230815145187,261.23749178426806 178.99777906457894,261.37674324956606 178.05973897548392,261.42316039287834 175.24561870843172,261.23749178426806 173.7822761691641,261.23749178426806 172.9192792873364,261.3303261003166 171.98123919824138,261.23749178426806" stroke="#4dd2ff" stroke-linecap="round" stroke-linejoin="round" stroke-width="0.5"><title>2023-09-25 1.5km</title><desc>10389482075</desc></polyline></svg>