<?xml version="1.0" encoding="utf-8" ?>
<svg baseProfile="full" height="300mm" version="1.1" viewBox="0,0,200,300" width="200mm" xmlns="http://www.w3.org/2000/svg" xmlns:ev="http://www.w3.org/2001/xml-events" xmlns:xlink="http://www.w3.org/1999/xlink"><defs /><rect fill="#222222" height="300" width="200" x="0" y="0" /><text fill="#FFFFFF" style="font-size:12px; font-family:Arial; font-weight:bold;" x="10" y="20">All Running Tracks</text><text fill="#FFFFFF" style="font-size:4px; font-family:Arial" x="10" y="280">ATHLETE</text><text fill="#FFFFFF" style="font-size:9px; font-family:Arial" x="10" y="290">Ryan</text><text fill="#FFFFFF" style="font-size:4px; font-family:Arial" x="120" y="280">STATISTICS</text><text fill="#FFFFFF" style="font-size:3px; font-family:Arial" x="120" y="285">Number: 23</text><text fill="#FFFFFF" style="font-size:3px; font-family:Arial" x="120" y="290">Weekly: 2.6</text><text fill="#FFFFFF" style="font-size:3px; font-family:Arial" x="141" y="285">Total: 63.1 km</text><text fill="#FFFFFF" style="font-size:3px; font-family:Arial" x="141" y="290">Avg: 2.7 km</text><text fill="#FFFFFF" style="font-size:3px; font-family:Arial" x="167" y="285">Min: 1.5 km</text><text fill="#FFFFFF" style="font-size:3px; font-family:Arial" x="167" y="290">Max: 3.6 km</text><polyline fill="none" points="21.848616717616096,65.28312886322965 21.721911278087646,67.63426839292515 21.510735545307398,68.0 21.215089519741014,68.0 20.961678640451282,67.89550528849941 19.27227277890779,66.85055671058944 18.976626752875745,66.58931915098219 17.667337210383266,64.55166048914543 16.52698825392872,62.879727889288915 15.640050176298246,60.737554307532264 15.597815029788762,60.16282291064272 15.640050176298246,58.43862389851711 15.428874443750829,57.55039734242018 14.62640665913932,51.75075323757483 14.330760633572936,50.549014945252566 14.161820047302172,49.55627196666319 14.035114608006552,47.988778171507875 14.035114608006552,44.644771429680986 14.330760633572936,42.45025221994729 14.710876952623948,40.46472474379698 14.668641805881634,39.41970643008244 14.837582392152399,38.27018321614014 15.851225909078494,36.12788137496682 16.949339719023556,34.82159428449813 17.625102063640952,34.19457500640419 18.765451020328328,33.46305130625842 20.792738054180518,32.67927446842077 23.749198311939836,32.15675574625493 25.734250199282542,32.0 27.085774888750166,32.05225192208309 29.324237655382603,32.57477077713702 32.322933059651405,33.567554771725554 33.4210468698293,33.9855683677888 35.9973908085376,34.71709113786346 38.86938077327795,35.70986995779094 42.67054396192543,37.904425155575154 43.68418747885153,38.949447321967455 44.78230128902942,40.30797216601786 45.62700421968475,42.13674851934775 45.795944805955514,42.81600623516715 45.96488539199345,44.906022935931105 45.88041509897448,46.73477883153828 45.88041509897448,47.4662789113645 45.75370965944603,49.03377469917177 45.5002987801563,49.817520351323765 45.41582848713733,50.91476175398566 44.52889040973969,53.99747192495852 44.31771467695944,54.67671004089061 44.10653894441202,54.99020417738939 43.768657772103325,55.19920013542287 43.51524689258076,55.19920013542287 41.023373246891424,55.19920013542287 39.7563188506756,55.40819598734379 39.16502679907717,55.303698074654676 38.404794161440805,55.40819598734379 37.13773976522498,55.251449108473025 36.58868286013603,55.35594703440438 33.80116318841465,54.99020417738939 31.77387615456246,54.937955171160866 30.549056904856116,54.781208112923196" stroke="#4dd2ff" stroke-linecap="round" stroke-linejoin="round" stroke-width="0.5"><title>2023-12-23 2.5km</title><desc>10424144317</desc></polyline><polyline fill="none" points="64.71960040275007,48.88165849016514 63.73314539017156,48.81386173359351 63.404327052645385,49.08504870842444 63.404327052645385,49.28843884897651 63.678342333994806,50.98335367103573 63.952357615344226,51.864707249973435 64.11676678387448,53.35622537357267 64.17156984028406,56.135861656221095 64.28117595263757,56.74602377950214 64.66479734657332,58.0341415249859 65.26763096544892,59.18666529201437 68.61061739712022,63.72894059645478 69.15864795958623,64.27129924186738 71.29596715350635,65.49160417728126 73.32368023507297,66.0339610305964 75.13218109169975,65.9661664540181 77.15989417326637,66.30513925018022 78.14634918607771,66.5763173319865 80.06445615459234,66.6441118310322 84.8323220491875,67.52543953276472 87.29845958063379,67.66102828073781 89.10696043726057,68.0 89.49058183096349,67.79661699431017 89.54538488737307,66.37293378351023 89.3261726622004,63.52555596228922 89.54538488737307,60.94934388343245 89.49058183096349,60.4069818604039 89.76459711208008,58.57650596095482 89.70979405613616,57.01720672118245 89.929006281076,54.50875924876891 89.81940016848966,53.5596138855326 89.87420322466642,52.068096330564 89.70979405613616,50.03420203423593 89.70979405613616,49.559625582478475 89.929006281076,48.88165849016514 89.929006281076,47.39012785395607 89.70979405613616,45.288418514071964 89.81940016848966,43.25449836428743 89.54538488737307,39.932412105903495 89.70979405613616,38.16966405574931 89.600187943317,36.06791838182835 89.76459711208008,34.77974758442724 89.76459711208008,32.677988551557064 89.70979405613616,32.54239091015188 89.65499099972658,32.40679323422955 88.7781420997344,32.4745920766145 83.1882303613238,32.0 81.59894173010252,32.0 80.50288060493767,32.20339665591018 79.46162253594957,32.0 79.07800114201382,32.1355977790663 77.92713696067221,32.067798893898726 77.26950028561987,32.20339665591018 76.06383304810151,32.88138494908344" stroke="#4dd2ff" stroke-linecap="round" stroke-linejoin="round" stroke-width="0.5"><title>2023-12-19 1.7km</title><desc>10404110587</desc></polyline><polyline fill="none" points="114.85758005827665,57.065536115522264 113.96964400098659,56.46637861363706 115.09974443749525,56.71602768381126 108.19805962778628,41.73680262561538 108.68238838622347,40.188916805636836 108.6420276563149,38.84075321801356 108.80347057618201,37.79217833947041 108.88419203576632,37.59244947388652 109.2877993346192,36.993262267584214 109.97393174259923,35.69502018461935 110.6197034206707,34.846167271753075 111.10403217910789,34.29690852708882 111.95160750672221,33.54791809193557 112.87990429392084,33.04859034172841 113.72747962153517,32.64912768447539 114.69613713864237,32.499329083249904 115.78587684547529,32.199731709377375 117.60210969019681,32.0 119.41834253468551,32.0 122.32431508623995,32.39946331738611 126.07786296517588,33.647783565946156 127.49048851104453,33.9473798351537 128.29770310875028,34.19704321824247 128.98383551673032,34.49663906858768 130.67898617195897,34.89609984692652 132.13197244750336,35.395425248367246 133.01990850479342,35.79488511243835 134.3114518611692,36.593803622119594 135.48191302781925,37.64238169975579 137.17706368281506,39.58973356024944 137.8228353606537,40.78809913696023 138.02463901042938,41.43721229786752 138.42824630904943,43.18481932213763 138.468607038958,44.28331118641654 138.42824630904943,46.080836700915825 138.26680338964798,48.27780115909991 138.06499974010512,48.976832727872534 138.02463901042938,49.526070944964886 137.25778514239937,52.2223201446468 136.7330956540536,53.67029818758601 136.6523741944693,53.82008871503058 136.3698490851093,53.969879185257014 135.92588105634786,53.969879185257014 133.38315507397056,53.77015854549245 132.2126939073205,54.269459954317426 131.88980806828476,54.3193900603801 128.90311405691318,54.11966959835263 128.6609496776946,54.219529842055636 128.45914602838457,54.56904049505829 128.37842456856743,55.068340888567036 128.418785298476,55.56764064723393 128.7820318674203,57.16539561047102 128.94347478682175,58.26384837774094 128.7820318674203,59.41222753201146 128.29770310875028,61.05989610686083 128.21698164893314,62.15833798403037 128.21698164893314,63.057060871535214 128.09589945944026,63.35663471050793 128.21698164893314,66.70186039269902 128.13626018934883,67.75035810095142 128.05553872929886,68.0 127.89409581013024,68.0 126.64291318366304,67.9500716329494 124.42307304008864,67.60057288533426 122.88936530472711,67.4507876126736 121.75926486798562,67.20114536467008 120.10447494289838,67.1012884209922 115.906959035201,66.35236053465633 115.42263027653098,66.05278898021788 115.30154808680527,65.75321719734347 115.2611873568967,64.15549716402893 114.9383015180938,62.40798343671486 115.22082662722096,61.259613040310796 115.30154808680527,59.46215698434389 115.18046589731239,58.36370756791439 115.14010516740382,56.51630844044848 115.0190229776781,56.21672938487609" stroke="#4dd2ff" stroke-linecap="round" stroke-linejoin="round" stroke-width="0.5"><title>2023-11-19 2.2km</title><desc>10341819005</desc></polyline><polyline fill="none" points="158.9443250556942,54.323328053666046 159.02329416247085,53.54178924046573 159.10226326901466,52.271785279066535 159.02329416247085,51.68562818897772 159.10226326901466,51.24600978460512 159.06277871597558,50.122538244206225 159.1812323757913,49.73176476464141 159.10226326901466,49.29214412489091 159.1812323757913,48.16866687205038 159.1417478225194,46.605562621407444 159.1812323757913,45.5797720013943 159.06277871597558,45.04245201224694 159.02329416247085,44.01665721970494 159.02329416247085,42.84431696054526 159.10226326901466,42.1604501575639 159.02329416247085,41.08579986557015 159.22071692929603,40.255386217613705 159.49710880289786,39.62036280534812 159.5760779096745,39.180730597581714 159.45762424939312,37.81298273432185 159.5760779096745,37.12910697708139 159.29968603607267,36.34753319245647 159.3786551428493,35.517109304637415 159.45762424939312,35.17516953506856 159.69453156972304,35.02862382627791 159.73401612322778,34.88207806175342 159.85246978327632,34.29589444459998 159.85246978327632,33.66086118336534 160.0104079968296,32.976978036167566 160.12886165687814,33.074675703042885 160.0498925501015,32.68388488609344 160.16834621015005,32.39079151247279 160.99752183118835,32.14654686374706 163.5640178003814,32.0 164.7090698480606,32.09769791524741 166.248967429623,32.488489328476135 168.6970097385347,33.270070962491445 169.48670080606826,33.66086118336534 170.0394845532719,33.80740741366753 172.0531967752613,34.24704576935619 176.31752853933722,35.76135181088466 177.85742612089962,36.6406235480099 179.19990093563683,37.81298273432185 180.58186030341312,39.66921079737949 181.29258226417005,41.08579986557015 181.5689741380047,41.91621171872248 181.8058814581018,43.38164002326084 181.76639690459706,44.06550465273904 181.64794324454851,44.70052071905229 181.68742779805325,45.77516090194695 181.49000503122807,48.11981996052782 180.93722128402442,50.41561809318955 180.14753021649085,53.102172959566815 180.0685611097142,54.323328053666046 179.67371557606384,55.886400911491364 179.5552619160153,56.667934956232784 179.5947464692872,56.912164019275224 179.71320012933575,57.156392927019624 180.34495298331603,57.54715885670157 180.42392209009267,57.69369597788318 180.4634066435974,58.13330700609367 180.34495298331603,58.9148364814173 180.10804566321895,59.110218601766974 177.7784570143558,59.50098254476325 176.75185862649232,59.45213707353105 175.8042293456383,59.15906411645119 175.17247649165802,59.15906411645119 173.98793989047408,59.89174609037582 173.7905171236489,60.18481848866213 173.71154801687226,60.47789066360565 173.63257891009562,60.91749850689666 173.71154801687226,61.161724869161844 173.90897078369744,61.50364151567919 174.38278542435728,61.89440302475123 175.13299193815328,62.33400924777379 175.48835291853175,62.62707978361868 175.60680657881312,62.87130505946698 175.60680657881312,63.06668516836362 175.448868365027,63.84820461075287 175.21196104492992,64.38549830546253 174.9355691713281,64.53203281905735 174.18536265729927,64.23896373587195 172.2506195420865,63.06668516836362 171.73732034815475,62.87130505946698 171.5793821348343,62.92015009588795 171.50041302782483,63.01784015048179 171.50041302782483,63.4086001199903 171.69783579511568,66.97426648731926 171.5793821348343,67.8534668085631 171.50041302782483,68.0 171.06608294090256,67.95115560898557 169.92103089322336,67.26733348463313 168.9339170588646,66.8765774386411 167.94680322450586,66.77888836502098 167.27556581725366,66.77888836502098 164.63010074128397,66.29044262474054 163.87989422725514,66.29044262474054 162.85329583962448,66.1927534021379 161.1554600445088,65.80199626355898 159.5760779096745,65.80199626355898 159.06277871597558,65.50892814877443 158.9048405024223,65.26470454919036 158.86535594891757,64.72741208379739 158.98380960919894,63.06668516836362 158.9048405024223,61.65017712811823 159.02329416247085,60.33135460401536 158.9443250556942,56.912164019275224 158.98380960919894,56.32601400726708 158.9048405024223,56.03293866588501 158.70741773559712,56.22832225161255 158.27308764844202,56.179476364457514 158.1941185418982,56.03293866588501 158.27308764844202,55.64217119658133" stroke="#4dd2ff" stroke-linecap="round" stroke-linejoin="round" stroke-width="0.5"><title>2023-11-08 2.5km</title><desc>10341819064</desc></polyline><polyline fill="none" points="20.380138613283634,95.05823372778832 20.420221369015053,95.35575041765696 20.660717903636396,95.40533651053556 21.302041996270418,95.95078311656835 21.742952309781685,96.04995514487382 21.90328333270736,96.19871314003831 22.023531600134447,96.34747107839212 22.183862623292953,96.74415863666218 22.023531600134447,97.68628997117048 22.103697111830115,98.18214765441371 22.023531600134447,98.87634735193569 22.023531600134447,100.51267032290343 22.22394537902437,102.44649771240074 22.22394537902437,104.67782509647077 22.143779867561534,105.8182763865625 22.063614356098697,106.01661540105124 21.86320057697594,106.16536959569203 21.422290263464674,106.0662001388846 20.780966171063483,105.6695220595866 20.099559322698042,105.1736738930631 19.217738695675507,104.28114560531685 17.093352639349177,101.2068658733333 16.732607837300748,100.36391397268744 16.371863035252318,99.12427551596193 16.3317802795209,97.83504734226153 16.091283744899556,95.05823372778832 15.97103547747247,94.16568229690893 15.770621698815376,93.71940581567469 15.850787210278213,93.37230153282871 15.57020791969262,92.03346783452434 15.409876896534115,89.95082850393374 15.129297606181353,88.90950466916547 14.92888382752426,87.86817805460305 14.768552804132923,85.38881778379437 14.848718315828592,84.29789427213836 15.20946311764419,81.42180857207859 15.369794141035527,80.87634165032068 15.409876896534115,79.38870071465499 15.57020791969262,78.54570166594931 15.690456187119707,78.04981902174768 16.091283744899556,77.50434738470358 17.01318712788634,75.37204184877919 17.814842243213207,74.47944537282456 18.73674562619999,73.73561341583263 20.13964207842946,72.94219109832193 20.90121443825774,72.69424629313289 23.065683250315487,72.44630133037572 23.827255610376596,72.1983562099631 25.02973828348331,72.0 27.114041584078223,72.09917811767082 27.91569669963792,72.29753427690594 28.55702079203911,72.29753427690594 29.438841419061646,72.49589033561642 33.24670321820304,73.83479109220207 37.575640842318535,75.12409858818864 39.17895107343793,75.71916214909288 40.22110272361897,76.21504775629728 41.34341988549568,76.9588749850227 42.26532326848246,77.70270079554757 43.78846798790619,79.48787695355713 44.38970932480879,80.47963795560645 44.87070239405148,81.66974782969919 45.15128168440424,83.05820476036752 45.23144719586708,83.85160650176113 45.15128168440424,85.6367545198882 44.87070239405148,88.81033082562499 44.71037137089297,89.70289450971177 43.868633499369025,92.72767847386422 43.46780594182201,93.71940581567469 43.3074749186635,93.86816469958285 43.10706113977358,93.96733725714148 41.34341988549568,93.91775098151993 39.7801924101077,94.01692352659302 38.89837178308517,94.3640272358316 38.05663391156122,94.5127858738997 36.2529099015519,94.31444101047236 35.73183407634497,94.46319966748706 35.21075825137086,94.41361345475889 35.05042722844519,94.5127858738997 35.05042722844519,94.71113063624944 35.17067549563944,95.30616431843373 35.69175132061355,96.94250226460281 35.73183407634497,97.73587576777209 35.57150305341929,98.82676170018385 35.090509983943775,100.7605974469916 34.85001344932243,102.00023070411407 34.80993069359101,103.19027492508758 34.9301789610181,103.88446571081295 34.89009620505385,104.42990046183695 35.01034447248094,104.92574957342003 35.01034447248094,105.91744590632152 34.89009620505385,107.6529084231006 34.80993069359101,107.90083100955235 34.449185891542584,107.95041550786118 33.84794455487281,107.85124650478247 33.366951485397294,108.0 32.88595841615461,108.0 28.91776559408754,107.4049856789934 27.073958828346804,107.25623195702792 25.06982103944756,106.76038580734166 23.34626254090108,106.56204717088258 22.98551773885265,106.46287781497813 22.66485569253564,106.21495431457879 22.344193646218628,106.26453902735375 22.22394537902437,106.21495431457879 22.063614356098697,105.96703065681504 21.98344884440303,105.71910684148315 22.023531600134447,104.28114560531685 21.90328333270736,102.8927642100607 22.143779867561534,100.85976825249963 22.103697111830115,99.9672300950333 22.143779867561534,96.79374455314246 22.023531600134447,96.44664300579461 21.94336608843878,96.49622895996436 21.98344884440303,96.59540084959008 21.98344884440303,96.54581490799319 21.94336608843878,96.49622895996436 21.382207507733256,96.54581490799319" stroke="#4dd2ff" stroke-linecap="round" stroke-linejoin="round" stroke-width="0.5"><title>2023-11-03 3.1km</title><desc>10389486333</desc></polyline><polyline fill="none" points="67.36746614403091,95.75243898434564 67.32738338317722,96.24829912555288 67.6079627093859,96.49622895990615 68.00879031792283,96.64498678478412 68.61003173119389,96.59540084938635 68.85052829654887,96.79374455311336 68.65011449204758,97.2400175172661 68.81044553546235,97.38877505861456 68.85052829654887,97.73587576774298 68.73028001375496,99.0251042691234 68.77036277460866,104.33073056375724 68.65011449204758,105.47118286852492 68.56994897010736,105.71910684151226 68.44970068777911,105.8182763865043 68.08895583986305,105.7686916171806 67.20713510038331,105.37201323531917 66.60589368734509,104.92574957359466 65.88440399174578,104.23156064053182 64.16084527410567,101.75230436769198 63.39927281741984,100.36391397257103 63.158776252297685,99.47137468089932 62.99844520888291,98.03339041533764 62.196789991343394,91.98388131285901 61.91621066513471,90.84338957842556 61.91621066513471,90.05000205730903 61.51538305636495,87.27313302643597 61.47530029551126,85.53757984418189 61.55546581745148,84.8929438383202 61.51538305636495,84.14913173849345 61.87612790428102,81.62015999059076 62.03645894769579,80.97551751087303 61.99637618707493,80.43004996521631 62.076541708549485,79.4382888370892 62.357121034990996,77.95064241698128 63.39927281741984,75.76875073794508 63.8001004261896,75.22327591115027 65.16291429591365,73.98355755899684 66.5658109264914,73.09095790571882 67.4075489048846,72.79342423402704 69.93276284006424,72.19835620981758 70.69433529651724,72.24794524643221 71.81665260111913,72.04958906196407 73.21954923169687,72.0 75.94517697114497,72.4958903354418 77.38815636257641,73.09095790571882 81.03568760212511,74.13232396941748 85.20429473300464,75.47121910893475 86.12619823310524,75.86792789719766 87.288598298328,76.46299032337265 88.01008799416013,76.95887498481898 89.21257082046941,78.04981902151485 89.89397775521502,78.89281914176536 90.61546745081432,80.1325218914717 91.17662610299885,81.17386915659881 91.61753647285514,82.26480140481726 91.77786751626991,82.95902942898101 91.8580330379773,83.95078160581761 91.69770199456252,85.38881778347422 91.8179502771236,86.38056378281908 91.65761923370883,88.1657002279535 91.33695714664645,89.50454720068956 91.01629505981691,90.39710929628927 90.81588125508279,91.09132284778752 90.69563297275454,92.18222736113239 90.13447432033718,93.71940581547096 89.93406051606871,93.9177509812871 89.53323290753178,94.0169235264184 86.527025841875,93.86816469937912 85.4848740589805,94.0665097895835 83.48073601536453,94.0169235264184 81.9976738630794,94.2648547787685 81.7972600585781,94.46319966739975 81.75717729795724,94.81030297957477 81.7972600585781,95.25657821277855 82.15800490649417,96.44664300559089 82.35841871099547,97.2400175172661 81.55676349345595,101.35562190183555 81.59684625430964,103.09110471198801 81.71709453687072,104.1323906921607 81.63692901516333,105.91744590635062 81.55676349345595,106.46287781497813 81.55676349345595,107.35540111133014 81.47659797151573,107.9504155079776 79.83320477581583,108.0 78.22989434073679,107.80166199384257 76.02534249285236,107.35540111133014 74.7426941448357,107.20664737044717 74.30178377521224,107.25623195699882 73.54021131875925,107.05789357281174 71.61623879685067,106.85955508769257 68.40961792669259,106.06620013900101 67.48771442682482,105.6199372713163 66.28523160051554,104.72741000453243 65.52365914382972,103.83488069562009 65.08274877420627,103.1406898216519 64.16084527410567,101.90106018836377 63.59968662192114,100.81018285281607 63.23894177400507,99.71930246677948 62.99844520888291,98.33090483624255 62.878196926089004,96.69457271377905 62.51745207840577,94.16568229685072 62.51745207840577,93.62023319481523 62.67778312158771,93.37230153262499 62.878196926089004,93.32271518133348 64.8823349699378,93.62023319481523 66.88647301355377,93.47147421652335 68.00879031792283,93.52106054889737 68.69019725290127,93.66981950830086 68.81044553546235,93.81857841112651 68.81044553546235,94.11609604628757 68.65011449204758,96.29788510510116 68.44970068777911,96.44664300559089 68.08895583986305,96.39705704510561 68.00879031792283,96.29788510510116 68.00879031792283,95.95078311651014 67.88854203536175,95.75243898434564 67.68812823109329,95.60368081901106" stroke="#4dd2ff" stroke-linecap="round" stroke-linejoin="round" stroke-width="0.5"><title>2023-11-02 3.4km</title><desc>10389486352</desc></polyline><polyline fill="none" points="115.75686108437367,95.320819939574 115.6362806239631,95.27109685583855 115.5157001640182,94.97275822091615 115.5157001640182,93.82912467903225 115.47550667705946,93.67995484001585 115.2745392434299,93.58050824908423 115.2745392434299,93.43133831545128 115.43531319033355,91.44240043015452 115.23434575670399,90.6965461159416 115.19415226997808,89.30428092452348 115.23434575670399,89.15510936017381 115.31473273015581,89.30428092452348 115.31473273015581,88.75731824352988 115.47550667705946,88.65787040116265 115.39511970360763,88.75731824352988 115.47550667705946,88.8070421552984 115.35492621711455,88.85676606060588 115.11376529652625,88.75731824352988 115.19415226997808,88.75731824352988 115.2745392434299,88.35952672240091 115.39511970360763,85.92304482878535 115.35492621711455,85.27662871783832 115.43531319033355,84.48103819182143 115.31473273015581,83.28764936863445 115.39511970360763,82.24343116156524 115.39511970360763,81.24893503964995 115.5157001640182,81.0500355118129 115.71666759741493,80.25443638910656 115.75686108437367,79.16048495305586 115.8774415445514,78.36488198698498 115.91763503104448,76.52504392983974 116.31956989853643,75.03327699002693 116.31956989853643,73.5912302066863 116.44015035871416,73.5415043606481 116.39995687198825,73.29287503610249 116.48034384544007,73.14369736533263 116.39995687198825,72.9945196378394 116.35976338502951,73.04424555326113 116.31956989853643,72.84534185327357 116.39995687198825,72.59671208605869 116.60092430561781,72.4475341499201 117.00285917287692,72.248630146496 117.8469223943539,72.19890412973473 117.96750285453163,72.09945207758574 118.44982469524257,72.0 120.86143389926292,72.09945207758574 123.11226915637963,72.7458899653866 124.55923467874527,73.34260091360193 128.77955078566447,74.43656862110947 129.94516190094873,74.93382565837237 131.63328834366985,75.28190520839416 132.7185124855023,75.72943560327985 134.3262519550044,76.62449485703837 135.17031517624855,77.32065063831396 135.77321747737005,77.91735460743075 136.8584416192025,79.25993520999327 137.34076345991343,79.95608630083734 138.2652136546094,81.74618341668975 138.34560062829405,82.14398166327737 138.42598760174587,82.93957694270648 138.38579411478713,85.27662871783832 138.06424622097984,87.06670148498961 137.98385924776085,89.30428092452348 137.8632787875831,90.00041413964937 137.38095694663934,91.93963584958692 136.8584416192025,93.38161499146372 136.6172806986142,93.7296781259065 136.41631326498464,93.8788479459763 136.01437839772552,93.97829446100513 134.44683241518214,93.92857120657573 133.12044735299423,93.7296781259065 131.91464275098406,93.92857120657573 130.62845117552206,94.07774095080094 129.02071170625277,93.97829446100513 128.538389865309,94.07774095080094 128.33742243167944,94.37608026823727 128.41780940513127,95.71860438163276 128.77955078566447,96.91195528116077 128.8599377591163,97.45890656014672 128.1766484847758,101.53615563205676 128.13645499804989,103.0278215042199 128.25703545846045,103.62448626046535 128.33742243167944,104.71836928342236 128.2168419715017,107.303898814891 128.1766484847758,107.701671072311 128.09626151132397,107.9005570494337 127.81490710400976,108.0 124.96116954600438,107.65194956233609 121.94665804132819,107.1050125346519 121.0222078463994,107.00556935655186 119.97717719129287,106.80668292447808 117.56556798727252,106.50835308682872 115.8774415445514,106.40890975718503 115.47550667705946,106.3094664021337 115.07357180980034,106.16030132203014 113.70699326088652,105.36475326830987 112.98351049982011,104.81781304292963 112.21983425179496,103.97254028148018 110.16996642830782,100.84004294520128 109.72783807408996,99.69642655609641 109.48667715396732,98.6522521506995 109.48667715396732,97.90641158318613 109.52687064069323,97.26001527442713 109.40629018028267,96.16611139569432 109.36609669378959,94.82358881810796 109.12493577320129,93.28216832486214 109.0445487999823,93.33189166130614 108.96416182629764,92.43687063685502 108.76319439290091,91.69101821878576 108.68280741898343,91.04461163948872 108.2406790649984,85.27662871783832 108.2406790649984,84.33186478810967 108.36125952540897,82.8898522851232 108.56222695903853,81.54728414170677 108.4818399855867,81.19921016710578 108.44164649909362,81.09976040312904 108.36125952540897,81.09976040312904 108.32106603868306,80.95058570991387 108.56222695903853,80.10526137330453 108.76319439290091,78.6135080876993 109.00435531325638,77.61900273663923 109.32590320683084,77.1217491129355 109.72783807408996,76.12723996894783 110.21015991503373,75.28190520839416 110.97383616305888,74.38684288252261 111.7777058975771,73.79013352739275 113.34525188035332,72.9945196378394 114.9127978628967,72.6464380522666 115.35492621711455,72.6464380522666 115.59608713723719,72.7458899653866 115.75686108437367,72.94479371592752 115.8774415445514,73.34260091360193 115.8774415445514,74.53602007901645 115.79705457086675,75.8786122877209 115.8774415445514,78.26543150248472 115.71666759741493,80.45333632137044 115.71666759741493,81.24893503964995 115.59608713723719,81.94508259053691 115.55589365051128,82.74067827453837 115.83724805782549,84.67993597505847 115.79705457086675,87.16614973195828 115.91763503104448,88.06118281601812 115.91763503104448,89.30428092452348 115.8774415445514,89.95069037971552 115.55589365051128,92.03908285751822 115.39511970360763,92.5363175185339 115.39511970360763,93.92857120657573 115.2745392434299,95.12192756679724 115.23434575670399,96.116388419352 115.11376529652625,96.36500323744258 114.75202391599305,96.46444912045263" stroke="#4dd2ff" stroke-linecap="round" stroke-linejoin="round" stroke-width="0.5"><title>2023-10-27 3.6km</title><desc>10389486363</desc></polyline><polyline fill="none" points="160.876077351626,96.21583436543006 160.83588386001065,96.36500323741348 160.9162708434742,96.41472618203261 161.84072115598246,96.5141720524116 162.12207559891976,96.61361789749935 162.20246258261614,96.76278661785182 162.12207559891976,97.1605695936014 162.08188210707158,99.0500332051306 162.08188210707158,100.24337394174654 162.16226909076795,101.03893241059268 162.12207559891976,103.52504219749244 162.20246258261614,104.32059399259742 162.20246258261614,105.41447506909026 162.08188210707158,105.8122492475668 161.80052766413428,106.01113618520321 161.55936671304516,106.01113618520321 160.9564643355552,105.66308397805551 159.67027259641327,104.76809116633376 159.1075637107715,104.07198423051159 158.18311339826323,103.17698777848273 157.09788911836222,101.48643333828659 156.4949867411051,99.69642655612552 156.33421277347952,98.80142009348492 156.05285833077505,97.75724329895456 155.73131039598957,93.97829446083051 155.73131039598957,93.28216832465841 155.77150388783775,93.33189166116063 155.20879500196315,91.19378248328576 155.00782754272223,89.15510935994098 154.76666659186594,85.52525042518391 154.80686008371413,83.63572148475214 155.0480210345704,81.99480736811529 155.1284080184996,81.44783446620568 155.40976246120408,80.95058570991387 155.610729920445,79.75718611554476 155.81169737968594,77.8179040090472 156.4949867411051,75.92833783655078 156.9371151512023,75.13272829627385 157.29885657783598,74.73492291933508 157.78117847978137,74.23766562904348 158.22330689011142,73.88958514976548 160.55452941684052,72.7458899654157 162.0416886152234,72.49726013489999 162.92594543565065,72.54698611368076 163.20729987858795,72.7458899654157 163.3680738459807,72.4475341499201 163.6092347970698,72.29835615685442 163.8905892400071,72.24863014643779 163.97097622370347,72.39780815856648 163.8503957479261,72.34808216095553 163.9307827318553,72.14917810677434 164.57387860119343,72.0 167.0658750955481,72.09945207755663 169.79903254075907,72.69616401195526 172.57238347781822,73.74040770670399 174.82321902085096,74.18793986516539 177.03386107226834,74.88409998305724 178.2798593195621,75.48080766925705 180.45030787866563,76.37586749196635 181.81688660173677,77.32065063819755 182.4599824710749,77.86762931136764 182.90211088117212,78.36488198689767 184.1079156366177,80.0058113312407 184.50985055486672,80.70196109460085 184.95197896519676,81.99480736811529 185.19313991628587,83.18820013551158 185.23333340813406,84.4810381916468 185.19313991628587,86.12194187866407 184.99217245704494,88.16063081007451 184.71081801434048,89.105385492614 184.22849611192942,91.4921240004187 183.94714166922495,92.58604094976909 183.7863677018322,93.23244498192798 183.62559373443946,93.48106163289049 183.344239291735,93.67995483984123 182.94230437325314,93.82912467885762 180.20914692804217,93.87884794577258 178.92295518890023,94.22691063774982 178.03869836847298,94.32635706433211 175.94863679260015,94.0280177089735 175.26534743141383,94.22691063774982 175.18496044748463,94.32635706433211 175.18496044748463,94.92303509285557 175.62708885781467,96.56389497805503 175.74766933335923,97.1605695936014 175.70747584151104,97.55835216492414 175.3859279069584,98.40363878605422 175.14476695586927,99.54725895440788 175.02418648032472,100.54170855719713 174.94379949662834,103.42559810946113 175.10457346378826,104.91725677720387 175.10457346378826,106.0608579039108 174.9839929882437,107.70167107248562 174.94379949662834,107.9005570493755 174.7830255292356,108.0 171.44696570630185,107.60222804598743 170.44212841033004,107.35362036922015 166.70413366891444,107.0552909487742 165.4983289137017,106.80668292444898 164.97581351967528,106.75696130067809 164.01116971555166,106.50835308679962 162.40343004162423,106.45863142513554 161.67994718858972,106.21002302173292 161.1574317945633,105.96141446032561 160.23298148228787,105.26530964791891 159.42911164532416,104.56920359676587 158.8664027596824,104.02226225906634 157.700791496085,102.08310044556856 156.9773086430505,101.03893241059268 156.4949867411051,100.0942065489362 156.61556721641682,99.54725895440788 156.3744062653277,98.50308415087056 156.3744062653277,97.65779774455586 156.45479324902408,97.45890656008851 156.45479324902408,97.0114010249672 156.57537372456864,96.36500323741348 157.2586630859878,96.3152802863624 158.06253292271867,96.41472618203261 158.66543530044146,96.21583436543006 158.82620926760137,95.42026608789456 159.06737021869048,95.22137376570026" stroke="#4dd2ff" stroke-linecap="round" stroke-linejoin="round" stroke-width="0.5"><title>2023-10-25 3.2km</title><desc>10389486356</desc></polyline><polyline fill="none" points="22.13130448013544,137.24515984018217 22.09105539834127,137.3447430478118 22.09105539834127,137.89245023753028 21.97030815249309,138.88827952949214 22.050806316314265,140.232645058044 22.211802643956617,141.17867729405407 21.97030815249309,143.7180156832619 21.97030815249309,145.46068936720258 21.889809988439083,145.8590136921266 21.608066415181383,146.05817570278305 21.366571923485026,145.95859471010044 20.642088448395953,145.56027048631222 19.39436690811999,144.56445815516054 18.629634351469576,143.61843409575522 17.663656384684145,142.074916252197 17.140418319497257,141.42763276587357 16.697678417898715,140.6309746990446 16.37568576238118,139.58535852757632 16.295187598560005,138.9878623194818 15.892696779221296,134.50661170866806 15.651202287524939,133.51077127773897 15.691451369551942,133.3116028876684 15.771949533373117,133.3116028876684 15.731700451346114,133.36139499463025 15.651202287524939,132.61451272529666 15.409707796061411,131.36970577813918 15.208462386159226,130.1248948755092 15.12796422210522,128.88008001673734 14.886469730408862,127.23691834599595 14.725473402999341,125.24519798898837 14.926718812668696,123.55222772274283 14.926718812668696,122.40697898165672 15.087715140543878,121.21193324713386 15.288960550213233,120.81358385863132 15.369458713801578,120.11647145400639 15.369458713801578,119.26997615204891 15.570704123703763,118.22430295919185 16.33543668058701,116.23253677369212 16.737927499925718,115.38603307795711 17.381912810960785,114.589322045882 18.347890777513385,113.7428147988685 19.072374252602458,113.29466316266917 19.676110481843352,113.09548449309659 21.487319169333205,112.64733211626299 23.137531528947875,112.44815311749699 23.3387769383844,112.3485635802499 23.459524184232578,112.14938442938728 23.701018675928935,112.14938442938728 24.063260413473472,112.0 25.310981953749433,112.0497948162083 26.276959920302033,112.0 27.564930542604998,112.14938442938728 29.4968864757102,112.64733211626299 30.382366278441623,113.045689809951 31.952080474235117,113.493841730844 33.36079834215343,113.99178770850995 34.0852818172425,114.19096592214191 34.930512537946925,114.29055499119568 36.09773591416888,114.73870548792183 37.06371388095431,114.98767776449677 39.15666614193469,115.68479929704336 40.404387682210654,116.2823310518288 41.531361976405606,117.07903864013497 42.738834434654564,118.22430295919185 43.463317909510806,119.17038834912819 44.550043122144416,120.86337755431305 44.952533941483125,122.00863080861745 45.19402843317948,123.2036741124466 45.27452659700066,124.44850701050018 45.234277515206486,125.54395668811048 44.791537613840774,129.22862857603468 44.268299548421055,130.9215743090026 43.82555964705534,133.11243439640384 43.584065155358985,133.66014750371687 43.22182341781445,133.90910775383236 42.69858535286039,133.8095236728841 41.20936932088807,133.9588997849496 40.52513492805883,133.90910775383236 38.915171650238335,134.15806784585584 35.333003357285634,134.058483828092 35.17200702964328,134.10827584005892 35.0110107017681,134.30744382500416 34.9707616197411,134.556403663737 35.0110107017681,135.05432286663563 35.45375060313381,136.49828497576527 35.53424876695499,137.39453464225517 35.37325243931264,138.63932244389434 35.0110107017681,139.98368882681825 34.9707616197411,141.0790950609662 35.0512597837951,142.67240775178652 34.930512537946925,144.0167602939764 35.0512597837951,144.86320212029386 35.0512597837951,146.20754714420764 35.0110107017681,147.75104870498762 34.930512537946925,147.85062924184604 34.72926712804474,148.0 33.19980201427825,147.95020975355874 32.475318539422005,147.75104870498762 30.90560434386134,147.60167785192607 29.979875458870083,147.4025166259671 28.45041034510359,147.25314564013388 26.598952575819567,146.90461311829858 22.292300808010623,146.40670897782547 21.769062742823735,146.25733761215815 20.239597628824413,145.36110822265618 19.273619662271813,144.56445815516054 18.871128842933103,144.0167602939764 18.54913618741557,143.41927084483905 17.30141464713961,141.62679702942842 16.77817658195272,140.73055704604485 16.61718025407754,140.232645058044 16.61718025407754,139.48577588965418 16.295187598560005,138.48994811656303 16.37568576238118,137.6434925190115 16.456183926435187,137.4443262302375 16.33543668058701,137.0459933488455 16.33543668058701,136.4484932674386 16.415934844408184,136.348909831926 16.8989238278009,136.19953463127604 17.663656384684145,136.0999511324335" stroke="#4dd2ff" stroke-linecap="round" stroke-linejoin="round" stroke-width="0.5"><title>2023-10-23 3.1km</title><desc>10389486351</desc></polyline><polyline fill="none" points="67.98874783422798,135.55409475110355 67.66808570665307,135.8020250267 67.5077546427492,136.04995514452457 67.5077546427492,136.14912714762613 67.82841677032411,136.34747107807198 68.46974102593958,136.49622895967332 68.79040315374732,136.49622895967332 68.91065145167522,136.69457271366264 68.91065145167522,136.84333046292886 68.87056868546642,138.38049055080046 68.75032038777135,139.1242755157291 68.67015485581942,140.41349942889065 68.83048591972329,142.39691251434851 68.79040315374732,145.37201323520276 68.67015485581942,145.81827638638788 68.34949272801168,145.96703065678594 68.06891336617991,145.86786114948336 66.4255199613981,144.8761646906496 65.78419570601545,144.23156064053182 64.5416299609933,142.39691251434851 64.3011333651375,142.00023070391035 64.10071953525767,141.40520723199006 63.37922974769026,139.96723009482957 63.058567620115355,138.8267616998928 63.01848485390656,137.3391892176296 62.377160598523915,133.52106054860633 62.377160598523915,133.22354245965835 62.45732613070868,133.17395608930383 62.377160598523915,132.38057330826996 62.096581236692145,131.24008273362415 62.01641570474021,129.60372086751158 61.65567081118934,127.22354589961469 61.575505279237404,125.1904682808381 61.73583634314127,123.7028437978006 61.93625017302111,122.56232785212342 62.01641570474021,121.02510543164681 62.096581236692145,120.67798985313857 62.21682953485288,119.43828883682727 62.497408896451816,117.90105410513934 63.25898144976236,116.16545922358637 63.90030570561066,115.12409858795581 64.46146442904137,114.33067909473903 65.22303698235191,113.78520225698594 66.58585102530196,113.09095790574793 67.70816847262904,112.69424629298737 70.23338272841647,112.148767166771 70.83462421805598,112.148767166771 70.79454145208001,112.39671231879038 70.75445868610404,112.29753427678952 70.79454145208001,112.24794524649042 71.31561740976758,112.148767166771 73.88091443153098,112.0 74.52223868714646,112.04958906187676 75.24372847448103,112.34712330094771 77.16770124109462,112.84301319497172 79.41233613551594,113.98355755902594 82.17804698739201,114.47944537259173 85.02392337098718,115.37204184857546 86.9078133716248,116.21504775591893 87.66938592516817,116.8596981028677 88.47104124468751,117.35558226026478 89.23261379799806,118.14899560066988 90.31484847911634,119.43828883682727 91.11650379840285,120.87634165002964 91.39708316023462,121.52098429363105 91.51733145816252,121.96727473058854 91.75782805401832,123.75243137194775 91.67766252206638,127.22354589961469 91.51733145816252,128.56239610616467 90.91608996852301,130.94256290484918 90.3549312450923,132.52933270274661 90.07435188349336,133.66981950803893 89.95410358533263,133.91775098117068 89.79377252142876,134.01692352630198 89.23261379799806,133.81857841086457 86.74748230772093,133.76899211629643 86.22640635026619,133.91775098117068 85.34458549879491,134.31444101015222 84.9036750732921,134.36402723551146 83.50077826436609,134.06650978929247 81.9375503915362,133.96733725682134 81.6970537956804,134.06650978929247 81.97763315751217,135.20699210074963 82.49870911519974,136.59540084926994 82.57887464691885,137.28960337044555 82.49870911519974,137.8350473419705 81.9375503915362,139.32261793338694 81.7371365618892,140.71101203447324 81.9375503915362,142.248156882677 81.89746762556024,142.69442360731773 81.6970537956804,143.339030197385 81.5768054977525,145.22325873802765 81.5768054977525,147.50415479554795 81.53672273177654,147.85124650475336 81.4565571998246,147.95041550786118 81.1358950722497,148.0 76.92720464523882,147.25623195702792 75.84496996412054,147.25623195702792 73.19950741017237,146.7108011576056 71.11520357965492,146.5620471709699 68.67015485581942,146.16536959566292 68.10899613215588,146.01661540105124 66.74618208943866,145.07450418404187 65.62386464234442,143.93405071963207 64.3011333651375,141.90106018830556 63.49947804561816,140.81018285258324 63.339146981947124,140.26474304086878 63.339146981947124,139.37220352212898 62.97840208816342,138.08297616790514 63.01848485390656,137.8846331196837 63.21889868401922,137.28960337044555 63.25898144976236,136.59540084926994 63.41931251389906,136.09954114927677 63.860222939401865,135.9507831162773 65.22303698235191,136.00036913348595 65.34328528027982,135.9507831162773 65.50361634418368,135.55409475110355 65.86436123773456,135.00864759052638" stroke="#4dd2ff" stroke-linecap="round" stroke-linejoin="round" stroke-width="0.5"><title>2023-10-20 3.2km</title><desc>10389486346</desc></polyline><polyline fill="none" points="115.16276969900355,135.50244960805867 115.20301878079772,136.19953463127604 115.64575868239626,136.54807667766 115.68600776419044,136.84682675643126 115.24326786282472,140.28243628525524 115.44451327249408,142.47324401992955 115.32376602687873,143.66822489266633 115.44451327249408,144.46487678281846 115.44451327249408,145.41089879814535 115.24326786282472,145.95859471010044 114.96152428933419,146.10796618970926 114.67978071584366,146.05817570278305 113.3918100935407,145.26152705281856 112.66732661868446,144.66403950224048 110.97686517704278,142.2242892125214 110.25238170195371,140.97951280264533 110.05113629228435,140.48160113123595 109.890139964642,139.933897561481 109.64864547294565,138.78869671424036 109.56814730889164,137.39453464225517 109.20590557157993,134.35723580533522 109.04490924370475,133.70993956635357 109.08515832573175,133.16222652877332 108.92416199785657,132.0667981559236 108.76316567021422,131.31991341806133 108.64241842413321,130.17468738753814 108.1996785227675,127.58546836741152 108.15942944120616,125.24519798898837 108.44117301446386,123.30326089001028 108.52167117851786,122.25759846437722 108.52167117851786,121.01275860355236 108.68266750616021,119.96709006320452 108.76316567021422,118.77203688456211 108.96441107988358,117.97533273985027 109.72914363676682,116.03335959816468 110.13163445610553,115.28644428757252 110.77561976737343,114.5395275526389 111.82209589798003,113.64322559069842 113.67355366703123,112.69712685010745 115.68600776419044,112.24897401739145 116.28974399343133,112.29876880199299 116.53123848512769,112.44815311749699 116.49098940310068,112.74692157766549 116.53123848512769,112.74692157766549 116.45074032130651,112.89630572224269 116.49098940310068,113.09548449309659 116.57148756692186,112.5975373761321 116.85323114064522,112.3485635802499 117.13497471413575,112.24897401739145 118.54369258205406,112.0 120.99888658081181,112.14938442938728 123.4943296611309,112.69712685010745 124.29931129980832,113.09548449309659 125.94952365965582,113.69302019802853 128.64621214964427,114.34034951610374 131.90638778707944,115.33623868584982 133.1541093273554,115.88397664992954 133.91884188400581,116.2823310518288 135.20681250630878,117.27821528402274 136.93752302997746,119.17038834912819 137.50101017695852,120.06667766335886 138.2254936520476,121.46090140912565 138.46698814351112,122.65594638418406 138.50723722553812,123.4526410086255 138.34624089789577,125.49416358745657 138.38648997968994,125.99209430962219 138.38648997968994,126.6394033022807 138.2254936520476,128.3821529656998 138.02424824237823,129.3780064349703 137.17901752144098,132.66430492079235 136.6557794562541,133.70993956635357 136.41428496455774,133.90910775383236 136.17279047286138,133.9588997849496 134.40183086739853,133.90910775383236 133.1541093273554,133.75973162276205 131.90638778707944,134.2078598451917 131.02090798411518,134.35723580533522 129.45119378855452,134.058483828092 128.6059630678501,134.15806784585584 128.4047176579479,134.30744382500416 128.48521582200192,134.95473907669657 129.0084538871888,136.64766006253194 129.04870296898298,137.0459933488455 128.84745755931363,138.1911992909445 128.44496673997492,139.38619322612067 128.28397041209973,140.232645058044 128.28397041209973,141.1288861806388 128.16322316625156,143.17031663865782 128.28397041209973,143.96696954141953 128.32421949412674,144.7636208240001 128.28397041209973,146.40670897782547 128.20347224827856,147.7012584268523 128.0022268386092,148.0 126.51301080663688,148.0 124.33956038183533,147.7012584268523 122.81009526806884,147.4025166259671 119.71091595850885,147.0539842370199 118.9059343195986,146.8548227326537 118.50344350049272,146.6556611272099 117.57771461550146,146.50628985645017 116.04824950173497,146.40670897782547 115.3640151086729,146.20754714420764 115.20301878079772,146.05817570278305 115.16276969900355,145.8590136921266 115.28351694485173,144.0167602939764 115.12252061697654,141.87575221635052 115.24326786282472,140.53139232681133 115.24326786282472,138.53973956531263 115.32376602687873,137.59370095626218 115.28351694485173,136.59786837321008 115.20301878079772,136.4484932674386 114.96152428933419,136.59786837321008 114.63953163358383,136.49828497576527 114.4382862241473,136.0999511324335 114.23704081447795,135.9007840588456" stroke="#4dd2ff" stroke-linecap="round" stroke-linejoin="round" stroke-width="0.5"><title>2023-10-19 3.1km</title><desc>10389486342</desc></polyline><polyline fill="none" points="160.52134120231494,135.9007840588456 160.40059395646676,136.19953463127604 160.48109212052077,136.39870155294193 162.01055723428726,136.69745174545096 162.21180264395662,137.0459933488455 162.21180264395662,137.84265870650415 162.05080631631427,139.087445084122 162.13130448013544,139.73473243735498 162.05080631631427,140.33222750626737 162.1715535619296,141.82596119176014 162.21180264395662,144.31550467689522 162.13130448013544,145.75943264891976 162.05080631631427,145.95859471010044 161.88980998843908,146.10796618970926 161.4068210052792,146.05817570278305 160.52134120231494,145.56027048631222 159.2333705802448,144.5146674721036 158.46863802312873,143.5188524828991 156.93917290959507,141.0790950609662 156.37568576238118,139.43598456101608 156.29518759832717,138.93807092757197 155.89269677898847,134.6559875549283 155.73170045134611,134.2078598451917 155.57070412347093,132.66430492079235 155.40970779559575,131.5688751556445 155.20846238615923,129.129043305089 155.0474660580512,128.48173842657707 154.96696789446287,127.33650409802794 154.96696789446287,126.04188734712079 154.8462206486147,125.39457736702752 154.96696789446287,124.24933401265298 155.0474660580512,122.4567724748631 155.2487114679534,121.21193324713386 155.36945871356875,119.12059443828184 155.6512022872921,117.87574460782344 156.17444035271183,116.58109658738249 156.97942199138924,115.23664988277596 157.62340730265714,114.5395275526389 159.11262333439663,113.44404709836817 160.7628356940113,112.69712685010745 163.05703336466104,112.09958962598466 163.2985278563574,112.199179226649 163.41927510220557,112.39835835201666 163.3387769383844,112.9461004245095 163.25827877456322,112.9461004245095 163.25827877456322,113.09548449309659 163.21802969253622,112.99589512031525 163.25827877456322,112.9461004245095 163.1375315284822,112.89630572224269 163.05703336466104,112.69712685010745 163.1375315284822,112.49794787660358 163.37902602017857,112.24897401739145 163.8620150035713,112.09958962598466 165.71347277308814,112.09958962598466 167.04169247718528,112.0 167.444183296524,112.09958962598466 167.88692319765687,112.14938442938728 169.73838096717373,112.64733211626299 170.98610250721686,113.045689809951 172.23382404772565,113.59343097702367 173.24005109607242,113.8921985635825 174.8902634556871,114.24076045982656 176.94296663464047,115.08726663081325 178.83467348618433,115.58521058273618 179.88114961679094,116.03335959816468 181.57161105819978,117.12883281050017 182.89983076229692,118.42347902056645 183.34257066366263,119.02100659740972 183.62431423715316,119.26997615204891 183.9463068926707,119.91729625349399 184.38904679426923,120.51482155142003 184.71103944978677,121.26172689226223 184.87203577742912,122.1082178898505 185.15377935115248,122.65594638418406 185.15377935115248,123.30326089001028 185.0732811873313,125.0958185538766 184.87203577742912,127.28671122525702 184.83178669563495,129.07925065996824 184.71103944978677,129.7265545510745 184.4695449580904,130.22447989330976 184.4292958760634,130.7224046024785 183.9463068926707,132.7140971100307 183.50356699130498,133.8095236728841 183.26207249960862,133.9588997849496 182.69858535262756,133.90910775383236 180.64588217344135,133.90910775383236 177.98944276524708,134.35723580533522 177.34545745444484,134.35723580533522 176.33923040586524,134.2078598451917 175.21225611143745,134.15806784585584 175.01101070153527,134.2078598451917 174.85001437389292,134.35723580533522 174.85001437389292,134.50661170866806 175.01101070153527,134.80536334434873 175.61474693077616,136.79703509251704 175.25250519323163,138.0916162984213 175.05125978356227,140.38201872084755 174.85001437389292,142.02512525272323 174.80976529186592,142.92136227432638 174.9707616197411,143.76780646760017 175.01101070153527,145.36110822265618 174.9305125377141,147.7012584268523 174.80976529186592,148.0 173.24005109607242,147.95020975355874 170.34211719641462,147.55188755484414 169.69813188514672,147.4025166259671 167.8466741158627,147.20335529878503 164.10350949526764,146.55608028627466 162.49354621744715,146.45649942028103 161.7288136605639,146.25733761215815 161.08482834976166,145.8590136921266 160.64208844816312,145.51047992991516 159.91760497307405,145.06236463718233 158.95162700652145,144.16613251384115 158.38813985930756,143.46906166698318 157.50266005680896,141.7761701605923 157.05992015544325,141.17867729405407 156.6574293358717,140.38201872084755 156.53668209002353,139.933897561481 156.61718025407754,139.28661053749966" stroke="#4dd2ff" stroke-linecap="round" stroke-linejoin="round" stroke-width="0.5"><title>2023-10-17 3.1km</title><desc>10389486303</desc></polyline><polyline fill="none" points="22.320811062585562,152.60002700067707 22.603728549787775,152.25001136152423 23.57373136281967,152.0500022849592 25.554153773002326,152.0 26.685823721811175,152.0500022849592 28.019577590050176,152.65002920938423 29.191664322512224,152.80003579735057 29.83833286468871,153.0500466504891 32.020839194301516,153.95008440542733 34.36501265945844,154.30009853164665 35.57751617580652,154.80011817163904 36.54751898907125,155.05012775337673 38.16419034451246,155.7001519219193 38.89169245422818,155.90015914215473 39.902112051378936,156.30017327782116 40.75086451275274,156.90019371834933 41.68045054213144,157.75022110901773 42.650453355396166,158.8502538287721 43.49920581676997,160.05028601415688 44.10545757506043,161.35031675023492 44.50962541392073,162.90034778119298 44.59045898169279,163.60035979311215 44.18629114283249,168.90041031493456 43.01420441037044,173.35039758172934 42.85253727459349,173.75039397116052 42.650453355396166,174.00039150810335 42.448369435966015,174.10039047838654 41.96336802933365,174.00039150810335 39.0533595897723,173.9503920133575 38.568358183139935,174.200389423233 37.71960572176613,174.40038723649923 37.275021099019796,174.70038376600132 36.14335115021095,174.200389423233 35.33501547249034,174.10039047838654 35.01168120163493,174.15038995389477 34.607513362774625,174.00039150810335 34.445846227230504,174.10039047838654 34.32459587557241,174.25038888605195 34.20334552391432,174.65038436022587 34.20334552391432,175.25037680906826 34.445846227230504,176.15036376623902 34.647930146660656,176.65035563040874 34.688346930546686,177.15034685921273 34.28417909191921,179.50029712126707 34.20334552391432,180.75026494523627 34.00126160448417,181.75023634472745 34.16292874026112,184.35015008668415 34.12251195614226,186.0000864333124 34.24376230780035,186.85005094157532 34.20334552391432,187.70001361315371 34.08209517225623,188.0 33.031258791452274,187.95000228466233 31.37417065235786,187.70001361315371 30.767918894067407,187.70001361315371 28.181244725594297,187.3000314081437 26.443323018494993,187.1500379764766 24.86706844717264,186.90004879655316 22.765395685564727,186.70005733822472 21.472058600978926,186.40006996018928 19.774553677998483,185.50010645310977 19.047051568049937,184.95012774071074 17.99621518724598,183.80016976658953 16.460377399576828,181.50024373320048 15.813708857633173,180.25027829236933 15.813708857633173,179.65029346980737 15.4499578026589,178.45032107952284 15.40954101854004,177.90033251067507 15.652041721856222,176.55035730852978 15.773292073747143,176.45035896109766 16.015792777063325,176.3503605882579 17.389963429188356,176.30036139220465" stroke="#4dd2ff" stroke-linecap="round" stroke-linejoin="round" stroke-width="0.5"><title>2023-10-16 2.0km</title><desc>10389486277</desc></polyline><polyline fill="none" points="67.30875392537564,176.24932637109305 68.27473201486282,176.24932637109305 68.67722288542427,176.29911810459453 68.83821923355572,176.3987015527673 68.95896649477072,176.64766006241553 68.87846832093783,177.84265870641684 68.75772105972283,178.44015666141058 68.71747197257355,179.3364018848515 68.63697379850782,179.9338975615101 68.83821923355572,181.9255432348873 68.87846832093783,184.26571396223153 68.75772105972283,185.75943264894886 68.67722288542427,186.00838520965772 68.47597745014355,186.10796618965105 68.0734865795821,186.05817570292857 67.59049753495492,185.75943264894886 66.42327401018701,184.86320212020655 65.77928861719556,184.26571396223153 65.41704683378339,183.76780646757106 64.73281235364266,182.62261682827375 64.12907604780048,181.87575221637962 63.68633609008975,181.02930393491988 63.48509065504186,180.48160113111953 63.32409430667758,179.5355672116566 63.16309795854613,179.0874450841511 63.00210161018185,177.89245023738476 63.08259978424758,176.64766006241553 62.76060708775185,175.6518250743975 62.438614391488954,174.25765183815383 62.438614391488954,173.11243439634563 62.19711986905895,171.36970577811007 61.7946289984975,169.62696940646856 61.63363265013322,168.5315311473969 61.51288538891822,167.18712546033203 61.472636302001774,165.19540485015023 61.63363265013322,163.85098771302728 61.995874433778226,161.90904370197677 61.9153762597125,161.1123459378141 61.995874433778226,160.1662652383675 62.19711986905895,159.36956392935826 62.438614391488954,157.97533273973386 63.40459248051047,156.03335959804826 64.16932513494976,154.83829441739363 64.77306144079193,154.1909659221419 65.57804318214767,153.5436363570625 66.66476853238419,152.99589512037346 67.10750849009492,152.84651101366035 69.20046101720072,152.44815311738057 70.44818271603435,152.09958962586825 71.4141608052887,152.049794816121 72.62163341720589,152.0 74.63408777024597,152.24897401744965 76.16355307842605,152.69712685007835 77.4917729513254,153.04568980980548 78.09550925716758,153.29466316255275 79.30298186908476,153.69302019788302 81.63742891862057,154.29055499107926 83.04614696535282,154.88808887283085 84.09262322890572,155.13706105432357 85.62208853731863,155.58521058259066 86.91005932330154,156.1827424891817 87.95653558685444,156.9296560906223 89.64699724316597,158.57286100025522 90.7739716807846,160.1662652383675 91.29720981232822,161.16213959563174 91.53870433475822,162.15801142071723 91.73994977027178,163.40284764196258 91.86069703125395,166.2410594332905 91.61920250882395,168.5813238619303 91.2167116382625,170.27427239250392 91.0154662032146,171.36970577811007 90.7739716807846,172.21617493251688 90.12998628779314,173.70993956626626 89.96898993942887,173.85931571634137 89.7274954172317,173.95889978477499 88.60052097961307,173.70993956626626 87.67479197727516,173.85931571634137 86.82956114877015,173.85931571634137 84.6963595347479,174.25765183815383 83.5693850973621,174.10827584002982 82.56315792072564,174.10827584002982 82.12041796301492,174.0086918095767 81.95942161488347,174.05848382788827 81.87892344081774,174.15806784568122 81.83867435366847,174.70577949096332 81.95942161488347,175.6518250743975 82.2814143113792,176.69745174542186 82.2814143113792,177.3447430478118 81.79842526651919,179.78452372786705 81.55693074408919,181.67658807936823 81.59717983123846,183.0209440391336 81.79842526651919,183.76780646757106 81.83867435366847,184.41508608715958 81.71792709245346,185.75943264894886 81.67767800530419,187.05398423713632 81.55693074408919,187.65146814260515 81.35568530904129,187.95020975370426 80.95319443824701,188.0 78.5382492148783,187.5020972516213 73.34611698426306,186.8050323408097 72.05814619828016,186.7054515381169 70.52868089010008,186.40670897779637 69.28095919126645,186.40670897779637 68.95896649477072,186.35691852899618 68.71747197257355,186.1577566700871 68.55647562420927,185.90880420431495 68.71747197257355,185.41089879814535 68.79797014663927,184.81341147524654 68.47597745014355,182.5230349621561 68.67722288542427,181.17867729396676 68.71747197257355,179.38619322609156 68.91871740762144,178.19119929085718 68.71747197257355,176.54807667751447 68.63697379850782,176.4484932674095 68.51622653729282,176.4484932674095" stroke="#4dd2ff" stroke-linecap="round" stroke-linejoin="round" stroke-width="0.5"><title>2023-10-13 3.0km</title><desc>10389482249</desc></polyline><polyline fill="none" points="114.40122296009213,175.80036908315378 114.23955580405891,176.20036298126797 114.32038938230835,176.400359777821 114.52247332711704,176.55035730844247 115.37122589652427,176.75035392702557 115.49247626354918,177.5003403411829 115.41164268553257,178.2503253252653 115.33080910751596,180.1502808855439 115.49247626354918,182.30021953082178 115.41164268553257,183.6501750004245 115.41164268553257,184.75013529110583 115.29039231874049,185.80009451758815 115.16914195148274,186.0000864333997 114.96705800644122,186.10008235325222 114.52247332711704,186.0000864333997 113.91622149175964,185.6001024999132 112.42080029821955,184.30015190757695 110.35954405809753,181.3502480899915 109.95537616778165,180.45027302973904 109.5512082776986,179.2503030798107 109.5107914886903,177.55033938455745 109.10662359860726,175.30037613844615 109.06620680959895,174.40038723652833 108.94495644257404,173.40039715263993 108.98537323158234,173.3003980043868 109.02579002035782,173.35039758161292 109.02579002035782,173.25039842084516 108.66203891928308,171.15041016886244 108.29828781820834,167.75040541938506 108.13662066194229,165.9503910066851 108.17703745118342,165.00038007908734 108.41953818523325,162.90034778122208 108.54078855225816,160.40029471192975 108.94495644257404,157.85022421073518 109.79370901198126,156.0001627143356 110.1170433240477,155.5001445999369 110.7637119484134,154.70011429456645 111.77413167385384,153.8500803122588 113.63330396870151,152.75003360773553 115.53289305255748,152.30001361481845 116.70497993426397,152.15000683593098 117.02831424633041,152.0 120.66582525824197,152.15000683593098 123.09083259943873,152.65002920947154 125.83917425293475,153.70007412455743 127.69834654754959,154.0000864425965 128.54709911695682,154.30009853179217 129.67876920942217,154.80011817169725 131.9016926055774,155.5001445999369 133.1141962762922,156.0001627143356 134.4479503140319,156.70018700658693 135.41795325046405,157.55021482947632 136.9942080222536,159.45027037902037 137.8025438026525,160.85030543711036 138.04504453670233,161.50032002016087 138.4087956380099,163.1503522139974 138.53004600503482,164.2503698313376 138.53004600503482,165.50038611644413 138.4087956380099,166.30039445424336 138.36837884876877,167.2004018893349 138.20671169273555,168.50040899342275 138.00462774769403,169.40041139465757 137.64087664638646,170.4504115935415 137.31754233432002,172.60040325514274 137.1558751782868,173.10039963168674 136.9942080222536,173.35039758161292 136.67087370995432,173.6003953727777 134.73086783709005,173.9503920133575 134.16503279074095,174.00039150798693 133.639614533633,173.9003925122961 132.952529120259,173.9003925122961 130.68918893509544,174.55038552981569 130.44668820104562,174.55038552981569 129.51710205362178,174.20038942308747 128.78959985123947,174.15038995392388 128.62793269520625,174.30038834249717 128.58751590619795,175.05037942784838 128.74918306223117,175.80036908315378 129.1129341633059,176.85035219829297 129.1533509523142,178.20032637083204 128.78959985123947,180.70026630852954 128.4662655389402,182.20022264504223 128.4258487499319,183.3001869902073 128.5066823279485,183.85016800934682 128.3450151719153,185.25011622457532 128.304598382907,187.25003360401024 128.22376480489038,187.75001136021456 128.10251443786547,187.95000228483696 127.7387633365579,188.0 125.51583994063549,187.60001810005633 124.26291948091239,187.60001810005633 123.33333333325572,187.50002256163862 120.70624204725027,187.10004015328013 118.96832011942752,186.90004879661137 117.14956461335532,186.6000615709636 116.62414635624737,186.6000615709636 115.97747773188166,186.45006787250168 115.49247626354918,186.20007824760978 115.24997552949935,185.85009250606527 115.20955874049105,184.20015553024132 115.08830837346613,183.55017845783732 115.12872516247444,182.8002035782847 115.00747479544953,182.30021953082178 115.33080910751596,181.000258033484 115.41164268553257,179.2503030798107 115.57330984156579,178.15032741011237 115.33080910751596,176.60035647253972 115.29039231874049,176.50035813794238 115.20955874049105,176.60035647253972" stroke="#4dd2ff" stroke-linecap="round" stroke-linejoin="round" stroke-width="0.5"><title>2023-10-10 3.0km</title><desc>10389482309</desc></polyline><polyline fill="none" points="160.6406741461251,176.19871313960175 160.6406741461251,176.39705704484368 160.760922444053,176.49622895967332 161.8030743591953,176.69457271366264 162.08365372102708,176.6449867845513 162.24398478493094,176.89291636671987 162.08365372102708,177.8350473419705 162.00348818907514,179.76888800488086 162.00348818907514,180.90935364557663 162.20390201872215,182.29774209941388 162.24398478493094,185.57035247661406 162.12373648700304,185.86786114948336 161.88323989114724,186.01661540105124 161.5625777633395,185.96703065678594 161.28199840150774,185.81827638638788 159.75885329465382,184.77699490601663 159.19769457099028,184.23156064053182 158.59645308181643,183.43820034735836 157.15347350668162,181.10769515580614 156.71256308094598,180.01681560167344 156.35181818716228,178.67800470697694 156.35181818716228,177.48794672108488 156.19148712349124,176.19871313960175 156.15140435751528,174.66154445472057 155.8708249956835,173.32271518110065 155.7906594639644,173.37230153250857 155.8708249956835,173.37230153250857 155.6704111660365,172.28140034715761 155.6303283998277,170.9921495586459 155.26958350627683,168.81033082524664 154.98900414444506,165.24005566598498 155.069169676397,164.74418153159786 155.10925244237296,163.1077924161218 155.3096662722528,161.22345705213957 155.51008010213263,160.18210991940578 155.5501628681086,159.4878769532079 155.71049393177964,158.29776042239973 156.07123882556334,157.10764026045217 156.43198371934704,156.36381331522716 157.03322520898655,155.42163048189832 157.6745494643692,154.62821159375017 158.8369496774394,153.78520225698594 160.23984648636542,153.1901357457391 162.72497797640972,152.4958903353545 163.3663022320252,152.24794524649042 164.24812308326364,152.24794524649042 166.49275797745213,152.0 167.5749926585704,152.24794524649042 168.65722733992152,152.59506832674379 170.1803724465426,152.9421910981764 173.70765585219488,154.08273517218186 175.23080095881596,154.42985661971034 176.15270457603037,154.8761551695934 178.3572567042429,155.66957355337217 179.76015351340175,156.06628214009106 181.04280202416703,156.81010965252062 182.64611266297288,158.29776042239973 183.728347344324,159.58705316690612 184.36967159970663,160.77716576409875 184.73041649349034,161.96727473058854 185.0109958553221,163.3061429775844 184.97091308934614,166.03345296974294 184.48991989763454,169.55413403720013 184.00892670592293,171.53760233544745 183.728347344324,173.22354245965835 183.4878507484682,173.66981950803893 183.20727138663642,173.91775098117068 182.92669202503748,173.96733725682134 181.72420904575847,173.91775098117068 181.0027192584239,174.01692352630198 180.2812294708565,173.96733725682134 179.27916032169014,174.11609604617115 178.55767053412274,174.11609604617115 177.59568415093236,174.31444101015222 176.8341115976218,174.26485477865208 175.95229074615054,174.36402723551146 175.4312147886958,174.31444101015222 175.15063542686403,174.46319966713781 175.11055266088806,174.85988914151676 175.11055266088806,175.30616431808448 175.35104925674386,176.04995514452457 175.59154585259967,177.28960337044555 175.55146308639087,177.68628997087944 175.23080095881596,178.87634735155734 174.99030436296016,180.61184119107202 174.70972500136122,181.70271908139694 174.78989053308032,182.69442360731773 174.99030436296016,183.88446571084205 175.03038712893613,184.77699490601663 174.99030436296016,187.60332388678216 174.95022159721702,187.85124650475336 174.8299732990563,188.0 174.66964223515242,188.0 174.38906287355348,187.90083100952324 173.82790414988995,187.75207747647073 171.6233520214446,187.4049856789934 167.7353237227071,186.95872434272314 165.7311854241416,186.6116318393906 164.60886797704734,186.5620471709699 164.00762648740783,186.4132931274362 163.0857228699606,186.31412373372586 162.4043158488348,186.115784870286 162.24398478493094,185.86786114948336 162.163819252979,185.61993727111258 162.12373648700304,184.97533444990404 162.20390201872215,183.88446571084205 161.96340542286634,182.59525326816947 162.163819252979,180.71101203447324 162.0435709550511,180.16557208404993 162.163819252979,179.22344673718908 162.08365372102708,178.72759037755895 162.163819252979,178.18214765400626 162.0435709550511,177.58711835858412 162.00348818907514,176.59540084926994 161.88323989114724,176.39705704484368 161.60266052908264,176.39705704484368" stroke="#4dd2ff" stroke-linecap="round" stroke-linejoin="round" stroke-width="0.5"><title>2023-10-08 3.0km</title><desc>10389482199</desc></polyline><polyline fill="none" points="23.26124481856823,192.1502154591435 23.908812884008512,192.25035906667472 25.446787039516494,192.0 27.227599219651893,192.05007182614645 28.644154363078997,192.40057443018304 29.817871481878683,192.9012918950466 31.477264649700373,193.35193706888822 33.25807682983577,193.90272491483483 34.14848291990347,194.1030112131266 38.72193238255568,195.55508383069537 39.24808143568225,195.75536928887595 40.94794760760851,196.7567950518569 42.04071871819906,197.75821826889296 42.566867771558464,198.4091419944889 43.9024769065436,200.26176517191925 44.42862595967017,201.41339140373748 44.67146398429759,202.51494377924246 44.83335600071587,203.86684475661605 44.55004497198388,207.22154195376788 44.50957196787931,208.0727292355441 44.266733943484724,209.3244718965143 43.82153089810163,210.42600214775302 43.295381845207885,212.97953770065214 43.09301682468504,213.5302981006098 42.85017880005762,213.83071253972594 42.566867771558464,213.88078159056022 39.49091946030967,213.88078159056022 37.224431231152266,214.63181659035035 34.91746999765746,214.48160970499157 34.755577981239185,214.48160970499157 34.634158968925476,214.63181659035035 34.59368596505374,214.78202341854922 34.796050985343754,214.98229910014197 35.07936201384291,215.93360719786142 35.16030802205205,216.98505031690001 34.674631973030046,219.5886116756301 34.39132094429806,222.29229179603863 34.35084794019349,223.24358223986928 34.55321296071634,224.44520899065537 34.47226695274003,225.2462914545904 34.47226695274003,227.34912517195335 34.39132094429806,227.89986548107117 34.31037493632175,228.0 30.627331563737243,227.5493944643822 29.17030341620557,227.24899048756924 26.70145016652532,227.048721042549 25.04205699870363,226.7483166838938 21.885162679478526,226.44791209633695 21.35901362588629,226.29770971651305 19.86151247448288,225.49662939060363 18.76874136389233,224.3951412824972 17.797389265615493,223.14344651199644 16.745091159129515,221.59133947268128 16.178469101898372,220.4397722335416 15.773739060852677,218.93772294919472 15.773739060852677,218.23676465649623 15.611847044667229,217.48573653012863 15.369009020039812,215.13250579475425 15.166643999516964,213.9809196732822 15.207117003621534,213.5302981006098 15.44995502824895,213.33002168062376 17.31171321659349,213.6304362724477 19.86151247448288,213.48022900524666 21.116175601491705,213.5302981006098 21.48043263843283,213.6304362724477 21.60185165051371,213.9809196732822 21.39948663022369,215.88353840779746 21.39948663022369,216.48436346740345 20.792391568655148,216.53443218095344 20.54955354402773,216.4342947473924" stroke="#4dd2ff" stroke-linecap="round" stroke-linejoin="round" stroke-width="0.5"><title>2023-10-07 2.2km</title><desc>10389482165</desc></polyline><polyline fill="none" points="67.73455856391229,214.70038376611774 68.82581158983521,215.3003761387081 69.02789548388682,215.9503668428806 68.90664514736272,216.45035896124318 68.66414447501302,216.95035044426913 68.74497803254053,217.00034955749288 68.5833109174855,218.15032741017058 68.62372769624926,220.55027036051615 68.70456125377677,221.70023783526267 68.54289413872175,223.85016800943413 68.66414447501302,225.4501084202493 68.5833109174855,225.9500884640729 68.38122702389956,226.25007618544623 67.93664245749824,226.15008030369063 67.16872366145253,225.7000985214545 66.72413909528404,225.35011233508703 65.83496996294707,224.5001445861417 65.26913506025448,223.75017151769134 63.77371424692683,221.55024226839305 63.3695464595221,220.800263575773 62.92496189312078,218.95031002064934 62.76329477829859,216.40035977805383 62.480377327185124,215.20037747349124 62.52079410571605,215.15037813142408 62.480377327185124,214.3503877928597 62.359126990893856,213.75039397142245 62.43996054842137,213.30039800464874 61.833708867197856,209.60041164892027 61.59120819461532,207.00040041544707 61.51037463732064,205.3503843723738 61.67204175237566,204.0003660977818 61.7932920884341,201.35031675046775 62.03579276101664,200.2002897800994 62.19745987583883,197.9502272871032 63.288712901761755,195.80015554485726 63.97579814051278,194.8501201007457 65.06705116666853,193.90008236200083 66.44122164393775,193.10004880206543 67.37080755527131,192.70003141183406 69.67456394364126,192.20000910197268 72.30165456212126,192.0 73.27165725198574,192.0 75.17124585271813,192.40001810219837 79.13209016993642,193.750076193508 81.96126468200237,194.250096532749 83.45668549556285,195.100129650702 86.08377611381002,195.9501609314757 87.8621143787168,196.95019538054476 88.83211706858128,197.75022110907594 90.40837143966928,199.60027437389363 90.81253922707401,200.2002897800994 91.2571237932425,201.25031453868723 91.7825419169385,203.30035479782964 91.74212513840757,205.550386685587 91.82295869570225,206.1003925226978 91.70170835941099,206.7503984294599 91.49962446582504,208.6004093622032 90.9742063418962,210.7004112280265 90.69128889101557,212.40040452676476 90.40837143966928,213.50039627571823 90.32753788214177,213.70039444501163 90.16587076708674,213.90039251267444 89.9637868735008,214.00039150824887 89.11503451969475,213.8503930052102 87.57919692760333,214.00039150824887 86.8112781313248,214.00039150824887 85.63919154787436,214.2003894233494 84.42668818542734,214.25038888631389 83.57793583162129,214.10039047850296 82.16334857582115,214.10039047850296 81.92084790323861,214.15038995421492 81.8400143457111,214.3503877928597 81.79959756718017,214.70038376611774 81.88043112447485,215.20037747349124 82.32501569087617,216.60035647288896 82.52709958446212,217.70033647693344 82.56751636322588,218.75031452055555 82.44626602693461,219.50029712138348 82.04209823952988,220.800263575773 81.88043112447485,222.00022879743483 81.92084790323861,223.1001937018591 82.00168146076612,223.1001937018591 82.16334857582115,223.75017151769134 81.6783472308889,227.40002699766774 81.59751367336139,227.70001361315371 81.39542977954261,228.0 81.07209554966539,228.0 77.15166801144369,227.45002478273818 73.95874249050394,227.15003797662212 71.53373576584272,226.70005733828293 69.47248005005531,226.50006577841123 69.31081293476745,226.15008030369063 69.27039615623653,224.30015190769336 69.14914582017809,222.10022573417518 69.27039615623653,221.4502451919834 69.43206327105872,219.2003042526776 69.3916464925278,218.40032215075917 69.31081293476745,218.15032741017058 69.02789548388682,217.70033647693344 68.62372769624926,216.60035647288896 68.30039346637204,216.7503539272584 67.97705923649482,216.7503539272584" stroke="#4dd2ff" stroke-linecap="round" stroke-linejoin="round" stroke-width="0.5"><title>2023-10-03 3.0km</title><desc>10389482190</desc></polyline><polyline fill="none" points="113.92215525871143,216.33277184635517 114.0027649209369,216.58207522137673 115.13130019325763,216.73165717045777 115.41343401139602,216.93109968031058 115.2925195179414,217.72886870612274 115.41343401139602,218.87565883807838 115.33282434893772,220.3216068347101 115.41343401139602,225.90590767809772 115.3731291803997,226.15520496928366 115.17160502448678,226.25492384142126 114.84916637535207,226.20506440845202 114.56703255698085,226.05548607185483 113.35788762243465,225.1580148541252 112.30996201257221,224.16082220405224 110.53654944174923,221.41852934582857 110.25441562361084,220.91992858459707 109.851367311785,219.7731444289093 109.60953832487576,218.87565883807838 109.60953832487576,217.62914766662288 109.2467948445119,214.28847819421208 109.0452706888318,213.64028529945062 109.0452706888318,213.34111898668925 109.08557552006096,213.19153574481606 109.0452706888318,212.64306336978916 108.64222237747163,209.70124390674755 108.40039339032955,206.85912618343718 108.19886923464946,205.36326647855458 108.40039339032955,203.76767650575493 108.40039339032955,203.06960385167622 108.64222237747163,200.7260651405959 108.80344170192257,200.0778498335858 108.76313687092625,199.37977061260608 108.92435619537719,198.5321013169887 109.40801416919567,197.08607299625874 110.33502528583631,195.39072265880532 111.10081707756035,194.34359084849712 111.94721853197552,193.69536499344395 113.15636346675456,193.04713806710788 114.12367941439152,192.69809235536377 115.53434850485064,192.2991825902136 116.66288377717137,192.14959132357035 117.54959006258287,192.14959132357035 118.71843016613275,192.0 120.12909925659187,192.04986378081958 121.78159733396024,192.34904633296537 122.7489132815972,192.64822865687893 123.71622922923416,192.8975470858859 126.0136046053376,193.74522855877876 128.79463795479387,194.2937273591233 130.08439255179837,194.9419522252574 131.09201333066449,195.24113257139106 133.59091286244802,196.2882619855518 134.59853364131413,196.93648355541518 135.52554475772195,197.6844301892852 136.25103171844967,198.48223836012767 136.81529935495928,199.13045630409033 137.62139597767964,200.62633977859514 138.02444428927265,201.67345481627854 138.3468829386402,202.96987908537267 138.4274926010985,204.76492099941242 138.4677974320948,205.01423172661453 138.4677974320948,205.61257682566065 138.30657810741104,206.26078298597713 138.1453587829601,207.90622458260623 137.90352979581803,209.55165927685448 137.09743317286484,212.9920913335227 136.85560418572277,213.69014632931794 136.69438486127183,213.83972938117222 136.29133654967882,213.98931237586658 132.90573073271662,213.83972938117222 131.13231816189364,214.3882000829908 130.40683120116591,214.43806101789232 129.3186007598415,214.28847819421208 128.75433312379755,214.0890343406645 128.63341863034293,214.0890343406645 128.5125041368883,214.23861724024755 128.59311379911378,215.38541757612256 128.95585727947764,216.68179652708932 129.03646694193594,217.67900818947237 128.9961621107068,218.1277526106278 128.14976065629162,221.26894918392645 128.06915099406615,221.71768949824036 128.14976065629162,223.0140475227672 128.3512848119717,224.75913809836493 128.2303703185171,226.6537990764482 128.2303703185171,227.60112613384263 128.19006548752077,227.85042234766297 128.06915099406615,227.95014078883105 127.86762683815323,228.0 126.8197012282908,227.9002815714921 125.40903213783167,227.60112613384263 120.41123307473026,227.05267390568042 117.54959006258287,226.55408030559192 116.86440793285146,226.55408030559192 115.73587266053073,226.35464268823853 115.41343401139602,226.20506440845202 115.2119098554831,225.85604820086155 115.25221468671225,225.10815528186504 115.09099536202848,222.66502847606898 115.13130019325763,221.81740949850064 115.3731291803997,220.2218864543247 115.41343401139602,218.22747352326405 115.33282434893772,217.13054208896938 115.2119098554831,216.48235389046022 114.97008086880669,216.63193587746355 114.64764221967198,216.58207522137673" stroke="#4dd2ff" stroke-linecap="round" stroke-linejoin="round" stroke-width="0.5"><title>2023-10-01 3.0km</title><desc>10389482184</desc></polyline><polyline fill="none" points="160.38766152760945,213.93085063516628 160.54955354402773,214.7319544821512 160.95428358507343,215.082436902856 161.03522959328257,215.33278129814425 161.23759461357258,215.53305669987458 161.56137864640914,215.78340080889757 161.6018516505137,216.2340198039019 161.88516267901286,216.4342947473924 161.92563568335027,216.78477565359208 161.88516267901286,218.48710704719997 162.12800070364028,222.1420878318313 161.96610868745483,223.29365009441972 161.96610868745483,225.84710223364527 161.92563568335027,226.04737228967133 161.72327066282742,226.19757476483937 161.27806761767715,226.14750727958744 160.4686075358186,225.69689962486154 159.0925253967289,224.4952766923525 158.60684934747405,223.89446385146584 157.87833527382463,222.7429033452645 156.5427261388395,220.38970401632832 156.17846910189837,219.0378597464005 155.89515807316639,215.43291901174234 155.7332660567481,214.2312647686049 155.5309010364581,213.58036718977382 155.49042803235352,212.27856880507898 155.28806301183067,211.52752931852592 155.2475900077261,210.6262800442055 155.04522498720326,209.4746807484771 154.8428599666804,207.27161184471333 154.80238696257584,205.36895151174394 154.88333297078498,204.01705568973557 155.49042803235352,197.80828936299076 156.86651017144322,195.30472686479334 157.31171321636066,194.75394097957178 158.44495733105578,193.70243851441774 159.49725543777458,193.00143531148206 160.34718852350488,192.65093324211193 163.22077181423083,192.0 167.06570720323361,192.0 168.03705930151045,192.1502154591435 169.53456045291387,192.55078973647323 171.43679164536297,193.30186540842988 172.85334678879008,193.60229527621414 173.90564489504322,193.95279649895383 175.11983501794748,194.15308277189615 175.64598407130688,194.30329740970046 176.4554441529326,194.75394097957178 179.28855443978682,195.7052979338041 181.1907856320031,196.6566525902599 182.24308373848908,197.45779157118523 183.6191658778116,199.21027741095168 184.30720694735646,200.31183594762115 184.71193698840216,201.21310882279067 185.03572102123871,202.51494377924246 185.1571400333196,203.61649307375774 185.19761303742416,205.4690917582775 184.99524801690131,206.37035283262958 184.75240999250673,208.4732873197645 184.26673394301906,210.82655783894006 183.9834229145199,211.92808388956473 183.7810578942299,212.32863805326633 183.45727386162616,212.67912261240417 182.93112480803393,212.77926100071636 179.73375748470426,212.5289149825694 177.58868826786056,212.72919180977624 175.4840920548886,212.57898419885896 175.3626730425749,212.62905340877478 175.16030802205205,213.02960685981088 175.11983501794748,214.33140276224003 175.20078102615662,215.33278129814425 175.44361905078404,216.4342947473924 175.4840920548886,217.13525624776958 175.32220003847033,219.5886116756301 174.9579430015292,220.94045405546785 174.99841600563377,221.39106715115486 175.32220003847033,222.34235977151548 175.2412540302612,222.89310708042467 175.32220003847033,223.19351437911973 175.2412540302612,223.79432828904828 175.3626730425749,224.1948703864764 174.99841600563377,225.79703470374807 174.8365239892155,227.24899048756924 174.71510497690178,227.5493944643822 174.55321296071634,227.74966365494765 173.54138785833493,228.0 172.97476580110379,228.0 170.26307452679612,227.3991925047012 167.22759921941906,227.09878841330647 164.0707049004268,226.54804698427324 162.8565147772897,226.49797954346286 162.53273074468598,226.3477771828766 162.49225774034858,226.09743978775805 162.57320374879055,224.79568276915234 162.49225774034858,222.39242774041486 162.57320374879055,221.19079472791054 162.49225774034858,220.64004503874457 162.28989272005856,220.48984044449753 162.00658169132657,220.4397722335416 161.92563568335027,220.28956756278058 161.88516267901286,219.83895320721786 161.96610868745483,218.53717550614965 161.92563568335027,217.23539350301144 161.80421667080373,216.38422602112405 161.68279765872285,216.38422602112405" stroke="#4dd2ff" stroke-linecap="round" stroke-linejoin="round" stroke-width="0.5"><title>2023-09-30 3.0km</title><desc>10389482196</desc></polyline><polyline fill="none" points="27.581710438244045,257.5792871375452 27.501100786263123,257.97817119403044 27.501100786263123,260.3714670155605 27.42049113404937,261.1692290446081 27.460795959923416,262.41572896696744 27.380186308175325,264.4599802654411 27.380186308175325,265.8560482010362 27.33988148206845,266.105345523858 27.259271829854697,266.1552049695165 27.0174428736791,266.25492384142126 26.695004265522584,266.1552049695165 25.44555465853773,265.357453080127 24.2767147035338,264.2106818968896 23.793056791182607,263.3630662591022 22.18086374993436,260.96978868937003 21.737510663690045,260.07230583639466 21.535986533388495,259.3742621978163 21.49568170728162,258.97537956081214 21.57629135926254,258.377054845012 21.253852751106024,255.53499998163898 21.173243099125102,254.2386172405386 20.770194838754833,251.79542273652623 20.60897553479299,250.0502744882251 20.48806105670519,249.20262825195096 20.125317622208968,245.76216295780614 20.28653692640364,244.51561011382728 20.528365882579237,241.47400454859599 20.81049966486171,240.27730081172194 20.81049966486171,239.77867317700293 20.931414142949507,238.88114183727885 21.21354792523198,237.83401934508584 21.89872996765189,236.23839874361875 22.342083054129034,235.44058600871358 23.309398878831416,234.3934543315263 23.95427609537728,233.8449556704145 25.24403052846901,232.9972744130646 25.92921257088892,232.74795604756218 27.82353939441964,232.44877379966783 28.549026262946427,232.19945508547244 29.959695174125955,232.0498637809069 31.249449606984854,232.0 34.594750167801976,232.44877379966783 39.59254859574139,234.24386386357946 39.79407272581011,234.44331780797802 39.87468237779103,234.74249853452784 39.87468237779103,236.18853549519554 39.71346307382919,237.8838823843107 39.834377551684156,238.4822383603314 39.71346307382919,238.98086764311302 39.71346307382919,240.57647708817967 39.79407272581011,240.9753784353088 39.71346307382919,241.87290498282528 39.753767899703234,243.31891565668047 39.63285342161544,244.91450745495968 39.67315824772231,246.95884996108362 39.47163411742076,252.1943126746337 39.552243769634515,252.6430633700802 39.39102446543984,252.6430633700802 39.51193894352764,254.0391733616416 39.39102446543984,255.38541757623898 39.39102446543984,256.63193587757996 39.51193894352764,258.2274735234678 39.18950033537112,262.16642929942464 39.229805161478,264.1109625051322 39.39102446543984,266.40450210220297 39.350719639565796,267.30197046819376 39.229805161478,267.75070388120366 39.068585857283324,267.9501407890057 38.78645207500085,268.0 35.64267564448528,267.4016890487983 33.708043995080516,267.25211116831633 31.69280269322917,266.95295523648383 28.669940741034225,266.60393969420693 28.347502132644877,266.55408030573744 28.065368350595236,266.35464268835494 27.944453872507438,266.1552049695165 27.904149046400562,265.95576714907656 27.984758698381484,264.6594188460731 27.82353939441964,262.6151685868972 27.82353939441964,262.1165693468938 27.984758698381484,261.1692290446081 27.944453872507438,259.972585392592 28.02506352448836,258.8756588383403 28.02506352448836,257.7787292165449" stroke="#4dd2ff" stroke-linecap="round" stroke-linejoin="round" stroke-width="0.5"><title>2023-09-28 2.6km</title><desc>10389482181</desc></polyline><polyline fill="none" points="73.80605071224272,257.25635000594775 73.97069047926925,257.71461584130884 74.01185042108409,258.9366555059096 73.92953053768724,261.2279698291095 74.01185042108409,263.41743571544066 73.92953053768724,264.3848703184922 73.92953053768724,265.5559722383332 73.97069047926925,266.2178978960728 74.17649018811062,266.67615347984247 74.7115694314707,266.93073968897806 75.2466486748308,267.0834913366998 76.52260687062517,266.93073968897806 77.14000599761494,266.93073968897806 81.66759959468618,267.64358021345106 84.21951598580927,267.7963315893139 85.74243383225985,268.0 85.94823354133405,268.0 86.11287330836058,267.8981658075936 86.19519319199026,267.59266307522194 86.11287330836058,266.67615347984247 86.15403325040825,265.5559722383332 85.98939348291606,264.3848703184922 86.07171336654574,264.07936490667635 86.11287330836058,261.0752159487456 86.2363531338051,259.90410092976526 86.2363531338051,258.2237994878669 86.11287330836058,256.79808364636847 86.2363531338051,255.219606617291 86.15403325040825,254.20123103965307 86.03055342496373,253.7938800837146 86.11287330836058,253.84479897585697 86.19519319199026,253.2846908061765 86.19519319199026,252.46998661599355 86.40099290106446,251.40068485186202 86.03055342496373,250.02586410369258 85.90707359928638,249.05839482264128 86.2363531338051,246.5633316830208 86.35983295924962,245.08665434087743 86.2363531338051,243.91549257814768 86.2775130753871,242.48972581033013 86.2363531338051,241.06395396756125 86.35983295924962,240.401986744022 86.31867301720195,238.9762074702303 86.44215284264646,238.11055329223746 86.52447272627614,237.24489724336308 86.44215284264646,236.3283182111918 86.56563266809098,235.56450074908207 86.40099290106446,234.64791787180002 86.44215284264646,234.29146840868634 86.31867301720195,234.0368614551262 86.03055342496373,233.88409720521304 83.89023645152338,233.5276470623794 81.95571918739006,232.91658893661224 80.88556070066988,232.81474582495866 80.18584169005044,232.45829473048798 78.9922033783514,232.10184331875644 76.52260687062517,232.0 75.57592820911668,232.0509216626815 74.7115694314707,232.3055298786494 74.4646097808145,232.45829473048798 73.35329135251231,232.6110595240898 72.57125245826319,232.91658893661224 72.11849309853278,233.2221181159257 71.41877408814617,233.83317577571142 70.22513577598147,234.3423897799512 69.48425682401285,234.80068183029653 68.86685769702308,235.36081584662315 68.33177845366299,236.02279140119208 68.08481880277395,236.58292370836716 67.5497395596467,238.56884103119955 67.38509979238734,239.74001842655707 67.22046002512798,240.35106614310644 67.26161996694282,240.5038279266737 67.09698019968346,242.3878851327172 66.76770066539757,244.11917313063168 66.85002054902725,248.04000358152553 67.17930008354597,250.68781542329816 67.50857961759903,252.16447211746708 67.67321938485838,252.46998661599355 68.00249891914427,252.52090567638515 71.91269338969141,252.26631030952558 73.35329135251231,252.36814847571077 74.01185042108409,252.2153912167705 73.92953053768724,252.26631030952558 73.92953053768724,252.36814847571077 73.84721065382473,252.7245818535448 73.97069047926925,253.99755561354687 73.92953053768724,255.77971208150848" stroke="#4dd2ff" stroke-linecap="round" stroke-linejoin="round" stroke-width="0.5"><title>2023-09-27 2.2km</title><desc>10389482166</desc></polyline><polyline fill="none" points="121.14457312528975,232.0515782161383 120.8944291016087,232.0 120.68597574834712,232.0 119.18511160602793,232.51578186638653 117.47579411021434,233.392609534465 116.60029002721421,234.0115455709165 115.8498579559382,234.78521428877139 115.05773521424271,235.86834801523946 114.64082850771956,236.69359081820585 114.30730314273387,238.03460679319687 113.97377777774818,239.94296803872567 113.64025241299532,242.41866654905607 113.51518040080555,245.513268443814 113.59856174211018,246.9058315960574 113.47348973038606,247.78262816581992 113.68194308341481,249.84567144411267 114.18223113100976,252.32130953171873 114.0988497894723,252.37288516451372 114.80759119032882,257.58199031537515 114.8492818607483,258.97451204733807 114.93266320205294,259.74813316678046 115.68309527332895,261.759541174426 115.93323929701,262.1205620690889 117.5591754517518,264.4929771005118 118.47637020540424,265.57603152494994 118.93496758211404,265.9370490241272 120.68597574834712,266.55593541811686 122.31191190285608,266.91695204545977 123.52094135107473,266.91695204545977 124.68828012840822,267.1232471167168 126.39759762422182,267.1232471167168 127.77338975504972,267.53583694488043 129.2325632267166,267.638984336314 132.8596515711397,268.0 132.9847235828638,267.94842635351233 133.06810492416844,267.638984336314 133.02641425374895,266.91695204545977 133.02641425374895,264.6992734041123 133.19317693612538,262.8426028949325 133.15148626547307,261.03749842144316 133.06810492416844,260.6249019856623 132.90134224202484,260.31545438367175 132.69288888853043,260.2123051304952 132.40105419419706,260.2123051304952 131.6923127938062,260.2638797602558 131.10864340490662,260.4186036106257 130.0663766390644,260.47017821430927 126.93957634246908,260.2638797602558 125.31364018772729,260.2638797602558 124.35475476342253,260.3670290003356 123.31248799781315,260.2638797602558" stroke="#4dd2ff" stroke-linecap="round" stroke-linejoin="round" stroke-width="0.5"><title>2023-09-25 1.5km</title><desc>10389482075</desc></polyline></svg>