<?xml version="1.0" encoding="utf-8" ?>
<svg baseProfile="full" height="300mm" version="1.1" viewBox="0,0,200,300" width="200mm" xmlns="http://www.w3.org/2000/svg" xmlns:ev="http://www.w3.org/2001/xml-events" xmlns:xlink="http://www.w3.org/1999/xlink"><defs /><rect fill="#222222" height="300" width="200" x="0" y="0" /><text fill="#FFFFFF" style="font-size:12px; font-family:Arial; font-weight:bold;" x="10" y="20">All Running Tracks</text><text fill="#FFFFFF" style="font-size:4px; font-family:Arial" x="10" y="280">ATHLETE</text><text fill="#FFFFFF" style="font-size:9px; font-family:Arial" x="10" y="290">Ryan</text><text fill="#FFFFFF" style="font-size:4px; font-family:Arial" x="120" y="280">STATISTICS</text><text fill="#FFFFFF" style="font-size:3px; font-family:Arial" x="120" y="285">Number: 22</text><text fill="#FFFFFF" style="font-size:3px; font-family:Arial" x="120" y="290">Weekly: 2.4</text><text fill="#FFFFFF" style="font-size:3px; font-family:Arial" x="141" y="285">Total: 60.5 km</text><text fill="#FFFFFF" style="font-size:3px; font-family:Arial" x="141" y="290">Avg: 2.8 km</text><text fill="#FFFFFF" style="font-size:3px; font-family:Arial" x="167" y="285">Min: 1.5 km</text><text fill="#FFFFFF" style="font-size:3px; font-family:Arial" x="167" y="290">Max: 3.6 km</text><polyline fill="none" points="22.60158740519546,51.05115015193587 22.10835989913903,50.847760683624074 21.998753786785528,50.71216766157886 21.83434461778961,49.42403223289875 21.669935449026525,49.08504870842444 20.080646817572415,48.81386173359351 18.10773679241538,48.88165849016514 17.176084836013615,48.81386173359351 16.73766038590111,49.08504870842444 17.01167566725053,50.98335367103573 17.3404940047767,52.20368900807807 17.504903173539788,56.33924910827773 17.888524567242712,57.76295910018962 18.60096429870464,59.18666529201437 22.272769067902118,64.06791481433902 23.533239361830056,64.94924677285599 24.629300486762077,65.49160417728126 26.437801343388855,65.9661664540181 28.465514424955472,65.9661664540181 30.49322750652209,66.30513925018022 31.479682519333437,66.5763173319865 33.39778948784806,66.6441118310322 38.16565538244322,67.52543953276472 40.63179291388951,67.66102828073781 42.44029377051629,68.0 42.823915164219216,67.79661699431017 42.8787182206288,66.37293378351023 42.65950599545613,63.52555596228922 42.8787182206288,60.94934388343245 42.823915164219216,60.4069818604039 43.097930445335805,58.57650596095482 43.043127389391884,57.01720672118245 43.26233961433172,54.50875924876891 43.15273350174539,53.5596138855326 43.20753655792214,52.068096330564 43.043127389391884,50.03420203423593 43.043127389391884,49.559625582478475 43.26233961433172,48.88165849016514 43.26233961433172,47.39012785395607 43.043127389391884,45.288418514071964 43.15273350174539,43.25449836428743 42.8787182206288,39.932412105903495 43.043127389391884,38.16966405574931 42.93352127657272,36.06791838182835 43.097930445335805,34.77974758442724 43.097930445335805,32.677988551557064 43.043127389391884,32.54239091015188 42.9883243329823,32.40679323422955 42.11147543299012,32.4745920766145 36.52156369457953,32.0 34.93227506335825,32.0 33.836213938193396,32.20339665591018 32.794955869205296,32.0 32.41133447526954,32.1355977790663 30.876848900225013,32.067798893898726 29.561575550120324,32.813586158445105 28.301105256192386,33.016982504108455 27.807877749903128,33.49157367576845 27.150241074850783,35.11874020128744 27.205044131027535,35.66112793976208 27.150241074850783,36.949296608392615 27.259847187204286,37.89847153110895" stroke="#4dd2ff" stroke-linecap="round" stroke-linejoin="round" stroke-width="0.5"><title>2023-12-19 1.7km</title><desc>10404110587</desc></polyline><polyline fill="none" points="68.19091339153238,57.065536115522264 67.30297733424231,56.46637861363706 68.43307777075097,56.71602768381126 61.531392961042,41.73680262561538 62.01572171947919,40.188916805636836 61.97536098957062,38.84075321801356 62.13680390943773,37.79217833947041 62.21752536902204,37.59244947388652 62.62113266787492,36.993262267584214 63.30726507585496,35.69502018461935 63.953036753926426,34.846167271753075 64.43736551236361,34.29690852708882 65.28494083997793,33.54791809193557 66.21323762717657,33.04859034172841 67.06081295479089,32.64912768447539 68.0294704718981,32.499329083249904 69.11921017873101,32.199731709377375 70.93544302345254,32.0 72.75167586794123,32.0 75.65764841949567,32.39946331738611 79.4111962984316,33.647783565946156 80.82382184430026,33.9473798351537 81.631036442006,34.19704321824247 82.31716884998605,34.49663906858768 84.01231950521469,34.89609984692652 85.46530578075908,35.395425248367246 86.35324183804914,35.79488511243835 87.64478519442491,36.593803622119594 88.81524636107497,37.64238169975579 90.51039701607078,39.58973356024944 91.15616869390942,40.78809913696023 91.3579723436851,41.43721229786752 91.76157964230515,43.18481932213763 91.80194037221372,44.28331118641654 91.76157964230515,46.080836700915825 91.6001367229037,48.27780115909991 91.39833307336085,48.976832727872534 91.3579723436851,49.526070944964886 90.5911184756551,52.2223201446468 90.06642898730934,53.67029818758601 89.98570752772503,53.82008871503058 89.70318241836503,53.969879185257014 89.25921438960359,53.969879185257014 86.71648840722628,53.77015854549245 85.54602724057622,54.269459954317426 85.22314140154049,54.3193900603801 82.2364473901689,54.11966959835263 81.99428301095031,54.219529842055636 81.79247936164029,54.56904049505829 81.71175790182315,55.068340888567036 81.75211863173172,55.56764064723393 82.11536520067602,57.16539561047102 82.27680812007748,58.26384837774094 82.11536520067602,59.41222753201146 81.631036442006,61.05989610686083 81.55031498218887,62.15833798403037 81.55031498218887,63.057060871535214 81.42923279269598,63.35663471050793 81.55031498218887,66.70186039269902 81.46959352260455,67.75035810095142 81.38887206255458,68.0 81.22742914338596,68.0 79.97624651691876,67.9500716329494 77.75640637334436,67.60057288533426 76.22269863798283,67.4507876126736 75.09259820124134,67.20114536467008 73.4378082761541,67.1012884209922 69.24029236845672,66.35236053465633 68.7559636097867,66.05278898021788 68.63488142006099,65.75321719734347 68.59452069015242,64.15549716402893 68.27163485134952,62.40798343671486 68.55415996047668,61.259613040310796 68.63488142006099,59.46215698434389 68.51379923056811,58.36370756791439 68.47343850065954,56.51630844044848 68.35235631093383,56.21672938487609" stroke="#4dd2ff" stroke-linecap="round" stroke-linejoin="round" stroke-width="0.5"><title>2023-11-19 2.2km</title><desc>10341819005</desc></polyline><polyline fill="none" points="112.27765838894993,54.323328053666046 112.35662749572657,53.54178924046573 112.43559660227038,52.271785279066535 112.35662749572657,51.68562818897772 112.43559660227038,51.24600978460512 112.3961120492313,50.122538244206225 112.51456570904702,49.73176476464141 112.43559660227038,49.29214412489091 112.51456570904702,48.16866687205038 112.47508115577511,46.605562621407444 112.51456570904702,45.5797720013943 112.3961120492313,45.04245201224694 112.35662749572657,44.01665721970494 112.35662749572657,42.84431696054526 112.43559660227038,42.1604501575639 112.35662749572657,41.08579986557015 112.55405026255175,40.255386217613705 112.83044213615358,39.62036280534812 112.90941124293022,39.180730597581714 112.79095758264884,37.81298273432185 112.90941124293022,37.12910697708139 112.6330193693284,36.34753319245647 112.71198847610503,35.517109304637415 112.79095758264884,35.17516953506856 113.02786490297876,35.02862382627791 113.0673494564835,34.88207806175342 113.18580311653204,34.29589444459998 113.18580311653204,33.66086118336534 113.34374133008532,32.976978036167566 113.46219499013387,33.074675703042885 113.38322588335723,32.68388488609344 113.50167954340577,32.39079151247279 114.33085516444407,32.14654686374706 116.89735113363713,32.0 118.04240318131633,32.09769791524741 119.58230076287873,32.488489328476135 122.03034307179041,33.270070962491445 122.82003413932398,33.66086118336534 123.37281788652763,33.80740741366753 125.38653010851704,34.24704576935619 129.65086187259294,35.76135181088466 131.19075945415534,36.6406235480099 132.53323426889256,37.81298273432185 133.91519363666885,39.66921079737949 134.62591559742577,41.08579986557015 134.90230747126043,41.91621171872248 135.13921479135752,43.38164002326084 135.09973023785278,44.06550465273904 134.98127657780424,44.70052071905229 135.02076113130897,45.77516090194695 134.8233383644838,48.11981996052782 134.27055461728014,50.41561809318955 133.48086354974657,53.102172959566815 133.40189444296993,54.323328053666046 133.00704890931956,55.886400911491364 132.88859524927102,56.667934956232784 132.92807980254292,56.912164019275224 133.04653346259147,57.156392927019624 133.67828631657176,57.54715885670157 133.7572554233484,57.69369597788318 133.79673997685313,58.13330700609367 133.67828631657176,58.9148364814173 133.44137899647467,59.110218601766974 131.11179034761153,59.50098254476325 130.08519195974804,59.45213707353105 129.13756267889403,59.15906411645119 128.50580982491374,59.15906411645119 127.3212732237298,59.89174609037582 127.12385045690462,60.18481848866213 127.04488135012798,60.47789066360565 126.96591224335134,60.91749850689666 127.04488135012798,61.161724869161844 127.24230411695316,61.50364151567919 127.716118757613,61.89440302475123 128.466325271409,62.33400924777379 128.82168625178747,62.62707978361868 128.94013991206884,62.87130505946698 128.94013991206884,63.06668516836362 128.78220169828273,63.84820461075287 128.54529437818564,64.38549830546253 128.26890250458382,64.53203281905735 127.51869599055499,64.23896373587195 125.58395287534222,63.06668516836362 125.07065368141048,62.87130505946698 124.91271546809003,62.92015009588795 124.83374636108056,63.01784015048179 124.83374636108056,63.4086001199903 125.0311691283714,66.97426648731926 124.91271546809003,67.8534668085631 124.83374636108056,68.0 124.39941627415828,67.95115560898557 123.25436422647908,67.26733348463313 122.26725039212033,66.8765774386411 121.28013655776158,66.77888836502098 120.60889915050939,66.77888836502098 117.96343407453969,66.29044262474054 117.21322756051086,66.29044262474054 116.1866291728802,66.1927534021379 114.48879337776452,65.80199626355898 112.90941124293022,65.80199626355898 112.3961120492313,65.50892814877443 112.23817383567803,65.26470454919036 112.19868928217329,64.72741208379739 112.31714294245467,63.06668516836362 112.23817383567803,61.65017712811823 112.35662749572657,60.33135460401536 112.27765838894993,56.912164019275224 112.31714294245467,56.32601400726708 112.23817383567803,56.03293866588501 112.04075106885284,56.22832225161255 111.60642098169774,56.179476364457514 111.52745187515393,56.03293866588501 111.60642098169774,55.64217119658133" stroke="#4dd2ff" stroke-linecap="round" stroke-linejoin="round" stroke-width="0.5"><title>2023-11-08 2.5km</title><desc>10341819064</desc></polyline><polyline fill="none" points="160.38013861328363,55.05823372778832 160.42022136901505,55.355750417656964 160.6607179036364,55.40533651053556 161.30204199627042,55.950783116568346 161.74295230978169,56.04995514487382 161.90328333270736,56.19871314003831 162.02353160013445,56.34747107839212 162.18386262329295,56.74415863666218 162.02353160013445,57.68628997117048 162.10369711183012,58.18214765441371 162.02353160013445,58.87634735193569 162.02353160013445,60.51267032290343 162.22394537902437,62.44649771240074 162.22394537902437,64.67782509647077 162.14377986756153,65.8182763865625 162.0636143560987,66.01661540105124 161.86320057697594,66.16536959569203 161.42229026346467,66.0662001388846 160.78096617106348,65.6695220595866 160.09955932269804,65.1736738930631 159.2177386956755,64.28114560531685 157.09335263934918,61.2068658733333 156.73260783730075,60.36391397268744 156.37186303525232,59.124275515961926 156.3317802795209,57.83504734226153 156.09128374489956,55.05823372778832 155.97103547747247,54.165682296908926 155.77062169881538,53.71940581567469 155.8507872102782,53.372301532828715 155.57020791969262,52.033467834524345 155.40987689653412,49.950828503933735 155.12929760618135,48.90950466916547 154.92888382752426,47.86817805460305 154.76855280413292,45.388817783794366 154.8487183158286,44.297894272138365 155.2094631176442,41.42180857207859 155.36979414103553,40.87634165032068 155.40987689653412,39.38870071465499 155.57020791969262,38.54570166594931 155.6904561871197,38.04981902174768 156.09128374489956,37.50434738470358 157.01318712788634,35.37204184877919 157.8148422432132,34.47944537282456 158.7367456262,33.73561341583263 160.13964207842946,32.94219109832193 160.90121443825774,32.69424629313289 163.0656832503155,32.44630133037572 163.8272556103766,32.198356209963094 165.0297382834833,32.0 167.11404158407822,32.09917811767082 167.91569669963792,32.297534276905935 168.5570207920391,32.297534276905935 169.43884141906165,32.49589033561642 173.24670321820304,33.83479109220207 177.57564084231853,35.124098588188644 179.17895107343793,35.71916214909288 180.22110272361897,36.21504775629728 181.34341988549568,36.9588749850227 182.26532326848246,37.70270079554757 183.7884679879062,39.487876953557134 184.3897093248088,40.47963795560645 184.87070239405148,41.66974782969919 185.15128168440424,43.058204760367516 185.23144719586708,43.851606501761125 185.15128168440424,45.6367545198882 184.87070239405148,48.81033082562499 184.71037137089297,49.70289450971177 183.86863349936903,52.727678473864216 183.467805941822,53.71940581567469 183.3074749186635,53.86816469958285 183.10706113977358,53.96733725714148 181.34341988549568,53.91775098151993 179.7801924101077,54.01692352659302 178.89837178308517,54.3640272358316 178.05663391156122,54.5127858738997 176.2529099015519,54.314441010472365 175.73183407634497,54.46319966748706 175.21075825137086,54.41361345475889 175.0504272284452,54.5127858738997 175.0504272284452,54.711130636249436 175.17067549563944,55.30616431843373 175.69175132061355,56.94250226460281 175.73183407634497,57.735875767772086 175.5715030534193,58.82676170018385 175.09050998394378,60.760597446991596 174.85001344932243,62.000230704114074 174.809930693591,63.19027492508758 174.9301789610181,63.88446571081295 174.89009620505385,64.42990046183695 175.01034447248094,64.92574957342003 175.01034447248094,65.91744590632152 174.89009620505385,67.6529084231006 174.809930693591,67.90083100955235 174.44918589154258,67.95041550786118 173.8479445548728,67.85124650478247 173.3669514853973,68.0 172.8859584161546,68.0 168.91776559408754,67.4049856789934 167.0739588283468,67.25623195702792 165.06982103944756,66.76038580734166 163.34626254090108,66.56204717088258 162.98551773885265,66.46287781497813 162.66485569253564,66.21495431457879 162.34419364621863,66.26453902735375 162.22394537902437,66.21495431457879 162.0636143560987,65.96703065681504 161.98344884440303,65.71910684148315 162.02353160013445,64.28114560531685 161.90328333270736,62.892764210060704 162.14377986756153,60.859768252499634 162.10369711183012,59.9672300950333 162.14377986756153,56.79374455314246 162.02353160013445,56.44664300579461 161.94336608843878,56.496228959964355 161.98344884440303,56.59540084959008 161.98344884440303,56.54581490799319 161.94336608843878,56.496228959964355 161.38220750773326,56.54581490799319" stroke="#4dd2ff" stroke-linecap="round" stroke-linejoin="round" stroke-width="0.5"><title>2023-11-03 3.1km</title><desc>10389486333</desc></polyline><polyline fill="none" points="20.700799477286637,95.75243898434564 20.660716716432944,96.24829912555288 20.941296042641625,96.49622895990615 21.342123651178554,96.64498678478412 21.94336506444961,96.59540084938635 22.183861629804596,96.79374455311336 21.9834478253033,97.2400175172661 22.143778868718073,97.38877505861456 22.183861629804596,97.73587576774298 22.063613347010687,99.0251042691234 22.10369610786438,104.33073056375724 21.9834478253033,105.47118286852492 21.903282303363085,105.71910684151226 21.783034021034837,105.8182763865043 21.42228917311877,105.7686916171806 20.540468433639035,105.37201323531917 19.93922702060081,104.92574957359466 19.217737325001508,104.23156064053182 17.49417860736139,101.75230436769198 16.732606150675565,100.36391397257103 16.492109585553408,99.47137468089932 16.331778542138636,98.03339041533764 15.530123324599117,91.98388131285901 15.249543998390436,90.84338957842556 15.249543998390436,90.05000205730903 14.848716389620677,87.27313302643597 14.808633628766984,85.53757984418189 14.8887991507072,84.8929438383202 14.848716389620677,84.14913173849345 15.209461237536743,81.62015999059076 15.369792280951515,80.97551751087303 15.329709520330653,80.43004996521631 15.409875041805208,79.4382888370892 15.69045436824672,77.95064241698128 16.732606150675565,75.76875073794508 17.133433759445325,75.22327591115027 18.496247629169375,73.98355755899684 19.899144259747118,73.09095790571882 20.74088223814033,72.79342423402704 23.266096173319966,72.19835620981758 24.02766862977296,72.24794524643221 25.149985934374854,72.04958906196407 26.552882564952597,72.0 29.278510304400697,72.4958903354418 30.721489695832133,73.09095790571882 34.36902093538083,74.13232396941748 38.53762806626037,75.47121910893475 39.459531566360965,75.86792789719766 40.62193163158372,76.46299032337265 41.343421327415854,76.95887498481898 42.54590415372513,78.04981902151485 43.22731108847074,78.89281914176536 43.948800784070045,80.1325218914717 44.509959436254576,81.17386915659881 44.95086980611086,82.26480140481726 45.11120084952563,82.95902942898101 45.191366371233016,83.95078160581761 45.031035327818245,85.38881778347422 45.15128361037932,86.38056378281908 44.99095256696455,88.1657002279535 44.67029047990218,89.50454720068956 44.349628393072635,90.39710929628927 44.14921458833851,91.09132284778752 44.02896630601026,92.18222736113239 43.4678076535929,93.71940581547096 43.267393849324435,93.9177509812871 42.866566240787506,94.0169235264184 39.860359175130725,93.86816469937912 38.81820739223622,94.0665097895835 36.81406934862025,94.0169235264184 35.33100719633512,94.2648547787685 35.13059339183383,94.46319966739975 35.090510631212965,94.81030297957477 35.13059339183383,95.25657821277855 35.49133823974989,96.44664300559089 35.69175204425119,97.2400175172661 34.89009682671167,101.35562190183555 34.93017958756536,103.09110471198801 35.05042787012644,104.1323906921607 34.970262348419055,105.91744590635062 34.89009682671167,106.46287781497813 34.89009682671167,107.35540111133014 34.80993130477145,107.9504155079776 33.16653810907155,108.0 31.563227673992515,107.80166199384257 29.358675826108083,107.35540111133014 28.07602747809142,107.20664737044717 27.635117108467966,107.25623195699882 26.87354465201497,107.05789357281174 24.94957213010639,106.85955508769257 21.742951259948313,106.06620013900101 20.821047760080546,105.6199372713163 19.618564933771268,104.72741000453243 18.85699247708544,103.83488069562009 18.41608210746199,103.1406898216519 17.49417860736139,101.90106018836377 16.93301995517686,100.81018285281607 16.572275107260793,99.71930246677948 16.331778542138636,98.33090483624255 16.211530259344727,96.69457271377905 15.85078541166149,94.16568229685072 15.85078541166149,93.62023319481523 16.01111645484343,93.37230153262499 16.211530259344727,93.32271518133348 18.215668303193524,93.62023319481523 20.21980634680949,93.47147421652335 21.342123651178554,93.52106054889737 22.023530586156994,93.66981950830086 22.143778868718073,93.81857841112651 22.143778868718073,94.11609604628757 21.9834478253033,96.29788510510116 21.783034021034837,96.44664300559089 21.42228917311877,96.39705704510561 21.342123651178554,96.29788510510116 21.342123651178554,95.95078311651014 21.221875368617475,95.75243898434564 21.02146156434901,95.60368081901106" stroke="#4dd2ff" stroke-linecap="round" stroke-linejoin="round" stroke-width="0.5"><title>2023-11-02 3.4km</title><desc>10389486352</desc></polyline><polyline fill="none" points="69.09019441762939,95.320819939574 68.96961395721883,95.27109685583855 68.84903349727392,94.97275822091615 68.84903349727392,93.82912467903225 68.80884001031518,93.67995484001585 68.60787257668562,93.58050824908423 68.60787257668562,93.43133831545128 68.76864652358927,91.44240043015452 68.56767908995971,90.6965461159416 68.5274856032338,89.30428092452348 68.56767908995971,89.15510936017381 68.64806606341153,89.30428092452348 68.64806606341153,88.75731824352988 68.80884001031518,88.65787040116265 68.72845303686336,88.75731824352988 68.80884001031518,88.8070421552984 68.68825955037028,88.85676606060588 68.44709862978198,88.75731824352988 68.5274856032338,88.75731824352988 68.60787257668562,88.35952672240091 68.72845303686336,85.92304482878535 68.68825955037028,85.27662871783832 68.76864652358927,84.48103819182143 68.64806606341153,83.28764936863445 68.72845303686336,82.24343116156524 68.72845303686336,81.24893503964995 68.84903349727392,81.0500355118129 69.05000093067065,80.25443638910656 69.09019441762939,79.16048495305586 69.21077487780713,78.36488198698498 69.2509683643002,76.52504392983974 69.65290323179215,75.03327699002693 69.65290323179215,73.5912302066863 69.77348369196989,73.5415043606481 69.73329020524397,73.29287503610249 69.8136771786958,73.14369736533263 69.73329020524397,72.9945196378394 69.69309671828523,73.04424555326113 69.65290323179215,72.84534185327357 69.73329020524397,72.59671208605869 69.93425763887353,72.4475341499201 70.33619250613265,72.248630146496 71.18025572760962,72.19890412973473 71.30083618778735,72.09945207758574 71.78315802849829,72.0 74.19476723251864,72.09945207758574 76.44560248963535,72.7458899653866 77.89256801200099,73.34260091360193 82.11288411892019,74.43656862110947 83.27849523420446,74.93382565837237 84.96662167692557,75.28190520839416 86.05184581875801,75.72943560327985 87.65958528826013,76.62449485703837 88.50364850950427,77.32065063831396 89.10655081062578,77.91735460743075 90.19177495245822,79.25993520999327 90.67409679316916,79.95608630083734 91.59854698786512,81.74618341668975 91.67893396154977,82.14398166327737 91.7593209350016,82.93957694270648 91.71912744804285,85.27662871783832 91.39757955423556,87.06670148498961 91.31719258101657,89.30428092452348 91.19661212083884,90.00041413964937 90.71429027989507,91.93963584958692 90.19177495245822,93.38161499146372 89.95061403186992,93.7296781259065 89.74964659824036,93.8788479459763 89.34771173098125,93.97829446100513 87.78016574843787,93.92857120657573 86.45378068624996,93.7296781259065 85.24797608423978,93.92857120657573 83.96178450877778,94.07774095080094 82.35404503950849,93.97829446100513 81.87172319856472,94.07774095080094 81.67075576493517,94.37608026823727 81.75114273838699,95.71860438163276 82.11288411892019,96.91195528116077 82.19327109237202,97.45890656014672 81.50998181803152,101.53615563205676 81.46978833130561,103.0278215042199 81.59036879171617,103.62448626046535 81.67075576493517,104.71836928342236 81.55017530475743,107.303898814891 81.50998181803152,107.701671072311 81.4295948445797,107.9005570494337 81.14824043726549,108.0 78.29450287926011,107.65194956233609 75.27999137458391,107.1050125346519 74.35554117965512,107.00556935655186 73.31051052454859,106.80668292447808 70.89890132052824,106.50835308682872 69.21077487780713,106.40890975718503 68.80884001031518,106.3094664021337 68.40690514305606,106.16030132203014 67.04032659414224,105.36475326830987 66.31684383307584,104.81781304292963 65.55316758505069,103.97254028148018 63.50329976156354,100.84004294520128 63.06117140734568,99.69642655609641 62.820010487223044,98.6522521506995 62.820010487223044,97.90641158318613 62.860203973948956,97.26001527442713 62.73962351353839,96.16611139569432 62.69943002704531,94.82358881810796 62.45826910645701,93.28216832486214 62.37788213323802,93.33189166130614 62.297495159553364,92.43687063685502 62.09652772615664,91.69101821878576 62.01614075223915,91.04461163948872 61.574012398254126,85.27662871783832 61.574012398254126,84.33186478810967 61.69459285866469,82.8898522851232 61.89556029229425,81.54728414170677 61.815173318842426,81.19921016710578 61.774979832349345,81.09976040312904 61.69459285866469,81.09976040312904 61.65439937193878,80.95058570991387 61.89556029229425,80.10526137330453 62.09652772615664,78.6135080876993 62.337688646512106,77.61900273663923 62.65923654008657,77.1217491129355 63.06117140734568,76.12723996894783 63.54349324828945,75.28190520839416 64.3071694963146,74.38684288252261 65.11103923083283,73.79013352739275 66.67858521360904,72.9945196378394 68.24613119615242,72.6464380522666 68.68825955037028,72.6464380522666 68.92942047049291,72.7458899653866 69.09019441762939,72.94479371592752 69.21077487780713,73.34260091360193 69.21077487780713,74.53602007901645 69.13038790412247,75.8786122877209 69.21077487780713,78.26543150248472 69.05000093067065,80.45333632137044 69.05000093067065,81.24893503964995 68.92942047049291,81.94508259053691 68.889226983767,82.74067827453837 69.17058139108121,84.67993597505847 69.13038790412247,87.16614973195828 69.2509683643002,88.06118281601812 69.2509683643002,89.30428092452348 69.21077487780713,89.95069037971552 68.889226983767,92.03908285751822 68.72845303686336,92.5363175185339 68.72845303686336,93.92857120657573 68.60787257668562,95.12192756679724 68.56767908995971,96.116388419352 68.44709862978198,96.36500323744258 68.08535724924877,96.46444912045263" stroke="#4dd2ff" stroke-linecap="round" stroke-linejoin="round" stroke-width="0.5"><title>2023-10-27 3.6km</title><desc>10389486363</desc></polyline><polyline fill="none" points="114.20941068488173,96.21583436543006 114.16921719326638,96.36500323741348 114.24960417672992,96.41472618203261 115.17405448923819,96.5141720524116 115.45540893217549,96.61361789749935 115.53579591587186,96.76278661785182 115.45540893217549,97.1605695936014 115.4152154403273,99.0500332051306 115.4152154403273,100.24337394174654 115.49560242402367,101.03893241059268 115.45540893217549,103.52504219749244 115.53579591587186,104.32059399259742 115.53579591587186,105.41447506909026 115.4152154403273,105.8122492475668 115.13386099739,106.01113618520321 114.89270004630089,106.01113618520321 114.28979766881093,105.66308397805551 113.00360592966899,104.76809116633376 112.44089704402722,104.07198423051159 111.51644673151895,103.17698777848273 110.43122245161794,101.48643333828659 109.82832007436082,99.69642655612552 109.66754610673524,98.80142009348492 109.38619166403078,97.75724329895456 109.06464372924529,93.97829446083051 109.06464372924529,93.28216832465841 109.10483722109348,93.33189166116063 108.54212833521888,91.19378248328576 108.34116087597795,89.15510935994098 108.09999992512167,85.52525042518391 108.14019341696985,83.63572148475214 108.38135436782613,81.99480736811529 108.46174135175534,81.44783446620568 108.7430957944598,80.95058570991387 108.94406325370073,79.75718611554476 109.14503071294166,77.8179040090472 109.82832007436082,75.92833783655078 110.27044848445803,75.13272829627385 110.6321899110917,74.73492291933508 111.1145118130371,74.23766562904348 111.55664022336714,73.88958514976548 113.88786275009625,72.7458899654157 115.37502194847912,72.49726013489999 116.25927876890637,72.54698611368076 116.54063321184367,72.7458899654157 116.70140717923641,72.4475341499201 116.94256813032553,72.29835615685442 117.22392257326283,72.24863014643779 117.3043095569592,72.39780815856648 117.18372908118181,72.34808216095553 117.26411606511101,72.14917810677434 117.90721193444915,72.0 120.39920842880383,72.09945207755663 123.1323658740148,72.69616401195526 125.90571681107394,73.74040770670399 128.15655235410668,74.18793986516539 130.36719440552406,74.88409998305724 131.61319265281782,75.48080766925705 133.78364121192135,76.37586749196635 135.1502199349925,77.32065063819755 135.79331580433063,77.86762931136764 136.23544421442784,78.36488198689767 137.4412489698734,80.0058113312407 137.84318388812244,80.70196109460085 138.28531229845248,81.99480736811529 138.5264732495416,83.18820013551158 138.56666674138978,84.4810381916468 138.5264732495416,86.12194187866407 138.32550579030067,88.16063081007451 138.0441513475962,89.105385492614 137.56182944518514,91.4921240004187 137.28047500248067,92.58604094976909 137.11970103508793,93.23244498192798 136.95892706769519,93.48106163289049 136.67757262499072,93.67995483984123 136.27563770650886,93.82912467885762 133.5424802612979,93.87884794577258 132.25628852215596,94.22691063774982 131.3720317017287,94.32635706433211 129.28197012585588,94.0280177089735 128.59868076466955,94.22691063774982 128.51829378074035,94.32635706433211 128.51829378074035,94.92303509285557 128.9604221910704,96.56389497805503 129.08100266661495,97.1605695936014 129.04080917476676,97.55835216492414 128.7192612402141,98.40363878605422 128.478100289125,99.54725895440788 128.35751981358044,100.54170855719713 128.27713282988407,103.42559810946113 128.43790679704398,104.91725677720387 128.43790679704398,106.0608579039108 128.31732632149942,107.70167107248562 128.27713282988407,107.9005570493755 128.11635886249132,108.0 124.78029903955758,107.60222804598743 123.77546174358577,107.35362036922015 120.03746700217016,107.0552909487742 118.83166224695742,106.80668292444898 118.30914685293101,106.75696130067809 117.34450304880738,106.50835308679962 115.73676337487996,106.45863142513554 115.01328052184545,106.21002302173292 114.49076512781903,105.96141446032561 113.56631481554359,105.26530964791891 112.76244497857988,104.56920359676587 112.19973609293811,104.02226225906634 111.03412482934073,102.08310044556856 110.31064197630621,101.03893241059268 109.82832007436082,100.0942065489362 109.94890054967254,99.54725895440788 109.70773959858343,98.50308415087056 109.70773959858343,97.65779774455586 109.7881265822798,97.45890656008851 109.7881265822798,97.0114010249672 109.90870705782436,96.36500323741348 110.59199641924351,96.3152802863624 111.3958662559744,96.41472618203261 111.99876863369718,96.21583436543006 112.1595426008571,95.42026608789456 112.40070355194621,95.22137376570026" stroke="#4dd2ff" stroke-linecap="round" stroke-linejoin="round" stroke-width="0.5"><title>2023-10-25 3.2km</title><desc>10389486356</desc></polyline><polyline fill="none" points="162.13130448013544,97.24515984018217 162.09105539834127,97.34474304781179 162.09105539834127,97.89245023753028 161.9703081524931,98.88827952949214 162.05080631631427,100.232645058044 162.21180264395662,101.17867729405407 161.9703081524931,103.71801568326191 161.9703081524931,105.46068936720258 161.88980998843908,105.85901369212661 161.60806641518138,106.05817570278305 161.36657192348503,105.95859471010044 160.64208844839595,105.56027048631222 159.39436690812,104.56445815516054 158.62963435146958,103.61843409575522 157.66365638468415,102.074916252197 157.14041831949726,101.42763276587357 156.69767841789871,100.6309746990446 156.37568576238118,99.58535852757632 156.29518759856,98.98786231948179 155.8926967792213,94.50661170866806 155.65120228752494,93.51077127773897 155.69145136955194,93.31160288766841 155.77194953337312,93.31160288766841 155.73170045134611,93.36139499463025 155.65120228752494,92.61451272529666 155.4097077960614,91.36970577813918 155.20846238615923,90.1248948755092 155.12796422210522,88.88008001673734 154.88646973040886,87.23691834599595 154.72547340299934,85.24519798898837 154.9267188126687,83.55222772274283 154.9267188126687,82.40697898165672 155.08771514054388,81.21193324713386 155.28896055021323,80.81358385863132 155.36945871380158,80.11647145400639 155.36945871380158,79.26997615204891 155.57070412370376,78.22430295919185 156.335436680587,76.23253677369212 156.73792749992572,75.38603307795711 157.38191281096078,74.589322045882 158.34789077751338,73.7428147988685 159.07237425260246,73.29466316266917 159.67611048184335,73.09548449309659 161.4873191693332,72.64733211626299 163.13753152894787,72.44815311749699 163.3387769383844,72.3485635802499 163.45952418423258,72.14938442938728 163.70101867592894,72.14938442938728 164.06326041347347,72.0 165.31098195374943,72.0497948162083 166.27695992030203,72.0 167.564930542605,72.14938442938728 169.4968864757102,72.64733211626299 170.38236627844162,73.045689809951 171.95208047423512,73.493841730844 173.36079834215343,73.99178770850995 174.0852818172425,74.19096592214191 174.93051253794692,74.29055499119568 176.09773591416888,74.73870548792183 177.0637138809543,74.98767776449677 179.1566661419347,75.68479929704336 180.40438768221065,76.2823310518288 181.5313619764056,77.07903864013497 182.73883443465456,78.22430295919185 183.4633179095108,79.17038834912819 184.55004312214442,80.86337755431305 184.95253394148313,82.00863080861745 185.19402843317948,83.2036741124466 185.27452659700066,84.44850701050018 185.2342775152065,85.54395668811048 184.79153761384077,89.22862857603468 184.26829954842106,90.92157430900261 183.82555964705534,93.11243439640384 183.58406515535899,93.66014750371687 183.22182341781445,93.90910775383236 182.6985853528604,93.8095236728841 181.20936932088807,93.95889978494961 180.52513492805883,93.90910775383236 178.91517165023834,94.15806784585584 175.33300335728563,94.058483828092 175.17200702964328,94.10827584005892 175.0110107017681,94.30744382500416 174.9707616197411,94.556403663737 175.0110107017681,95.05432286663563 175.4537506031338,96.49828497576527 175.534248766955,97.39453464225517 175.37325243931264,98.63932244389434 175.0110107017681,99.98368882681825 174.9707616197411,101.07909506096621 175.0512597837951,102.67240775178652 174.93051253794692,104.0167602939764 175.0512597837951,104.86320212029386 175.0512597837951,106.20754714420764 175.0110107017681,107.75104870498762 174.93051253794692,107.85062924184604 174.72926712804474,108.0 173.19980201427825,107.95020975355874 172.475318539422,107.75104870498762 170.90560434386134,107.60167785192607 169.97987545887008,107.40251662596711 168.4504103451036,107.25314564013388 166.59895257581957,106.90461311829858 162.29230080801062,106.40670897782547 161.76906274282373,106.25733761215815 160.2395976288244,105.36110822265618 159.2736196622718,104.56445815516054 158.8711288429331,104.0167602939764 158.54913618741557,103.41927084483905 157.3014146471396,101.62679702942842 156.77817658195272,100.73055704604485 156.61718025407754,100.232645058044 156.61718025407754,99.48577588965418 156.29518759856,98.48994811656303 156.37568576238118,97.64349251901149 156.4561839264352,97.4443262302375 156.335436680587,97.04599334884551 156.335436680587,96.44849326743861 156.41593484440818,96.348909831926 156.8989238278009,96.19953463127604 157.66365638468415,96.09995113243349" stroke="#4dd2ff" stroke-linecap="round" stroke-linejoin="round" stroke-width="0.5"><title>2023-10-23 3.1km</title><desc>10389486351</desc></polyline><polyline fill="none" points="21.322081167716533,135.55409475110355 21.001419040141627,135.8020250267 20.84108797623776,136.04995514452457 20.84108797623776,136.14912714762613 21.161750103812665,136.34747107807198 21.803074359428138,136.49622895967332 22.123736487235874,136.49622895967332 22.243984785163775,136.69457271366264 22.243984785163775,136.84333046292886 22.203902018954977,138.38049055080046 22.083653721259907,139.1242755157291 22.003488189307973,140.41349942889065 22.16381925321184,142.39691251434851 22.123736487235874,145.37201323520276 22.003488189307973,145.81827638638788 21.682826061500236,145.96703065678594 21.402246699668467,145.86786114948336 19.75885329488665,144.8761646906496 19.117529039504007,144.23156064053182 17.87496329448186,142.39691251434851 17.634466698626056,142.00023070391035 17.43405286874622,141.40520723199006 16.712563081178814,139.96723009482957 16.39190095360391,138.8267616998928 16.35181818739511,137.3391892176296 15.710493932012469,133.52106054860633 15.710493932012469,133.22354245965835 15.790659464197233,133.17395608930383 15.710493932012469,132.38057330826996 15.4299145701807,131.24008273362415 15.349749038228765,129.60372086751158 14.989004144677892,127.22354589961469 14.908838612725958,125.1904682808381 15.069169676629826,123.7028437978006 15.269583506509662,122.56232785212342 15.349749038228765,121.02510543164681 15.4299145701807,120.67798985313857 15.550162868341431,119.43828883682727 15.83074222994037,117.90105410513934 16.592314783250913,116.16545922358637 17.233639039099216,115.12409858795581 17.794797762529925,114.33067909473903 18.556370315840468,113.78520225698594 19.919184358790517,113.09095790574793 21.041501806117594,112.69424629298737 23.566716061905026,112.148767166771 24.167957551544532,112.148767166771 24.127874785568565,112.39671231879038 24.087792019592598,112.29753427678952 24.127874785568565,112.24794524649042 24.648950743256137,112.148767166771 27.214247765019536,112.0 27.85557202063501,112.04958906187676 28.577061807969585,112.34712330094771 30.501034574583173,112.84301319497172 32.7456694690045,113.98355755902594 35.51138032088056,114.47944537259173 38.35725670447573,115.37204184857546 40.24114670511335,116.21504775591893 41.002719258656725,116.8596981028677 41.804374578176066,117.35558226026478 42.56594713148661,118.14899560066988 43.64818181260489,119.43828883682727 44.4498371318914,120.87634165002964 44.73041649372317,121.52098429363105 44.85066479165107,121.96727473058854 45.09116138750687,123.75243137194775 45.01099585555494,127.22354589961469 44.85066479165107,128.56239610616467 44.249423302011564,130.94256290484918 43.688264578580856,132.52933270274661 43.40768521698192,133.66981950803893 43.287436918821186,133.91775098117068 43.12710585491732,134.01692352630198 42.56594713148661,133.81857841086457 40.08081564120948,133.76899211629643 39.55973968375474,133.91775098117068 38.67791883228347,134.31444101015222 38.23700840678066,134.36402723551146 36.834111597854644,134.06650978929247 35.27088372502476,133.96733725682134 35.03038712916896,134.06650978929247 35.31096649100073,135.20699210074963 35.8320424486883,136.59540084926994 35.9122079804074,137.28960337044555 35.8320424486883,137.8350473419705 35.27088372502476,139.32261793338694 35.070469895377755,140.71101203447324 35.27088372502476,142.248156882677 35.23080095904879,142.69442360731773 35.03038712916896,143.339030197385 34.910138831241056,145.22325873802765 34.910138831241056,147.50415479554795 34.87005606526509,147.85124650475336 34.789890533313155,147.95041550786118 34.46922840573825,148.0 30.26053797872737,147.25623195702792 29.17830329760909,147.25623195702792 26.532840743660927,146.7108011576056 24.44853691314347,146.5620471709699 22.003488189307973,146.16536959566292 21.442329465644434,146.01661540105124 20.079515422927216,145.07450418404187 18.95719797583297,143.93405071963207 17.634466698626056,141.90106018830556 16.832811379106715,140.81018285258324 16.672480315435678,140.26474304086878 16.672480315435678,139.37220352212898 16.311735421651974,138.08297616790514 16.35181818739511,137.8846331196837 16.552232017507777,137.28960337044555 16.592314783250913,136.59540084926994 16.752645847387612,136.09954114927677 17.19355627289042,135.9507831162773 18.556370315840468,136.00036913348595 18.67661861376837,135.9507831162773 18.836949677672237,135.55409475110355 19.19769457122311,135.00864759052638" stroke="#4dd2ff" stroke-linecap="round" stroke-linejoin="round" stroke-width="0.5"><title>2023-10-20 3.2km</title><desc>10389486346</desc></polyline><polyline fill="none" points="68.49610303225927,135.50244960805867 68.53635211405344,136.19953463127604 68.97909201565199,136.54807667766 69.01934109744616,136.84682675643126 68.57660119608045,140.28243628525524 68.7778466057498,142.47324401992955 68.65709936013445,143.66822489266633 68.7778466057498,144.46487678281846 68.7778466057498,145.41089879814535 68.57660119608045,145.95859471010044 68.29485762258992,146.10796618970926 68.01311404909939,146.05817570278305 66.72514342679642,145.26152705281856 66.00065995194018,144.66403950224048 64.3101985102985,142.2242892125214 63.58571503520943,140.97951280264533 63.38446962554008,140.48160113123595 63.223473297897726,139.933897561481 62.98197880620137,138.78869671424036 62.90148064214736,137.39453464225517 62.539238904835656,134.35723580533522 62.378242576960474,133.70993956635357 62.41849165898748,133.16222652877332 62.257495331112295,132.0667981559236 62.096499003469944,131.31991341806133 61.975751757388934,130.17468738753814 61.53301185602322,127.58546836741152 61.49276277446188,125.24519798898837 61.77450634771958,123.30326089001028 61.855004511773586,122.25759846437722 61.855004511773586,121.01275860355236 62.01600083941594,119.96709006320452 62.096499003469944,118.77203688456211 62.2977444131393,117.97533273985027 63.062476970022544,116.03335959816468 63.46496778936125,115.28644428757252 64.10895310062915,114.5395275526389 65.15542923123576,113.64322559069842 67.00688700028695,112.69712685010745 69.01934109744616,112.24897401739145 69.62307732668705,112.29876880199299 69.86457181838341,112.44815311749699 69.82432273635641,112.74692157766549 69.86457181838341,112.74692157766549 69.78407365456223,112.89630572224269 69.82432273635641,113.09548449309659 69.90482090017758,112.5975373761321 70.18656447390094,112.3485635802499 70.46830804739147,112.24897401739145 71.87702591530979,112.0 74.33221991406754,112.14938442938728 76.82766299438663,112.69712685010745 77.63264463306405,113.09548449309659 79.28285699291155,113.69302019802853 81.9795454829,114.34034951610374 85.23972112033516,115.33623868584982 86.48744266061112,115.88397664992954 87.25217521726154,116.2823310518288 88.5401458395645,117.27821528402274 90.27085636323318,119.17038834912819 90.83434351021424,120.06667766335886 91.55882698530331,121.46090140912565 91.80032147676684,122.65594638418406 91.84057055879384,123.4526410086255 91.67957423115149,125.49416358745657 91.71982331294566,125.99209430962219 91.71982331294566,126.6394033022807 91.55882698530331,128.3821529656998 91.35758157563396,129.3780064349703 90.5123508546967,132.66430492079235 89.98911278950982,133.70993956635357 89.74761829781346,133.90910775383236 89.5061238061171,133.9588997849496 87.73516420065425,133.90910775383236 86.48744266061112,133.75973162276205 85.23972112033516,134.2078598451917 84.3542413173709,134.35723580533522 82.78452712181024,134.058483828092 81.93929640110582,134.15806784585584 81.73805099120364,134.30744382500416 81.81854915525764,134.95473907669657 82.34178722044453,136.64766006253194 82.3820363022387,137.0459933488455 82.18079089256935,138.1911992909445 81.77830007323064,139.38619322612067 81.61730374535546,140.232645058044 81.61730374535546,141.1288861806388 81.49655649950728,143.17031663865782 81.61730374535546,143.96696954141953 81.65755282738246,144.7636208240001 81.61730374535546,146.40670897782547 81.53680558153428,147.7012584268523 81.33556017186493,148.0 79.84634413989261,148.0 77.67289371509105,147.7012584268523 76.14342860132456,147.4025166259671 73.04424929176457,147.0539842370199 72.23926765285432,146.8548227326537 71.83677683374844,146.6556611272099 70.91104794875719,146.50628985645017 69.3815828349907,146.40670897782547 68.69734844192863,146.20754714420764 68.53635211405344,146.05817570278305 68.49610303225927,145.8590136921266 68.61685027810745,144.0167602939764 68.45585395023227,141.87575221635052 68.57660119608045,140.53139232681133 68.57660119608045,138.53973956531263 68.65709936013445,137.59370095626218 68.61685027810745,136.59786837321008 68.53635211405344,136.4484932674386 68.29485762258992,136.59786837321008 67.97286496683955,136.49828497576527 67.77161955740303,136.0999511324335 67.57037414773367,135.9007840588456" stroke="#4dd2ff" stroke-linecap="round" stroke-linejoin="round" stroke-width="0.5"><title>2023-10-19 3.1km</title><desc>10389486342</desc></polyline><polyline fill="none" points="113.8546745358035,135.9007840588456 113.73392728995532,136.19953463127604 113.81442545400932,136.39870155294193 115.34389056777582,136.69745174545096 115.54513597744517,137.0459933488455 115.54513597744517,137.84265870650415 115.38413964980282,139.087445084122 115.464637813624,139.73473243735498 115.38413964980282,140.33222750626737 115.50488689541817,141.82596119176014 115.54513597744517,144.31550467689522 115.464637813624,145.75943264891976 115.38413964980282,145.95859471010044 115.22314332192764,146.10796618970926 114.74015433876775,146.05817570278305 113.8546745358035,145.56027048631222 112.56670391373336,144.5146674721036 111.80197135661729,143.5188524828991 110.27250624308363,141.0790950609662 109.70901909586973,139.43598456101608 109.62852093181573,138.93807092757197 109.22603011247702,134.6559875549283 109.06503378483467,134.2078598451917 108.90403745695949,132.66430492079235 108.7430411290843,131.5688751556445 108.54179571964778,129.129043305089 108.38079939153977,128.48173842657707 108.30030122795142,127.33650409802794 108.30030122795142,126.04188734712079 108.17955398210324,125.39457736702752 108.30030122795142,124.24933401265298 108.38079939153977,122.4567724748631 108.58204480144195,121.21193324713386 108.7027920470573,119.12059443828184 108.98453562078066,117.87574460782344 109.50777368620038,116.58109658738249 110.3127553248778,115.23664988277596 110.9567406361457,114.5395275526389 112.44595666788518,113.44404709836817 114.09616902749985,112.69712685010745 116.39036669814959,112.09958962598466 116.63186118984595,112.199179226649 116.75260843569413,112.39835835201666 116.67211027187295,112.9461004245095 116.59161210805178,112.9461004245095 116.59161210805178,113.09548449309659 116.55136302602477,112.99589512031525 116.59161210805178,112.9461004245095 116.47086486197077,112.89630572224269 116.39036669814959,112.69712685010745 116.47086486197077,112.49794787660358 116.71235935366713,112.24897401739145 117.19534833705984,112.09958962598466 119.0468061065767,112.09958962598466 120.37502581067383,112.0 120.77751663001254,112.09958962598466 121.22025653114542,112.14938442938728 123.07171430066228,112.64733211626299 124.31943584070541,113.045689809951 125.5671573812142,113.59343097702367 126.57338442956097,113.8921985635825 128.22359678917564,114.24076045982656 130.27629996812902,115.08726663081325 132.16800681967288,115.58521058273618 133.2144829502795,116.03335959816468 134.90494439168833,117.12883281050017 136.23316409578547,118.42347902056645 136.67590399715118,119.02100659740972 136.9576475706417,119.26997615204891 137.27964022615924,119.91729625349399 137.7223801277578,120.51482155142003 138.04437278327532,121.26172689226223 138.20536911091767,122.1082178898505 138.48711268464103,122.65594638418406 138.48711268464103,123.30326089001028 138.40661452081986,125.0958185538766 138.20536911091767,127.28671122525702 138.1651200291235,129.07925065996824 138.04437278327532,129.7265545510745 137.80287829157896,130.22447989330976 137.76262920955196,130.7224046024785 137.27964022615924,132.7140971100307 136.83690032479353,133.8095236728841 136.59540583309717,133.9588997849496 136.03191868611611,133.90910775383236 133.9792155069299,133.90910775383236 131.32277609873563,134.35723580533522 130.6787907879334,134.35723580533522 129.6725637393538,134.2078598451917 128.545589444926,134.15806784585584 128.34434403502382,134.2078598451917 128.18334770738147,134.35723580533522 128.18334770738147,134.50661170866806 128.34434403502382,134.80536334434873 128.94808026426472,136.79703509251704 128.58583852672018,138.0916162984213 128.38459311705083,140.38201872084755 128.18334770738147,142.02512525272323 128.14309862535447,142.92136227432638 128.30409495322965,143.76780646760017 128.34434403502382,145.36110822265618 128.26384587120265,147.7012584268523 128.14309862535447,148.0 126.57338442956097,147.95020975355874 123.67545052990317,147.55188755484414 123.03146521863528,147.4025166259671 121.18000744935125,147.20335529878503 117.4368428287562,146.55608028627466 115.8268795509357,146.45649942028103 115.06214699405245,146.25733761215815 114.41816168325022,145.8590136921266 113.97542178165168,145.51047992991516 113.2509383065626,145.06236463718233 112.28496034001,144.16613251384115 111.72147319279611,143.46906166698318 110.83599339029752,141.7761701605923 110.3932534889318,141.17867729405407 109.99076266936027,140.38201872084755 109.87001542351209,139.933897561481 109.95051358756609,139.28661053749966" stroke="#4dd2ff" stroke-linecap="round" stroke-linejoin="round" stroke-width="0.5"><title>2023-10-17 3.1km</title><desc>10389486303</desc></polyline><polyline fill="none" points="162.32081106258556,112.60002700067707 162.60372854978777,112.25001136152423 163.57373136281967,112.05000228495919 165.55415377300233,112.0 166.68582372181118,112.05000228495919 168.01957759005018,112.65002920938423 169.19166432251222,112.80003579735057 169.8383328646887,113.0500466504891 172.02083919430152,113.95008440542733 174.36501265945844,114.30009853164665 175.57751617580652,114.80011817163904 176.54751898907125,115.05012775337673 178.16419034451246,115.70015192191931 178.89169245422818,115.90015914215473 179.90211205137894,116.30017327782116 180.75086451275274,116.90019371834933 181.68045054213144,117.75022110901773 182.65045335539617,118.85025382877211 183.49920581676997,120.05028601415688 184.10545757506043,121.35031675023492 184.50962541392073,122.90034778119298 184.5904589816928,123.60035979311215 184.1862911428325,128.90041031493456 183.01420441037044,133.35039758172934 182.8525372745935,133.75039397116052 182.65045335539617,134.00039150810335 182.44836943596601,134.10039047838654 181.96336802933365,134.00039150810335 179.0533595897723,133.9503920133575 178.56835818313994,134.200389423233 177.71960572176613,134.40038723649923 177.2750210990198,134.70038376600132 176.14335115021095,134.200389423233 175.33501547249034,134.10039047838654 175.01168120163493,134.15038995389477 174.60751336277463,134.00039150810335 174.4458462272305,134.10039047838654 174.3245958755724,134.25038888605195 174.20334552391432,134.65038436022587 174.20334552391432,135.25037680906826 174.4458462272305,136.15036376623902 174.64793014666066,136.65035563040874 174.6883469305467,137.15034685921273 174.2841790919192,139.50029712126707 174.20334552391432,140.75026494523627 174.00126160448417,141.75023634472745 174.16292874026112,144.35015008668415 174.12251195614226,146.0000864333124 174.24376230780035,146.85005094157532 174.20334552391432,147.70001361315371 174.08209517225623,148.0 173.03125879145227,147.95000228466233 171.37417065235786,147.70001361315371 170.7679188940674,147.70001361315371 168.1812447255943,147.3000314081437 166.443323018495,147.1500379764766 164.86706844717264,146.90004879655316 162.76539568556473,146.70005733822472 161.47205860097893,146.40006996018928 159.77455367799848,145.50010645310977 159.04705156804994,144.95012774071074 157.99621518724598,143.80016976658953 156.46037739957683,141.50024373320048 155.81370885763317,140.25027829236933 155.81370885763317,139.65029346980737 155.4499578026589,138.45032107952284 155.40954101854004,137.90033251067507 155.65204172185622,136.55035730852978 155.77329207374714,136.45035896109766 156.01579277706333,136.3503605882579 157.38996342918836,136.30036139220465" stroke="#4dd2ff" stroke-linecap="round" stroke-linejoin="round" stroke-width="0.5"><title>2023-10-16 2.0km</title><desc>10389486277</desc></polyline><polyline fill="none" points="20.642087258631364,176.24932637109305 21.608065348118544,176.24932637109305 22.010556218679994,176.29911810459453 22.171552566811442,176.3987015527673 22.292299828026444,176.64766006241553 22.21180165419355,177.84265870641684 22.09105439297855,178.44015666141058 22.05080530582927,179.3364018848515 21.970307131763548,179.9338975615101 22.171552566811442,181.9255432348873 22.21180165419355,184.26571396223153 22.09105439297855,185.75943264894886 22.010556218679994,186.00838520965772 21.80931078339927,186.10796618965105 21.40681991283782,186.05817570292857 20.923830868210644,185.75943264894886 19.756607343442738,184.86320212020655 19.112621950451285,184.26571396223153 18.75038016703911,183.76780646757106 18.06614568689838,182.62261682827375 17.462409381056204,181.87575221637962 17.019669423345476,181.02930393491988 16.81842398829758,180.48160113111953 16.657427639933303,179.5355672116566 16.496431291801855,179.0874450841511 16.335434943437576,177.89245023738476 16.4159331175033,176.64766006241553 16.093940421007574,175.6518250743975 15.771947724744678,174.25765183815383 15.771947724744678,173.11243439634563 15.530453202314675,171.36970577811007 15.127962331753224,169.62696940646856 14.966965983388945,168.5315311473969 14.846218722173944,167.18712546033203 14.805969635257497,165.19540485015023 14.966965983388945,163.85098771302728 15.32920776703395,161.90904370197677 15.248709592968225,161.1123459378141 15.32920776703395,160.1662652383675 15.530453202314675,159.36956392935826 15.771947724744678,157.97533273973386 16.737925813766196,156.03335959804826 17.50265846820548,154.83829441739363 18.106394774047658,154.1909659221419 18.91137651540339,153.5436363570625 19.99810186563991,152.99589512037346 20.440841823350638,152.84651101366035 22.533794350456446,152.44815311738057 23.781516049290076,152.09958962586825 24.747494138544425,152.049794816121 25.954966750461608,152.0 27.967421103501692,152.24897401744965 29.49688641168177,152.69712685007835 30.825106284581125,153.04568980980548 31.4288425904233,153.29466316255275 32.636315202340484,153.69302019788302 34.970762251876295,154.29055499107926 36.37948029860854,154.88808887283085 37.425956562161446,155.13706105432357 38.955421870574355,155.58521058259066 40.24339265655726,156.1827424891817 41.289868920110166,156.9296560906223 42.98033057642169,158.57286100025522 44.10730501404032,160.1662652383675 44.63054314558394,161.16213959563174 44.872037668013945,162.15801142071723 45.0732831035275,163.40284764196258 45.19403036450967,166.2410594332905 44.95253584207967,168.5813238619303 44.55004497151822,170.27427239250392 44.348799536470324,171.36970577811007 44.10730501404032,172.21617493251688 43.46331962104887,173.70993956626626 43.30232327268459,173.85931571634137 43.06082875048742,173.95889978477499 41.93385431286879,173.70993956626626 41.008125310530886,173.85931571634137 40.16289448202588,173.85931571634137 38.02969286800362,174.25765183815383 36.902718430617824,174.10827584002982 35.89649125398137,174.10827584002982 35.45375129627064,174.0086918095767 35.29275494813919,174.05848382788827 35.21225677407347,174.15806784568122 35.17200768692419,174.70577949096332 35.29275494813919,175.6518250743975 35.61474764463492,176.69745174542186 35.61474764463492,177.3447430478118 35.13175859977491,179.78452372786705 34.89026407734491,181.67658807936823 34.93051316449419,183.0209440391336 35.13175859977491,183.76780646757106 35.17200768692419,184.41508608715958 35.05126042570919,185.75943264894886 35.01101133855991,187.05398423713632 34.89026407734491,187.65146814260515 34.689018642297015,187.95020975370426 34.28652777150273,188.0 31.87158254813403,187.5020972516213 26.679450317518786,186.8050323408097 25.39147953153588,186.7054515381169 23.8620142233558,186.40670897779637 22.61429252452217,186.40670897779637 22.292299828026444,186.35691852899618 22.05080530582927,186.1577566700871 21.889808957464993,185.90880420431495 22.05080530582927,185.41089879814535 22.131303479894996,184.81341147524654 21.80931078339927,182.5230349621561 22.010556218679994,181.17867729396676 22.05080530582927,179.38619322609156 22.252050740877166,178.19119929085718 22.05080530582927,176.54807667751447 21.970307131763548,176.4484932674095 21.849559870548546,176.4484932674095" stroke="#4dd2ff" stroke-linecap="round" stroke-linejoin="round" stroke-width="0.5"><title>2023-10-13 3.0km</title><desc>10389482249</desc></polyline><polyline fill="none" points="67.73455629334785,175.80036908315378 67.57288913731463,176.20036298126797 67.65372271556407,176.400359777821 67.85580666037276,176.55035730844247 68.70455922977999,176.75035392702557 68.8258095968049,177.5003403411829 68.7449760187883,178.2503253252653 68.66414244077168,180.1502808855439 68.8258095968049,182.30021953082178 68.7449760187883,183.6501750004245 68.7449760187883,184.75013529110583 68.62372565199621,185.80009451758815 68.50247528473847,186.0000864333997 68.30039133969694,186.10008235325222 67.85580666037276,186.0000864333997 67.24955482501537,185.6001024999132 65.75413363147527,184.30015190757695 63.69287739135325,181.3502480899915 63.288709501037374,180.45027302973904 62.88454161095433,179.2503030798107 62.844124821946025,177.55033938455745 62.43995693186298,175.30037613844615 62.399540142854676,174.40038723652833 62.27828977582976,173.40039715263993 62.31870656483807,173.3003980043868 62.35912335361354,173.35039758161292 62.35912335361354,173.25039842084516 61.9953722525388,171.15041016886244 61.63162115146406,167.75040541938506 61.46995399519801,165.9503910066851 61.51037078443915,165.00038007908734 61.75287151848897,162.90034778122208 61.87412188551389,160.40029471192975 62.27828977582976,157.85022421073518 63.12704234523699,156.0001627143356 63.45037665730342,155.5001445999369 64.09704528166912,154.70011429456645 65.10746500710957,153.8500803122588 66.96663730195723,152.75003360773553 68.8662263858132,152.30001361481845 70.0383132675197,152.15000683593098 70.36164757958613,152.0 73.99915859149769,152.15000683593098 76.42416593269445,152.65002920947154 79.17250758619048,153.70007412455743 81.03167988080531,154.0000864425965 81.88043245021254,154.30009853179217 83.0121025426779,154.80011817169725 85.23502593883313,155.5001445999369 86.44752960954793,156.0001627143356 87.78128364728764,156.70018700658693 88.75128658371978,157.55021482947632 90.32754135550931,159.45027037902037 91.13587713590823,160.85030543711036 91.37837786995806,161.50032002016087 91.74212897126563,163.1503522139974 91.86337933829054,164.2503698313376 91.86337933829054,165.50038611644413 91.74212897126563,166.30039445424336 91.7017121820245,167.2004018893349 91.54004502599128,168.50040899342275 91.33796108094975,169.40041139465757 90.97420997964218,170.4504115935415 90.65087566757575,172.60040325514274 90.48920851154253,173.10039963168674 90.32754135550931,173.35039758161292 90.00420704321004,173.6003953727777 88.06420117034577,173.9503920133575 87.49836612399668,174.00039150798693 86.97294786688872,173.9003925122961 86.28586245351471,173.9003925122961 84.02252226835117,174.55038552981569 83.78002153430134,174.55038552981569 82.8504353868775,174.20038942308747 82.1229331844952,174.15038995392388 81.96126602846198,174.30038834249717 81.92084923945367,175.05037942784838 82.08251639548689,175.80036908315378 82.44626749656163,176.85035219829297 82.48668428556994,178.20032637083204 82.1229331844952,180.70026630852954 81.79959887219593,182.20022264504223 81.75918208318762,183.3001869902073 81.84001566120423,183.85016800934682 81.67834850517102,185.25011622457532 81.63793171616271,187.25003360401024 81.5570981381461,187.75001136021456 81.43584777112119,187.95000228483696 81.07209666981362,188.0 78.84917327389121,187.60001810005633 77.59625281416811,187.60001810005633 76.66666666651145,187.50002256163862 74.039575380506,187.10004015328013 72.30165345268324,186.90004879661137 70.48289794661105,186.6000615709636 69.95747968950309,186.6000615709636 69.31081106513739,186.45006787250168 68.8258095968049,186.20007824760978 68.58330886275508,185.85009250606527 68.54289207374677,184.20015553024132 68.42164170672186,183.55017845783732 68.46205849573016,182.8002035782847 68.34080812870525,182.30021953082178 68.66414244077168,181.000258033484 68.7449760187883,179.2503030798107 68.90664317482151,178.15032741011237 68.66414244077168,176.60035647253972 68.62372565199621,176.50035813794238 68.54289207374677,176.60035647253972" stroke="#4dd2ff" stroke-linecap="round" stroke-linejoin="round" stroke-width="0.5"><title>2023-10-10 3.0km</title><desc>10389482309</desc></polyline><polyline fill="none" points="113.97400747938082,176.19871313960175 113.97400747938082,176.39705704484368 114.09425577730872,176.49622895967332 115.13640769245103,176.69457271366264 115.4169870542828,176.6449867845513 115.57731811818667,176.89291636671987 115.4169870542828,177.8350473419705 115.33682152233087,179.76888800488086 115.33682152233087,180.90935364557663 115.53723535197787,182.29774209941388 115.57731811818667,185.57035247661406 115.45706982025877,185.86786114948336 115.21657322440296,186.01661540105124 114.89591109659523,185.96703065678594 114.61533173476346,185.81827638638788 113.09218662790954,184.77699490601663 112.531027904246,184.23156064053182 111.92978641507216,183.43820034735836 110.48680683993734,181.10769515580614 110.0458964142017,180.01681560167344 109.685151520418,178.67800470697694 109.685151520418,177.48794672108488 109.52482045674697,176.19871313960175 109.484737690771,174.66154445472057 109.20415832893923,173.32271518110065 109.12399279722013,173.37230153250857 109.20415832893923,173.37230153250857 109.00374449929222,172.28140034715761 108.96366173308343,170.9921495586459 108.60291683953255,168.81033082524664 108.32233747770078,165.24005566598498 108.40250300965272,164.74418153159786 108.44258577562869,163.1077924161218 108.64299960550852,161.22345705213957 108.84341343538836,160.18210991940578 108.88349620136432,159.4878769532079 109.04382726503536,158.29776042239973 109.40457215881906,157.10764026045217 109.76531705260277,156.36381331522716 110.36655854224227,155.42163048189832 111.00788279762492,154.62821159375017 112.17028301069513,153.78520225698594 113.57317981962115,153.1901357457391 116.05831130966544,152.4958903353545 116.69963556528091,152.24794524649042 117.58145641651936,152.24794524649042 119.82609131070785,152.0 120.90832599182613,152.24794524649042 121.99056067317724,152.59506832674379 123.51370577979833,152.9421910981764 127.0409891854506,154.08273517218186 128.56413429207169,154.42985661971034 129.4860379092861,154.8761551695934 131.69059003749862,155.66957355337217 133.09348684665747,156.06628214009106 134.37613535742275,156.81010965252062 135.9794459962286,158.29776042239973 137.06168067757972,159.58705316690612 137.70300493296236,160.77716576409875 138.06374982674606,161.96727473058854 138.34432918857783,163.3061429775844 138.30424642260186,166.03345296974294 137.82325323089026,169.55413403720013 137.34226003917865,171.53760233544745 137.06168067757972,173.22354245965835 136.8211840817239,173.66981950803893 136.54060471989214,173.91775098117068 136.2600253582932,173.96733725682134 135.0575423790142,173.91775098117068 134.33605259167962,174.01692352630198 133.6145628041122,173.96733725682134 132.61249365494587,174.11609604617115 131.89100386737846,174.11609604617115 130.92901748418808,174.31444101015222 130.16744493087754,174.26485477865208 129.28562407940626,174.36402723551146 128.76454812195152,174.31444101015222 128.48396876011975,174.46319966713781 128.44388599414378,174.85988914151676 128.44388599414378,175.30616431808448 128.6843825899996,176.04995514452457 128.9248791858554,177.28960337044555 128.8847964196466,177.68628997087944 128.56413429207169,178.87634735155734 128.32363769621588,180.61184119107202 128.04305833461694,181.70271908139694 128.12322386633605,182.69442360731773 128.32363769621588,183.88446571084205 128.36372046219185,184.77699490601663 128.32363769621588,187.60332388678216 128.28355493047275,187.85124650475336 128.16330663231201,188.0 128.00297556840815,188.0 127.72239620680921,187.90083100952324 127.16123748314567,187.75207747647073 124.95668535470031,187.4049856789934 121.06865705596283,186.95872434272314 119.06451875739731,186.6116318393906 117.94220131030306,186.5620471709699 117.34095982066356,186.4132931274362 116.41905620321631,186.31412373372586 115.73764918209054,186.115784870286 115.57731811818667,185.86786114948336 115.49715258623473,185.61993727111258 115.45706982025877,184.97533444990404 115.53723535197787,183.88446571084205 115.29673875612207,182.59525326816947 115.49715258623473,180.71101203447324 115.37690428830683,180.16557208404993 115.49715258623473,179.22344673718908 115.4169870542828,178.72759037755895 115.49715258623473,178.18214765400626 115.37690428830683,177.58711835858412 115.33682152233087,176.59540084926994 115.21657322440296,176.39705704484368 114.93599386233836,176.39705704484368" stroke="#4dd2ff" stroke-linecap="round" stroke-linejoin="round" stroke-width="0.5"><title>2023-10-08 3.0km</title><desc>10389482199</desc></polyline><polyline fill="none" points="163.26124481856823,152.1502154591435 163.9088128840085,152.25035906667472 165.4467870395165,152.0 167.2275992196519,152.05007182614645 168.644154363079,152.40057443018304 169.81787148187868,152.9012918950466 171.47726464970037,153.35193706888822 173.25807682983577,153.90272491483483 174.14848291990347,154.1030112131266 178.72193238255568,155.55508383069537 179.24808143568225,155.75536928887595 180.9479476076085,156.7567950518569 182.04071871819906,157.75821826889296 182.56686777155846,158.4091419944889 183.9024769065436,160.26176517191925 184.42862595967017,161.41339140373748 184.6714639842976,162.51494377924246 184.83335600071587,163.86684475661605 184.55004497198388,167.22154195376788 184.5095719678793,168.0727292355441 184.26673394348472,169.3244718965143 183.82153089810163,170.42600214775302 183.29538184520788,172.97953770065214 183.09301682468504,173.5302981006098 182.85017880005762,173.83071253972594 182.56686777155846,173.88078159056022 179.49091946030967,173.88078159056022 177.22443123115227,174.63181659035035 174.91746999765746,174.48160970499157 174.75557798123918,174.48160970499157 174.63415896892548,174.63181659035035 174.59368596505374,174.78202341854922 174.79605098534375,174.98229910014197 175.0793620138429,175.93360719786142 175.16030802205205,176.98505031690001 174.67463197303005,179.5886116756301 174.39132094429806,182.29229179603863 174.3508479401935,183.24358223986928 174.55321296071634,184.44520899065537 174.47226695274003,185.2462914545904 174.47226695274003,187.34912517195335 174.39132094429806,187.89986548107117 174.31037493632175,188.0 170.62733156373724,187.5493944643822 169.17030341620557,187.24899048756924 166.70145016652532,187.048721042549 165.04205699870363,186.7483166838938 161.88516267947853,186.44791209633695 161.3590136258863,186.29770971651305 159.86151247448288,185.49662939060363 158.76874136389233,184.3951412824972 157.7973892656155,183.14344651199644 156.74509115912952,181.59133947268128 156.17846910189837,180.4397722335416 155.77373906085268,178.93772294919472 155.77373906085268,178.23676465649623 155.61184704466723,177.48573653012863 155.3690090200398,175.13250579475425 155.16664399951696,173.9809196732822 155.20711700362153,173.5302981006098 155.44995502824895,173.33002168062376 157.3117132165935,173.6304362724477 159.86151247448288,173.48022900524666 161.1161756014917,173.5302981006098 161.48043263843283,173.6304362724477 161.6018516505137,173.9809196732822 161.3994866302237,175.88353840779746 161.3994866302237,176.48436346740345 160.79239156865515,176.53443218095344 160.54955354402773,176.4342947473924" stroke="#4dd2ff" stroke-linecap="round" stroke-linejoin="round" stroke-width="0.5"><title>2023-10-07 2.2km</title><desc>10389482165</desc></polyline><polyline fill="none" points="21.06789189740084,214.70038376611774 22.159144923323765,215.3003761387081 22.361228817375377,215.9503668428806 22.239978480851278,216.45035896124318 21.99747780850157,216.95035044426913 22.078311366029084,217.00034955749288 21.91664425097406,218.15032741017058 21.957061029737815,220.55027036051615 22.037894587265328,221.70023783526267 21.876227472210303,223.85016800943413 21.99747780850157,225.4501084202493 21.91664425097406,225.9500884640729 21.71456035738811,226.25007618544623 21.26997579098679,226.15008030369063 20.502056994941086,225.7000985214545 20.0574724287726,225.35011233508703 19.168303296435624,224.5001445861417 18.602468393743038,223.75017151769134 17.107047580415383,221.55024226839305 16.702879793010652,220.800263575773 16.258295226609334,218.95031002064934 16.09662811178714,216.40035977805383 15.813710660673678,215.20037747349124 15.854127439204603,215.15037813142408 15.813710660673678,214.3503877928597 15.69246032438241,213.75039397142245 15.773293881909922,213.30039800464874 15.16704220068641,209.60041164892027 14.924541528103873,207.00040041544707 14.843707970809191,205.3503843723738 15.005375085864216,204.0003660977818 15.126625421922654,201.35031675046775 15.36912609450519,200.2002897800994 15.530793209327385,197.9502272871032 16.62204623525031,195.80015554485726 17.309131474001333,194.8501201007457 18.400384500157088,193.90008236200083 19.774554977426305,193.10004880206543 20.704140888759866,192.70003141183406 23.007897277129814,192.20000910197268 25.63498789560981,192.0 26.604990585474297,192.0 28.504579186206684,192.40001810219837 32.46542350342497,193.750076193508 35.29459801549092,194.250096532749 36.790018829051405,195.100129650702 39.41710944729857,195.9501609314757 41.19544771220535,196.95019538054476 42.16545040206984,197.75022110907594 43.741704773157835,199.60027437389363 44.145872560562566,200.2002897800994 44.59045712673105,201.25031453868723 45.11587525042705,203.30035479782964 45.07545847189613,205.550386685587 45.15629202919081,206.1003925226978 45.03504169289954,206.7503984294599 44.83295779931359,208.6004093622032 44.30753967538476,210.7004112280265 44.02462222450413,212.40040452676476 43.741704773157835,213.50039627571823 43.66087121563032,213.70039444501163 43.4992041005753,213.90039251267444 43.29712020698935,214.00039150824887 42.4483678531833,213.8503930052102 40.91253026109189,214.00039150824887 40.14461146481335,214.00039150824887 38.972524881362915,214.2003894233494 37.76002151891589,214.25038888631389 36.91126916510984,214.10039047850296 35.4966819093097,214.10039047850296 35.25418123672716,214.15038995421492 35.17334767919965,214.3503877928597 35.132930900668725,214.70038376611774 35.21376445796341,215.20037747349124 35.658349024364725,216.60035647288896 35.860432917950675,217.70033647693344 35.90084969671443,218.75031452055555 35.77959936042316,219.50029712138348 35.37543157301843,220.800263575773 35.21376445796341,222.00022879743483 35.25418123672716,223.1001937018591 35.335014794254676,223.1001937018591 35.4966819093097,223.75017151769134 35.01168056437746,227.40002699766774 34.930847006849945,227.70001361315371 34.728763113031164,228.0 34.405428883153945,228.0 30.485001344932243,227.45002478273818 27.29207582399249,227.15003797662212 24.867069099331275,226.70005733828293 22.805813383543864,226.50006577841123 22.64414626825601,226.15008030369063 22.603729489725083,224.30015190769336 22.482479153666645,222.10022573417518 22.603729489725083,221.4502451919834 22.765396604547277,219.2003042526776 22.72497982601635,218.40032215075917 22.64414626825601,218.15032741017058 22.361228817375377,217.70033647693344 21.957061029737815,216.60035647288896 21.633726799860597,216.7503539272584 21.310392569983378,216.7503539272584" stroke="#4dd2ff" stroke-linecap="round" stroke-linejoin="round" stroke-width="0.5"><title>2023-10-03 3.0km</title><desc>10389482190</desc></polyline><polyline fill="none" points="67.25548859196715,216.33277184635517 67.33609825419262,216.58207522137673 68.46463352651335,216.73165717045777 68.74676734465174,216.93109968031058 68.62585285119712,217.72886870612274 68.74676734465174,218.87565883807838 68.66615768219344,220.3216068347101 68.74676734465174,225.90590767809772 68.70646251365542,226.15520496928366 68.5049383577425,226.25492384142126 68.18249970860779,226.20506440845202 67.90036589023657,226.05548607185483 66.69122095569037,225.1580148541252 65.64329534582794,224.16082220405224 63.86988277500495,221.41852934582857 63.58774895686656,220.91992858459707 63.18470064504072,219.7731444289093 62.94287165813148,218.87565883807838 62.94287165813148,217.62914766662288 62.58012817776762,214.28847819421208 62.37860402208753,213.64028529945062 62.37860402208753,213.34111898668925 62.41890885331668,213.19153574481606 62.37860402208753,212.64306336978916 61.97555571072735,209.70124390674755 61.73372672358528,206.85912618343718 61.53220256790519,205.36326647855458 61.73372672358528,203.76767650575493 61.73372672358528,203.06960385167622 61.97555571072735,200.7260651405959 62.13677503517829,200.0778498335858 62.09647020418197,199.37977061260608 62.25768952863291,198.5321013169887 62.74134750245139,197.08607299625874 63.66835861909203,195.39072265880532 64.43415041081607,194.34359084849712 65.28055186523125,193.69536499344395 66.48969680001028,193.04713806710788 67.45701274764724,192.69809235536377 68.86768183810636,192.2991825902136 69.9962171104271,192.14959132357035 70.88292339583859,192.14959132357035 72.05176349938847,192.0 73.4624325898476,192.04986378081958 75.11493066721596,192.34904633296537 76.08224661485292,192.64822865687893 77.04956256248988,192.8975470858859 79.34693793859333,193.74522855877876 82.1279712880496,194.2937273591233 83.4177258850541,194.9419522252574 84.42534666392021,195.24113257139106 86.92424619570374,196.2882619855518 87.93186697456986,196.93648355541518 88.85887809097767,197.6844301892852 89.58436505170539,198.48223836012767 90.148632688215,199.13045630409033 90.95472931093536,200.62633977859514 91.35777762252837,201.67345481627854 91.68021627189592,202.96987908537267 91.76082593435422,204.76492099941242 91.80113076535054,205.01423172661453 91.80113076535054,205.61257682566065 91.63991144066676,206.26078298597713 91.47869211621583,207.90622458260623 91.23686312907375,209.55165927685448 90.43076650612056,212.9920913335227 90.18893751897849,213.69014632931794 90.02771819452755,213.83972938117222 89.62466988293454,213.98931237586658 86.23906406597234,213.83972938117222 84.46565149514936,214.3882000829908 83.74016453442164,214.43806101789232 82.65193409309722,214.28847819421208 82.08766645705327,214.0890343406645 81.96675196359865,214.0890343406645 81.84583747014403,214.23861724024755 81.9264471323695,215.38541757612256 82.28919061273336,216.68179652708932 82.36980027519166,217.67900818947237 82.32949544396251,218.1277526106278 81.48309398954734,221.26894918392645 81.40248432732187,221.71768949824036 81.48309398954734,223.0140475227672 81.68461814522743,224.75913809836493 81.56370365177281,226.6537990764482 81.56370365177281,227.60112613384263 81.52339882077649,227.85042234766297 81.40248432732187,227.95014078883105 81.20096017140895,228.0 80.15303456154652,227.9002815714921 78.7423654710874,227.60112613384263 73.74456640798599,227.05267390568042 70.88292339583859,226.55408030559192 70.19774126610719,226.55408030559192 69.06920599378645,226.35464268823853 68.74676734465174,226.20506440845202 68.54524318873882,225.85604820086155 68.58554801996797,225.10815528186504 68.4243286952842,222.66502847606898 68.46463352651335,221.81740949850064 68.70646251365542,220.2218864543247 68.74676734465174,218.22747352326405 68.66615768219344,217.13054208896938 68.54524318873882,216.48235389046022 68.30341420206241,216.63193587746355 67.9809755529277,216.58207522137673" stroke="#4dd2ff" stroke-linecap="round" stroke-linejoin="round" stroke-width="0.5"><title>2023-10-01 3.0km</title><desc>10389482184</desc></polyline><polyline fill="none" points="113.72099486086518,213.93085063516628 113.88288687728345,214.7319544821512 114.28761691832915,215.082436902856 114.36856292653829,215.33278129814425 114.5709279468283,215.53305669987458 114.89471197966486,215.78340080889757 114.93518498376943,216.2340198039019 115.21849601226859,216.4342947473924 115.25896901660599,216.78477565359208 115.21849601226859,218.48710704719997 115.461334036896,222.1420878318313 115.29944202071056,223.29365009441972 115.29944202071056,225.84710223364527 115.25896901660599,226.04737228967133 115.05660399608314,226.19757476483937 114.61140095093288,226.14750727958744 113.80194086907431,225.69689962486154 112.42585872998461,224.4952766923525 111.94018268072978,223.89446385146584 111.21166860708036,222.7429033452645 109.87605947209522,220.38970401632832 109.5118024351541,219.0378597464005 109.22849140642211,215.43291901174234 109.06659939000383,214.2312647686049 108.86423436971381,213.58036718977382 108.82376136560924,212.27856880507898 108.6213963450864,211.52752931852592 108.58092334098183,210.6262800442055 108.37855832045898,209.4746807484771 108.17619329993613,207.27161184471333 108.13572029583156,205.36895151174394 108.2166663040407,204.01705568973557 108.82376136560924,197.80828936299076 110.19984350469895,195.30472686479334 110.64504654961638,194.75394097957178 111.7782906643115,193.70243851441774 112.8305887710303,193.00143531148206 113.6805218567606,192.65093324211193 116.55410514748655,192.0 120.39904053648934,192.0 121.37039263476618,192.1502154591435 122.86789378616959,192.55078973647323 124.7701249786187,193.30186540842988 126.1866801220458,193.60229527621414 127.23897822829895,193.95279649895383 128.4531683512032,194.15308277189615 128.9793174045626,194.30329740970046 129.78877748618834,194.75394097957178 132.62188777304254,195.7052979338041 134.52411896525882,196.6566525902599 135.5764170717448,197.45779157118523 136.95249921106733,199.21027741095168 137.64054028061219,200.31183594762115 138.04527032165788,201.21310882279067 138.36905435449444,202.51494377924246 138.49047336657532,203.61649307375774 138.53094637067989,205.4690917582775 138.32858135015704,206.37035283262958 138.08574332576245,208.4732873197645 137.60006727627479,210.82655783894006 137.31675624777563,211.92808388956473 137.1143912274856,212.32863805326633 136.7906071948819,212.67912261240417 136.26445814128965,212.77926100071636 133.06709081795998,212.5289149825694 130.92202160111628,212.72919180977624 128.81742538814433,212.57898419885896 128.69600637583062,212.62905340877478 128.49364135530777,213.02960685981088 128.4531683512032,214.33140276224003 128.53411435941234,215.33278129814425 128.77695238403976,216.4342947473924 128.81742538814433,217.13525624776958 128.65553337172605,219.5886116756301 128.29127633478492,220.94045405546785 128.3317493388895,221.39106715115486 128.65553337172605,222.34235977151548 128.5745873635169,222.89310708042467 128.65553337172605,223.19351437911973 128.5745873635169,223.79432828904828 128.69600637583062,224.1948703864764 128.3317493388895,225.79703470374807 128.16985732247122,227.24899048756924 128.0484383101575,227.5493944643822 127.88654629397206,227.74966365494765 126.87472119159065,228.0 126.30809913435951,228.0 123.59640786005184,227.3991925047012 120.56093255267479,227.09878841330647 117.40403823368251,226.54804698427324 116.18984811054543,226.49797954346286 115.8660640779417,226.3477771828766 115.8255910736043,226.09743978775805 115.90653708204627,224.79568276915234 115.8255910736043,222.39242774041486 115.90653708204627,221.19079472791054 115.8255910736043,220.64004503874457 115.62322605331428,220.48984044449753 115.3399150245823,220.4397722335416 115.25896901660599,220.28956756278058 115.21849601226859,219.83895320721786 115.29944202071056,218.53717550614965 115.25896901660599,217.23539350301144 115.13755000405945,216.38422602112405 115.01613099197857,216.38422602112405" stroke="#4dd2ff" stroke-linecap="round" stroke-linejoin="round" stroke-width="0.5"><title>2023-09-30 3.0km</title><desc>10389482196</desc></polyline><polyline fill="none" points="167.58171043824404,217.57928713754518 167.50110078626312,217.97817119403044 167.50110078626312,220.37146701556048 167.42049113404937,221.16922904460807 167.46079595992342,222.41572896696744 167.38018630817533,224.45998026544112 167.38018630817533,225.85604820103617 167.33988148206845,226.10534552385798 167.2592718298547,226.1552049695165 167.0174428736791,226.25492384142126 166.69500426552258,226.1552049695165 165.44555465853773,225.35745308012702 164.2767147035338,224.21068189688958 163.7930567911826,223.3630662591022 162.18086374993436,220.96978868937003 161.73751066369005,220.07230583639466 161.5359865333885,219.37426219781628 161.49568170728162,218.97537956081214 161.57629135926254,218.37705484501203 161.25385275110602,215.53499998163898 161.1732430991251,214.2386172405386 160.77019483875483,211.79542273652623 160.608975534793,210.0502744882251 160.4880610567052,209.20262825195096 160.12531762220897,205.76216295780614 160.28653692640364,204.51561011382728 160.52836588257924,201.47400454859599 160.8104996648617,200.27730081172194 160.8104996648617,199.77867317700293 160.9314141429495,198.88114183727885 161.21354792523198,197.83401934508584 161.8987299676519,196.23839874361875 162.34208305412903,195.44058600871358 163.30939887883142,194.3934543315263 163.95427609537728,193.8449556704145 165.244030528469,192.9972744130646 165.92921257088892,192.74795604756218 167.82353939441964,192.44877379966783 168.54902626294643,192.19945508547244 169.95969517412595,192.0498637809069 171.24944960698485,192.0 174.59475016780198,192.44877379966783 179.5925485957414,194.24386386357946 179.7940727258101,194.44331780797802 179.87468237779103,194.74249853452784 179.87468237779103,196.18853549519554 179.7134630738292,197.8838823843107 179.83437755168416,198.4822383603314 179.7134630738292,198.98086764311302 179.7134630738292,200.57647708817967 179.7940727258101,200.9753784353088 179.7134630738292,201.87290498282528 179.75376789970323,203.31891565668047 179.63285342161544,204.91450745495968 179.6731582477223,206.95884996108362 179.47163411742076,212.1943126746337 179.55224376963452,212.6430633700802 179.39102446543984,212.6430633700802 179.51193894352764,214.0391733616416 179.39102446543984,215.38541757623898 179.39102446543984,216.63193587757996 179.51193894352764,218.22747352346778 179.18950033537112,222.16642929942464 179.229805161478,224.1109625051322 179.39102446543984,226.40450210220297 179.3507196395658,227.30197046819376 179.229805161478,227.75070388120366 179.06858585728332,227.95014078900567 178.78645207500085,228.0 175.64267564448528,227.4016890487983 173.70804399508052,227.25211116831633 171.69280269322917,226.95295523648383 168.66994074103422,226.60393969420693 168.34750213264488,226.55408030573744 168.06536835059524,226.35464268835494 167.94445387250744,226.1552049695165 167.90414904640056,225.95576714907656 167.98475869838148,224.6594188460731 167.82353939441964,222.6151685868972 167.82353939441964,222.1165693468938 167.98475869838148,221.16922904460807 167.94445387250744,219.972585392592 168.02506352448836,218.8756588383403 168.02506352448836,217.7787292165449" stroke="#4dd2ff" stroke-linecap="round" stroke-linejoin="round" stroke-width="0.5"><title>2023-09-28 2.6km</title><desc>10389482181</desc></polyline><polyline fill="none" points="27.139384045498446,257.25635000594775 27.304023812524974,257.71461584130884 27.345183754339814,258.9366555059096 27.262863870942965,261.2279698291095 27.345183754339814,263.41743571544066 27.262863870942965,264.3848703184922 27.262863870942965,265.5559722383332 27.304023812524974,266.2178978960728 27.509823521366343,266.67615347984247 28.04490276472643,266.93073968897806 28.579982008086517,267.0834913366998 29.85594020388089,266.93073968897806 30.473339330870658,266.93073968897806 35.0009329279419,267.64358021345106 37.55284931906499,267.7963315893139 39.07576716551557,268.0 39.28156687458977,268.0 39.4462066416163,267.8981658075936 39.52852652524598,267.59266307522194 39.4462066416163,266.67615347984247 39.48736658366397,265.5559722383332 39.32272681617178,264.3848703184922 39.40504669980146,264.07936490667635 39.4462066416163,261.0752159487456 39.56968646706082,259.90410092976526 39.56968646706082,258.2237994878669 39.4462066416163,256.79808364636847 39.56968646706082,255.219606617291 39.48736658366397,254.20123103965307 39.36388675821945,253.7938800837146 39.4462066416163,253.84479897585697 39.52852652524598,253.2846908061765 39.52852652524598,252.46998661599355 39.73432623432018,251.40068485186202 39.36388675821945,250.02586410369258 39.2404069325421,249.05839482264128 39.56968646706082,246.5633316830208 39.69316629250534,245.08665434087743 39.56968646706082,243.91549257814768 39.61084640864283,242.48972581033013 39.56968646706082,241.06395396756125 39.69316629250534,240.401986744022 39.65200635045767,238.9762074702303 39.77548617590219,238.11055329223746 39.85780605953187,237.24489724336308 39.77548617590219,236.3283182111918 39.89896600134671,235.56450074908207 39.73432623432018,234.64791787180002 39.77548617590219,234.29146840868634 39.65200635045767,234.0368614551262 39.36388675821945,233.88409720521304 37.2235697847791,233.5276470623794 35.28905252064578,232.91658893661224 34.21889403392561,232.81474582495866 33.51917502330616,232.45829473048798 32.32553671160713,232.10184331875644 29.85594020388089,232.0 28.909261542372406,232.0509216626815 28.04490276472643,232.3055298786494 27.797943114070222,232.45829473048798 26.686624685768038,232.6110595240898 25.90458579151891,232.91658893661224 25.451826431788504,233.2221181159257 24.752107421401888,233.83317577571142 23.558469109237194,234.3423897799512 22.81759015726857,234.80068183029653 22.200191030278802,235.36081584662315 21.665111786918715,236.02279140119208 21.418152136029676,236.58292370836716 20.88307289290242,238.56884103119955 20.71843312564306,239.74001842655707 20.5537933583837,240.35106614310644 20.59495330019854,240.5038279266737 20.43031353293918,242.3878851327172 20.101033998653293,244.11917313063168 20.183353882282972,248.04000358152553 20.51263341680169,250.68781542329816 20.84191295085475,252.16447211746708 21.006552718114108,252.46998661599355 21.335832252399996,252.52090567638515 25.246026722947136,252.26631030952558 26.686624685768038,252.36814847571077 27.345183754339814,252.2153912167705 27.262863870942965,252.26631030952558 27.262863870942965,252.36814847571077 27.180543987080455,252.7245818535448 27.304023812524974,253.99755561354687 27.262863870942965,255.77971208150848" stroke="#4dd2ff" stroke-linecap="round" stroke-linejoin="round" stroke-width="0.5"><title>2023-09-27 2.2km</title><desc>10389482166</desc></polyline><polyline fill="none" points="74.47790645854548,232.0515782161383 74.22776243486442,232.0 74.01930908160284,232.0 72.51844493928365,232.51578186638653 70.80912744347006,233.392609534465 69.93362336046994,234.0115455709165 69.18319128919393,234.78521428877139 68.39106854749843,235.86834801523946 67.97416184097528,236.69359081820585 67.6406364759896,238.03460679319687 67.3071111110039,239.94296803872567 66.97358574625105,242.41866654905607 66.84851373406127,245.513268443814 66.9318950753659,246.9058315960574 66.80682306364179,247.78262816581992 67.01527641667053,249.84567144411267 67.51556446426548,252.32130953171873 67.43218312272802,252.37288516451372 68.14092452358454,257.58199031537515 68.18261519400403,258.97451204733807 68.26599653530866,259.74813316678046 69.01642860658467,261.759541174426 69.26657263026573,262.1205620690889 70.89250878500752,264.4929771005118 71.80970353865996,265.57603152494994 72.26830091536976,265.9370490241272 74.01930908160284,266.55593541811686 75.6452452361118,266.91695204545977 76.85427468433045,266.91695204545977 78.02161346166395,267.1232471167168 79.73093095747754,267.1232471167168 81.10672308830544,267.53583694488043 82.56589655997232,267.638984336314 86.19298490439542,268.0 86.31805691611953,267.94842635351233 86.40143825742416,267.638984336314 86.35974758700468,266.91695204545977 86.35974758700468,264.6992734041123 86.5265102693811,262.8426028949325 86.48481959872879,261.03749842144316 86.40143825742416,260.6249019856623 86.23467557528056,260.31545438367175 86.02622222178616,260.2123051304952 85.73438752745278,260.2123051304952 85.02564612706192,260.2638797602558 84.44197673816234,260.4186036106257 83.39970997232012,260.47017821430927 80.2729096757248,260.2638797602558 78.64697352098301,260.2638797602558 77.68808809667826,260.3670290003356 76.64582133106887,260.2638797602558" stroke="#4dd2ff" stroke-linecap="round" stroke-linejoin="round" stroke-width="0.5"><title>2023-09-25 1.5km</title><desc>10389482075</desc></polyline></svg>