<?xml version="1.0" encoding="utf-8" ?>
<svg baseProfile="full" height="300mm" version="1.1" viewBox="0,0,200,300" width="200mm" xmlns="http://www.w3.org/2000/svg" xmlns:ev="http://www.w3.org/2001/xml-events" xmlns:xlink="http://www.w3.org/1999/xlink"><defs /><rect fill="#222222" height="300" width="200" x="0" y="0" /><text fill="#FFFFFF" style="font-size:12px; font-family:Arial; font-weight:bold;" x="10" y="20">All Running Tracks</text><text fill="#FFFFFF" style="font-size:4px; font-family:Arial" x="10" y="280">ATHLETE</text><text fill="#FFFFFF" style="font-size:9px; font-family:Arial" x="10" y="290">Ryan</text><text fill="#FFFFFF" style="font-size:4px; font-family:Arial" x="120" y="280">STATISTICS</text><text fill="#FFFFFF" style="font-size:3px; font-family:Arial" x="120" y="285">Number: 21</text><text fill="#FFFFFF" style="font-size:3px; font-family:Arial" x="120" y="290">Weekly: 2.6</text><text fill="#FFFFFF" style="font-size:3px; font-family:Arial" x="141" y="285">Total: 58.9 km</text><text fill="#FFFFFF" style="font-size:3px; font-family:Arial" x="141" y="290">Avg: 2.8 km</text><text fill="#FFFFFF" style="font-size:3px; font-family:Arial" x="167" y="285">Min: 1.5 km</text><text fill="#FFFFFF" style="font-size:3px; font-family:Arial" x="167" y="290">Max: 3.6 km</text><polyline fill="none" points="21.5242467247881,57.065536115522264 20.636310667498037,56.46637861363706 21.766411104006693,56.71602768381126 14.864726294297725,41.73680262561538 15.349055052734911,40.188916805636836 15.30869432282634,38.84075321801356 15.470137242693454,37.79217833947041 15.550858702277765,37.59244947388652 15.95446600113064,36.993262267584214 16.64059840911068,35.69502018461935 17.28637008718215,34.846167271753075 17.770698845619336,34.29690852708882 18.618274173233658,33.54791809193557 19.54657096043229,33.04859034172841 20.394146288046613,32.64912768447539 21.362803805153817,32.499329083249904 22.452543511986732,32.199731709377375 24.26877635670826,32.0 26.085009201196954,32.0 28.990981752751395,32.39946331738611 32.74452963168733,33.647783565946156 34.15715517755598,33.9473798351537 34.96436977526173,34.19704321824247 35.65050218324177,34.49663906858768 37.345652838470414,34.89609984692652 38.798639114014804,35.395425248367246 39.68657517130487,35.79488511243835 40.978118527680635,36.593803622119594 42.14857969433069,37.64238169975579 43.843730349326506,39.58973356024944 44.489502027165145,40.78809913696023 44.69130567694083,41.43721229786752 45.094912975560874,43.18481932213763 45.135273705469444,44.28331118641654 45.094912975560874,46.080836700915825 44.93347005615942,48.27780115909991 44.73166640661657,48.976832727872534 44.69130567694083,49.526070944964886 43.92445180891082,52.2223201446468 43.39976232056506,53.67029818758601 43.31904086098075,53.82008871503058 43.036515751620755,53.969879185257014 42.59254772285931,53.969879185257014 40.049821740482,53.77015854549245 38.879360573831946,54.269459954317426 38.55647473479621,54.3193900603801 35.56978072342463,54.11966959835263 35.327616344206035,54.219529842055636 35.12581269489601,54.56904049505829 35.04509123507887,55.068340888567036 35.08545196498744,55.56764064723393 35.44869853393175,57.16539561047102 35.6101414533332,58.26384837774094 35.44869853393175,59.41222753201146 34.96436977526173,61.05989610686083 34.88364831544459,62.15833798403037 34.88364831544459,63.057060871535214 34.76256612595171,63.35663471050793 34.88364831544459,66.70186039269902 34.80292685586028,67.75035810095142 34.722205395810306,68.0 34.560762476641685,68.0 33.30957985017449,67.9500716329494 31.089739706600085,67.60057288533426 29.556031971238554,67.4507876126736 28.425931534497067,67.20114536467008 26.771141609409824,67.1012884209922 22.573625701712444,66.35236053465633 22.089296943042427,66.05278898021788 21.968214753316715,65.75321719734347 21.927854023408145,64.15549716402893 21.60496818460524,62.40798343671486 21.887493293732405,61.259613040310796 21.968214753316715,59.46215698434389 21.847132563823834,58.36370756791439 21.806771833915263,56.51630844044848 21.68568964418955,56.21672938487609" stroke="#4dd2ff" stroke-linecap="round" stroke-linejoin="round" stroke-width="0.5"><title>2023-11-19 2.2km</title><desc>10341819005</desc></polyline><polyline fill="none" points="65.61099172220565,54.323328053666046 65.6899608289823,53.54178924046573 65.7689299355261,52.271785279066535 65.6899608289823,51.68562818897772 65.7689299355261,51.24600978460512 65.72944538248703,50.122538244206225 65.84789904230274,49.73176476464141 65.7689299355261,49.29214412489091 65.84789904230274,48.16866687205038 65.80841448903084,46.605562621407444 65.84789904230274,45.5797720013943 65.72944538248703,45.04245201224694 65.6899608289823,44.01665721970494 65.6899608289823,42.84431696054526 65.7689299355261,42.1604501575639 65.6899608289823,41.08579986557015 65.88738359580748,40.255386217613705 66.1637754694093,39.62036280534812 66.24274457618594,39.180730597581714 66.12429091590457,37.81298273432185 66.24274457618594,37.12910697708139 65.96635270258412,36.34753319245647 66.04532180936076,35.517109304637415 66.12429091590457,35.17516953506856 66.36119823623449,35.02862382627791 66.40068278973922,34.88207806175342 66.51913644978777,34.29589444459998 66.51913644978777,33.66086118336534 66.67707466334105,32.976978036167566 66.79552832338959,33.074675703042885 66.71655921661295,32.68388488609344 66.8350128766615,32.39079151247279 67.6641884976998,32.14654686374706 70.23068446689285,32.0 71.37573651457205,32.09769791524741 72.91563409613445,32.488489328476135 75.36367640504614,33.270070962491445 76.1533674725797,33.66086118336534 76.70615121978335,33.80740741366753 78.71986344177276,34.24704576935619 82.98419520584866,35.76135181088466 84.52409278741106,36.6406235480099 85.86656760214828,37.81298273432185 87.24852696992457,39.66921079737949 87.9592489306815,41.08579986557015 88.23564080451615,41.91621171872248 88.47254812461324,43.38164002326084 88.4330635711085,44.06550465273904 88.31460991105996,44.70052071905229 88.3540944645647,45.77516090194695 88.15667169773951,48.11981996052782 87.60388795053586,50.41561809318955 86.8141968830023,53.102172959566815 86.73522777622566,54.323328053666046 86.34038224257529,55.886400911491364 86.22192858252674,56.667934956232784 86.26141313579865,56.912164019275224 86.37986679584719,57.156392927019624 87.01161964982748,57.54715885670157 87.09058875660412,57.69369597788318 87.13007331010886,58.13330700609367 87.01161964982748,58.9148364814173 86.77471232973039,59.110218601766974 84.44512368086725,59.50098254476325 83.41852529300377,59.45213707353105 82.47089601214975,59.15906411645119 81.83914315816946,59.15906411645119 80.65460655698553,59.89174609037582 80.45718379016034,60.18481848866213 80.3782146833837,60.47789066360565 80.29924557660706,60.91749850689666 80.3782146833837,61.161724869161844 80.57563745020889,61.50364151567919 81.04945209086873,61.89440302475123 81.79965860466473,62.33400924777379 82.15501958504319,62.62707978361868 82.27347324532457,62.87130505946698 82.27347324532457,63.06668516836362 82.11553503153846,63.84820461075287 81.87862771144137,64.38549830546253 81.60223583783954,64.53203281905735 80.85202932381071,64.23896373587195 78.91728620859794,63.06668516836362 78.4039870146662,62.87130505946698 78.24604880134575,62.92015009588795 78.16707969433628,63.01784015048179 78.16707969433628,63.4086001199903 78.36450246162713,66.97426648731926 78.24604880134575,67.8534668085631 78.16707969433628,68.0 77.73274960741401,67.95115560898557 76.5876975597348,67.26733348463313 75.60058372537605,66.8765774386411 74.6134698910173,66.77888836502098 73.94223248376511,66.77888836502098 71.29676740779541,66.29044262474054 70.54656089376658,66.29044262474054 69.51996250613593,66.1927534021379 67.82212671102025,65.80199626355898 66.24274457618594,65.80199626355898 65.72944538248703,65.50892814877443 65.57150716893375,65.26470454919036 65.53202261542901,64.72741208379739 65.65047627571039,63.06668516836362 65.57150716893375,61.65017712811823 65.6899608289823,60.33135460401536 65.61099172220565,56.912164019275224 65.65047627571039,56.32601400726708 65.57150716893375,56.03293866588501 65.37408440210856,56.22832225161255 64.93975431495346,56.179476364457514 64.86078520840965,56.03293866588501 64.93975431495346,55.64217119658133" stroke="#4dd2ff" stroke-linecap="round" stroke-linejoin="round" stroke-width="0.5"><title>2023-11-08 2.5km</title><desc>10341819064</desc></polyline><polyline fill="none" points="113.71347194653936,55.05823372778832 113.75355470227078,55.355750417656964 113.99405123689212,55.40533651053556 114.63537532952614,55.950783116568346 115.07628564303741,56.04995514487382 115.23661666596308,56.19871314003831 115.35686493339017,56.34747107839212 115.51719595654868,56.74415863666218 115.35686493339017,57.68628997117048 115.43703044508584,58.18214765441371 115.35686493339017,58.87634735193569 115.35686493339017,60.51267032290343 115.5572787122801,62.44649771240074 115.5572787122801,64.67782509647077 115.47711320081726,65.8182763865625 115.39694768935442,66.01661540105124 115.19653391023166,66.16536959569203 114.7556235967204,66.0662001388846 114.1142995043192,65.6695220595866 113.43289265595376,65.1736738930631 112.55107202893123,64.28114560531685 110.4266859726049,61.2068658733333 110.06594117055647,60.36391397268744 109.70519636850804,59.124275515961926 109.66511361277662,57.83504734226153 109.42461707815528,55.05823372778832 109.30436881072819,54.165682296908926 109.1039550320711,53.71940581567469 109.18412054353394,53.372301532828715 108.90354125294834,52.033467834524345 108.74321022978984,49.950828503933735 108.46263093943708,48.90950466916547 108.26221716077998,47.86817805460305 108.10188613738865,45.388817783794366 108.18205164908431,44.297894272138365 108.54279645089991,41.42180857207859 108.70312747429125,40.87634165032068 108.74321022978984,39.38870071465499 108.90354125294834,38.54570166594931 109.02378952037543,38.04981902174768 109.42461707815528,37.50434738470358 110.34652046114206,35.37204184877919 111.14817557646893,34.47944537282456 112.07007895945571,33.73561341583263 113.47297541168518,32.94219109832193 114.23454777151346,32.69424629313289 116.39901658357121,32.44630133037572 117.16058894363232,32.198356209963094 118.36307161673903,32.0 120.44737491733395,32.09917811767082 121.24903003289364,32.297534276905935 121.89035412529483,32.297534276905935 122.77217475231737,32.49589033561642 126.58003655145876,33.83479109220207 130.90897417557426,35.124098588188644 132.51228440669365,35.71916214909288 133.5544360568747,36.21504775629728 134.6767532187514,36.9588749850227 135.59865660173818,37.70270079554757 137.1218013211619,39.487876953557134 137.72304265806451,40.47963795560645 138.2040357273072,41.66974782969919 138.48461501765996,43.058204760367516 138.5647805291228,43.851606501761125 138.48461501765996,45.6367545198882 138.2040357273072,48.81033082562499 138.0437047041487,49.70289450971177 137.20196683262475,52.727678473864216 136.80113927507773,53.71940581567469 136.64080825191922,53.86816469958285 136.4403944730293,53.96733725714148 134.6767532187514,53.91775098151993 133.11352574336343,54.01692352659302 132.2317051163409,54.3640272358316 131.38996724481694,54.5127858738997 129.58624323480763,54.314441010472365 129.0651674096007,54.46319966748706 128.54409158462659,54.41361345475889 128.3837605617009,54.5127858738997 128.3837605617009,54.711130636249436 128.50400882889517,55.30616431843373 129.02508465386927,56.94250226460281 129.0651674096007,57.735875767772086 128.90483638667502,58.82676170018385 128.4238433171995,60.760597446991596 128.18334678257816,62.000230704114074 128.14326402684674,63.19027492508758 128.26351229427382,63.88446571081295 128.22342953830957,64.42990046183695 128.34367780573666,64.92574957342003 128.34367780573666,65.91744590632152 128.22342953830957,67.6529084231006 128.14326402684674,67.90083100955235 127.7825192247983,67.95041550786118 127.18127788812853,67.85124650478247 126.70028481865302,68.0 126.21929174941033,68.0 122.25109892734326,67.4049856789934 120.40729216160253,67.25623195702792 118.40315437270328,66.76038580734166 116.6795958741568,66.56204717088258 116.31885107210837,66.46287781497813 115.99818902579136,66.21495431457879 115.67752697947435,66.26453902735375 115.5572787122801,66.21495431457879 115.39694768935442,65.96703065681504 115.31678217765875,65.71910684148315 115.35686493339017,64.28114560531685 115.23661666596308,62.892764210060704 115.47711320081726,60.859768252499634 115.43703044508584,59.9672300950333 115.47711320081726,56.79374455314246 115.35686493339017,56.44664300579461 115.2766994216945,56.496228959964355 115.31678217765875,56.59540084959008 115.31678217765875,56.54581490799319 115.2766994216945,56.496228959964355 114.71554084098898,56.54581490799319" stroke="#4dd2ff" stroke-linecap="round" stroke-linejoin="round" stroke-width="0.5"><title>2023-11-03 3.1km</title><desc>10389486333</desc></polyline><polyline fill="none" points="160.70079947728664,55.752438984345645 160.66071671643294,56.248299125552876 160.94129604264162,56.49622895990615 161.34212365117855,56.64498678478412 161.9433650644496,56.59540084938635 162.1838616298046,56.793744553113356 161.9834478253033,57.2400175172661 162.14377886871807,57.388775058614556 162.1838616298046,57.73587576774298 162.0636133470107,59.0251042691234 162.10369610786438,64.33073056375724 161.9834478253033,65.47118286852492 161.90328230336308,65.71910684151226 161.78303402103484,65.8182763865043 161.42228917311877,65.7686916171806 160.54046843363903,65.37201323531917 159.9392270206008,64.92574957359466 159.2177373250015,64.23156064053182 157.4941786073614,61.75230436769198 156.73260615067557,60.36391397257103 156.4921095855534,59.471374680899316 156.33177854213864,58.033390415337635 155.53012332459912,51.98388131285901 155.24954399839044,50.84338957842556 155.24954399839044,50.05000205730903 154.84871638962068,47.27313302643597 154.80863362876698,45.53757984418189 154.8887991507072,44.89294383832021 154.84871638962068,44.14913173849345 155.20946123753674,41.620159990590764 155.36979228095151,40.97551751087303 155.32970952033065,40.43004996521631 155.4098750418052,39.4382888370892 155.69045436824672,37.95064241698128 156.73260615067557,35.76875073794508 157.13343375944532,35.22327591115027 158.49624762916937,33.983557558996836 159.89914425974712,33.090957905718824 160.74088223814033,32.79342423402704 163.26609617331997,32.198356209817575 164.02766862977296,32.24794524643221 165.14998593437485,32.04958906196407 166.5528825649526,32.0 169.2785103044007,32.4958903354418 170.72148969583213,33.090957905718824 174.36902093538083,34.132323969417484 178.53762806626037,35.47121910893475 179.45953156636097,35.86792789719766 180.62193163158372,36.46299032337265 181.34342132741585,36.958874984818976 182.54590415372513,38.04981902151485 183.22731108847074,38.89281914176536 183.94880078407004,40.1325218914717 184.50995943625458,41.17386915659881 184.95086980611086,42.26480140481726 185.11120084952563,42.95902942898101 185.19136637123302,43.95078160581761 185.03103532781824,45.388817783474224 185.15128361037932,46.38056378281908 184.99095256696455,48.165700227953494 184.67029047990218,49.50454720068956 184.34962839307263,50.39710929628927 184.1492145883385,51.091322847787524 184.02896630601026,52.18222736113239 183.4678076535929,53.719405815470964 183.26739384932443,53.9177509812871 182.8665662407875,54.016923526418395 179.86035917513072,53.86816469937912 178.81820739223622,54.066509789583506 176.81406934862025,54.016923526418395 175.33100719633512,54.264854778768495 175.13059339183383,54.46319966739975 175.09051063121296,54.81030297957477 175.13059339183383,55.25657821277855 175.4913382397499,56.446643005590886 175.6917520442512,57.2400175172661 174.89009682671167,61.35562190183555 174.93017958756536,63.09110471198801 175.05042787012644,64.1323906921607 174.97026234841906,65.91744590635062 174.89009682671167,66.46287781497813 174.89009682671167,67.35540111133014 174.80993130477145,67.9504155079776 173.16653810907155,68.0 171.56322767399251,67.80166199384257 169.35867582610808,67.35540111133014 168.07602747809142,67.20664737044717 167.63511710846797,67.25623195699882 166.87354465201497,67.05789357281174 164.9495721301064,66.85955508769257 161.7429512599483,66.06620013900101 160.82104776008055,65.6199372713163 159.61856493377127,64.72741000453243 158.85699247708544,63.834880695620086 158.416082107462,63.140689821651904 157.4941786073614,61.90106018836377 156.93301995517686,60.81018285281607 156.5722751072608,59.71930246677948 156.33177854213864,58.33090483624255 156.21153025934473,56.69457271377905 155.8507854116615,54.16568229685072 155.8507854116615,53.62023319481523 156.01111645484343,53.37230153262499 156.21153025934473,53.32271518133348 158.21566830319352,53.62023319481523 160.2198063468095,53.47147421652335 161.34212365117855,53.52106054889737 162.023530586157,53.66981950830086 162.14377886871807,53.81857841112651 162.14377886871807,54.116096046287566 161.9834478253033,56.29788510510116 161.78303402103484,56.446643005590886 161.42228917311877,56.39705704510561 161.34212365117855,56.29788510510116 161.34212365117855,55.95078311651014 161.22187536861748,55.752438984345645 161.021461564349,55.60368081901106" stroke="#4dd2ff" stroke-linecap="round" stroke-linejoin="round" stroke-width="0.5"><title>2023-11-02 3.4km</title><desc>10389486352</desc></polyline><polyline fill="none" points="22.423527751117945,95.320819939574 22.30294729070738,95.27109685583855 22.182366830762476,94.97275822091615 22.182366830762476,93.82912467903225 22.142173343803734,93.67995484001585 21.941205910174176,93.58050824908423 21.941205910174176,93.43133831545128 22.101979857077822,91.44240043015452 21.901012423448265,90.6965461159416 21.860818936722353,89.30428092452348 21.901012423448265,89.15510936017381 21.981399396900088,89.30428092452348 21.981399396900088,88.75731824352988 22.142173343803734,88.65787040116265 22.06178637035191,88.75731824352988 22.142173343803734,88.8070421552984 22.02159288385883,88.85676606060588 21.78043196327053,88.75731824352988 21.860818936722353,88.75731824352988 21.941205910174176,88.35952672240091 22.06178637035191,85.92304482878535 22.02159288385883,85.27662871783832 22.101979857077822,84.48103819182143 21.981399396900088,83.28764936863445 22.06178637035191,82.24343116156524 22.06178637035191,81.24893503964995 22.182366830762476,81.0500355118129 22.383334264159203,80.25443638910656 22.423527751117945,79.16048495305586 22.54410821129568,78.36488198698498 22.58430169778876,76.52504392983974 22.986236565280706,75.03327699002693 22.986236565280706,73.5912302066863 23.10681702545844,73.5415043606481 23.06662353873253,73.29287503610249 23.14701051218435,73.14369736533263 23.06662353873253,72.9945196378394 23.026430051773787,73.04424555326113 22.986236565280706,72.84534185327357 23.06662353873253,72.59671208605869 23.267590972362086,72.4475341499201 23.6695258396212,72.248630146496 24.513589061098173,72.19890412973473 24.634169521275908,72.09945207758574 25.116491361986846,72.0 27.528100566007197,72.09945207758574 29.778935823123902,72.7458899653866 31.225901345489547,73.34260091360193 35.446217452408746,74.43656862110947 36.61182856769301,74.93382565837237 38.29995501041412,75.28190520839416 39.385179152246565,75.72943560327985 40.992918621748686,76.62449485703837 41.83698184299283,77.32065063831396 42.43988414411433,77.91735460743075 43.52510828594677,79.25993520999327 44.00743012665771,79.95608630083734 44.931880321353674,81.74618341668975 45.01226729503833,82.14398166327737 45.09265426849015,82.93957694270648 45.05246078153141,85.27662871783832 44.730912887724116,87.06670148498961 44.650525914505124,89.30428092452348 44.52994545432739,90.00041413964937 44.04762361338362,91.93963584958692 43.52510828594677,93.38161499146372 43.28394736535847,93.7296781259065 43.082979931728914,93.8788479459763 42.6810450644698,93.97829446100513 41.11349908192642,93.92857120657573 39.78711401973851,93.7296781259065 38.581309417728335,93.92857120657573 37.295117842266336,94.07774095080094 35.687378372997046,93.97829446100513 35.20505653205328,94.07774095080094 35.00408909842372,94.37608026823727 35.08447607187554,95.71860438163276 35.446217452408746,96.91195528116077 35.52660442586057,97.45890656014672 34.84331515152007,101.53615563205676 34.80312166479416,103.0278215042199 34.92370212520473,103.62448626046535 35.00408909842372,104.71836928342236 34.883508638245985,107.303898814891 34.84331515152007,107.701671072311 34.76292817806825,107.9005570494337 34.48157377075404,108.0 31.62783621274866,107.65194956233609 28.61332470807247,107.1050125346519 27.688874513143674,107.00556935655186 26.643843858037144,106.80668292447808 24.232234654016793,106.50835308682872 22.54410821129568,106.40890975718503 22.142173343803734,106.3094664021337 21.74023847654462,106.16030132203014 20.373659927630797,105.36475326830987 19.65017716656439,104.81781304292963 18.88650091853924,103.97254028148018 16.836633095052093,100.84004294520128 16.394504740834236,99.69642655609641 16.153343820711598,98.6522521506995 16.153343820711598,97.90641158318613 16.19353730743751,97.26001527442713 16.072956847026944,96.16611139569432 16.032763360533863,94.82358881810796 15.791602439945564,93.28216832486214 15.711215466726571,93.33189166130614 15.630828493041918,92.43687063685502 15.42986105964519,91.69101821878576 15.349474085727707,91.04461163948872 14.90734573174268,85.27662871783832 14.90734573174268,84.33186478810967 15.027926192153245,82.8898522851232 15.228893625782803,81.54728414170677 15.14850665233098,81.19921016710578 15.108313165837899,81.09976040312904 15.027926192153245,81.09976040312904 14.987732705427334,80.95058570991387 15.228893625782803,80.10526137330453 15.42986105964519,78.6135080876993 15.67102198000066,77.61900273663923 15.992569873575121,77.1217491129355 16.394504740834236,76.12723996894783 16.876826581778005,75.28190520839416 17.640502829803154,74.38684288252261 18.444372564321384,73.79013352739275 20.011918547097594,72.9945196378394 21.579464529640973,72.6464380522666 22.02159288385883,72.6464380522666 22.262753803981468,72.7458899653866 22.423527751117945,72.94479371592752 22.54410821129568,73.34260091360193 22.54410821129568,74.53602007901645 22.463721237611026,75.8786122877209 22.54410821129568,78.26543150248472 22.383334264159203,80.45333632137044 22.383334264159203,81.24893503964995 22.262753803981468,81.94508259053691 22.222560317255557,82.74067827453837 22.503914724569768,84.67993597505847 22.463721237611026,87.16614973195828 22.58430169778876,88.06118281601812 22.58430169778876,89.30428092452348 22.54410821129568,89.95069037971552 22.222560317255557,92.03908285751822 22.06178637035191,92.5363175185339 22.06178637035191,93.92857120657573 21.941205910174176,95.12192756679724 21.901012423448265,96.116388419352 21.78043196327053,96.36500323744258 21.418690582737327,96.46444912045263" stroke="#4dd2ff" stroke-linecap="round" stroke-linejoin="round" stroke-width="0.5"><title>2023-10-27 3.6km</title><desc>10389486363</desc></polyline><polyline fill="none" points="67.54274401813745,96.21583436543006 67.5025505265221,96.36500323741348 67.58293750998564,96.41472618203261 68.50738782249391,96.5141720524116 68.78874226543121,96.61361789749935 68.86912924912758,96.76278661785182 68.78874226543121,97.1605695936014 68.74854877358302,99.0500332051306 68.74854877358302,100.24337394174654 68.8289357572794,101.03893241059268 68.78874226543121,103.52504219749244 68.86912924912758,104.32059399259742 68.86912924912758,105.41447506909026 68.74854877358302,105.8122492475668 68.46719433064573,106.01113618520321 68.22603337955661,106.01113618520321 67.62313100206666,105.66308397805551 66.33693926292472,104.76809116633376 65.77423037728295,104.07198423051159 64.84978006477468,103.17698777848273 63.764555784873664,101.48643333828659 63.16165340761654,99.69642655612552 63.00087943999097,98.80142009348492 62.7195249972865,97.75724329895456 62.39797706250101,93.97829446083051 62.39797706250101,93.28216832465841 62.4381705543492,93.33189166116063 61.8754616684746,91.19378248328576 61.67449420923367,89.15510935994098 61.43333325837739,85.52525042518391 61.473526750225574,83.63572148475214 61.71468770108186,81.99480736811529 61.79507468501106,81.44783446620568 62.07642912771553,80.95058570991387 62.277396586956456,79.75718611554476 62.478364046197385,77.8179040090472 63.16165340761654,75.92833783655078 63.60378181771375,75.13272829627385 63.96552324434742,74.73492291933508 64.44784514629282,74.23766562904348 64.88997355662286,73.88958514976548 67.22119608335197,72.7458899654157 68.70835528173484,72.49726013489999 69.5926121021621,72.54698611368076 69.87396654509939,72.7458899654157 70.03474051249214,72.4475341499201 70.27590146358125,72.29835615685442 70.55725590651855,72.24863014643779 70.63764289021492,72.39780815856648 70.51706241443753,72.34808216095553 70.59744939836673,72.14917810677434 71.24054526770487,72.0 73.73254176205955,72.09945207755663 76.46569920727052,72.69616401195526 79.23905014432967,73.74040770670399 81.4898856873624,74.18793986516539 83.70052773877978,74.88409998305724 84.94652598607354,75.48080766925705 87.11697454517707,76.37586749196635 88.48355326824822,77.32065063819755 89.12664913758636,77.86762931136764 89.56877754768357,78.36488198689767 90.77458230312914,80.0058113312407 91.17651722137816,80.70196109460085 91.6186456317082,81.99480736811529 91.85980658279732,83.18820013551158 91.9000000746455,84.4810381916468 91.85980658279732,86.12194187866407 91.65883912355639,88.16063081007451 91.37748468085192,89.105385492614 90.89516277844086,91.4921240004187 90.6138083357364,92.58604094976909 90.45303436834365,93.23244498192798 90.29226040095091,93.48106163289049 90.01090595824644,93.67995483984123 89.60897103976458,93.82912467885762 86.87581359455362,93.87884794577258 85.58962185541168,94.22691063774982 84.70536503498442,94.32635706433211 82.6153034591116,94.0280177089735 81.93201409792528,94.22691063774982 81.85162711399607,94.32635706433211 81.85162711399607,94.92303509285557 82.29375552432612,96.56389497805503 82.41433599987067,97.1605695936014 82.37414250802249,97.55835216492414 82.05259457346983,98.40363878605422 81.81143362238072,99.54725895440788 81.69085314683616,100.54170855719713 81.61046616313979,103.42559810946113 81.7712401302997,104.91725677720387 81.7712401302997,106.0608579039108 81.65065965475515,107.70167107248562 81.61046616313979,107.9005570493755 81.44969219574705,108.0 78.1136323728133,107.60222804598743 77.10879507684149,107.35362036922015 73.37080033542588,107.0552909487742 72.16499558021314,106.80668292444898 71.64248018618673,106.75696130067809 70.6778363820631,106.50835308679962 69.07009670813568,106.45863142513554 68.34661385510117,106.21002302173292 67.82409846107475,105.96141446032561 66.89964814879932,105.26530964791891 66.0957783118356,104.56920359676587 65.53306942619383,104.02226225906634 64.36745816259645,102.08310044556856 63.64397530956194,101.03893241059268 63.16165340761654,100.0942065489362 63.28223388292827,99.54725895440788 63.04107293183915,98.50308415087056 63.04107293183915,97.65779774455586 63.121459915535524,97.45890656008851 63.121459915535524,97.0114010249672 63.24204039108008,96.36500323741348 63.92532975249924,96.3152802863624 64.72919958923012,96.41472618203261 65.3321019669529,96.21583436543006 65.49287593411282,95.42026608789456 65.73403688520193,95.22137376570026" stroke="#4dd2ff" stroke-linecap="round" stroke-linejoin="round" stroke-width="0.5"><title>2023-10-25 3.2km</title><desc>10389486356</desc></polyline><polyline fill="none" points="115.46463781339116,97.24515984018217 115.42438873159699,97.34474304781179 115.42438873159699,97.89245023753028 115.30364148574881,98.88827952949214 115.38413964956999,100.232645058044 115.54513597721234,101.17867729405407 115.30364148574881,103.71801568326191 115.30364148574881,105.46068936720258 115.2231433216948,105.85901369212661 114.9413997484371,106.05817570278305 114.69990525674075,105.95859471010044 113.97542178165168,105.56027048631222 112.72770024137571,104.56445815516054 111.9629676847253,103.61843409575522 110.99698971793987,102.074916252197 110.47375165275298,101.42763276587357 110.03101175115444,100.6309746990446 109.7090190956369,99.58535852757632 109.62852093181573,98.98786231948179 109.22603011247702,94.50661170866806 108.98453562078066,93.51077127773897 109.02478470280766,93.31160288766841 109.10528286662884,93.31160288766841 109.06503378460184,93.36139499463025 108.98453562078066,92.61451272529666 108.74304112931713,91.36970577813918 108.54179571941495,90.1248948755092 108.46129755536094,88.88008001673734 108.21980306366459,87.23691834599595 108.05880673625506,85.24519798898837 108.26005214592442,83.55222772274283 108.26005214592442,82.40697898165672 108.4210484737996,81.21193324713386 108.62229388346896,80.81358385863132 108.7027920470573,80.11647145400639 108.7027920470573,79.26997615204891 108.90403745695949,78.22430295919185 109.66877001384273,76.23253677369212 110.07126083318144,75.38603307795711 110.71524614421651,74.589322045882 111.68122411076911,73.7428147988685 112.40570758585818,73.29466316266917 113.00944381509908,73.09548449309659 114.82065250258893,72.64733211626299 116.4708648622036,72.44815311749699 116.67211027164012,72.3485635802499 116.7928575174883,72.14938442938728 117.03435200918466,72.14938442938728 117.3965937467292,72.0 118.64431528700516,72.0497948162083 119.61029325355776,72.0 120.89826387586072,72.14938442938728 122.83021980896592,72.64733211626299 123.71569961169735,73.045689809951 125.28541380749084,73.493841730844 126.69413167540915,73.99178770850995 127.41861515049823,74.19096592214191 128.26384587120265,74.29055499119568 129.4310692474246,74.73870548792183 130.39704721421003,74.98767776449677 132.48999947519042,75.68479929704336 133.73772101546638,76.2823310518288 134.86469530966133,77.07903864013497 136.0721677679103,78.22430295919185 136.79665124276653,79.17038834912819 137.88337645540014,80.86337755431305 138.28586727473885,82.00863080861745 138.5273617664352,83.2036741124466 138.60785993025638,84.44850701050018 138.5676108484622,85.54395668811048 138.1248709470965,89.22862857603468 137.60163288167678,90.92157430900261 137.15889298031107,93.11243439640384 136.9173984886147,93.66014750371687 136.55515675107017,93.90910775383236 136.03191868611611,93.8095236728841 134.5427026541438,93.95889978494961 133.85846826131456,93.90910775383236 132.24850498349406,94.15806784585584 128.66633669054136,94.058483828092 128.505340362899,94.10827584005892 128.34434403502382,94.30744382500416 128.30409495299682,94.556403663737 128.34434403502382,95.05432286663563 128.78708393638954,96.49828497576527 128.8675821002107,97.39453464225517 128.70658577256836,98.63932244389434 128.34434403502382,99.98368882681825 128.30409495299682,101.07909506096621 128.38459311705083,102.67240775178652 128.26384587120265,104.0167602939764 128.38459311705083,104.86320212029386 128.38459311705083,106.20754714420764 128.34434403502382,107.75104870498762 128.26384587120265,107.85062924184604 128.06260046130046,108.0 126.53313534753397,107.95020975355874 125.80865187267773,107.75104870498762 124.23893767711706,107.60167785192607 123.3132087921258,107.40251662596711 121.78374367835931,107.25314564013388 119.93228590907529,106.90461311829858 115.62563414126635,106.40670897782547 115.10239607607946,106.25733761215815 113.57293096208014,105.36110822265618 112.60695299552754,104.56445815516054 112.20446217618883,104.0167602939764 111.8824695206713,103.41927084483905 110.63474798039533,101.62679702942842 110.11150991520844,100.73055704604485 109.95051358733326,100.232645058044 109.95051358733326,99.48577588965418 109.62852093181573,98.48994811656303 109.7090190956369,97.64349251901149 109.78951725969091,97.4443262302375 109.66877001384273,97.04599334884551 109.66877001384273,96.44849326743861 109.74926817766391,96.348909831926 110.23225716105662,96.19953463127604 110.99698971793987,96.09995113243349" stroke="#4dd2ff" stroke-linecap="round" stroke-linejoin="round" stroke-width="0.5"><title>2023-10-23 3.1km</title><desc>10389486351</desc></polyline><polyline fill="none" points="161.32208116771653,95.55409475110355 161.00141904014163,95.8020250267 160.84108797623776,96.04995514452457 160.84108797623776,96.14912714762613 161.16175010381266,96.34747107807198 161.80307435942814,96.49622895967332 162.12373648723587,96.49622895967332 162.24398478516378,96.69457271366264 162.24398478516378,96.84333046292886 162.20390201895498,98.38049055080046 162.0836537212599,99.1242755157291 162.00348818930797,100.41349942889065 162.16381925321184,102.39691251434851 162.12373648723587,105.37201323520276 162.00348818930797,105.81827638638788 161.68282606150024,105.96703065678594 161.40224669966847,105.86786114948336 159.75885329488665,104.8761646906496 159.117529039504,104.23156064053182 157.87496329448186,102.39691251434851 157.63446669862606,102.00023070391035 157.43405286874622,101.40520723199006 156.7125630811788,99.96723009482957 156.3919009536039,98.82676169989281 156.3518181873951,97.33918921762961 155.71049393201247,93.52106054860633 155.71049393201247,93.22354245965835 155.79065946419723,93.17395608930383 155.71049393201247,92.38057330826996 155.4299145701807,91.24008273362415 155.34974903822877,89.60372086751158 154.9890041446779,87.22354589961469 154.90883861272596,85.1904682808381 155.06916967662983,83.7028437978006 155.26958350650966,82.56232785212342 155.34974903822877,81.02510543164681 155.4299145701807,80.67798985313857 155.55016286834143,79.43828883682727 155.83074222994037,77.90105410513934 156.5923147832509,76.16545922358637 157.23363903909922,75.12409858795581 157.79479776252992,74.33067909473903 158.55637031584047,73.78520225698594 159.91918435879052,73.09095790574793 161.0415018061176,72.69424629298737 163.56671606190503,72.148767166771 164.16795755154453,72.148767166771 164.12787478556857,72.39671231879038 164.0877920195926,72.29753427678952 164.12787478556857,72.24794524649042 164.64895074325614,72.148767166771 167.21424776501954,72.0 167.855572020635,72.04958906187676 168.57706180796959,72.34712330094771 170.50103457458317,72.84301319497172 172.7456694690045,73.98355755902594 175.51138032088056,74.47944537259173 178.35725670447573,75.37204184857546 180.24114670511335,76.21504775591893 181.00271925865673,76.8596981028677 181.80437457817607,77.35558226026478 182.5659471314866,78.14899560066988 183.6481818126049,79.43828883682727 184.4498371318914,80.87634165002964 184.73041649372317,81.52098429363105 184.85066479165107,81.96727473058854 185.09116138750687,83.75243137194775 185.01099585555494,87.22354589961469 184.85066479165107,88.56239610616467 184.24942330201156,90.94256290484918 183.68826457858086,92.52933270274661 183.40768521698192,93.66981950803893 183.2874369188212,93.91775098117068 183.12710585491732,94.01692352630198 182.5659471314866,93.81857841086457 180.08081564120948,93.76899211629643 179.55973968375474,93.91775098117068 178.67791883228347,94.31444101015222 178.23700840678066,94.36402723551146 176.83411159785464,94.06650978929247 175.27088372502476,93.96733725682134 175.03038712916896,94.06650978929247 175.31096649100073,95.20699210074963 175.8320424486883,96.59540084926994 175.9122079804074,97.28960337044555 175.8320424486883,97.8350473419705 175.27088372502476,99.32261793338694 175.07046989537776,100.71101203447324 175.27088372502476,102.248156882677 175.2308009590488,102.69442360731773 175.03038712916896,103.339030197385 174.91013883124106,105.22325873802765 174.91013883124106,107.50415479554795 174.8700560652651,107.85124650475336 174.78989053331316,107.95041550786118 174.46922840573825,108.0 170.26053797872737,107.25623195702792 169.1783032976091,107.25623195702792 166.53284074366093,106.7108011576056 164.44853691314347,106.56204717096989 162.00348818930797,106.16536959566292 161.44232946564443,106.01661540105124 160.07951542292722,105.07450418404187 158.95719797583297,103.93405071963207 157.63446669862606,101.90106018830556 156.83281137910672,100.81018285258324 156.67248031543568,100.26474304086878 156.67248031543568,99.37220352212898 156.31173542165197,98.08297616790514 156.3518181873951,97.88463311968371 156.55223201750778,97.28960337044555 156.5923147832509,96.59540084926994 156.7526458473876,96.09954114927677 157.19355627289042,95.95078311627731 158.55637031584047,96.00036913348595 158.67661861376837,95.95078311627731 158.83694967767224,95.55409475110355 159.1976945712231,95.00864759052638" stroke="#4dd2ff" stroke-linecap="round" stroke-linejoin="round" stroke-width="0.5"><title>2023-10-20 3.2km</title><desc>10389486346</desc></polyline><polyline fill="none" points="21.829436365514994,135.50244960805867 21.869685447309166,136.19953463127604 22.31242534890771,136.54807667766 22.35267443070188,136.84682675643126 21.90993452933617,140.28243628525524 22.111179939005524,142.47324401992955 21.990432693390176,143.66822489266633 22.111179939005524,144.46487678281846 22.111179939005524,145.41089879814535 21.90993452933617,145.95859471010044 21.62819095584564,146.10796618970926 21.34644738235511,146.05817570278305 20.058476760052145,145.26152705281856 19.333993285195902,144.66403950224048 17.64353184355423,142.2242892125214 16.919048368465155,140.97951280264533 16.7178029587958,140.48160113123595 16.55680663115345,139.933897561481 16.31531213945709,138.78869671424036 16.234813975403085,137.39453464225517 15.87257223809138,134.35723580533522 15.711575910216197,133.70993956635357 15.7518249922432,133.16222652877332 15.590828664368019,132.0667981559236 15.429832336725667,131.31991341806133 15.309085090644658,130.17468738753814 14.866345189278945,127.58546836741152 14.826096107717603,125.24519798898837 15.107839680975303,123.30326089001028 15.18833784502931,122.25759846437722 15.18833784502931,121.01275860355236 15.34933417267166,119.96709006320452 15.429832336725667,118.77203688456211 15.631077746395022,117.97533273985027 16.395810303278267,116.03335959816468 16.798301122616976,115.28644428757252 17.442286433884874,114.5395275526389 18.48876256449148,113.64322559069842 20.340220333542675,112.69712685010745 22.35267443070188,112.24897401739145 22.956410659942776,112.29876880199299 23.197905151639134,112.44815311749699 23.15765606961213,112.74692157766549 23.197905151639134,112.74692157766549 23.117406987817958,112.89630572224269 23.15765606961213,113.09548449309659 23.238154233433306,112.5975373761321 23.519897807156667,112.3485635802499 23.801641380647197,112.24897401739145 25.21035924856551,112.0 27.66555324732326,112.14938442938728 30.16099632764235,112.69712685010745 30.96597796631977,113.09548449309659 32.61619032616727,113.69302019802853 35.31287881615572,114.34034951610374 38.573054453590885,115.33623868584982 39.820775993866846,115.88397664992954 40.58550855051726,116.2823310518288 41.873479172820225,117.27821528402274 43.6041896964889,119.17038834912819 44.16767684346996,120.06667766335886 44.892160318559036,121.46090140912565 45.13365481002256,122.65594638418406 45.173903892049566,123.4526410086255 45.012907564407215,125.49416358745657 45.05315664620139,125.99209430962219 45.05315664620139,126.6394033022807 44.892160318559036,128.3821529656998 44.69091490888968,129.3780064349703 43.84568418795243,132.66430492079235 43.32244612276554,133.70993956635357 43.08095163106918,133.90910775383236 42.839457139372826,133.9588997849496 41.06849753390998,133.90910775383236 39.820775993866846,133.75973162276205 38.573054453590885,134.2078598451917 37.68757465062663,134.35723580533522 36.117860455065966,134.058483828092 35.272629734361544,134.15806784585584 35.07138432445936,134.30744382500416 35.151882488513365,134.95473907669657 35.67512055370025,136.64766006253194 35.715369635494426,137.0459933488455 35.51412422582507,138.1911992909445 35.11163340648636,139.38619322612067 34.95063707861118,140.232645058044 34.95063707861118,141.1288861806388 34.829889832763,143.17031663865782 34.95063707861118,143.96696954141953 34.99088616063818,144.7636208240001 34.95063707861118,146.40670897782547 34.870138914790004,147.7012584268523 34.66889350512065,148.0 33.17967747314833,148.0 31.006227048346773,147.7012584268523 29.47676193458028,147.4025166259671 26.377582625020295,147.0539842370199 25.572600986110047,146.8548227326537 25.170110167004168,146.6556611272099 24.24438128201291,146.50628985645017 22.71491616824642,146.40670897782547 22.03068177518435,146.20754714420764 21.869685447309166,146.05817570278305 21.829436365514994,145.8590136921266 21.950183611363173,144.0167602939764 21.78918728348799,141.87575221635052 21.90993452933617,140.53139232681133 21.90993452933617,138.53973956531263 21.990432693390176,137.59370095626218 21.950183611363173,136.59786837321008 21.869685447309166,136.4484932674386 21.62819095584564,136.59786837321008 21.306198300095275,136.49828497576527 21.10495289065875,136.0999511324335 20.903707480989397,135.9007840588456" stroke="#4dd2ff" stroke-linecap="round" stroke-linejoin="round" stroke-width="0.5"><title>2023-10-19 3.1km</title><desc>10389486342</desc></polyline><polyline fill="none" points="67.18800786905922,135.9007840588456 67.06726062321104,136.19953463127604 67.14775878726505,136.39870155294193 68.67722390103154,136.69745174545096 68.8784693107009,137.0459933488455 68.8784693107009,137.84265870650415 68.71747298305854,139.087445084122 68.79797114687972,139.73473243735498 68.71747298305854,140.33222750626737 68.83822022867389,141.82596119176014 68.8784693107009,144.31550467689522 68.79797114687972,145.75943264891976 68.71747298305854,145.95859471010044 68.55647665518336,146.10796618970926 68.07348767202348,146.05817570278305 67.18800786905922,145.56027048631222 65.90003724698909,144.5146674721036 65.13530468987301,143.5188524828991 63.60583957633935,141.0790950609662 63.04235242912546,139.43598456101608 62.96185426507145,138.93807092757197 62.55936344573274,134.6559875549283 62.39836711809039,134.2078598451917 62.23737079021521,132.66430492079235 62.07637446234003,131.5688751556445 61.8751290529035,129.129043305089 61.71413272479549,128.48173842657707 61.633634561207145,127.33650409802794 61.633634561207145,126.04188734712079 61.51288731535897,125.39457736702752 61.633634561207145,124.24933401265298 61.71413272479549,122.4567724748631 61.915378134697676,121.21193324713386 62.036125380313024,119.12059443828184 62.317868954036385,117.87574460782344 62.8411070194561,116.58109658738249 63.64608865813352,115.23664988277596 64.29007396940142,114.5395275526389 65.77929000114091,113.44404709836817 67.42950236075558,112.69712685010745 69.72370003140531,112.09958962598466 69.96519452310167,112.199179226649 70.08594176894985,112.39835835201666 70.00544360512868,112.9461004245095 69.9249454413075,112.9461004245095 69.9249454413075,113.09548449309659 69.8846963592805,112.99589512031525 69.9249454413075,112.9461004245095 69.80419819522649,112.89630572224269 69.72370003140531,112.69712685010745 69.80419819522649,112.49794787660358 70.04569268692285,112.24897401739145 70.52868167031556,112.09958962598466 72.38013943983242,112.09958962598466 73.70835914392956,112.0 74.11084996326827,112.09958962598466 74.55358986440115,112.14938442938728 76.405047633918,112.64733211626299 77.65276917396113,113.045689809951 78.90049071446992,113.59343097702367 79.9067177628167,113.8921985635825 81.55693012243137,114.24076045982656 83.60963330138475,115.08726663081325 85.5013401529286,115.58521058273618 86.54781628353521,116.03335959816468 88.23827772494406,117.12883281050017 89.56649742904119,118.42347902056645 90.0092373304069,119.02100659740972 90.29098090389743,119.26997615204891 90.61297355941497,119.91729625349399 91.05571346101351,120.51482155142003 91.37770611653104,121.26172689226223 91.5387024441734,122.1082178898505 91.82044601789676,122.65594638418406 91.82044601789676,123.30326089001028 91.73994785407558,125.0958185538766 91.5387024441734,127.28671122525702 91.49845336237922,129.07925065996824 91.37770611653104,129.7265545510745 91.13621162483469,130.22447989330976 91.09596254280768,130.7224046024785 90.61297355941497,132.7140971100307 90.17023365804926,133.8095236728841 89.9287391663529,133.9588997849496 89.36525201937184,133.90910775383236 87.31254884018563,133.90910775383236 84.65610943199135,134.35723580533522 84.01212412118912,134.35723580533522 83.00589707260951,134.2078598451917 81.87892277818173,134.15806784585584 81.67767736827955,134.2078598451917 81.5166810406372,134.35723580533522 81.5166810406372,134.50661170866806 81.67767736827955,134.80536334434873 82.28141359752044,136.79703509251704 81.9191718599759,138.0916162984213 81.71792645030655,140.38201872084755 81.5166810406372,142.02512525272323 81.47643195861019,142.92136227432638 81.63742828648537,143.76780646760017 81.67767736827955,145.36110822265618 81.59717920445837,147.7012584268523 81.47643195861019,148.0 79.9067177628167,147.95020975355874 77.0087838631589,147.55188755484414 76.364798551891,147.4025166259671 74.51334078260697,147.20335529878503 70.77017616201192,146.55608028627466 69.16021288419142,146.45649942028103 68.39548032730818,146.25733761215815 67.75149501650594,145.8590136921266 67.3087551149074,145.51047992991516 66.58427163981833,145.06236463718233 65.61829367326573,144.16613251384115 65.05480652605183,143.46906166698318 64.16932672355324,141.7761701605923 63.72658682218753,141.17867729405407 63.32409600261599,140.38201872084755 63.20334875676781,139.933897561481 63.283846920821816,139.28661053749966" stroke="#4dd2ff" stroke-linecap="round" stroke-linejoin="round" stroke-width="0.5"><title>2023-10-17 3.1km</title><desc>10389486303</desc></polyline><polyline fill="none" points="115.65414439584129,112.60002700067707 115.9370618830435,112.25001136152423 116.9070646960754,112.05000228495919 118.88748710625805,112.0 120.0191570550669,112.05000228495919 121.3529109233059,112.65002920938423 122.52499765576795,112.80003579735057 123.17166619794443,113.0500466504891 125.35417252755724,113.95008440542733 127.69834599271417,114.30009853164665 128.91084950906225,114.80011817163904 129.88085232232697,115.05012775337673 131.49752367776819,115.70015192191931 132.2250257874839,115.90015914215473 133.23544538463466,116.30017327782116 134.08419784600846,116.90019371834933 135.01378387538716,117.75022110901773 135.9837866886519,118.85025382877211 136.8325391500257,120.05028601415688 137.43879090831615,121.35031675023492 137.84295874717645,122.90034778119298 137.9237923149485,123.60035979311215 137.5196244760882,128.90041031493456 136.34753774362616,133.35039758172934 136.1858706078492,133.75039397116052 135.9837866886519,134.00039150810335 135.78170276922174,134.10039047838654 135.29670136258937,134.00039150810335 132.38669292302802,133.9503920133575 131.90169151639566,134.200389423233 131.05293905502185,134.40038723649923 130.60835443227552,134.70038376600132 129.47668448346667,134.200389423233 128.66834880574606,134.10039047838654 128.34501453489065,134.15038995389477 127.94084669603035,134.00039150810335 127.77917956048623,134.10039047838654 127.65792920882814,134.25038888605195 127.53667885717005,134.65038436022587 127.53667885717005,135.25037680906826 127.77917956048623,136.15036376623902 127.98126347991638,136.65035563040874 128.0216802638024,137.15034685921273 127.61751242517494,139.50029712126707 127.53667885717005,140.75026494523627 127.3345949377399,141.75023634472745 127.49626207351685,144.35015008668415 127.45584528939798,146.0000864333124 127.57709564105608,146.85005094157532 127.53667885717005,147.70001361315371 127.41542850551195,148.0 126.364592124708,147.95000228466233 124.70750398561358,147.70001361315371 124.10125222732313,147.70001361315371 121.51457805885002,147.3000314081437 119.77665635175072,147.1500379764766 118.20040178042836,146.90004879655316 116.09872901882045,146.70005733822472 114.80539193423465,146.40006996018928 113.1078870112542,145.50010645310977 112.38038490130566,144.95012774071074 111.3295485205017,143.80016976658953 109.79371073283255,141.50024373320048 109.1470421908889,140.25027829236933 109.1470421908889,139.65029346980737 108.78329113591462,138.45032107952284 108.74287435179576,137.90033251067507 108.98537505511194,136.55035730852978 109.10662540700287,136.45035896109766 109.34912611031905,136.3503605882579 110.72329676244408,136.30036139220465" stroke="#4dd2ff" stroke-linecap="round" stroke-linejoin="round" stroke-width="0.5"><title>2023-10-16 2.0km</title><desc>10389486277</desc></polyline><polyline fill="none" points="160.64208725863136,136.24932637109305 161.60806534811854,136.24932637109305 162.01055621868,136.29911810459453 162.17155256681144,136.3987015527673 162.29229982802644,136.64766006241553 162.21180165419355,137.84265870641684 162.09105439297855,138.44015666141058 162.05080530582927,139.3364018848515 161.97030713176355,139.9338975615101 162.17155256681144,141.9255432348873 162.21180165419355,144.26571396223153 162.09105439297855,145.75943264894886 162.01055621868,146.00838520965772 161.80931078339927,146.10796618965105 161.40681991283782,146.05817570292857 160.92383086821064,145.75943264894886 159.75660734344274,144.86320212020655 159.11262195045128,144.26571396223153 158.7503801670391,143.76780646757106 158.06614568689838,142.62261682827375 157.4624093810562,141.87575221637962 157.01966942334548,141.02930393491988 156.81842398829758,140.48160113111953 156.6574276399333,139.5355672116566 156.49643129180185,139.0874450841511 156.33543494343758,137.89245023738476 156.4159331175033,136.64766006241553 156.09394042100757,135.6518250743975 155.77194772474468,134.25765183815383 155.77194772474468,133.11243439634563 155.53045320231467,131.36970577811007 155.12796233175322,129.62696940646856 154.96696598338895,128.5315311473969 154.84621872217394,127.18712546033203 154.8059696352575,125.19540485015023 154.96696598338895,123.85098771302728 155.32920776703395,121.90904370197677 155.24870959296823,121.1123459378141 155.32920776703395,120.16626523836749 155.53045320231467,119.36956392935826 155.77194772474468,117.97533273973386 156.7379258137662,116.03335959804826 157.50265846820548,114.83829441739363 158.10639477404766,114.19096592214191 158.9113765154034,113.5436363570625 159.9981018656399,112.99589512037346 160.44084182335064,112.84651101366035 162.53379435045645,112.44815311738057 163.78151604929008,112.09958962586825 164.74749413854443,112.049794816121 165.9549667504616,112.0 167.9674211035017,112.24897401744965 169.49688641168177,112.69712685007835 170.82510628458112,113.04568980980548 171.4288425904233,113.29466316255275 172.63631520234048,113.69302019788302 174.9707622518763,114.29055499107926 176.37948029860854,114.88808887283085 177.42595656216145,115.13706105432357 178.95542187057436,115.58521058259066 180.24339265655726,116.18274248918169 181.28986892011017,116.9296560906223 182.9803305764217,118.57286100025522 184.10730501404032,120.16626523836749 184.63054314558394,121.16213959563174 184.87203766801395,122.15801142071723 185.0732831035275,123.40284764196258 185.19403036450967,126.2410594332905 184.95253584207967,128.5813238619303 184.55004497151822,130.27427239250392 184.34879953647032,131.36970577811007 184.10730501404032,132.21617493251688 183.46331962104887,133.70993956626626 183.3023232726846,133.85931571634137 183.06082875048742,133.95889978477499 181.9338543128688,133.70993956626626 181.0081253105309,133.85931571634137 180.16289448202588,133.85931571634137 178.02969286800362,134.25765183815383 176.90271843061782,134.10827584002982 175.89649125398137,134.10827584002982 175.45375129627064,134.0086918095767 175.2927549481392,134.05848382788827 175.21225677407347,134.15806784568122 175.1720076869242,134.70577949096332 175.2927549481392,135.6518250743975 175.61474764463492,136.69745174542186 175.61474764463492,137.3447430478118 175.1317585997749,139.78452372786705 174.8902640773449,141.67658807936823 174.9305131644942,143.0209440391336 175.1317585997749,143.76780646757106 175.1720076869242,144.41508608715958 175.0512604257092,145.75943264894886 175.0110113385599,147.05398423713632 174.8902640773449,147.65146814260515 174.68901864229701,147.95020975370426 174.28652777150273,148.0 171.87158254813403,147.5020972516213 166.67945031751879,146.8050323408097 165.39147953153588,146.7054515381169 163.8620142233558,146.40670897779637 162.61429252452217,146.40670897779637 162.29229982802644,146.35691852899618 162.05080530582927,146.1577566700871 161.889808957465,145.90880420431495 162.05080530582927,145.41089879814535 162.131303479895,144.81341147524654 161.80931078339927,142.5230349621561 162.01055621868,141.17867729396676 162.05080530582927,139.38619322609156 162.25205074087717,138.19119929085718 162.05080530582927,136.54807667751447 161.97030713176355,136.4484932674095 161.84955987054855,136.4484932674095" stroke="#4dd2ff" stroke-linecap="round" stroke-linejoin="round" stroke-width="0.5"><title>2023-10-13 3.0km</title><desc>10389482249</desc></polyline><polyline fill="none" points="21.067889626603574,175.80036908315378 20.906222470570356,176.20036298126797 20.987056048819795,176.400359777821 21.189139993628487,176.55035730844247 22.03789256303571,176.75035392702557 22.159142930060625,177.5003403411829 22.078309352044016,178.2503253252653 21.997475774027407,180.1502808855439 22.159142930060625,182.30021953082178 22.078309352044016,183.6501750004245 22.078309352044016,184.75013529110583 21.957058985251933,185.80009451758815 21.83580861799419,186.0000864333997 21.633724672952667,186.10008235325222 21.189139993628487,186.0000864333997 20.58288815827109,185.6001024999132 19.087466964730993,184.30015190757695 17.026210724608973,181.3502480899915 16.622042834293097,180.45027302973904 16.217874944210052,179.2503030798107 16.177458155201748,177.55033938455745 15.773290265118703,175.30037613844615 15.732873476110399,174.40038723652833 15.611623109085485,173.40039715263993 15.65203989809379,173.3003980043868 15.692456686869264,173.35039758161292 15.692456686869264,173.25039842084516 15.328705585794523,171.15041016886244 14.964954484719783,167.75040541938506 14.803287328453735,165.9503910066851 14.84370411769487,165.00038007908734 15.086204851744696,162.90034778122208 15.20745521876961,160.40029471192975 15.611623109085485,157.85022421073518 16.46037567849271,156.0001627143356 16.783709990559146,155.5001445999369 17.430378614924848,154.70011429456645 18.44079834036529,153.8500803122588 20.299970635212958,152.75003360773553 22.19955971906893,152.30001361481845 23.37164660077542,152.15000683593098 23.694980912841856,152.0 27.332491924753413,152.15000683593098 29.757499265950173,152.65002920947154 32.5058409194462,153.70007412455743 34.36501321406104,154.0000864425965 35.21376578346826,154.30009853179217 36.34543587593362,154.80011817169725 38.568359272088856,155.5001445999369 39.78086294280365,156.0001627143356 41.11461698054336,156.70018700658693 42.0846199169755,157.55021482947632 43.660874688765034,159.45027037902037 44.469210469163954,160.85030543711036 44.71171120321378,161.50032002016087 45.07546230452135,163.1503522139974 45.196712671546265,164.2503698313376 45.196712671546265,165.50038611644413 45.07546230452135,166.30039445424336 45.03504551528022,167.2004018893349 44.873378359247,168.50040899342275 44.67129441420548,169.40041139465757 44.307543312897906,170.4504115935415 43.98420900083147,172.60040325514274 43.82254184479825,173.10039963168674 43.660874688765034,173.35039758161292 43.33754037646577,173.6003953727777 41.39753450360149,173.9503920133575 40.8316994572524,174.00039150798693 40.30628120014444,173.9003925122961 39.61919578677043,173.9003925122961 37.35585560160689,174.55038552981569 37.113354867557064,174.55038552981569 36.18376872013323,174.20038942308747 35.45626651775092,174.15038995392388 35.2945993617177,174.30038834249717 35.2541825727094,175.05037942784838 35.415849728742614,175.80036908315378 35.779600829817355,176.85035219829297 35.82001761882566,178.20032637083204 35.45626651775092,180.70026630852954 35.13293220545165,182.20022264504223 35.09251541644335,183.3001869902073 35.17334899445996,183.85016800934682 35.01168183842674,185.25011622457532 34.971265049418435,187.25003360401024 34.890431471401826,187.75001136021456 34.76918110437691,187.95000228483696 34.40543000306934,188.0 32.182506607146934,187.60001810005633 30.929586147423834,187.60001810005633 29.99999999976717,187.50002256163862 27.372908713761717,187.10004015328013 25.634986785938963,186.90004879661137 23.81623127986677,186.6000615709636 23.29081302275881,186.6000615709636 22.64414439839311,186.45006787250168 22.159142930060625,186.20007824760978 21.916642196010798,185.85009250606527 21.876225407002494,184.20015553024132 21.75497503997758,183.55017845783732 21.795391828985885,182.8002035782847 21.67414146196097,182.30021953082178 21.997475774027407,181.000258033484 22.078309352044016,179.2503030798107 22.239976508077234,178.15032741011237 21.997475774027407,176.60035647253972 21.957058985251933,176.50035813794238 21.876225407002494,176.60035647253972" stroke="#4dd2ff" stroke-linecap="round" stroke-linejoin="round" stroke-width="0.5"><title>2023-10-10 3.0km</title><desc>10389482309</desc></polyline><polyline fill="none" points="67.30734081286937,176.19871313960175 67.30734081286937,176.39705704484368 67.42758911079727,176.49622895967332 68.46974102593958,176.69457271366264 68.75032038777135,176.6449867845513 68.91065145167522,176.89291636671987 68.75032038777135,177.8350473419705 68.67015485581942,179.76888800488086 68.67015485581942,180.90935364557663 68.87056868546642,182.29774209941388 68.91065145167522,185.57035247661406 68.79040315374732,185.86786114948336 68.54990655789152,186.01661540105124 68.22924443008378,185.96703065678594 67.94866506825201,185.81827638638788 66.4255199613981,184.77699490601663 65.86436123773456,184.23156064053182 65.26311974856071,183.43820034735836 63.8201401734259,181.10769515580614 63.37922974769026,180.01681560167344 63.01848485390656,178.67800470697694 63.01848485390656,177.48794672108488 62.85815379023552,176.19871313960175 62.81807102425955,174.66154445472057 62.53749166242778,173.32271518110065 62.45732613070868,173.37230153250857 62.53749166242778,173.37230153250857 62.33707783278078,172.28140034715761 62.29699506657198,170.9921495586459 61.93625017302111,168.81033082524664 61.65567081118934,165.24005566598498 61.73583634314127,164.74418153159786 61.77591910911724,163.1077924161218 61.976332938997075,161.22345705213957 62.17674676887691,160.18210991940578 62.21682953485288,159.4878769532079 62.377160598523915,158.29776042239973 62.73790549230762,157.10764026045217 63.09865038609132,156.36381331522716 63.69989187573083,155.42163048189832 64.34121613111347,154.62821159375017 65.50361634418368,153.78520225698594 66.9065131531097,153.1901357457391 69.391644643154,152.4958903353545 70.03296889876947,152.24794524649042 70.91478975000791,152.24794524649042 73.1594246441964,152.0 74.24165932531469,152.24794524649042 75.3238940066658,152.59506832674379 76.84703911328688,152.9421910981764 80.37432251893915,154.08273517218186 81.89746762556024,154.42985661971034 82.81937124277465,154.8761551695934 85.02392337098718,155.66957355337217 86.42682018014602,156.06628214009106 87.70946869091131,156.81010965252062 89.31277932971716,158.29776042239973 90.39501401106827,159.58705316690612 91.03633826645091,160.77716576409875 91.39708316023462,161.96727473058854 91.67766252206638,163.3061429775844 91.63757975609042,166.03345296974294 91.15658656437881,169.55413403720013 90.67559337266721,171.53760233544745 90.39501401106827,173.22354245965835 90.15451741521247,173.66981950803893 89.8739380533807,173.91775098117068 89.59335869178176,173.96733725682134 88.39087571250275,173.91775098117068 87.66938592516817,174.01692352630198 86.94789613760076,173.96733725682134 85.94582698843442,174.11609604617115 85.22433720086701,174.11609604617115 84.26235081767663,174.31444101015222 83.50077826436609,174.26485477865208 82.61895741289482,174.36402723551146 82.09788145544007,174.31444101015222 81.8173020936083,174.46319966713781 81.77721932763234,174.85988914151676 81.77721932763234,175.30616431808448 82.01771592348814,176.04995514452457 82.25821251934394,177.28960337044555 82.21812975313514,177.68628997087944 81.89746762556024,178.87634735155734 81.65697102970444,180.61184119107202 81.3763916681055,181.70271908139694 81.4565571998246,182.69442360731773 81.65697102970444,183.88446571084205 81.6970537956804,184.77699490601663 81.65697102970444,187.60332388678216 81.6168882639613,187.85124650475336 81.49663996580057,188.0 81.3363089018967,188.0 81.05572954029776,187.90083100952324 80.49457081663422,187.75207747647073 78.29001868818887,187.4049856789934 74.40199038945138,186.95872434272314 72.39785209088586,186.6116318393906 71.27553464379162,186.5620471709699 70.67429315415211,186.4132931274362 69.75238953670487,186.31412373372586 69.07098251557909,186.115784870286 68.91065145167522,185.86786114948336 68.83048591972329,185.61993727111258 68.79040315374732,184.97533444990404 68.87056868546642,183.88446571084205 68.63007208961062,182.59525326816947 68.83048591972329,180.71101203447324 68.71023762179539,180.16557208404993 68.83048591972329,179.22344673718908 68.75032038777135,178.72759037755895 68.83048591972329,178.18214765400626 68.71023762179539,177.58711835858412 68.67015485581942,176.59540084926994 68.54990655789152,176.39705704484368 68.26932719582692,176.39705704484368" stroke="#4dd2ff" stroke-linecap="round" stroke-linejoin="round" stroke-width="0.5"><title>2023-10-08 3.0km</title><desc>10389482199</desc></polyline><polyline fill="none" points="116.59457815182395,152.1502154591435 117.24214621726424,152.25035906667472 118.78012037277222,152.0 120.56093255290762,152.05007182614645 121.97748769633472,152.40057443018304 123.1512048151344,152.9012918950466 124.8105979829561,153.35193706888822 126.5914101630915,153.90272491483483 127.4818162531592,154.1030112131266 132.0552657158114,155.55508383069537 132.58141476893798,155.75536928887595 134.28128094086424,156.7567950518569 135.37405205145478,157.75821826889296 135.9002011048142,158.4091419944889 137.23581023979932,160.26176517191925 137.7619592929259,161.41339140373748 138.0047973175533,162.51494377924246 138.1666893339716,163.86684475661605 137.8833783052396,167.22154195376788 137.84290530113503,168.0727292355441 137.60006727674045,169.3244718965143 137.15486423135735,170.42600214775302 136.6287151784636,172.97953770065214 136.42635015794076,173.5302981006098 136.18351213331334,173.83071253972594 135.9002011048142,173.88078159056022 132.8242527935654,173.88078159056022 130.557764564408,174.63181659035035 128.2508033309132,174.48160970499157 128.0889113144949,174.48160970499157 127.9674923021812,174.63181659035035 127.92701929830946,174.78202341854922 128.12938431859948,174.98229910014197 128.41269534709863,175.93360719786142 128.49364135530777,176.98505031690001 128.00796530628577,179.5886116756301 127.72465427755378,182.29229179603863 127.68418127344921,183.24358223986928 127.88654629397206,184.44520899065537 127.80560028599575,185.2462914545904 127.80560028599575,187.34912517195335 127.72465427755378,187.89986548107117 127.64370826957747,188.0 123.96066489699297,187.5493944643822 122.5036367494613,187.24899048756924 120.03478349978104,187.048721042549 118.37539033195935,186.7483166838938 115.21849601273425,186.44791209633695 114.69234695914201,186.29770971651305 113.1948458077386,185.49662939060363 112.10207469714805,184.3951412824972 111.13072259887122,183.14344651199644 110.07842449238524,181.59133947268128 109.5118024351541,180.4397722335416 109.1070723941084,178.93772294919472 109.1070723941084,178.23676465649623 108.94518037792295,177.48573653012863 108.70234235329553,175.13250579475425 108.49997733277269,173.9809196732822 108.54045033687726,173.5302981006098 108.78328836150467,173.33002168062376 110.64504654984921,173.6304362724477 113.1948458077386,173.48022900524666 114.44950893474743,173.5302981006098 114.81376597168855,173.6304362724477 114.93518498376943,173.9809196732822 114.73281996347941,175.88353840779746 114.73281996347941,176.48436346740345 114.12572490191087,176.53443218095344 113.88288687728345,176.4342947473924" stroke="#4dd2ff" stroke-linecap="round" stroke-linejoin="round" stroke-width="0.5"><title>2023-10-07 2.2km</title><desc>10389482165</desc></polyline><polyline fill="none" points="161.06789189740084,174.70038376611774 162.15914492332377,175.3003761387081 162.36122881737538,175.9503668428806 162.23997848085128,176.45035896124318 161.99747780850157,176.95035044426913 162.07831136602908,177.00034955749288 161.91664425097406,178.15032741017058 161.95706102973782,180.55027036051615 162.03789458726533,181.70023783526267 161.8762274722103,183.85016800943413 161.99747780850157,185.4501084202493 161.91664425097406,185.9500884640729 161.7145603573881,186.25007618544623 161.2699757909868,186.15008030369063 160.50205699494109,185.7000985214545 160.0574724287726,185.35011233508703 159.16830329643562,184.5001445861417 158.60246839374304,183.75017151769134 157.10704758041538,181.55024226839305 156.70287979301065,180.800263575773 156.25829522660933,178.95031002064934 156.09662811178714,176.40035977805383 155.81371066067368,175.20037747349124 155.8541274392046,175.15037813142408 155.81371066067368,174.3503877928597 155.6924603243824,173.75039397142245 155.77329388190992,173.30039800464874 155.1670422006864,169.60041164892027 154.92454152810387,167.00040041544707 154.8437079708092,165.3503843723738 155.00537508586422,164.0003660977818 155.12662542192265,161.35031675046775 155.3691260945052,160.2002897800994 155.53079320932738,157.9502272871032 156.6220462352503,155.80015554485726 157.30913147400133,154.8501201007457 158.4003845001571,153.90008236200083 159.7745549774263,153.10004880206543 160.70414088875987,152.70003141183406 163.0078972771298,152.20000910197268 165.6349878956098,152.0 166.6049905854743,152.0 168.50457918620668,152.40001810219837 172.46542350342497,153.750076193508 175.29459801549092,154.250096532749 176.7900188290514,155.100129650702 179.41710944729857,155.9501609314757 181.19544771220535,156.95019538054476 182.16545040206984,157.75022110907594 183.74170477315784,159.60027437389363 184.14587256056257,160.2002897800994 184.59045712673105,161.25031453868723 185.11587525042705,163.30035479782964 185.07545847189613,165.550386685587 185.1562920291908,166.1003925226978 185.03504169289954,166.7503984294599 184.8329577993136,168.6004093622032 184.30753967538476,170.7004112280265 184.02462222450413,172.40040452676476 183.74170477315784,173.50039627571823 183.66087121563032,173.70039444501163 183.4992041005753,173.90039251267444 183.29712020698935,174.00039150824887 182.4483678531833,173.8503930052102 180.9125302610919,174.00039150824887 180.14461146481335,174.00039150824887 178.97252488136292,174.2003894233494 177.7600215189159,174.25038888631389 176.91126916510984,174.10039047850296 175.4966819093097,174.10039047850296 175.25418123672716,174.15038995421492 175.17334767919965,174.3503877928597 175.13293090066873,174.70038376611774 175.2137644579634,175.20037747349124 175.65834902436472,176.60035647288896 175.86043291795067,177.70033647693344 175.90084969671443,178.75031452055555 175.77959936042316,179.50029712138348 175.37543157301843,180.800263575773 175.2137644579634,182.00022879743483 175.25418123672716,183.1001937018591 175.33501479425468,183.1001937018591 175.4966819093097,183.75017151769134 175.01168056437746,187.40002699766774 174.93084700684994,187.70001361315371 174.72876311303116,188.0 174.40542888315395,188.0 170.48500134493224,187.45002478273818 167.2920758239925,187.15003797662212 164.86706909933127,186.70005733828293 162.80581338354386,186.50006577841123 162.644146268256,186.15008030369063 162.60372948972508,184.30015190769336 162.48247915366665,182.10022573417518 162.60372948972508,181.4502451919834 162.76539660454728,179.2003042526776 162.72497982601635,178.40032215075917 162.644146268256,178.15032741017058 162.36122881737538,177.70033647693344 161.95706102973782,176.60035647288896 161.6337267998606,176.7503539272584 161.31039256998338,176.7503539272584" stroke="#4dd2ff" stroke-linecap="round" stroke-linejoin="round" stroke-width="0.5"><title>2023-10-03 3.0km</title><desc>10389482190</desc></polyline><polyline fill="none" points="20.588821925455704,216.33277184635517 20.669431587681174,216.58207522137673 21.797966860001907,216.73165717045777 22.080100678140298,216.93109968031058 21.959186184685677,217.72886870612274 22.080100678140298,218.87565883807838 21.999491015681997,220.3216068347101 22.080100678140298,225.90590767809772 22.039795847143978,226.15520496928366 21.838271691231057,226.25492384142126 21.515833042096347,226.20506440845202 21.233699223725125,226.05548607185483 20.024554289178923,225.1580148541252 18.97662867931649,224.16082220405224 17.203216108493507,221.41852934582857 16.921082290355116,220.91992858459707 16.518033978529274,219.7731444289093 16.276204991620034,218.87565883807838 16.276204991620034,217.62914766662288 15.913461511256173,214.28847819421208 15.711937355576083,213.64028529945062 15.711937355576083,213.34111898668925 15.752242186805233,213.19153574481606 15.711937355576083,212.64306336978916 15.308889044215903,209.70124390674755 15.067060057073832,206.85912618343718 14.865535901393741,205.36326647855458 15.067060057073832,203.76767650575493 15.067060057073832,203.06960385167622 15.308889044215903,200.7260651405959 15.470108368666843,200.0778498335858 15.429803537670523,199.37977061260608 15.591022862121463,198.5321013169887 16.074680835939944,197.08607299625874 17.001691952580586,195.39072265880532 17.767483744304627,194.34359084849712 18.6138851987198,193.69536499344395 19.823030133498833,193.04713806710788 20.790346081135795,192.69809235536377 22.201015171594918,192.2991825902136 23.32955044391565,192.14959132357035 24.216256729327142,192.14959132357035 25.385096832877025,192.0 26.79576592333615,192.04986378081958 28.448264000704512,192.34904633296537 29.415579948341474,192.64822865687893 30.382895895978436,192.8975470858859 32.68027127208188,193.74522855877876 35.46130462153815,194.2937273591233 36.75105921854265,194.9419522252574 37.75867999740876,195.24113257139106 40.2575795291923,196.2882619855518 41.26520030805841,196.93648355541518 42.19221142446622,197.6844301892852 42.917698385193944,198.48223836012767 43.481966021703556,199.13045630409033 44.28806264442392,200.62633977859514 44.69111095601693,201.67345481627854 45.01354960538447,202.96987908537267 45.09415926784277,204.76492099941242 45.13446409883909,205.01423172661453 45.13446409883909,205.61257682566065 44.97324477415532,206.26078298597713 44.81202544970438,207.90622458260623 44.57019646256231,209.55165927685448 43.764099839609116,212.9920913335227 43.522270852467045,213.69014632931794 43.361051528016105,213.83972938117222 42.958003216423094,213.98931237586658 39.5723973994609,213.83972938117222 37.79898482863791,214.3882000829908 37.07349786791019,214.43806101789232 35.98526742658578,214.28847819421208 35.42099979054183,214.0890343406645 35.30008529708721,214.0890343406645 35.17917080363259,214.23861724024755 35.25978046585806,215.38541757612256 35.62252394622192,216.68179652708932 35.70313360868022,217.67900818947237 35.66282877745107,218.1277526106278 34.816427323035896,221.26894918392645 34.735817660810426,221.71768949824036 34.816427323035896,223.0140475227672 35.017951478715986,224.75913809836493 34.897036985261366,226.6537990764482 34.897036985261366,227.60112613384263 34.856732154265046,227.85042234766297 34.735817660810426,227.95014078883105 34.534293504897505,228.0 33.48636789503507,227.9002815714921 32.07569880457595,227.60112613384263 27.07789974147454,227.05267390568042 24.216256729327142,226.55408030559192 23.53107459959574,226.55408030559192 22.402539327275008,226.35464268823853 22.080100678140298,226.20506440845202 21.878576522227377,225.85604820086155 21.918881353456527,225.10815528186504 21.757662028772756,222.66502847606898 21.797966860001907,221.81740949850064 22.039795847143978,220.2218864543247 22.080100678140298,218.22747352326405 21.999491015681997,217.13054208896938 21.878576522227377,216.48235389046022 21.636747535550967,216.63193587746355 21.314308886416256,216.58207522137673" stroke="#4dd2ff" stroke-linecap="round" stroke-linejoin="round" stroke-width="0.5"><title>2023-10-01 3.0km</title><desc>10389482184</desc></polyline><polyline fill="none" points="67.05432819435373,213.93085063516628 67.21622021077201,214.7319544821512 67.6209502518177,215.082436902856 67.70189626002684,215.33278129814425 67.90426128031686,215.53305669987458 68.22804531315342,215.78340080889757 68.26851831725799,216.2340198039019 68.55182934575714,216.4342947473924 68.59230235009454,216.78477565359208 68.55182934575714,218.48710704719997 68.79466737038456,222.1420878318313 68.63277535419911,223.29365009441972 68.63277535419911,225.84710223364527 68.59230235009454,226.04737228967133 68.3899373295717,226.19757476483937 67.94473428442143,226.14750727958744 67.13527420256287,225.69689962486154 65.75919206347317,224.4952766923525 65.27351601421833,223.89446385146584 64.54500194056891,222.7429033452645 63.209392805583775,220.38970401632832 62.84513576864265,219.0378597464005 62.56182473991066,215.43291901174234 62.399932723492384,214.2312647686049 62.19756770320237,213.58036718977382 62.1570946990978,212.27856880507898 61.95472967857495,211.52752931852592 61.91425667447038,210.6262800442055 61.71189165394753,209.4746807484771 61.509526633424684,207.27161184471333 61.469053629320115,205.36895151174394 61.549999637529254,204.01705568973557 62.1570946990978,197.80828936299076 63.5331768381875,195.30472686479334 63.978379883104935,194.75394097957178 65.11162399780005,193.70243851441774 66.16392210451886,193.00143531148206 67.01385519024916,192.65093324211193 69.8874384809751,192.0 73.73237386997789,192.0 74.70372596825473,192.1502154591435 76.20122711965814,192.55078973647323 78.10345831210725,193.30186540842988 79.52001345553435,193.60229527621414 80.5723115617875,193.95279649895383 81.78650168469176,194.15308277189615 82.31265073805116,194.30329740970046 83.12211081967689,194.75394097957178 85.9552211065311,195.7052979338041 87.85745229874738,196.6566525902599 88.90975040523335,197.45779157118523 90.28583254455589,199.21027741095168 90.97387361410074,200.31183594762115 91.37860365514643,201.21310882279067 91.70238768798299,202.51494377924246 91.82380670006387,203.61649307375774 91.86427970416844,205.4690917582775 91.66191468364559,206.37035283262958 91.419076659251,208.4732873197645 90.93340060976334,210.82655783894006 90.65008958126418,211.92808388956473 90.44772456097417,212.32863805326633 90.12394052837044,212.67912261240417 89.5977914747782,212.77926100071636 86.40042415144853,212.5289149825694 84.25535493460484,212.72919180977624 82.15075872163288,212.57898419885896 82.02933970931917,212.62905340877478 81.82697468879633,213.02960685981088 81.78650168469176,214.33140276224003 81.8674476929009,215.33278129814425 82.11028571752831,216.4342947473924 82.15075872163288,217.13525624776958 81.9888667052146,219.5886116756301 81.62460966827348,220.94045405546785 81.66508267237805,221.39106715115486 81.9888667052146,222.34235977151548 81.90792069700547,222.89310708042467 81.9888667052146,223.19351437911973 81.90792069700547,223.79432828904828 82.02933970931917,224.1948703864764 81.66508267237805,225.79703470374807 81.50319065595977,227.24899048756924 81.38177164364606,227.5493944643822 81.21987962746061,227.74966365494765 80.2080545250792,228.0 79.64143246784806,228.0 76.9297411935404,227.3991925047012 73.89426588616334,227.09878841330647 70.73737156717107,226.54804698427324 69.52318144403398,226.49797954346286 69.19939741143025,226.3477771828766 69.15892440709285,226.09743978775805 69.23987041553482,224.79568276915234 69.15892440709285,222.39242774041486 69.23987041553482,221.19079472791054 69.15892440709285,220.64004503874457 68.95655938680284,220.48984044449753 68.67324835807085,220.4397722335416 68.59230235009454,220.28956756278058 68.55182934575714,219.83895320721786 68.63277535419911,218.53717550614965 68.59230235009454,217.23539350301144 68.470883337548,216.38422602112405 68.34946432546712,216.38422602112405" stroke="#4dd2ff" stroke-linecap="round" stroke-linejoin="round" stroke-width="0.5"><title>2023-09-30 3.0km</title><desc>10389482196</desc></polyline><polyline fill="none" points="120.91504377149977,217.57928713754518 120.83443411951885,217.97817119403044 120.83443411951885,220.37146701556048 120.7538244673051,221.16922904460807 120.79412929317914,222.41572896696744 120.71351964143105,224.45998026544112 120.71351964143105,225.85604820103617 120.67321481532417,226.10534552385798 120.59260516311042,226.1552049695165 120.35077620693482,226.25492384142126 120.02833759877831,226.1552049695165 118.77888799179345,225.35745308012702 117.61004803678952,224.21068189688958 117.12639012443833,223.3630662591022 115.51419708319008,220.96978868937003 115.07084399694577,220.07230583639466 114.86931986664422,219.37426219781628 114.82901504053734,218.97537956081214 114.90962469251826,218.37705484501203 114.58718608436175,215.53499998163898 114.50657643238083,214.2386172405386 114.10352817201056,211.79542273652623 113.94230886804871,210.0502744882251 113.82139438996091,209.20262825195096 113.45865095546469,205.76216295780614 113.61987025965936,204.51561011382728 113.86169921583496,201.47400454859599 114.14383299811743,200.27730081172194 114.14383299811743,199.77867317700293 114.26474747620523,198.88114183727885 114.5468812584877,197.83401934508584 115.23206330090761,196.23839874361875 115.67541638738476,195.44058600871358 116.64273221208714,194.3934543315263 117.287609428633,193.8449556704145 118.57736386172473,192.9972744130646 119.26254590414464,192.74795604756218 121.15687272767536,192.44877379966783 121.88235959620215,192.19945508547244 123.29302850738168,192.0498637809069 124.58278294024058,192.0 127.9280835010577,192.44877379966783 132.92588192899711,194.24386386357946 133.12740605906583,194.44331780797802 133.20801571104676,194.74249853452784 133.20801571104676,196.18853549519554 133.0467964070849,197.8838823843107 133.16771088493988,198.4822383603314 133.0467964070849,198.98086764311302 133.0467964070849,200.57647708817967 133.12740605906583,200.9753784353088 133.0467964070849,201.87290498282528 133.08710123295896,203.31891565668047 132.96618675487116,204.91450745495968 133.00649158097804,206.95884996108362 132.8049674506765,212.1943126746337 132.88557710289024,212.6430633700802 132.72435779869556,212.6430633700802 132.84527227678336,214.0391733616416 132.72435779869556,215.38541757623898 132.72435779869556,216.63193587757996 132.84527227678336,218.22747352346778 132.52283366862684,222.16642929942464 132.56313849473372,224.1109625051322 132.72435779869556,226.40450210220297 132.68405297282152,227.30197046819376 132.56313849473372,227.75070388120366 132.40191919053905,227.95014078900567 132.11978540825658,228.0 128.976008977741,227.4016890487983 127.04137732833624,227.25211116831633 125.02613602648489,226.95295523648383 122.00327407428995,226.60393969420693 121.6808354659006,226.55408030573744 121.39870168385096,226.35464268835494 121.27778720576316,226.1552049695165 121.23748237965629,225.95576714907656 121.3180920316372,224.6594188460731 121.15687272767536,222.6151685868972 121.15687272767536,222.1165693468938 121.3180920316372,221.16922904460807 121.27778720576316,219.972585392592 121.35839685774408,218.8756588383403 121.35839685774408,217.7787292165449" stroke="#4dd2ff" stroke-linecap="round" stroke-linejoin="round" stroke-width="0.5"><title>2023-09-28 2.6km</title><desc>10389482181</desc></polyline><polyline fill="none" points="167.13938404549845,217.25635000594775 167.30402381252497,217.71461584130884 167.3451837543398,218.93665550590958 167.26286387094297,221.2279698291095 167.3451837543398,223.41743571544066 167.26286387094297,224.38487031849218 167.26286387094297,225.5559722383332 167.30402381252497,226.21789789607283 167.50982352136634,226.67615347984247 168.04490276472643,226.93073968897806 168.57998200808652,227.0834913366998 169.8559402038809,226.93073968897806 170.47333933087066,226.93073968897806 175.0009329279419,227.64358021345106 177.552849319065,227.79633158931392 179.07576716551557,228.0 179.28156687458977,228.0 179.4462066416163,227.8981658075936 179.52852652524598,227.59266307522194 179.4462066416163,226.67615347984247 179.48736658366397,225.5559722383332 179.32272681617178,224.38487031849218 179.40504669980146,224.07936490667635 179.4462066416163,221.0752159487456 179.56968646706082,219.90410092976526 179.56968646706082,218.22379948786693 179.4462066416163,216.79808364636847 179.56968646706082,215.219606617291 179.48736658366397,214.20123103965307 179.36388675821945,213.7938800837146 179.4462066416163,213.84479897585697 179.52852652524598,213.2846908061765 179.52852652524598,212.46998661599355 179.73432623432018,211.40068485186202 179.36388675821945,210.02586410369258 179.2404069325421,209.05839482264128 179.56968646706082,206.5633316830208 179.69316629250534,205.08665434087743 179.56968646706082,203.91549257814768 179.61084640864283,202.48972581033013 179.56968646706082,201.06395396756125 179.69316629250534,200.401986744022 179.65200635045767,198.9762074702303 179.7754861759022,198.11055329223746 179.85780605953187,197.24489724336308 179.7754861759022,196.3283182111918 179.8989660013467,195.56450074908207 179.73432623432018,194.64791787180002 179.7754861759022,194.29146840868634 179.65200635045767,194.0368614551262 179.36388675821945,193.88409720521304 177.2235697847791,193.5276470623794 175.28905252064578,192.91658893661224 174.2188940339256,192.81474582495866 173.51917502330616,192.45829473048798 172.32553671160713,192.10184331875644 169.8559402038809,192.0 168.9092615423724,192.0509216626815 168.04490276472643,192.3055298786494 167.79794311407022,192.45829473048798 166.68662468576804,192.6110595240898 165.9045857915189,192.91658893661224 165.4518264317885,193.2221181159257 164.7521074214019,193.83317577571142 163.5584691092372,194.3423897799512 162.81759015726857,194.80068183029653 162.2001910302788,195.36081584662315 161.66511178691871,196.02279140119208 161.41815213602968,196.58292370836716 160.88307289290242,198.56884103119955 160.71843312564306,199.74001842655707 160.5537933583837,200.35106614310644 160.59495330019854,200.5038279266737 160.43031353293918,202.3878851327172 160.1010339986533,204.11917313063168 160.18335388228297,208.04000358152553 160.5126334168017,210.68781542329816 160.84191295085475,212.16447211746708 161.0065527181141,212.46998661599355 161.3358322524,212.52090567638515 165.24602672294714,212.26631030952558 166.68662468576804,212.36814847571077 167.3451837543398,212.2153912167705 167.26286387094297,212.26631030952558 167.26286387094297,212.36814847571077 167.18054398708045,212.7245818535448 167.30402381252497,213.99755561354687 167.26286387094297,215.77971208150848" stroke="#4dd2ff" stroke-linecap="round" stroke-linejoin="round" stroke-width="0.5"><title>2023-09-27 2.2km</title><desc>10389482166</desc></polyline><polyline fill="none" points="27.81123979203403,232.0515782161383 27.56109576835297,232.0 27.352642415091395,232.0 25.851778272772208,232.51578186638653 24.142460776958615,233.392609534465 23.26695669395849,234.0115455709165 22.516524622682482,234.78521428877139 21.72440188098699,235.86834801523946 21.30749517446384,236.69359081820585 20.97396980947815,238.03460679319687 20.64044444449246,239.94296803872567 20.3069190797396,242.41866654905607 20.181847067549825,245.513268443814 20.265228408854455,246.9058315960574 20.14015639713034,247.78262816581992 20.348609750159085,249.84567144411267 20.848897797754034,252.32130953171873 20.765516456216574,252.37288516451372 21.4742578570731,257.58199031537515 21.515948527492583,258.97451204733807 21.599329868797213,259.74813316678046 22.349761940073222,261.759541174426 22.59990596375428,262.1205620690889 24.225842118496075,264.4929771005118 25.143036872148514,265.57603152494994 25.601634248858318,265.9370490241272 27.352642415091395,266.55593541811686 28.97857856960036,266.91695204545977 30.187608017819002,266.91695204545977 31.3549467951525,267.1232471167168 33.06426429096609,267.1232471167168 34.440056421794,267.53583694488043 35.89922989346087,267.638984336314 39.52631823788397,268.0 39.651390249608085,267.94842635351233 39.734771590912715,267.638984336314 39.69308092049323,266.91695204545977 39.69308092049323,264.6992734041123 39.85984360286966,262.8426028949325 39.818152932217345,261.03749842144316 39.734771590912715,260.6249019856623 39.568008908769116,260.31545438367175 39.35955555527471,260.2123051304952 39.067720860941336,260.2123051304952 38.35897946055047,260.2638797602558 37.77531007165089,260.4186036106257 36.73304330580868,260.47017821430927 33.60624300921336,260.2638797602558 31.980306854471564,260.2638797602558 31.02142143016681,260.3670290003356 29.979154664557427,260.2638797602558" stroke="#4dd2ff" stroke-linecap="round" stroke-linejoin="round" stroke-width="0.5"><title>2023-09-25 1.5km</title><desc>10389482075</desc></polyline></svg>