<?xml version="1.0" encoding="utf-8" ?>
<svg baseProfile="full" height="300mm" version="1.1" viewBox="0,0,200,300" width="200mm" xmlns="http://www.w3.org/2000/svg" xmlns:ev="http://www.w3.org/2001/xml-events" xmlns:xlink="http://www.w3.org/1999/xlink"><defs /><rect fill="#222222" height="300" width="200" x="0" y="0" /><text fill="#FFFFFF" style="font-size:12px; font-family:Arial; font-weight:bold;" x="10" y="20">Over 3km Runs</text><text fill="#FFFFFF" style="font-size:4px; font-family:Arial" x="10" y="280">ATHLETE</text><text fill="#FFFFFF" style="font-size:9px; font-family:Arial" x="10" y="290">Ryan</text><text fill="#FFFFFF" style="font-size:4px; font-family:Arial" x="120" y="280">STATISTICS</text><text fill="#FFFFFF" style="font-size:3px; font-family:Arial" x="120" y="285">Number: 13</text><text fill="#FFFFFF" style="font-size:3px; font-family:Arial" x="120" y="290">Weekly: 2.2</text><text fill="#FFFFFF" style="font-size:3px; font-family:Arial" x="141" y="285">Total: 40.8 km</text><text fill="#FFFFFF" style="font-size:3px; font-family:Arial" x="141" y="290">Avg: 3.1 km</text><text fill="#FFFFFF" style="font-size:3px; font-family:Arial" x="167" y="285">Min: 3.0 km</text><text fill="#FFFFFF" style="font-size:3px; font-family:Arial" x="167" y="290">Max: 3.6 km</text><polyline fill="none" points="22.45616633584723,60.06988047334016 22.50426564272493,60.426900501188356 22.792861484456807,60.48640381262521 23.56245039543137,61.14093973994022 24.091542771551758,61.25994617375545 24.2839399992954,61.43845576798776 24.428237920161337,61.6169652940298 24.620635147904977,62.09299036394805 24.428237920161337,63.223547965375474 24.524436534149572,63.81857718527317 24.428237920161337,64.65161682231701 24.428237920161337,66.61520438748994 24.66873445501551,68.93579725487507 24.66873445501551,71.6133901157591 24.572535841027275,72.9819316638459 24.47633722727187,73.21993848125567 24.235840692417696,73.39844351488864 23.706748316297308,73.27944016660331 22.937159405322745,72.80342647148063 22.11947118723765,72.20840867163497 21.061286434764042,71.13737472635694 18.512023167451844,67.4482390479825 18.07912940485403,66.43669676722493 17.646235642489046,64.94913061911939 17.598136335378513,63.40205681070802 17.309540493879467,60.06988047334016 17.16524257301353,58.99881875628489 16.924746038392186,58.463286978774704 17.02094465214759,58.04676183935953 16.684249503770843,56.44016140140593 16.491852275794372,53.940994204749586 16.155157127417624,52.69140560296364 15.914660593029112,51.44181366547127 15.72226336505264,48.46658134050085 15.818461979040876,47.15747312651365 16.25135574117303,43.70617028645938 16.4437529691495,43.05160998032079 16.491852275794372,41.26644085752196 16.684249503770843,40.254841999092605 16.82854742463678,39.65978282605647 17.309540493879467,39.00521686160937 18.415824553463608,36.446450218500104 19.37781069194898,35.375334447366185 20.48409475153312,34.48273609895841 22.167570494348183,33.53062931794557 23.081457325955853,33.23309555169544 25.678819900378585,32.93556159638683 26.592706732219085,32.638027451903326 28.035685940179974,32.40000000002328 30.5368499008473,32.51901374114095 31.498836039565504,32.7570411322522 32.268424950307235,32.7570411322522 33.32660970301367,32.995068402728066 37.896043861983344,34.601749310590094 43.09076901082881,36.14891830578563 45.01474128826521,36.862994578899816 46.26532326824963,37.458057307463605 47.612103862687945,38.35064998199232 48.718387922039255,39.24324095461634 50.546161585487425,41.385452344227815 51.267651189817116,42.575565546692815 51.84484287281521,44.003697395615745 52.181538021424785,45.669845712400274 52.27773663518019,46.621927802072605 52.181538021424785,48.764105423819274 51.84484287281521,52.572396990668494 51.652445645071566,53.6434734116483 50.64236019924283,57.27321416861378 50.161367130232975,58.463286978774704 49.968969902489334,58.64179763945867 49.72847336763516,58.760804708552314 47.612103862687945,58.701301177818095 45.73623089212924,58.82030823189416 44.678046139655635,59.23683268297464 43.6679606938269,59.41534304866218 41.50349188200198,59.17732921260176 40.878200891660526,59.35583960096119 40.2529099015519,59.2963361456932 40.06051267404109,59.41534304866218 40.06051267404109,59.65335676341783 40.2048105946742,60.36739718209719 40.830101584782824,62.331002717488445 40.878200891660526,63.28305092130904 40.68580366414972,64.59211404022062 40.108611980685964,66.91271693637827 39.82001613918692,68.40027684494271 39.771916832309216,69.82832991008763 39.916214753175154,70.66135885298718 39.86811544629745,71.31588055423344 40.01241336693056,71.91089948813897 40.01241336693056,73.10093508756836 39.86811544629745,75.18349010776728 39.771916832309216,75.48099721147446 39.33902306994423,75.54049860942177 38.61753346584737,75.42149580572732 38.04034178261645,75.60000000000582 37.46315009938553,75.60000000000582 32.70131871290505,74.8859828147979 30.4887505939696,74.70747834842768 28.083785247290507,74.11246296882746 26.015515048988163,73.87445660500089 25.58262128662318,73.75545337796211 25.1978268311359,73.4579451775644 24.813032375648618,73.51744683281868 24.66873445501551,73.4579451775644 24.47633722727187,73.16043678816641 24.380138613283634,72.86292820982635 24.428237920161337,71.13737472635694 24.2839399992954,69.47131705205538 24.572535841027275,67.0317219030112 24.524436534149572,65.96067611404578 24.572535841027275,62.152493463800056 24.428237920161337,61.735971606947714 24.3320393061731,61.795474752027076 24.380138613283634,61.91448101948481 24.380138613283634,61.854977889568545 24.3320393061731,61.795474752027076 23.658649009186774,61.854977889568545" stroke="#4dd2ff" stroke-linecap="round" stroke-linejoin="round" stroke-width="0.5"><title>2023-11-03 3.1km</title><desc>10389486333</desc></polyline><polyline fill="none" points="88.8409593726974,60.90292678124388 88.79286005953327,61.49795895066927 89.12955525098369,61.79547475191066 89.610548381228,61.97398414177587 90.33203807706013,61.914481019281084 90.62063395557925,62.15249346377095 90.38013739022426,62.68802102067275 90.57253464218229,62.86653007037239 90.62063395557925,63.28305092130904 90.47633601631969,64.83012512294226 90.52443532925099,71.19687667654944 90.38013739022426,72.56541944222408 90.283938763896,72.86292820985545 90.13964082486928,72.9819316638459 89.70674700778909,72.92242994063417 88.64856212027371,72.44641588241211 87.9270724246744,71.91089948831359 87.06128478981555,71.07787276865565 84.9930143286474,68.10276524125948 84.07912738062441,66.43669676710851 83.79053150257096,65.36564961704426 83.5981342503801,63.640068498498295 82.63614798919298,56.380657575442456 82.29945279797539,55.012067494069925 82.29945279797539,54.0600024687883 81.81845966749825,50.72775963175809 81.77036035456695,48.645095813059015 81.86655898066238,47.87153260604828 81.81845966749825,46.97895808622707 82.25135348504409,43.9441919887322 82.44375073700212,43.1706210130651 82.39565142407082,42.51605995828868 82.49185005016625,41.32594660454197 82.82854524161667,39.54077090046485 84.07912738062441,36.92250088552828 84.56012051133439,36.267931093403604 86.19549715495668,34.780269070819486 87.87897311151028,33.70914948682184 88.8890586856287,33.35210908082081 91.91931540775113,32.63802745178691 92.83320235554129,32.69753429573029 94.17998312111013,32.45950687438017 95.86345907789655,32.40000000002328 99.13421236514114,32.99506840252434 100.86578763485886,33.70914948682184 105.24282512208447,34.95878876329516 110.24515367951244,36.56546293073916 111.35143787926063,37.041513476724504 112.74631795776077,37.75558838809957 113.61210559261963,38.35064998178859 115.0550849842839,39.65978282588185 115.87277330597863,40.67138297011843 116.73856094083749,42.15902626977186 117.41195132350549,43.4086429879535 117.9410437673796,44.71776168580982 118.13344101933762,45.550835314788856 118.22963964520022,46.740937927010236 118.0372423932422,48.46658134018071 118.18154033250175,49.65667653939454 117.98914308007807,51.79884027357912 117.60434857569635,53.40545664084493 117.21955407154746,54.47653115558205 116.97905750595964,55.30958741734503 116.83475956693292,56.61867283337051 116.16136918426491,58.463286978483666 115.92087261914276,58.701301177585265 115.43987948866561,58.82030823171954 111.8324310099706,58.641797639254946 110.5818488704972,58.87981174752349 108.1768832183443,58.82030823171954 106.39720863546245,59.11782573457458 106.15671207010746,59.35583960090298 106.10861275717616,59.77236357549555 106.15671207010746,60.30789385535172 106.58960588742048,61.7359716068313 106.83010245277546,62.68802102067275 105.868116192054,67.6267462822143 105.91621550475247,69.70932565443218 106.06051344401203,70.9588688306103 105.9643148179166,73.10093508765567 105.868116192054,73.75545337799122 105.868116192054,74.82648133361363 105.77191756572574,75.5404986095964 103.79984573065303,75.60000000000582 101.87587320874445,75.36199439261691 99.23041099123657,74.82648133361363 97.6912329737097,74.64797684457153 97.16214053006843,74.70747834839858 96.24825358227827,74.46947228739737 93.93948655598797,74.2314661052369 90.09154151170515,73.27944016671972 88.98525731195696,72.74392472559703 87.54227792029269,71.67289200538653 86.6283909722697,70.60185683477903 86.09929852886125,69.76882778599975 84.9930143286474,68.28127222607145 84.31962394621223,66.97221942339092 83.88673012866639,65.66316296014702 83.5981342503801,63.99708580347942 83.45383631112054,62.033487256558146 83.02094249380752,58.99881875622668 83.02094249380752,58.34427983380738 83.21333974576555,58.04676183918491 83.45383631112054,57.98725821761764 85.85880196350627,58.34427983380738 88.26376761612482,58.165769059880404 89.610548381228,58.225272658717586 90.4282367033884,58.40378341000178 90.57253464218229,58.58229409335763 90.57253464218229,58.93931525555672 90.38013739022426,61.55746212613303 90.13964082486928,61.7359716068313 89.70674700778909,61.67646845415584 89.610548381228,61.55746212613303 89.610548381228,61.14093973985291 89.46625044220127,60.90292678124388 89.22575387707911,60.72441698281909" stroke="#4dd2ff" stroke-linecap="round" stroke-linejoin="round" stroke-width="0.5"><title>2023-11-02 3.4km</title><desc>10389486352</desc></polyline><polyline fill="none" points="156.90823330101557,60.38498392747715 156.76353674870916,60.32531622698298 156.61884019663557,59.96730986511102 156.61884019663557,58.5949496148387 156.57060801237822,58.415945808024844 156.32944709202275,58.29660989891272 156.32944709202275,58.11760597853572 156.5223758283537,55.73088051620289 156.2812149077654,54.835855339159025 156.23298272374086,53.165137109434 156.2812149077654,52.986131232144544 156.37767927604727,53.165137109434 156.37767927604727,52.50878189218929 156.57060801237822,52.38944448140683 156.47414364432916,52.50878189218929 156.57060801237822,52.56845058637555 156.42591146030463,52.62811927276198 156.1365183556918,52.50878189218929 156.23298272374086,52.50878189218929 156.32944709202275,52.031432066869456 156.47414364432916,49.10765379454824 156.42591146030463,48.331954461405985 156.5223758283537,47.37724583019735 156.37767927604727,45.9451792423788 156.47414364432916,44.69211739388993 156.47414364432916,43.49872204760322 156.61884019663557,43.260042614128906 156.86000111699104,42.30532366692205 156.90823330101557,40.99258194369031 157.05292985332198,40.03785838439944 157.10116203711368,37.83005271584261 157.58348387829028,36.039932388055604 157.58348387829028,34.309476248017745 157.72818043036386,34.249805232771905 157.67994824633934,33.95145004335791 157.7764126143884,33.772436838422436 157.67994824633934,33.5934235653549 157.63171606208198,33.6530946638959 157.58348387829028,33.41441022392246 157.67994824633934,33.116054503276246 157.9211091666948,32.937040979915764 158.40343100740574,32.698356175853405 159.41630687308498,32.638684955687495 159.5610034253914,32.51934249312035 160.13978963438421,32.40000000002328 163.0337206791155,32.51934249312035 165.73472298751585,33.29506795841735 167.47108161449432,34.01112109638052 172.5354609428905,35.3238823452557 173.9341942812316,35.92059079007595 175.95994601235725,36.338286250073 177.2622149826493,36.87532272396493 179.19150234595872,37.94939382845769 180.20437821140513,38.78478076600004 180.92786097270437,39.50082552898675 182.2301299427636,41.11192225202103 182.80891615175642,41.94730356094078 183.9182563854847,44.095420100027695 184.01472075399943,44.572777995985234 184.11118512204848,45.5274923312536 184.06295293779112,48.331954461405985 183.67709546512924,50.48004178205156 183.5806310970802,53.165137109434 183.4359345450066,54.00049696757924 182.85714833578095,56.32756301952759 182.2301299427636,58.05793798976811 181.9407368383836,58.47561375101213 181.69957591802813,58.654617535183206 181.21725407708436,58.77395335320034 179.3361988980323,58.71428544790251 177.74453682336025,58.47561375101213 176.29757130122744,58.71428544790251 174.7541414105799,58.893289140978595 172.8248540472705,58.77395335320034 172.24606783827767,58.893289140978595 172.0049069179222,59.251296321919654 172.10137128597125,60.86232525797095 172.5354609428905,62.294346337381285 172.63192531093955,62.95068787210039 171.81197818159126,67.84338675846811 171.76374599756673,69.63338580509298 171.90844254987314,70.34938351254095 172.0049069179222,71.6620431400952 171.86021036561579,74.76467857789248 171.81197818159126,75.24200528676738 171.7155138135422,75.48066845932044 171.37788852467202,75.60000000000582 167.95340345520526,75.18233947484987 164.33598964940757,74.52601504157064 163.22664941544645,74.40668322786223 161.97261262941174,74.16801950937952 159.07868158468045,73.81002370422357 157.05292985332198,73.69069170861621 156.57060801237822,73.57135968250805 156.08828617166728,73.39236158650601 154.4483919129707,72.43770392204169 153.58021259959787,71.78137565148063 152.66380110220052,70.76704833772965 150.2039597139228,67.00805153424153 149.67340568895452,65.63571186733316 149.38401258457452,64.38270258082775 149.38401258457452,63.48769389974768 149.43224476859905,62.712018329271814 149.28754821629263,61.39933367478079 149.2393160322681,59.78830658172956 148.9499229278881,57.93860198982293 148.85345855983905,57.998269993579015 148.75699419155717,56.92424476429005 148.5158332712017,56.02922186255455 148.4193689029198,55.253533967392286 147.88881487795152,48.331954461405985 147.88881487795152,47.1982377457316 148.03351143025793,45.46782274209545 148.27467235084623,43.85674097004812 148.17820798256435,43.43905220052693 148.12997579877265,43.31971248376067 148.03351143025793,43.31971248376067 147.9852792462334,43.14070285187336 148.27467235084623,42.12631364795379 148.5158332712017,40.33620970524498 148.80522637581453,39.14280328396126 149.19108384824358,38.546098935534246 149.67340568895452,37.352687962702475 150.25219189794734,36.338286250073 151.16860339557752,35.26421145902714 152.1332470769994,34.54816023289459 154.01430225628428,33.5934235653549 155.89535743533634,33.175725662731566 156.42591146030463,33.175725662731566 156.71530456468463,33.29506795841735 156.90823330101557,33.53375245910138 157.05292985332198,34.01112109638052 157.05292985332198,35.4432240948081 156.9564654850401,37.05433474527672 157.05292985332198,39.91851780298748 156.86000111699104,42.54400358564453 156.86000111699104,43.49872204760322 156.71530456468463,44.334099108644295 156.66707238042727,45.28881392945186 157.00469766906463,47.61592317002942 156.9564654850401,50.599379678373225 157.10116203711368,51.673419379250845 157.10116203711368,53.165137109434 157.05292985332198,53.94082845567027 156.66707238042727,56.446899428992765 156.47414364432916,57.04358102224069 156.47414364432916,58.71428544790251 156.32944709202275,60.14631308015669 156.2812149077654,61.33966610321659 156.1365183556918,61.6380038849602 155.70242869923823,61.75733894464793" stroke="#4dd2ff" stroke-linecap="round" stroke-linejoin="round" stroke-width="0.5"><title>2023-10-27 3.6km</title><desc>10389486363</desc></polyline><polyline fill="none" points="23.051292821764946,109.45900123854517 23.003060631919652,109.6380038849602 23.0995250120759,109.6976714185439 24.20886538713239,109.81700646292302 24.546490718610585,109.93634147703415 24.642955098999664,110.11534394146292 24.546490718610585,110.59268351236824 24.49825852829963,112.86003984618583 24.49825852829963,114.29204873013077 24.59472290868871,115.24671889276942 24.546490718610585,118.2300506370375 24.642955098999664,119.18471279114601 24.642955098999664,120.49737008294323 24.49825852829963,120.97469909713254 24.160633196821436,121.2133634222555 23.871240055421367,121.2133634222555 23.147757202619687,120.79570077374228 21.604327115695924,119.72170939957141 20.929076452739537,118.88638107667794 19.819736077915877,117.81238533419673 18.517466942081228,115.78372000597301 17.793984089046717,113.63571186739136 17.601055328268558,112.56170411221683 17.263429996790364,111.3086919587804 16.877572475001216,106.77395335305482 16.877572475001216,105.9386019896483 16.92580466531217,105.9982699934335 16.250554002355784,103.43253897997783 16.00939305126667,100.98613123196992 15.719999910099432,96.63030051026726 15.768232100177556,94.36286578173167 16.057625241344795,92.39376884172088 16.154089621966705,91.73740135948174 16.491714953212067,91.14070285190246 16.732875904534012,89.70862333866535 16.974036855390295,87.3814848108741 17.793984089046717,85.11400540391332 18.32453818130307,84.15927395556355 18.758627893403172,83.68190750325448 19.33741417550482,83.08519875482307 19.867968267994,82.66750217974186 22.665435300208628,81.29506795853376 24.450026338221505,80.99671216195566 25.51113452273421,81.05638333642855 25.848759854212403,81.29506795853376 26.041688614990562,80.93704097994487 26.33108175639063,80.7580273882777 26.668707087635994,80.6983561757661 26.765171468257904,80.87736979030888 26.62047489732504,80.8176985932223 26.71693927817978,80.57901372815832 27.488654321292415,80.40000000002328 30.47905011451803,80.51934249309124 33.758839048678055,81.23539681432885 37.086860173149034,82.48848924809135 39.78786282497458,83.02552783821011 42.440633286722004,83.86091997972107 43.93583118310198,84.57696920316084 46.54036945430562,85.65104099042946 48.18026392185129,86.78478076585452 48.95197896519676,87.44115517372848 49.48253305745311,88.03785838431213 50.929498763754964,90.00697359757032 51.41182066593319,90.84235331349191 51.942374758189544,92.39376884172088 52.23176789935678,93.82584016263718 52.28000008966774,95.37724583002273 52.23176789935678,97.346330254426 51.9906069485005,99.79275697204866 51.652981617022306,100.92646259107278 51.07419533422217,103.7905488005199 50.736570002976805,105.10324913973454 50.543641242198646,105.87893397829612 50.35071248118766,106.17727395950351 50.013087149942294,106.41594580776291 49.530765247764066,106.59494961466407 46.25097631337121,106.65461753497948 44.70754622668028,107.07229276539874 43.64643804193474,107.1916284772451 41.138364150887355,106.83362125081476 40.318416917463765,107.07229276539874 40.221952537074685,107.1916284772451 40.221952537074685,107.90764211147325 40.75250662933104,109.87667397368932 40.89720319979824,110.59268351236824 40.84897100972012,111.07002259785077 40.4631134881638,112.0843665433058 40.17372034676373,113.45671074534766 40.029023776063696,114.65005026862491 39.93255939590745,118.11071773138246 40.125488156452775,119.90070813265629 40.125488156452775,121.27302948464057 39.98079158575274,123.24200528700021 39.93255939590745,123.48066845929134 39.73963063489646,123.60000000000582 35.73635884723626,123.12267365527805 34.53055409225635,122.82434444309911 30.044960402417928,122.46634913855814 28.597994696116075,122.16801950937952 27.970976223703474,122.10835356087773 26.81340365833603,121.81002370416536 24.884116049855947,121.75035771020339 24.015936626121402,121.45202762610279 23.38891815347597,121.15369735241984 22.27957777865231,120.31837157753762 21.314933974295855,119.48304431608994 20.6396833115723,118.82671471085632 19.24094979534857,116.4997205347172 18.372770371614024,115.24671889276942 17.793984089046717,114.11304785875836 17.93868065951392,113.45671074534766 17.649287518346682,112.20370098107378 17.649287518346682,111.18935729350778 17.74575189873576,110.9506878721586 17.74575189873576,110.41368123001303 17.890448469435796,109.6380038849602 18.710395703092217,109.57833634366398 19.675039507215843,109.6976714185439 20.398522360483184,109.45900123854517 20.591451121028513,108.50431930550258 20.88084426242858,108.2656485188636" stroke="#4dd2ff" stroke-linecap="round" stroke-linejoin="round" stroke-width="0.5"><title>2023-10-25 3.2km</title><desc>10389486356</desc></polyline><polyline fill="none" points="90.55756537639536,110.69419180817204 90.50926647800952,110.81369165738579 90.50926647800952,111.47094028495485 90.36436978308484,112.66593543539057 90.46096757985651,114.27917406967026 90.6541631729342,115.4144127528416 90.36436978308484,118.46161881991429 90.36436978308484,120.55282724066637 90.26777198631316,121.03081643057521 89.92967969831079,121.26981084331055 89.6398863082286,121.15031365212053 88.77050613821484,120.67232458363287 87.27324028988369,119.47734978617518 86.35556122171693,118.34212091486552 85.19638766162097,116.48989950263058 84.56850198353641,115.71315931910067 84.03721410152502,114.7571696388768 83.65082291490398,113.50243023311486 83.55422511836514,112.78543478337815 83.07123613520525,107.40793405042496 82.78144274535589,106.2129255332693 82.8297416435089,105.97392346520792 82.92633944004774,105.97392346520792 82.87804054189473,106.03367399354465 82.78144274535589,105.13741527035017 82.4916493552737,103.64364693377865 82.25015486357734,102.14987385060522 82.15355706680566,100.65609602007316 81.86376367672347,98.68430201520096 81.67056808364578,96.29423758678604 81.9120625751093,94.26267326730886 81.9120625751093,92.88837477797642 82.10525816865265,91.45431989658391 82.34675266034901,90.97630063042743 82.44335045688786,90.13976574476692 82.44335045688786,89.12397138244705 82.68484494858421,87.86916355101857 83.60252401675098,85.47904412838398 84.08551299991086,84.46323969357763 84.85829537338577,83.50718645504094 86.01746893324889,82.49137775864801 86.88684910326265,81.95359579526121 87.61133257811889,81.71458139171591 89.78478300315328,81.17679853949812 91.76503783464432,80.93778374101385 92.00653232634068,80.81827629634063 92.15142902126536,80.57926131528802 92.44122241134755,80.57926131528802 92.8759124961216,80.39999999999418 94.37317834468558,80.45975377946161 95.5323519045487,80.39999999999418 97.0779166512657,80.57926131528802 99.39626377099194,81.17679853949812 100.45883953408338,81.6548277719703 102.34249656903557,82.19261007703608 104.03295801067725,82.79014525015373 104.902338180691,83.02915910657612 105.91661504586227,83.14866598942899 107.31728309695609,83.68644658551784 108.47645665705204,83.98521331741358 110.98799937055446,84.8217591564462 112.48526521865278,85.53879726221203 113.83763437182643,86.49484636817942 115.28660132177174,87.86916355101857 116.15598149155267,89.00446601895965 117.46005174680613,91.03605306518148 117.94304072996601,92.4103569703002 118.23283411981538,93.84440893493593 118.32943191635422,95.33820841260604 118.28113301843405,96.65274802572094 117.74984513688833,101.07435429122415 117.1219594583381,103.10588917080895 116.59067157679237,105.73492127566715 116.30087818671018,106.39217700445442 115.8661881017033,106.69092930460465 115.23830242361873,106.57142840744928 113.45124318520539,106.75067974193371 112.63016191357747,106.69092930460465 110.69820598047227,106.98968141502701 106.39960402878933,106.87018059371621 106.20640843571164,106.92993100805325 106.01321284240112,107.16893258999335 105.96491394378245,107.4676843964844 106.01321284240112,108.06518743999186 106.54450072394684,109.79794197092997 106.64109852048568,110.87344157070038 106.447902927408,112.36718693267903 106.01321284240112,113.98042659217026 105.96491394378245,115.29491407316527 106.06151174078695,117.20688930214965 105.91661504586227,118.82011235272512 106.06151174078695,119.83584254430025 106.06151174078695,121.44905657309573 106.01321284240112,123.30125844597933 105.91661504586227,123.42075509022106 105.67512055393308,123.60000000000582 103.83976241736673,123.54025170428213 102.97038224735297,123.30125844597933 101.08672521263361,123.12201342231128 99.9758505509235,122.88301995114307 98.14049241435714,122.70377476818976 95.91874309116974,122.28553574194666 90.75076096970588,121.68805077340221 90.12287529162131,121.5088051345956 88.28751715482213,120.43332986722817 87.128343594959,119.47734978617518 86.64535461179912,118.82011235272512 86.25896342494525,118.1031250137894 84.7616975766141,115.95215643531992 84.13381189852953,114.87666845528292 83.94061630498618,114.27917406967026 83.94061630498618,113.38293106755009 83.55422511836514,112.18793773988727 83.65082291490398,111.17219102280797 83.74742071190849,110.93319147618604 83.60252401675098,110.45519201862044 83.60252401675098,109.7381919210311 83.69912181352265,109.61869179832865 84.27870859345421,109.43944155753707 85.19638766162097,109.31994135893183" stroke="#4dd2ff" stroke-linecap="round" stroke-linejoin="round" stroke-width="0.5"><title>2023-10-23 3.1km</title><desc>10389486351</desc></polyline><polyline fill="none" points="155.58649740112014,108.66491370133008 155.20170284807682,108.96243003202835 155.0093055712059,109.25994617343531 155.0093055712059,109.37895257712808 155.39410012448207,109.61696529368055 156.16368923103437,109.79547475159052 156.54848378454335,109.79547475159052 156.6927817419637,110.03348725641263 156.6927817419637,110.21199655550299 156.64468242274597,112.05658866095473 156.50038446532562,112.94913061888656 156.40418582689017,114.49619931465713 156.59658310352825,116.87629501719493 156.54848378454335,120.44641588220838 156.40418582689017,120.98193166364217 156.01939127384685,121.1604367880791 155.68269603932276,121.04143337937421 153.71062395372428,119.85139762877952 152.94103484717198,119.07787276856834 151.44995595305227,116.87629501719493 151.16136003821157,116.40027684468077 150.92086344235577,115.68624867836479 150.055075697368,113.96067611375474 149.67028114409186,112.59211403984227 149.62218182487413,110.80702706114971 148.85259271832183,106.22527265831013 148.85259271832183,105.86825095152017 148.94879135675728,105.8087473071646 148.85259271832183,104.8566879699647 148.51589748403057,103.48809928033734 148.41969884582795,101.52446504100226 147.98680497333407,98.66825507953763 147.89060633513145,96.22856193699408 148.08300361176953,94.44341255736072 148.32350020762533,93.07479342253646 148.41969884582795,91.23012651794124 148.51589748403057,90.81358782373718 148.66019544168375,89.32594660419272 148.996890675975,87.48126492620213 149.91077773994766,85.39855106829782 150.6803668467328,84.1489183055237 151.35375731484964,83.19681491368101 152.2676443788223,82.54224270838313 153.90302123036236,81.70914948688005 155.24980216706172,81.23309555157903 158.28005927428603,80.57852060010191 159.00154906185344,80.57852060010191 158.95344974240288,80.87605478259502 158.90535042341799,80.75704113213578 158.95344974240288,80.6975342958176 159.57874089176767,80.57852060010191 162.65709731797688,80.39999999999418 163.426686424762,80.45950687423465 164.29247416951694,80.8165479611489 166.60124148940668,81.41161583396024 169.29480336257257,82.78026907079038 172.6136563848704,83.37533444710425 176.02870804537088,84.44645021829638 178.2893760460429,85.45805730705615 179.20326311024837,86.23163772342377 180.16524949343875,86.8266987123061 181.0791365574114,87.77879472076893 182.37781817489304,89.32594660419272 183.33980455808342,91.05160998002975 183.67649979237467,91.82518115235143 183.82079774979502,92.36072967670043 184.10939366486855,94.50291764634312 184.01319502666593,98.66825507953763 183.82079774979502,100.27487532739178 183.0993079622276,103.1310754858132 182.42591749411076,105.0351992432843 182.08922226005234,106.40378340956522 181.94492430239916,106.70130117738154 181.75252702576108,106.82030823154491 181.0791365574114,106.58229409303749 178.0969787694048,106.52279053957318 177.47168762027286,106.70130117738154 176.41350259864703,107.17732921219431 175.88441008795053,107.23683268259629 174.20093391719274,106.87981174714514 172.3250604700297,106.76080470817396 172.03646455495618,106.87981174714514 172.3731597890146,108.24839052089374 172.99845093814656,109.91448101910646 173.09464957634918,110.74752404453466 172.99845093814656,111.40205681027146 172.3250604700297,113.1871415200585 172.0845638741739,114.85321444136207 172.3250604700297,116.6977882591309 172.27696115057915,117.23330832875217 172.03646455495618,118.00683623677469 171.892166597303,120.26791048562154 171.892166597303,123.00498575464007 171.84406727808528,123.42149580569821 171.74786863988265,123.54049860942177 171.3630740866065,123.60000000000582 166.31264557433315,122.70747834839858 165.01396395708434,122.70747834839858 161.83940889220685,122.05296138909762 159.33824429567903,121.8744566050591 156.40418582689017,121.39844351477223 155.73079535877332,121.21993848113925 154.09541850723326,120.08940502078622 152.74863757076673,118.72086086351192 151.16136003821157,116.28127222595504 150.19937365478836,114.97221942307078 150.00697637815028,114.31769164901925 150.00697637815028,113.24664422654314 149.57408250588924,111.69957140146289 149.62218182487413,111.46155974356225 149.86267842096277,110.74752404453466 149.91077773994766,109.91448101910646 150.10317501658574,109.31944937907974 150.63226752728224,109.14093973947456 152.2676443788223,109.20044296016567 152.41194233647548,109.14093973947456 152.60433961311355,108.66491370133008 153.0372334853746,108.0103771086142" stroke="#4dd2ff" stroke-linecap="round" stroke-linejoin="round" stroke-width="0.5"><title>2023-10-20 3.2km</title><desc>10389486346</desc></polyline><polyline fill="none" points="24.195323638850823,156.60293952963548 24.24362253700383,157.43944155753707 24.774910418782383,157.85769201320363 24.82320931716822,158.21619210773497 24.291921435389668,162.33892354232376 24.533415927086025,164.96789282391546 24.388519232161343,166.40186987121706 24.533415927086025,167.3578521393647 24.533415927086025,168.49307855777442 24.291921435389668,169.15031365212053 23.953829147154465,169.32955942756962 23.615736858919263,169.26981084331055 22.070172112202272,168.31383246343466 21.200791942421347,167.59684740268858 19.17223821231164,164.66914705504314 18.302858042530715,163.17541536319186 18.061363550601527,162.5779213575006 17.868167957523838,161.92067707379465 17.578374567441642,160.5464360571059 17.481776770669967,158.87344157070038 17.04708668589592,155.2286829664081 16.8538910925854,154.45192747953115 16.902189990738407,153.7946718345338 16.708994397427887,152.4801577870967 16.515798804117367,151.58389610162703 16.370902108959854,150.20962486503413 15.839614227414131,147.10256204090547 15.791315329261124,144.29423758678604 16.129407617496327,141.9639130680298 16.226005414268002,140.70911815727595 16.226005414268002,139.21531032424537 16.419201007578522,137.960508075892 16.515798804117367,136.52644426145707 16.757293296046555,135.57039928788436 17.674972364213318,133.24003151780926 18.157961347373202,132.34373314509867 18.930743720848113,131.44743306320743 20.18651507748291,130.37187070885557 22.408264400437474,129.23655222007073 24.82320931716822,128.69876882090466 25.547692792024463,128.7585225624207 25.83748618210666,128.93778374101385 25.78918728372082,129.29630589319277 25.83748618210666,129.29630589319277 25.740888385334983,129.47556686666212 25.78918728372082,129.7145813917159 25.885785080492496,129.11704485135851 26.2238773687277,128.81827629634063 26.56196965673007,128.69876882090466 28.252431098604575,128.39999999999418 31.198663896881044,128.57926131528802 34.19319559331052,129.23655222007073 35.15917355986312,129.7145813917159 37.13942839158699,130.4316242376226 40.37545457947999,131.2084194193303 44.28766534454189,132.40348642301979 45.784931192640215,133.06077197985724 46.70261026080698,133.53879726221203 48.24817500752397,134.73385834082728 50.32502763578668,137.00446601895965 51.00121221248992,138.08001319604227 51.87059238227084,139.7530816909566 52.16038577235304,141.18713566102087 52.208684670506045,142.1431692103797 52.015489077428356,144.59299630497117 52.06378797558136,145.19051317157573 52.06378797558136,145.9672839627019 51.87059238227084,148.0585835588281 51.629097890807316,149.25360772197018 50.61482102586888,153.1971659049741 49.98693534755148,154.45192747953115 49.697141957469285,154.69092930460465 49.40734856738709,154.7506797419337 47.28219704097137,154.69092930460465 45.784931192640215,154.51167794730281 44.28766534454189,155.04943181423005 43.225089580984786,155.2286829664081 41.34143254626542,154.8701805937162 40.327155681326985,154.989681415027 40.08566118963063,155.16893258999335 40.1822589864023,155.94568689205335 40.8101446647197,157.97719207504997 40.85844356287271,158.45519201862044 40.61694907117635,159.82943914915086 40.133960088016465,161.26343187133898 39.940764494473115,162.27917406967026 39.940764494473115,163.35466341674328 39.79586779954843,165.80437996640103 39.940764494473115,166.7603634496627 39.98906339309178,167.71634498873027 39.940764494473115,169.6880507734022 39.84416669793427,171.24151011221693 39.60267220647074,171.60000000000582 37.815612968057394,171.60000000000582 35.20747245824896,171.24151011221693 33.3721143216826,170.88301995114307 29.653099150164053,170.46478108441806 28.687121183611453,170.22578727919608 28.204132200451568,169.98679335255292 27.093257538508624,169.80754782774602 25.2578994021751,169.6880507734022 24.43681813054718,169.44905657309573 24.24362253700383,169.26981084331055 24.195323638850823,169.03081643057521 24.340220333775505,166.82011235272512 24.147024740464985,164.25090265957988 24.291921435389668,162.6376707921736 24.291921435389668,160.24768747837516 24.388519232161343,159.11244114741567 24.340220333775505,157.9174420478521 24.24362253700383,157.7381919210311 23.953829147154465,157.9174420478521 23.567437960533425,157.79794197092997 23.325943468837067,157.31994135893183 23.08444897737354,157.08094087071368" stroke="#4dd2ff" stroke-linecap="round" stroke-linejoin="round" stroke-width="0.5"><title>2023-10-19 3.1km</title><desc>10389486342</desc></polyline><polyline fill="none" points="88.62560944305733,157.08094087071368 88.48071274789982,157.43944155753707 88.57731054467149,157.67844186353614 90.41266868123785,158.03694209453533 90.6541631729342,158.45519201862044 90.6541631729342,159.41119044780498 90.46096757962368,160.90493410098134 90.55756537616253,161.68167892485508 90.46096757962368,162.39867300755577 90.60586427454837,164.191153430118 90.6541631729342,167.17860561222187 90.55756537616253,168.9113191787328 90.46096757962368,169.15031365212053 90.26777198631316,169.32955942756962 89.6881852063816,169.26981084331055 88.62560944305733,168.67232458363287 87.08004469657317,167.41760096655344 86.16236562794074,166.22262297946145 84.32700749160722,163.29491407316527 83.65082291490398,161.32318147324258 83.55422511813231,160.72568511310965 83.07123613497242,155.5871850658732 82.8780405416619,155.04943181423005 82.68484494835138,153.1971659049741 82.49164935504086,151.8826501867734 82.2501548633445,148.95485196600202 82.05695927003399,148.17808611184591 81.96036147326231,146.80380491763935 81.96036147326231,145.25026481656823 81.81546477833763,144.4734928404214 81.96036147326231,143.0992008151661 82.05695927003399,140.948126969859 82.29845376173034,139.4543198965839 82.4433504564222,136.9447133259673 82.78144274489023,135.45089352942887 83.40932842320763,133.89731590484735 84.37530638999306,132.28397985934862 85.14808876323514,131.44743306320743 86.93514800141566,130.13285651803017 88.9154028329067,129.23655222007073 91.66844003763981,128.51950755118742 91.95823342795484,128.63901507205446 92.10313012287952,128.87803002243163 92.00653232610784,129.53532050937065 91.909934529569,129.53532050937065 91.909934529569,129.7145813917159 91.86163563118316,129.59507414433756 91.909934529569,129.53532050937065 91.76503783441149,129.47556686666212 91.66844003763981,129.23655222007073 91.76503783441149,128.99753745197086 92.05483122449368,128.69876882090466 92.63441800419241,128.51950755118742 94.85616732784547,128.51950755118742 96.45003097271547,128.39999999999418 96.93301995587535,128.51950755118742 97.46430783742107,128.57926131528802 99.6860571608413,129.17679853949812 101.18332300893962,129.6548277719703 102.68058885727078,130.31211717243423 103.88806131551974,130.67063827632228 105.86831614701077,131.08891255175695 108.33155996189453,132.10471995698754 110.60160818346776,132.70225269935327 111.85737954010256,133.24003151780926 113.88593326997943,134.55459937264095 115.47979691484943,136.10817482467974 116.01108479662798,136.8252079169033 116.34917708486319,137.12397138244705 116.73556827148423,137.90075550414622 117.26685615326278,138.61778586171567 117.65324733988382,139.51407227074378 117.84644293296151,140.52986146789044 118.18453522142954,141.18713566102087 118.18453522142954,141.9639130680298 118.0879374248907,144.11498226466938 117.84644293296151,146.74405347029096 117.79814403504133,148.8951007919677 117.65324733988382,149.67186546130688 117.36345395003445,150.26937587192515 117.31515505141579,150.86688552299165 116.73556827148423,153.25691653206013 116.20428038970567,154.57142840744928 115.91448699985631,154.7506797419337 115.23830242315307,154.69092930460465 112.77505860826932,154.69092930460465 109.58733131852932,155.2286829664081 108.81454894528724,155.2286829664081 107.60707648703828,155.04943181423005 106.25470733386464,154.989681415027 106.01321284193546,155.04943181423005 105.82001724862494,155.2286829664081 105.82001724862494,155.40793405042496 106.01321284193546,155.76643601321848 106.73769631702453,158.1564421110379 106.30300623201765,159.70993955811718 106.06151174055412,162.45842246504617 105.82001724862494,164.43015030323295 105.77171835047193,165.50563472919748 105.96491394401528,166.52136776116095 106.01321284193546,168.43332986722817 105.91661504539661,171.24151011221693 105.77171835047193,171.60000000000582 103.88806131551974,171.54025170428213 100.41054063569754,171.0622650657897 99.63775826245546,170.88301995114307 97.41600893903524,170.64402635855367 92.92421139427461,169.86729634349467 90.9922554611694,169.74779930434306 90.07457639300264,169.5088051345956 89.30179401976056,169.03081643057521 88.77050613798201,168.61257591590402 87.90112596796826,168.07483756460715 86.74195240810513,166.99935901662684 86.0657678314019,166.16287400040892 85.00319206831045,164.13140419271076 84.47190418676473,163.4144127528416 83.98891520313919,162.45842246504617 83.8440185082145,161.92067707379465 83.94061630498618,161.1439326450054" stroke="#4dd2ff" stroke-linecap="round" stroke-linejoin="round" stroke-width="0.5"><title>2023-10-17 3.1km</title><desc>10389486303</desc></polyline><polyline fill="none" points="154.77050471049733,157.49919164530002 155.92967841774225,157.49919164530002 156.41266746236943,157.55894172552507 156.60586308036,157.67844186341972 156.7507597936783,157.97719207490445 156.65416198479943,159.41119044760126 156.50926527148113,160.12818799368688 156.4609663670417,161.20368226183928 156.36436855793,161.92067707382375 156.60586308036,164.31065188185312 156.65416198479943,167.11885675464873 156.50926527148113,168.9113191787328 156.41266746236943,169.2100622515427 156.17117294017226,169.32955942762783 155.68818389554508,169.26981084342697 155.1085970418062,168.9113191787328 153.70792881189846,167.83584254432935 152.93514634063467,167.11885675464873 152.50045620044693,166.52136776107363 151.67937482427806,165.14714019393432 150.95489125722088,164.2509026596672 150.42360330815427,163.23516472190386 150.18210878572427,162.57792135735508 149.9889131677337,161.44268065399956 149.7957175502088,160.90493410098134 149.6025219319854,159.47094028483843 149.69911974086426,157.97719207490445 149.31272850511596,156.78219008928863 148.92633726960048,155.10918220577878 148.92633726960048,153.73492127560894 148.63654384273104,151.64364693374955 148.15355479810387,149.55236328777391 147.9603591801133,148.2378373768879 147.815462466795,146.62455055242754 147.76716356235556,144.23448582019773 147.9603591801133,142.62118525564438 148.39504932053387,140.29085244238377 148.29845151142217,139.33481512538856 148.39504932053387,138.1995182860701 148.63654384273104,137.24347671525902 148.92633726960048,135.57039928770973 150.08551097661257,133.24003151760553 151.00319016189314,131.80595330090728 151.7276737287175,131.029159106547 152.6936518184375,130.252363628475 153.9977222387679,129.59507414445397 154.52901018806733,129.4158132163575 157.04055322054774,128.93778374089743 158.53781925910152,128.5195075510419 159.69699296634644,128.4597537793452 161.1459601004608,128.40000000002328 163.56090532429516,128.69876882096287 165.396263693925,129.23655222009984 166.99012754159048,129.65482777179568 167.71461110841483,129.95359579508658 169.16357824276201,130.43162423747708 171.96491470211186,131.14866598931258 173.65537635819055,131.86570664742612 174.91114787454717,132.16447326517664 176.74650624464266,132.70225269912044 178.29207118763588,133.41929098698893 179.5478427039925,134.31558730872348 181.5763966916129,136.28743320034118 182.92876601684839,138.1995182860701 183.55665177479386,139.39456751474063 183.8464452016633,140.58961370488396 184.0879397240933,142.08341717036092 184.2328364374116,145.48927131996606 183.94304301054217,148.2975886343338 183.460053965915,150.32912687098724 183.21855944371782,151.64364693374955 182.92876601684839,152.65940991902607 182.15598354535177,154.45192747953115 181.9627879273612,154.6311788596213 181.67299450049177,154.7506797417591 180.32062517525628,154.45192747953115 179.2097503724508,154.6311788596213 178.19547337852418,154.6311788596213 175.63563144160435,155.10918220577878 174.2832621166017,154.92993100802414 173.0757895046845,154.92993100802414 172.5445015556179,154.81043017152115 172.35130593786016,154.87018059345428 172.25470812874846,154.98968141482328 172.20640922430903,155.64693538917345 172.35130593786016,156.78219008928863 172.73769717337564,158.03694209456444 172.73769717337564,158.8136916573858 172.15811031963676,161.74142847344046 171.86831689276733,164.01190569528262 171.9166157974396,165.62513284690795 172.15811031963676,166.52136776107363 172.20640922430903,167.29810330457985 172.06151251099072,168.9113191787328 172.01321360631846,170.4647810845927 171.86831689276733,171.18176177112036 171.62682237057015,171.54025170445675 171.14383332594298,171.60000000000582 168.24589905771427,171.00251670190482 162.0153403810691,170.16603880896582 160.46977543784305,170.0465418457461 158.6344170679804,169.688050773344 157.1371510294266,169.688050773344 156.7507597936783,169.62830223480705 156.4609663670417,169.38930800414528 156.26777074905112,169.09056504518958 156.4609663670417,168.49307855777442 156.55756417592056,167.7760937702551 156.17117294017226,165.02764195462805 156.41266746236943,163.41441275272518 156.4609663670417,161.26343187133898 156.70246088900603,159.82943914897623 156.4609663670417,157.8576920129999 156.36436855793,157.7381919209147 156.2194718446117,157.7381919209147" stroke="#4dd2ff" stroke-linecap="round" stroke-linejoin="round" stroke-width="0.5"><title>2023-10-13 3.0km</title><desc>10389482249</desc></polyline><polyline fill="none" points="22.76880897535011,205.438455767493 22.76880897535011,205.6764684538939 22.91310693300329,205.79547475159052 24.16368923103437,206.03348725641263 24.500384465325624,205.97398414145573 24.6927817419637,206.27149963998818 24.500384465325624,207.40205681027146 24.40418582689017,209.72266560583375 24.40418582689017,211.09122437468613 24.644682422745973,212.7572905192792 24.6927817419637,216.6844229719427 24.54848378454335,217.0414333793742 24.25988786946982,217.21993848113925 23.87509331619367,217.1604367880791 23.538398081902415,216.98193166364217 21.71062395372428,215.73239388715592 21.0372334853746,215.07787276856834 20.315743698272854,214.12584041676018 18.58416820806451,211.32923418693827 18.05507569736801,210.02017872198485 17.622181824874133,208.41360564835486 17.622181824874133,206.98553606527275 17.429784548468888,205.438455767493 17.38168522901833,203.59385334560648 17.044989994959906,201.9872582172975 16.948791356757283,202.0467618390103 17.044989994959906,202.0467618390103 16.804493399336934,200.73768041658332 16.756394079886377,199.19057947036345 16.32350020762533,196.57239699029014 15.986804973334074,192.28806679917034 16.083003611769527,191.6930178379116 16.131102930754423,189.72935089928797 16.371599526843056,187.46814846253255 16.61209612269886,186.21853190325783 16.660195441683754,185.38545234384947 16.85259271832183,183.9573125068855 17.285486590815708,182.52916831252514 17.718380463309586,181.6365759782493 18.439870250876993,180.50595657827216 19.209459357429296,179.55385391245363 20.604339613113552,178.54224270838313 22.287815783638507,177.82816289487528 25.269973571877927,176.99506840240792 26.03956267843023,176.6975342958176 27.09774770005606,176.6975342958176 29.79130957322195,176.39999999999418 31.089991190470755,176.6975342958176 32.38867280818522,177.11408199209836 34.216446936130524,177.53062931777094 38.44918702263385,178.8992822066357 40.276961150579154,179.31582794355927 41.38324549142271,179.8513862034888 44.02870804537088,180.80348826403497 45.71218421612866,181.27953856810927 47.25136242923327,182.1721315830364 49.175335195614025,183.9573125068855 50.47401681332849,185.50446380028734 51.24360591988079,186.93259891690104 51.67649979237467,188.36072967670043 52.013195026665926,189.96737157308962 51.96509570721537,193.2401435636857 51.38790387730114,197.46496084466344 50.810712047154084,199.84512280253693 50.47401681332849,201.86825095152017 50.18542089825496,202.40378340956522 49.848725663963705,202.70130117738154 49.51203043013811,202.76080470817396 48.0690508550033,202.70130117738154 47.20326311024837,202.8203082315449 46.337475365260616,202.76080470817396 45.134992386214435,202.9393152553821 44.26920464122668,202.9393152553821 43.114820981398225,203.1773292121943 42.20093391719274,203.11782573437085 41.14274889556691,203.2368326825963 40.51745774643496,203.1773292121943 40.18076251237653,203.35583960055374 40.132663193158805,203.8318669698201 40.132663193158805,204.36739718168974 40.421259108232334,205.2599461734353 40.70985502307303,206.74752404453466 40.661755703855306,207.22354796502623 40.276961150579154,208.65161682185135 39.988365235505626,210.73420942929806 39.65167000168003,212.0432628976414 39.747868639882654,213.23330832875217 39.988365235505626,214.66135885295807 40.03646455495618,215.73239388715592 39.988365235505626,219.12398866412695 39.94026591675356,219.4214958056982 39.79596795910038,219.60000000000582 39.603570682462305,219.60000000000582 39.26687544817105,219.48099721141625 38.5934849800542,219.30249297176488 35.948022425873205,218.8859828147688 31.28238846734166,218.35046921126195 28.8774225092493,217.9339582072571 27.53064157254994,217.8744566050591 26.809151785215363,217.6959517529176 25.702867444138974,217.57694848044775 24.885179018601775,217.33894184438395 24.6927817419637,217.0414333793742 24.596583103528246,216.7439247253642 24.54848378454335,215.9704013398732 24.644682422745973,214.66135885295807 24.356086507672444,213.1143039217859 24.596583103528246,210.85321444136207 24.452285146107897,210.19868650086573 24.596583103528246,209.06813608462107 24.500384465325624,208.47310845306492 24.596583103528246,207.8185771847493 24.452285146107897,207.10454203028348 24.40418582689017,205.91448101910646 24.25988786946982,205.6764684538939 23.923192635178566,205.6764684538939" stroke="#4dd2ff" stroke-linecap="round" stroke-linejoin="round" stroke-width="0.5"><title>2023-10-08 3.0km</title><desc>10389482199</desc></polyline><polyline fill="none" points="89.28147027688101,203.64046051935293 90.59097390808165,204.36045136646135 90.83347458089702,205.14044021145673 90.6879741770681,205.74043075350346 90.39697337034158,206.34042053311714 90.4939736390952,206.40041946902056 90.29997310135514,207.78039289225126 90.34847323596478,210.6603244326834 90.4454735047184,212.04028540235595 90.2514729667455,214.6202016113093 90.39697337034158,216.54013010431663 90.29997310135514,217.14010615687585 90.0574724287726,217.50009142243653 89.52397094923072,217.38009636444622 88.60246839397587,216.84011822580942 88.06896691466682,216.42013480211608 87.00196395581588,215.40017350338167 86.32296207267791,214.50020582121215 84.52845709654503,211.86029072210658 84.04345575161278,210.9603162909334 83.5099542720709,208.74037202476757 83.315953734098,205.6804317336646 82.97645279276185,204.2404529681953 83.02495292713866,204.18045375772635 82.97645279276185,203.2204653515073 82.83095238916576,202.50047276570695 82.92795265838504,201.9604776056076 82.20045064087026,197.5204939787218 81.90944983367808,194.40048049853067 81.81244956492446,192.4204612468311 82.00645010313019,190.80043931736145 82.15195050626062,187.6203801005613 82.4429513134528,186.24034773613675 82.63695185119286,183.540272744518 83.9464554823935,180.96018665388692 84.77095776889473,179.82014412092394 86.0804614003282,178.68009883441846 87.72946597309783,177.72005856249598 88.84496906632558,177.24003769416595 91.60947673255578,176.6400109224196 94.76198547473177,176.39999999999418 95.92598870256916,176.39999999999418 98.20549502363428,176.88002172266715 102.9585082042031,178.50009143224452 106.3535176187288,179.10011583924643 108.14802259486169,180.12015558086568 111.30053133703768,181.14019311778247 113.43453725473955,182.34023445667117 114.5985404823441,183.3002653309086 116.49004572769627,185.5203292486549 116.97504707262851,186.24034773613675 117.5085485521704,187.50037744644214 118.1390503004659,189.96042575739557 118.09055016632192,192.66046402271604 118.18755043507554,193.32047102725483 118.04205003171228,194.10047811534605 117.79954935936257,196.3204912346846 117.16904761060141,198.8404934736318 116.82954666949809,200.88048543213517 116.49004572769627,202.20047553087352 116.39304545894265,202.44047333401977 116.19904492073692,202.68047101522097 115.95654424838722,202.80046980991028 114.93804142391309,202.6204716062639 113.0950363134034,202.80046980991028 112.17353375768289,202.80046980991028 110.7670298574958,203.0404673080193 109.31202582269907,203.10046666359995 108.29352299822494,202.9204685742152 106.59601829131134,202.9204685742152 106.30501748435199,202.98046794504626 106.20801721513271,203.2204653515073 106.1595170807559,203.64046051935293 106.25651734950952,204.2404529681953 106.79001882928424,205.92042776750168 107.03251950163394,207.24040377221536 107.08101963601075,208.50037742467248 106.93551923241466,209.400356545666 106.45051788771525,210.9603162909334 106.25651734950952,212.40027455688687 106.30501748435199,213.7202324422542 106.40201775310561,213.7202324422542 106.59601829131134,214.50020582121215 106.01401667715982,218.88003239719546 105.9170164084062,219.2400163357379 105.67451573559083,219.60000000000582 105.28651465964504,219.60000000000582 100.58200161391869,218.94002973928582 96.75049098907039,218.58004557195818 93.8404829192441,218.04006880588713 91.36697606020607,217.80007893400034 91.17297552200034,217.38009636444622 91.12447538762353,215.1601822892262 90.97897498426028,212.52027088101022 91.12447538762353,211.74029423037427 91.31847592559643,209.04036510322476 91.26997579121962,208.08038658092846 91.17297552200034,207.78039289225126 90.83347458089702,207.24040377221536 90.34847323596478,205.92042776750168 89.96047215978615,206.10042471272754 89.57247108384036,206.10042471272754" stroke="#4dd2ff" stroke-linecap="round" stroke-linejoin="round" stroke-width="0.5"><title>2023-10-03 3.0km</title><desc>10389482190</desc></polyline><polyline fill="none" points="154.70658631040715,205.5993262155971 154.80331790517084,205.89849026565207 156.15756023209542,206.07798860457842 156.49612081376836,206.31731961632613 156.3510234216228,207.27464244732982 156.49612081376836,208.65079060569406 156.39938921900466,210.38592820166377 156.49612081376836,217.08708921368816 156.4477550163865,217.38624596319278 156.20592602947727,217.50590860971715 155.81899965042248,217.4460772901657 155.48043906851672,217.2665832861676 154.02946514706127,216.18961782488623 152.77195441513322,214.99298664485104 150.64385933009908,211.7022352150234 150.30529874842614,211.1039143014932 149.82164077437483,209.72777331469115 149.53144599008374,208.65079060569406 149.53144599008374,207.15497719994164 149.0961538136471,203.1461738330545 148.85432482673787,202.36834235931747 148.85432482673787,202.00934278403292 148.9026906241197,201.8298428937851 148.85432482673787,201.17167604371207 148.37066685291938,197.64149268809706 148.0804720686283,194.230951420177 147.83864308171906,192.43591977425967 148.0804720686283,190.52121180691756 148.0804720686283,189.68352462197072 148.37066685291938,186.8712781686918 148.56413004244678,186.09341980022145 148.51576424506493,185.25572473512148 148.70922743459232,184.23852158035152 149.2896170031745,182.50328759552212 150.402030342957,180.46886719056056 151.32098049321212,179.21230901809759 152.33666223846376,178.43443799213856 153.78763616015203,177.65656568051782 154.9484152973164,177.23771082641906 156.6412182059139,176.75901910828543 157.99546053260565,176.5795095883368 159.0595080750063,176.5795095883368 160.46211619931273,176.39999999999418 162.15491910791025,176.45983653698931 164.13791680079885,176.81885559955845 165.2986959379632,177.17787438817322 166.45947507512756,177.47705650300486 169.21632552635856,178.49427427051705 172.5535655459389,179.1524728309596 174.10127106215805,179.93034267029725 175.31041599670425,180.28935908566928 178.30909543507732,181.5459143826738 179.51824036962353,182.32378026642255 180.63065370940603,183.2213162271073 181.5012380622793,184.1786860321008 182.178359225858,184.9565475648851 183.14567517326213,186.75160773430252 183.62933314731345,188.00814577951678 184.01625952636823,189.56385490242974 184.11299112136476,191.71790519927163 184.16135691851377,192.01707807197818 184.16135691851377,192.73509219067637 183.96789372898638,193.51293958319002 183.774430539459,195.48746949911583 183.4842357551679,197.46199113223702 182.51691980753094,201.59050960026798 182.22672502300702,202.4281755950651 182.03326183347963,202.60767525740084 181.54960385966115,202.78717485102243 177.48687687935308,202.60767525740084 175.35878179431893,203.2658400995715 174.48819744144566,203.32567322146497 173.18232091190293,203.1461738330545 172.50519974855706,202.90684120877995 172.36010235641152,202.90684120877995 172.21500496426597,203.08634068834363 172.31173655902967,204.4625010913296 172.7470287354663,206.0181558324839 172.84376033023,207.21480982736102 172.79539453284815,207.75330313271843 171.77971278782934,211.5227390206419 171.68298119306564,212.0612273979059 171.77971278782934,213.61685702731484 172.02154177450575,215.71096571796807 171.8764443823602,217.98455889162142 171.8764443823602,219.12135136060533 171.82807858497836,219.42050681717228 171.68298119306564,219.5401689465798 171.44115220592357,219.60000000000582 170.18364147399552,219.4803378857905 168.49083856563084,219.12135136060533 162.49347968958318,218.46320868679322 159.0595080750063,217.86489636663464 158.2372895195149,217.86489636663464 156.88304719282314,217.62557122576982 156.49612081376836,217.4460772901657 156.25429182685912,217.02725784105132 156.30265762400813,216.12978633822058 156.10919443448074,213.19803417124785 156.15756023209542,212.18089139816584 156.4477550163865,210.26626374517218 156.49612081376836,207.87296822783537 156.39938921900466,206.55665050676907 156.25429182685912,205.77882466855226 155.96409704256803,205.9583230529388 155.57717066351324,205.89849026565207" stroke="#4dd2ff" stroke-linecap="round" stroke-linejoin="round" stroke-width="0.5"><title>2023-10-01 3.0km</title><desc>10389482184</desc></polyline><polyline fill="none" points="22.465193832991645,250.71702076221118 22.659464252647012,251.67834537860472 23.145140301901847,252.0989242834621 23.242275511613116,252.39933755778475 23.485113536240533,252.63966803986114 23.87365437555127,252.94008097067126 23.922221980523318,253.48082376466482 24.262195214862004,253.72115369696985 24.310762819834054,254.14173078432214 24.262195214862004,256.1845284566225 24.55360084422864,260.5705053982092 24.359330424806103,261.95238011324545 24.359330424806103,265.01652268038015 24.310762819834054,265.25684674762306 24.067924795206636,265.43708971785964 23.533681141212583,265.377008735406 22.562329042935744,264.8362795498397 20.911030475981534,263.39433203081717 20.3282192167826,262.673356621759 19.45400232844986,261.29148401433486 17.85127136623487,258.46764481958235 17.414162921952084,256.84543169569224 17.074189687613398,252.51950281410245 16.87991926795803,251.07751772238407 16.637081243563443,250.29644062771695 16.588513638591394,248.73428256611805 16.345675613963977,247.83303518223693 16.297108008991927,246.7515360530815 16.05426998459734,245.36961689818418 15.811431959969923,242.72593421366764 15.762864354997873,240.44274181409855 15.859999564709142,238.8204668276885 16.588513638591394,231.36994723559474 18.239812205545604,228.36567223776365 18.774055859539658,227.70472917551524 20.133948797360063,226.4429262173071 21.396706525003538,225.60172237380175 22.416626228252426,225.18111989056342 25.864926177076995,224.40000000002328 30.47884864360094,224.40000000002328 31.644471161765978,224.5802585509955 33.441472543403506,225.06094768372714 35.7241499745287,225.96223849011585 37.42401614622213,226.32275433145696 38.686773873865604,226.74335579873878 40.14380202139728,226.98369932628702 40.77518088533543,227.1639568916289 41.74653298337944,227.70472917551524 45.14626532769762,228.84635752055328 47.42894275835715,229.98798310829443 48.69170048600063,230.9493498854281 50.34299905318767,233.05233289310127 51.16864833654836,234.3742031371512 51.65432438603602,235.45573058736045 52.04286522511393,237.01793253500364 52.18856804003008,238.3397916885151 52.237135644769296,240.5629101099621 51.99429762014188,241.64442339914967 51.70289199077524,244.16794478378142 51.12008073157631,246.99186940668733 50.78010749747045,248.31370066746604 50.537269472843036,248.79436566392542 50.14872863376513,249.21494713486754 49.51734976959415,249.33511320094112 45.68050898145884,249.03469797907746 43.10642592119984,249.27503017164418 40.58091046568006,249.0947810386424 40.435207650996745,249.15486409055302 40.19236962636933,249.63552823176724 40.14380202139728,251.1976833147055 40.240937231108546,252.39933755778475 40.53234286070801,253.72115369696985 40.58091046568006,254.56230749731185 40.386640046024695,257.50633401074447 39.94953160174191,259.12854486657307 39.99809920671396,259.66928058138 40.386640046024695,260.810831725772 40.28950483631343,261.4717284965154 40.386640046024695,261.83221725493786 40.28950483631343,262.55319394692197 40.435207650996745,263.03384446378914 39.99809920671396,264.95644164449186 39.80382878682576,266.6987885850831 39.65812597214244,267.0592733572703 39.463855552719906,267.299596385943 38.24966542981565,267.6000000000058 37.56971896113828,267.6000000000058 34.315689431969076,266.8790310056356 30.67311906325631,266.51854609599104 26.884845880325884,265.85765638112207 25.42781773279421,265.79757545216125 25.039276893483475,265.6173326194112 24.990709288511425,265.3169277452398 25.087844498222694,263.7548193229595 24.990709288511425,260.87091328852694 25.087844498222694,259.42895367348683 24.990709288511425,258.7680540464935 24.747871263884008,258.58780853339704 24.407898029545322,258.5277266803023 24.310762819834054,258.34748107535415 24.262195214862004,257.80674384869053 24.359330424806103,256.2446106073912 24.310762819834054,254.68247220359626 24.165060004917905,253.6610712253605 24.019357190234587,253.6610712253605" stroke="#4dd2ff" stroke-linecap="round" stroke-linejoin="round" stroke-width="0.5"><title>2023-09-30 3.0km</title><desc>10389482196</desc></polyline></svg>