<?xml version="1.0" encoding="utf-8" ?>
<svg baseProfile="full" height="300mm" version="1.1" viewBox="0,0,200,300" width="200mm" xmlns="http://www.w3.org/2000/svg" xmlns:ev="http://www.w3.org/2001/xml-events" xmlns:xlink="http://www.w3.org/1999/xlink"><defs /><rect fill="#222222" height="300" width="200" x="0" y="0" /><text fill="#FFFFFF" style="font-size:12px; font-family:Arial; font-weight:bold;" x="10" y="20">My All Runs</text><text fill="#FFFFFF" style="font-size:4px; font-family:Arial" x="10" y="280">ATHLETE</text><text fill="#FFFFFF" style="font-size:9px; font-family:Arial" x="10" y="290">Ryan</text><text fill="#FFFFFF" style="font-size:4px; font-family:Arial" x="120" y="280">STATISTICS</text><text fill="#FFFFFF" style="font-size:3px; font-family:Arial" x="120" y="285">Number: 26</text><text fill="#FFFFFF" style="font-size:3px; font-family:Arial" x="120" y="290">Weekly: 2.6</text><text fill="#FFFFFF" style="font-size:3px; font-family:Arial" x="141" y="285">Total: 65.4 km</text><text fill="#FFFFFF" style="font-size:3px; font-family:Arial" x="141" y="290">Avg: 2.5 km</text><text fill="#FFFFFF" style="font-size:3px; font-family:Arial" x="167" y="285">Min: 0.5 km</text><text fill="#FFFFFF" style="font-size:3px; font-family:Arial" x="167" y="290">Max: 3.6 km</text><polyline fill="none" points="23.587804056704044,62.0869680729229 20.741226026788354,59.26958966371603 16.47135898284614,57.15655397600494 15.332727773115039,56.10003552841954 16.186701180413365,52.93047776585445 15.90204337798059,50.81743724225089 16.186701180413365,47.64787343540229 17.040674589574337,46.59135136054829 22.733830647543073,43.77395719150081 24.157119661569595,41.30873494129628 17.040674589574337,43.42178271734156 16.75601678714156,42.013084379490465 21.02588382922113,40.60438532428816 27.573013296350837,39.900035528000444 39.813298819586635,37.082634553080425 41.23658783361316,34.969581940211356 41.23658783361316,33.56087930314243 36.966720789670944,33.208703531650826 27.003697691485286,36.02610844769515 35.54343177564442,32.504351855488494 39.813298819586635,31.800000000046566 41.23658783361316,32.15217595058493 41.80590344034135,33.913055029697716 41.52124563604593,39.900035528000444 42.09056124277413,40.60438532428816 39.813298819586635,48.000047370325774 35.54343177564442,49.05656890873797 28.71164450608194,50.113090043189004 20.45656822435558,48.000047370325774 17.89464799873531,48.000047370325774 17.325332392007113,48.70439510792494 16.75601678714156,56.804381204303354 19.887252617627382,59.26958966371603 23.018488448113203,59.973934535169974 25.580408675596118,62.0869680729229 25.580408675596118,63.495656203245744 19.31793701276183,61.03045150474645 15.90204337798059,59.26958966371603 15.332727773115039,56.804381204303354 15.90204337798059,52.93047776585445 17.325332392007113,51.16961077530868 19.887252617627382,50.81743724225089 21.31054163351655,50.113090043189004 23.587804056704044,44.12613161909394 23.303146252408624,42.717433638405055 23.018488448113203,42.717433638405055 23.303146252408624,41.660909683443606 32.696853747591376,38.1391602542717 38.39000980369747,36.73045922978781 40.667272228747606,36.73045922978781 41.80590344034135,38.843510498525575 41.80590344034135,40.9565601546783 40.95193003118038,42.36525903083384 41.23658783361316,43.06960820034146 40.667272228747606,43.42178271734156 41.23658783361316,44.83048033993691 37.53603639639914,52.22613110393286 33.5508271548897,53.634824248729274 33.26616935431957,55.39568967232481 33.83548495918512,57.86089938459918 33.26616935431957,60.32610690384172 29.850275717675686,64.19999999995343 26.14972428046167,63.143484238302335 26.43438208475709,64.19999999995343 27.003697691485286,64.19999999995343 29.280960112810135,63.8478281237185 30.988906929269433,62.43914017314091 32.127538142725825,59.973934535169974 30.988906929269433,57.86089938459918 28.426986703649163,55.74786262284033 27.288355492055416,51.16961077530868 27.573013296350837,45.53482888219878 28.426986703649163,43.42178271734156 28.426986703649163,40.60438532428816 30.704249126836658,38.843510498525575 39.813298819586635,35.67393299029209 40.667272228747606,33.913055029697716 40.95193003118038,32.85652771615423 39.528641015291214,32.15217595058493 33.26616935431957,33.913055029697716 27.573013296350837,36.37828386109322 25.580408675596118,36.37828386109322 19.31793701276183,37.43480983143672 17.325332392007113,39.54786056326702 17.040674589574337,41.660909683443606 17.325332392007113,42.013084379490465 20.171910421922803,40.25221044779755 23.87246185913682,40.25221044779755 25.011093068867922,40.60438532428816 25.580408675596118,48.35222126170993 18.46396360360086,52.93047776585445 15.90204337798059,56.10003552841954 13.909438759088516,56.452208388829604 22.449172843247652,59.621762121561915 24.157119661569595,61.03045150474645 24.157119661569595,62.0869680729229" stroke="#4dd2ff" stroke-linecap="round" stroke-linejoin="round" stroke-width="0.5"><title>2023-12-14 1.2km</title><desc>10376798012</desc></polyline><polyline fill="none" points="80.19999999995343,39.11172947706655 79.72552301269025,39.782551043550484 79.58995815902017,40.62107704259688 78.84435146441683,41.54345441045007 78.09874477004632,42.13042115478311 77.75983263575472,43.47205746668624 77.55648535583168,45.149099019530695 77.62426778231747,46.490729192388244 77.75983263575472,48.08391147881048 77.96317991637625,48.41931778565049 77.89539748965763,48.67087240406545 78.03096234309487,48.50316933565773 78.23430962325074,48.75472392217489 77.89539748965763,49.59323851700174 77.89539748965763,51.01871088240296 77.69205020926893,52.36032911849907 77.75983263575472,53.53424283704953 77.62426778231747,56.30131690890994 77.35313807544298,56.720569543889724 76.81087866099551,56.88827052299166 68.20251046027988,56.049765200237744 66.30460251052864,55.79821339540649 64.00000000023283,55.29510949837277 61.89874476986006,55.04355740605388 59.933054393390194,54.70815446675988 57.9673640166875,54.70815446675988 57.086192468646914,54.45660215074895 55.93389121349901,53.95349723054096 52.34142259415239,51.18641331110848 51.86694560665637,50.599454624112695 48.7489539750386,45.73606255592313 48.07112970715389,43.97517038026126 48.20669456082396,42.968944169348106 47.800000000046566,41.459601975628175 47.800000000046566,40.95648714364506 47.93556485371664,40.78878211451229 48.410041840747,40.78878211451229 49.155648535816,42.13042115478311 49.3589958162047,42.29812584311003 49.49456066964194,42.214273504388984 49.42677824269049,41.04033964232076 49.69790795003064,40.70492958382238 49.90125523041934,40.70492958382238 50.24016736401245,41.627306834445335 50.375732217682526,41.71115924784681 50.375732217682526,40.78878211451229 50.57907949807122,40.36951935465913 52.34142259415239,40.117961571144406 52.81589958164841,40.117961571144406 53.29037656914443,40.285666770883836" stroke="#4dd2ff" stroke-linecap="round" stroke-linejoin="round" stroke-width="0.5"><title>2023-11-26 1.0km</title><desc>10341818959</desc></polyline><polyline fill="none" points="92.37182205216959,54.35898250399623 91.57267960067838,53.81974075231119 92.58976999367587,54.04442491545342 86.37825366482139,40.563122363062575 86.81414954736829,39.170025125087705 86.77782489056699,37.95667789623258 86.92312351823784,37.012960505555384 86.99577283207327,36.83320452651242 87.35901940101758,36.29393604086363 87.97653856803663,35.12551816616906 88.55773307848722,34.36155054459232 88.99362896103412,33.86721767441486 89.75644675572403,33.193126282742014 90.59191386424936,32.7437313075643 91.3547316591721,32.38421491603367 92.22652342449874,32.249396174942376 93.20728916069493,31.97975853845128 94.8418987209443,31.800000000017462 96.47650828096084,31.800000000017462 99.0918835774064,32.15951698567369 102.47007666854188,33.283005209377734 103.74143965984695,33.55264185165288 104.46793279773556,33.777338896441506 105.08545196475461,34.046975161734736 106.61108755460009,34.40648986227461 107.91877520270646,34.855882723553805 108.71791765419766,35.21539660121198 109.880306674866,35.9344232599251 110.93372172489762,36.87814352978603 112.45935731427744,38.63076020425069 113.0405518244952,39.709289223275846 113.22217510920018,40.29349106809241 113.58542167791165,41.86633738994715 113.62174633494578,42.85498006778653 113.58542167791165,44.47275303083006 113.44012305047363,46.45002104318701 113.25849976576865,47.07914945509401 113.22217510920018,47.57346385048004 112.53200662788004,50.00008813018212 112.05978608853184,51.30326836882159 111.98713677469641,51.438079843559535 111.73286417638883,51.572891266754596 111.33329295064323,51.572891266754596 109.04483956634067,51.3931426909694 107.99142451630905,51.842513958894415 107.70082726120017,51.88745105435373 105.01280265115201,51.70770263852319 104.79485470964573,51.797576857876265 104.61323142540641,52.11213644556119 104.54058211157098,52.56150679971324 104.57690676837228,53.010876582528 104.90382868051529,54.44885604942101 105.04912730795331,55.43746354000177 104.90382868051529,56.471004778839415 104.46793279773556,57.95390649620094 104.39528348390013,58.94250418563024 104.39528348390013,59.7513547843846 104.2863095132634,60.02097123945714 104.39528348390013,63.03167435343494 104.32263417029753,63.97532229087665 104.24998485622928,64.20000000001164 104.10468622879125,64.20000000001164 102.97862186515704,64.15506446969812 100.98076573596336,63.840515596821206 99.60042877402157,63.70570885142661 98.58333838102408,63.481030828203075 97.09402744844556,63.391159578895895 93.31626313156448,62.7171244812198 92.88036724878475,62.44751008221647 92.7713932779152,62.17789547762368 92.7350686211139,60.73994744764059 92.44447136600502,59.167185093072476 92.6987439643126,58.13365173630882 92.7713932779152,56.515941285935696 92.6624193075113,55.527336811152054 92.62609465047717,53.86467759642983 92.51712067984045,53.59505644638557" stroke="#4dd2ff" stroke-linecap="round" stroke-linejoin="round" stroke-width="0.5"><title>2023-11-19 2.2km</title><desc>10341819005</desc></polyline><polyline fill="none" points="126.04989255033433,51.89099524830817 126.12096474622376,51.187610316468636 126.19203694211319,50.044606751180254 126.12096474622376,49.51706537010614 126.19203694211319,49.121408806182444 126.15650084428489,48.11028441981762 126.26310913823545,47.758588288212195 126.19203694211319,47.36292971242801 126.26310913823545,46.351800184871536 126.22757304040715,44.94500635928125 126.26310913823545,44.02179480128689 126.15650084428489,43.53820681106299 126.12096474622376,42.61499149777228 126.12096474622376,41.559885264519835 126.19203694211319,40.944405141839525 126.12096474622376,39.97721987904515 126.29864523652941,39.22984759588144 126.54739792272449,38.65832652486279 126.61847011861391,38.26265753785265 126.51186182466336,37.03168446093332 126.61847011861391,36.41619627940236 126.36971743265167,35.712779873254476 126.4407896285411,34.96539837421733 126.51186182466336,34.65765258160536 126.7250784127973,34.52576144368504 126.76061451085843,34.39387025561882 126.86722280504182,33.866305000148714 126.86722280504182,33.29477506506373 127.00936719728634,32.67928023257991 127.1159754912369,32.76720813274733 127.04490329511464,32.415496397501556 127.15151158929802,32.15171236125752 127.89776964811608,31.931892177381087 130.20761602022685,31.800000000017462 131.2381628633011,31.887928123760503 132.62407068675384,32.23964039568091 134.82730876468122,32.94306386625976 135.53803072543815,33.29477506506373 136.0355360978283,33.426666672341526 137.84787709778175,33.8223411924555 141.68577568558976,35.18521662984858 143.07168350880966,35.97656119323801 144.27991084195673,37.03168446093332 145.52367427316494,38.70228971767938 146.1633240377996,39.97721987904515 146.41207672422752,40.72459054688807 146.62529331236146,42.043476020975504 146.58975721430033,42.65895418750006 146.48314892011695,43.23046864717617 146.51868501817808,44.197644811763894 146.34100452810526,46.30783796450123 145.84349915548228,48.37405628390843 145.13277719495818,50.79195566364797 145.06170499883592,51.89099524830817 144.70634401845746,53.29776082036551 144.5997357245069,54.00114146064152 144.6352718223352,54.220947617373895 144.74188011628576,54.440753634349676 145.310457685031,54.7924429710547 145.38152988115326,54.9243263801327 145.41706597921439,55.31997630553087 145.310457685031,56.02335283331922 145.09724109689705,56.1991967416252 143.00061131292023,56.550884290307295 142.07667276402935,56.5069233662216 141.2238064110279,56.24315770485555 140.6552288425155,56.24315770485555 139.5891459013801,56.90257148136152 139.4114654113073,57.166336639842484 139.34039321541786,57.43010159727419 139.26932101906277,57.8257486562361 139.34039321541786,58.045552382274764 139.51807370549068,58.35327736416366 139.9445068819914,58.704962722287746 140.61969274445437,59.10060832303134 140.9395176267717,59.36437180530629 141.0461259209551,59.58417455354356 141.0461259209551,59.76001665156218 140.90398152871057,60.46338414971251 140.6907649403438,60.946948474942474 140.44201225414872,61.0788295371749 139.76682639168575,60.815067362302216 138.02555758785456,59.76001665156218 137.56358831352554,59.58417455354356 137.42144392151386,59.62813508632826 137.35037172515877,59.71605613545398 137.35037172515877,60.06774010803201 137.5280522154644,63.276839838625165 137.42144392151386,64.06812012771843 137.35037172515877,64.20000000001164 136.95947464671917,64.1560400481394 135.92892780387774,63.54060013621347 135.040525353048,63.18891969480319 134.15212290221825,63.10099952854216 133.5480092356447,63.10099952854216 131.16709066717885,62.66139836231014 130.49190480448306,62.66139836231014 129.56796625559218,62.57347806196776 128.03991404012777,62.22179663722636 126.61847011861391,62.22179663722636 126.15650084428489,61.95803533392609 126.0143564522732,61.73823409428587 125.97882035421208,61.25467087543802 126.08542864816263,59.76001665156218 126.0143564522732,58.48515941534424 126.12096474622376,57.29821914364584 126.04989255033433,54.220947617373895 126.08542864816263,53.69341260657529 126.0143564522732,53.429644799325615 125.83667596196756,53.60549002647167 125.4457788837608,53.561528728023404 125.37470668763854,53.429644799325615 125.4457788837608,53.07795407692902" stroke="#4dd2ff" stroke-linecap="round" stroke-linejoin="round" stroke-width="0.5"><title>2023-11-08 2.5km</title><desc>10341819064</desc></polyline><polyline fill="none" points="163.34212475200184,52.5524103550124 163.37819923227653,52.82017537590582 163.59464611345902,52.86480285949074 164.17183779668994,53.35570480491151 164.56865707878023,53.4449596303748 164.71295499964617,53.57884182603448 164.82117844023742,53.71272397055873 164.96547636110336,54.06974277299014 164.82117844023742,54.91766097405343 164.8933274007868,55.36393288895488 164.82117844023742,55.988712616759585 164.82117844023742,57.46140329062473 165.00155084137805,59.20184794117813 165.00155084137805,61.210042586841155 164.92940188082866,62.2364487478917 164.8572529205121,62.414953860949026 164.67688051937148,62.548832636122825 164.2800612372812,62.45958012499614 163.70286955405027,62.10256985362503 163.08960339054465,61.65630650377716 162.29596482613124,60.853031044767704 160.38401737553068,58.0861792860087 160.05934705375694,57.3275225754187 159.7346767319832,56.21184796435409 159.6986022517085,55.05154260803829 159.48215537052602,52.5524103550124 159.37393192993477,51.749114067235496 159.19355952902697,51.34746523411013 159.26570848934352,51.0350713795342 159.01318712788634,49.83012105108355 158.8688892070204,47.955745653569466 158.61636784579605,47.018554202251835 158.43599544488825,46.081360249139834 158.29169752378948,43.84993600539747 158.36384648433886,42.86810484493617 158.6885168061126,40.27962771488819 158.83281472697854,39.78870748527697 158.8688892070204,38.4498306431924 159.01318712788634,37.69113149936311 159.1214105684776,37.24483711956418 159.48215537052602,36.75391264623613 160.31186841521412,34.834837663918734 161.03335801907815,34.03150083555374 161.86307106376626,33.36205207425519 163.12567787081935,32.647971988481004 163.81109299440868,32.42482166382251 165.75911492528394,32.20167119734106 166.44453004933894,31.978520588978427 167.5267644552514,31.800000000017462 169.4026374258101,31.889260305906646 170.12412702967413,32.067780849232804 170.70131871290505,32.067780849232804 171.49495727731846,32.24630130204605 174.9220328964293,33.4513119829935 178.8180767581798,34.6116887293756 180.2610559661407,35.14724593417486 181.19899245142005,35.59354298067046 182.20907789701596,36.26298748652334 183.03879094170406,36.932430715998635 184.4096211893484,38.53908925820724 184.95073839230463,39.43167416003416 185.3836321546696,40.50277304672636 185.6361535161268,41.752384284336586 185.70830247644335,42.46644585157628 185.6361535161268,44.07307906789356 185.3836321546696,46.929297743045026 185.23933423380367,47.732605058758054 184.48177014966495,50.454910626489436 184.12102534761652,51.34746523411013 183.97672742698342,51.481348229630385 183.7963550258428,51.57060353143606 182.20907789701596,51.5259758833854 180.80217316909693,51.615231173957 180.00853460491635,51.92762451226008 179.2509705205448,52.061507286533015 177.62761891144328,51.88299690943677 177.1586506688036,52.01687970076455 176.68968242616393,51.97225210929173 176.54538450576365,52.061507286533015 176.54538450576365,52.24001757262158 176.65360794612207,52.77554788658745 177.12257618876174,54.24825203814544 177.1586506688036,54.96228819098906 177.0143527481705,55.94408553018002 176.58145898557268,57.68453770229826 176.3650121043902,58.800207633699756 176.32893762434833,59.871247432573 176.43716106493957,60.49601913974038 176.40108658466488,60.986910415638704 176.50931002525613,61.43317461607512 176.50931002525613,62.325701315683546 176.40108658466488,63.88761758079636 176.32893762434833,64.11074790859129 176.0042673025746,64.15537395706633 175.46315009938553,64.06612185429549 175.03025633702055,64.20000000001164 174.59736257465556,64.20000000001164 171.0259890346788,63.66448711109115 169.3665629455354,63.53060876132804 167.5628389355261,63.08434722662787 166.01163628697395,62.90584245379432 165.68696596496738,62.816590033471584 165.39837012346834,62.593458883144194 165.10977428173646,62.638085124635836 165.00155084137805,62.593458883144194 164.8572529205121,62.37032759113936 164.78510395996273,62.14719615734066 164.82117844023742,60.853031044767704 164.71295499964617,59.60348778904881 164.92940188082866,57.7737914272584 164.8933274007868,56.970507085556164 164.92940188082866,54.114370097842766 164.82117844023742,53.80197870521806 164.74902947968803,53.84660606397665 164.78510395996273,53.93586076461361 164.78510395996273,53.89123341717641 164.74902947968803,53.84660606397665 164.2439867570065,53.89123341717641" stroke="#4dd2ff" stroke-linecap="round" stroke-linejoin="round" stroke-width="0.5"><title>2023-11-03 3.1km</title><desc>10389486333</desc></polyline><polyline fill="none" points="19.63071952946484,93.97719508592854 19.594645044766366,94.42346921301214 19.84716643835418,94.6466060639359 20.207911286037415,94.78048810630571 20.749028557911515,94.73586076445645 20.965475466568023,94.91437009783112 20.78510304260999,95.31601576553658 20.92940098186955,95.4498975527531 20.965475466568023,95.76228819097742 20.85725201223977,96.92259384220233 20.893326496938244,101.69765750740771 20.78510304260999,102.72406458167825 20.71295407298021,102.94719615738722 20.604730618884787,103.03644874788006 20.280060255900025,102.99182245548582 19.486421590205282,102.63481191181927 18.945304318564013,102.2331746162381 18.29596359236166,101.60840457648737 16.74476074660197,99.3770739309548 16.05934553546831,98.12752257531974 15.842898627044633,97.32423721280065 15.698600687785074,96.03005137381842 14.97711099195294,90.5854931815702 14.724589598597959,89.55905062059173 14.724589598597959,88.84500185158686 14.363844750681892,86.34581972382148 14.327770265983418,84.78382185977534 14.399919235613197,84.20364945448819 14.363844750681892,83.53421856465866 14.688515113899484,81.25814399155206 14.832813052693382,80.67796575979446 14.796738568227738,80.18704496871214 14.868887537624687,79.29445995340939 15.1214089312125,77.95557817528606 16.05934553546831,75.9918756641564 16.420090383617207,75.50094832005561 17.646622866159305,74.38520180311752 18.909229833632708,73.58186211515567 19.666794014396146,73.31408181064762 21.93948655598797,72.77852058885037 22.624901766655967,72.82315072178608 23.634987340774387,72.64463015578804 24.89759430848062,72.60000000000582 27.350659274030477,73.04630130188889 28.649340726202354,73.58186211515567 31.932118841679767,74.519091572467 35.68386525963433,75.72409719805 36.51357840956189,76.08113510749536 37.55973846837878,76.6166912910412 38.209079194581136,77.06298748633708 39.291313738329336,78.04483711937792 39.904579979600385,78.80353722759173 40.55392070556991,79.91926970233908 41.0589634925127,80.85648224095348 41.455782825592905,81.83832126433845 41.6000807643868,82.46312648608 41.67222973401658,83.35570344523876 41.527931794989854,84.64993600512389 41.63615524931811,85.54250740454881 41.49185731005855,87.14913020518725 41.20326143177226,88.35409248061478 40.914665553718805,89.15739836668945 40.73429312952794,89.78219056304079 40.62606967519969,90.7640046250308 40.12102688825689,92.14746523392387 39.94065446453169,92.32597588317003 39.57990961661562,92.41523117377074 36.874323257477954,92.28134822944412 35.93638665298931,92.45985881064553 34.13266241387464,92.41523117377074 32.79790647677146,92.63836930089747 32.617534052580595,92.8168797006656 32.58145956788212,93.12927268163185 32.617534052580595,93.53092039149487 32.94220441556536,94.6019787050318 33.12257683975622,95.31601576553658 32.40108714415692,99.02005971164908 32.43716162862256,100.58199424081249 32.545385082950816,101.51915162295336 32.47323611355387,103.12570131573011 32.40108714415692,103.61659003348905 32.40108714415692,104.41986100020586 32.32893817429431,104.95537395720021 30.849884298164397,105.0 29.40690490650013,104.82149579445831 27.422808243427426,104.41986100020586 26.268424730282277,104.285982633417 25.871605397667736,104.3306087612873 25.186190186766908,104.15210421555093 23.454614917049184,103.97359957892331 20.568656133953482,103.25958012513001 19.738942984025925,102.8579435441934 18.656708440277725,102.05466900407919 17.971293229376897,101.25139262608718 17.574473896762356,100.62662083949544 16.74476074660197,99.5109541695274 16.239717959659174,98.52916456756066 15.915047596441582,97.54737222011317 15.698600687785074,96.29781435264158 15.59037723345682,94.82511544242152 15.265706870472059,92.54911406716565 15.265706870472059,92.05820987533662 15.410004809498787,91.83507137937704 15.59037723345682,91.79044366322341 17.394101472804323,92.05820987533662 19.197825712151825,91.92432679486228 20.207911286037415,91.96895449401927 20.821177527541295,92.10283755749697 20.92940098186955,92.23672057001386 20.92940098186955,92.50448644167045 20.78510304260999,94.46809659458813 20.604730618884787,94.6019787050318 20.280060255900025,94.55735134059796 20.207911286037415,94.46809659458813 20.207911286037415,94.15570480487077 20.09968783170916,93.97719508592854 19.919315407751128,93.8433127371245" stroke="#4dd2ff" stroke-linecap="round" stroke-linejoin="round" stroke-width="0.5"><title>2023-11-02 3.4km</title><desc>10389486352</desc></polyline><polyline fill="none" points="57.181174975819886,93.58873794559622 57.072652561590075,93.54398717021104 56.964130147593096,93.27548239880707 56.964130147593096,92.24621221108828 56.92795600928366,92.11195935599972 56.747085319133475,92.0224574241438 56.747085319133475,91.88820448389743 56.89178187120706,90.09816038713325 56.71091118082404,89.42689150435035 56.67473704298027,88.17385283205658 56.71091118082404,88.03959842416225 56.78325945721008,88.17385283205658 56.78325945721008,87.68158641914488 56.92795600928366,87.59208336102893 56.855607733363286,87.68158641914488 56.92795600928366,87.72633793976274 56.81943359528668,87.77108945453074 56.60238876682706,87.68158641914488 56.67473704298027,87.68158641914488 56.747085319133475,87.3235740501259 56.855607733363286,85.13074034589226 56.81943359528668,84.54896584604285 56.89178187120706,83.83293437262182 56.78325945721008,82.75888443176518 56.855607733363286,81.81908804539125 56.855607733363286,80.92404153567622 56.964130147593096,80.7450319606287 57.14500083774328,80.02899275018717 57.181174975819886,79.04443645774154 57.289697390049696,78.32839378828066 57.32587152789347,76.67253953684121 57.6876129086595,75.32994929101551 57.6876129086595,74.03210718597984 57.79613532265648,73.98735392457456 57.75996118481271,73.76358753247769 57.83230946096592,73.62932762879063 57.75996118481271,73.49506767402636 57.723787046503276,73.53982099791756 57.6876129086595,73.36080766792293 57.75996118481271,73.13704087745282 57.94083187519573,73.00278073491063 58.3025732554961,72.82376713183476 59.06223015487194,72.77901371676126 59.17075256910175,72.68950686982134 59.60484222578816,72.60000000000582 61.77529050922021,72.68950686982134 63.80104224081151,73.27130096883047 65.10331121087074,73.8083408222301 68.90159570705146,74.79291175899561 69.9506457108073,75.24044309253804 71.46995950932615,75.55371468752855 72.44666123692878,75.95649204295478 73.89362675952725,76.76204537131707 74.65328365867026,77.38858557445928 75.19589572958648,77.92561914667021 76.17259745718911,79.1339416889823 76.60668711387552,79.76047767073032 77.43869228917174,81.37156507498003 77.51104056555778,81.72958349692635 77.58338884147815,82.44561924840673 77.54721470340155,84.54896584604285 77.25782159902155,86.1600313364761 77.18547332286835,88.17385283205658 77.07695090863854,88.80037272567279 76.64286125195213,90.5456722646195 76.17259745718911,91.84345349229989 75.95555262872949,92.15671031331294 75.7746819385793,92.29096315134666 75.41294055781327,92.38046501486679 74.00214917352423,92.33571408590069 72.80840261746198,92.15671031331294 71.72317847586237,92.33571408590069 70.56560605787672,92.46996685571503 69.11864053551108,92.38046501486679 68.68455087882467,92.46996685571503 68.50368018844165,92.73847224141355 68.57602846459486,93.94674394346657 68.90159570705146,95.02075975303887 68.97394398320466,95.51301590411458 68.35898363613524,99.18254006881034 68.32280949805863,100.52503935378627 68.43133191252127,101.06203763440135 68.50368018844165,102.0465323550452 68.39515777421184,104.37350893337862 68.35898363613524,104.73150396507117 68.28663536021486,104.91050134447869 68.03341639367864,105.0 65.46505259140395,104.6867546060821 62.751992237055674,104.19451128115179 61.91998706175946,104.10501242088503 60.9794594720006,103.92601463201572 58.80901118856855,103.6575177781342 57.289697390049696,103.56801878142869 56.92795600928366,103.47851976187667 56.56621462875046,103.34427118982421 55.336293934611604,102.62827794146142 54.6851594496984,102.13603173862793 53.9978508267086,101.3752862533147 52.15296978550032,98.55603865065495 51.75505426665768,97.52678390048095 51.53800943843089,96.58702693559462 51.53800943843089,95.91577042485005 51.574183576507494,95.33401374696405 51.465661162277684,94.34950025609578 51.42948702420108,93.14122993627097 51.21244219597429,91.7539514923701 51.14009391982108,91.79870249517262 51.06774564366788,90.99318357315497 50.88687495351769,90.32191639690427 50.81452667713165,89.7401504755253 50.416611158521846,84.54896584604285 50.416611158521846,83.69867830927251 50.525133572751656,82.40086705659633 50.70600426313467,81.19255572749535 50.633655986981466,80.87928915035445 50.597481849137694,80.78978436280158 50.525133572751656,80.78978436280158 50.48895943467505,80.65552713890793 50.70600426313467,79.8947352359537 50.88687495351769,78.55215727892937 51.10391978174448,77.65710246295203 51.39331288612448,77.20957420160994 51.75505426665768,76.31451597204432 52.18914392357692,75.55371468752855 52.876452546799555,74.74815859424416 53.59993530763313,74.21112017464475 55.010726692387834,73.49506767402636 56.421518076444045,73.18179424700793 56.81943359528668,73.18179424700793 57.03647842351347,73.27130096883047 57.181174975819886,73.4503143443435 57.289697390049696,73.8083408222301 57.289697390049696,74.88241807109443 57.21734911366366,76.0907510589168 57.289697390049696,78.23888835223624 57.14500083774328,80.2080026892072 57.14500083774328,80.92404153567622 57.03647842351347,81.55057433145703 57.00030428543687,82.26661044708453 57.25352325197309,84.0119423775468 57.21734911366366,86.24953475876828 57.32587152789347,87.05506453441922 57.32587152789347,88.17385283205658 57.289697390049696,88.75562134172651 57.00030428543687,90.63517457176931 56.855607733363286,91.08268576665432 56.855607733363286,92.33571408590069 56.747085319133475,93.40973481009132 56.71091118082404,94.30474957739352 56.60238876682706,94.52850291368668 56.27682152437046,94.61800420840154" stroke="#4dd2ff" stroke-linecap="round" stroke-linejoin="round" stroke-width="0.5"><title>2023-10-27 3.6km</title><desc>10389486363</desc></polyline><polyline fill="none" points="98.55428271042183,104.6560611425084 99.61076842225157,105.0 99.7775819557719,103.48666739155306 99.72197744459845,101.56060158764012 99.72197744459845,101.07908406550996 99.88879097788595,100.9415075519355 99.72197744459845,99.9784709776286 99.8331864667125,98.46512432669988 99.61076842225157,97.02056221204111 99.66637293319218,95.43841832864564 99.61076842225157,94.6817391840741 99.7775819557719,94.20021554123377 100.0,94.06263727886835 100.0,93.78748064918909 99.8331864667125,91.24227519205306 99.94439548905939,90.14164209750015 99.7775819557719,89.04100676462986 99.8331864667125,87.80278933909722 100.05560451117344,86.49577898281859 100.16681353352033,84.84481402055826 99.94439548905939,83.60658699361375 100.3892315782141,82.4371477550012 100.61164962267503,80.57979788794182 100.66725413361564,77.75936552864732 100.61164962267503,74.31979397538817 100.66725413361564,73.76946049788967 100.88967217854224,73.49429354944732 101.05648571182974,73.49429354944732 101.05648571182974,73.35671002260642 101.11209022277035,73.42550179030513 101.22329924511723,73.28791824600194 101.33450826746412,72.87516740342835 101.55692631192505,73.01275105262175 101.11209022277035,72.59999999997672 101.16769473394379,73.35671002260642 100.83406766713597,73.97583561763167 100.27802255610004,76.86507902806625 100.44483608938754,78.72244164563017 100.27802255610004,81.81803184107412 100.3892315782141,83.40021554677514 100.33362706680782,84.08812006306835 100.44483608938754,84.63844304619124 100.22241804469377,86.49577898281859 100.33362706680782,87.59641949267825 100.22241804469377,92.06774854386458 100.05560451117344,94.26900465926155 100.16681353352033,95.09447339415783 100.16681353352033,96.60782947094413 99.94439548905939,97.983604050125 99.94439548905939,99.15300969255622 100.05560451117344,99.49695204780437 99.72197744459845,102.86757555929944 99.72197744459845,104.51848553819582 99.5551639108453,104.86242448317353 99.38835037779063,104.79363671177998 99.16593233309686,103.28030352620408 98.99911879980937,103.07393958215835 98.44307368807495,102.72999950050144" stroke="#4dd2ff" stroke-linecap="round" stroke-linejoin="round" stroke-width="0.5"><title>2023-10-26 1.1km</title><desc>10389486339</desc></polyline><polyline fill="none" points="127.78846961632371,94.39425092888996 127.75229547382332,94.52850291368668 127.82464375905693,94.57325356383808 128.6566490402911,94.66275484717335 128.9098680387251,94.75225610774942 128.98221632419154,94.88650795607828 128.9098680387251,95.24451263426454 128.87369389622472,96.9450298846059 128.87369389622472,98.01903654760099 128.94604218145832,98.73503916955087 128.9098680387251,100.97253797776648 128.98221632419154,101.68853459335514 128.98221632419154,102.67302756218123 128.87369389622472,103.03102432284504 128.62047489755787,103.21002256669453 128.4034300413914,103.21002256669453 127.86081790179014,102.89677558024414 126.70324533665553,102.09128204971785 126.19680733955465,101.46478580747498 125.36480205832049,100.65928900064318 124.3881002063863,99.13779000448994 123.84548806678504,97.52678390051005 123.700791496085,96.72127808415098 123.44757249741815,95.78151896907366 123.15817935625091,92.38046501477947 123.15817935625091,91.75395149222459 123.19435349898413,91.7987024950562 122.68791550165042,89.87440423495718 122.50704478821717,88.03959842395852 122.28999993251637,84.77272538270336 122.32617407501675,83.07214933630894 122.54321893095039,81.59532663132995 122.61556721641682,81.10305101959966 122.86878621485084,80.65552713893703 123.0496569282841,79.58146750400192 123.23052764148451,77.83611360815121 123.84548806678504,76.13550405291608 124.2434036359191,75.41945546664647 124.56897092005238,75.06143062742194 125.00306063168682,74.61389906614204 125.40097620105371,74.30062663479475 127.49907647515647,73.27130096888868 128.8375197534915,73.04753412140417 129.63335089199245,73.09228750230977 129.8865698906593,73.27130096888868 130.0312664611265,73.00278073493973 130.24831131729297,72.8685205412039 130.501530315727,72.82376713180565 130.57387860119343,72.95802734271274 130.46535617299378,72.9132739448687 130.5377044584602,72.73426029612892 131.11649074102752,72.60000000000582 133.35928758583032,72.68950686982134 135.81912928656675,73.22654761077138 138.31514512980357,74.16636693605687 140.34089711867273,74.56914587866049 142.3304749650415,75.19568998477189 143.4518733874429,75.73272690235171 145.40527709084563,76.5382807427668 146.63519794144668,77.38858557440108 147.21398422378115,77.88086638026289 147.6118997929152,78.32839378822246 148.69712407281622,79.805230198137 149.05886549921706,80.43176498514367 149.45678106858395,81.59532663132995 149.6738259245176,82.66938012195169 149.7100000672508,83.8329343725054 149.6738259245176,85.30974769080058 149.49295521131717,87.14456772906124 149.2397362126503,87.99484694335843 148.8056465005502,90.14291160038556 148.5524275021162,91.12743685478927 148.40773093141615,91.70920048374683 148.26303436094895,91.93295546961599 148.0098153622821,92.1119593558833 147.64807393564843,92.24621221100097 145.18823223514482,92.29096315123024 144.0306596700102,92.60421957398648 143.23482853127643,92.69372135793674 141.3537731131073,92.42521593809943 140.73881268803962,92.60421957398648 140.66646440257318,92.69372135793674 140.66646440257318,93.23073158357874 141.06437997194007,94.7075054802408 141.1729023999069,95.24451263426454 141.13672825717367,95.60251694844919 140.84733511600643,96.36327490746044 140.6302902600728,97.3925330589991 140.52176783210598,98.28753770148614 140.44941954687238,100.88303829851793 140.59411611733958,102.22553109948058 140.59411611733958,103.25477211354882 140.48559368937276,104.73150396524579 140.44941954687238,104.91050134444959 140.30472297617234,105.0 137.302269135369,104.64200524141779 136.39791556913406,104.41825833232724 133.03372030192986,104.14976185391424 131.94849602202885,103.92601463201572 131.4782321676612,103.88126517063938 130.6100527436938,103.6575177781342 129.16308703739196,103.61276828261907 128.51195246959105,103.38902071956545 128.04168861499056,103.16527301431051 127.20968333398923,102.53877868314157 126.48620048072189,101.9122832370922 125.97976248362102,101.42003603317426 124.93071234645322,99.67479040104081 124.27957777865231,98.73503916955087 123.84548806678504,97.88478589404258 123.95401049475186,97.3925330589991 123.73696563858539,96.45277573578642 123.73696563858539,95.69201797011192 123.80931392405182,95.51301590411458 123.80931392405182,95.11026092249085 123.91783635201864,94.52850291368668 124.53279677731916,94.48375225774362 125.25627963035367,94.57325356383808 125.7988917704206,94.39425092888996 125.9435883408878,93.67823947910802 126.16063319682144,93.4992363891215" stroke="#4dd2ff" stroke-linecap="round" stroke-linejoin="round" stroke-width="0.5"><title>2023-10-25 3.2km</title><desc>10389486356</desc></polyline><polyline fill="none" points="164.91817403235473,95.32064385616104 164.88194985873997,95.4102687430277 164.88194985873997,95.90320521377726 164.77327733743005,96.79945157654583 164.8457256848924,98.00938055224833 164.99062237981707,98.86080956464866 164.77327733743005,101.14621411493863 164.77327733743005,102.71462043048814 164.70082898973487,103.07311232291977 164.4472597737331,103.25235813250765 164.22991473111324,103.16273523907876 163.57787960371934,102.80424343768391 162.45493021747097,101.90801233964157 161.76667091646232,101.05659068617388 160.89729074621573,99.66742462696857 160.42637648782693,99.08486948927748 160.02791057620198,98.36787722914596 159.7381171863526,97.42682267483906 159.66566883889027,96.88907608753652 159.30342710134573,92.85595053780708 159.0860820589587,91.95969414996216 159.1223062328063,91.78044259891612 159.19475458026864,91.78044259891612 159.15853040642105,91.82525549517595 159.0860820589587,91.15306145275827 158.86873701657169,90.0327352003369 158.68761614779942,88.9124053879641 158.61516780010425,87.79207201505778 158.39782275771722,86.3132265113818 158.25292606279254,84.52067819007789 158.4340469315648,82.99700495047728 158.4340469315648,81.96628108347068 158.5789436264895,80.89073992244084 158.76006449526176,80.53222547276528 158.8325128427241,79.90482430861448 158.8325128427241,79.1429785368382 159.01363371149637,78.20187266325229 159.70189301250502,76.40928309632 160.06413475004956,75.64742977017886 160.64372152998112,74.93038984129089 161.51310169999488,74.16853331896709 162.1651368276216,73.76519684639061 162.70849943370558,73.58593604378984 164.33858725242317,73.18259890461923 165.82377837621607,73.00333780574147 166.0048992447555,72.91370722220745 166.11357176606543,72.73444598645438 166.33091680845246,72.73444598645438 166.6569343721494,72.60000000000582 167.77988375839777,72.64481533458456 168.64926392841153,72.60000000000582 169.80843748850748,72.73444598645438 171.54719782830216,73.18259890461923 172.34412965062074,73.54112082897336 173.7568724269513,73.94445755777997 175.02471850812435,74.39260893763276 175.67675363551825,74.57186932992772 176.4374612844549,74.66149949206738 177.48796232277527,75.06483493914129 178.35734249302186,75.28890998804127 180.24099952797405,75.91631936733029 181.3639489139896,76.4540979466401 182.37822577892803,77.17113477611565 183.4649509913288,78.20187266325229 184.1169861187227,79.05334951422992 185.0950388100464,80.5770397988963 185.45728054759093,81.60776772774989 185.67462558997795,82.6833067011903 185.7470739374403,83.80365630946471 185.71084976382554,84.78956101927906 185.31238385266624,88.10576571844285 184.84146959381178,89.62941687810235 184.4430036826525,91.601190956746 184.22565864003263,92.094132753351 183.89964107633568,92.31819697844912 183.42872681771405,92.22857130560442 182.08843238907866,92.36300980643136 181.47262143529952,92.31819697844912 180.0236544853542,92.54226106125861 176.79970302176662,92.4526354452828 176.65480632684194,92.49744825603557 176.50990963191725,92.67669944249792 176.47368545806967,92.90076329736621 176.50990963191725,93.34889057997498 176.90837554307655,94.64845647820039 176.98082389030606,95.45508117802092 176.8359271956142,96.57539019949036 176.50990963191725,97.78531994414516 176.47368545806967,98.77118555488414 176.54613380576484,100.20516697660787 176.4374612844549,101.4150842645904 176.54613380576484,102.17688190826448 176.54613380576484,103.38679242978105 176.50990963191725,104.77594383448013 176.4374612844549,104.86556631766143 176.2563404154498,105.0 174.87982181296684,104.95518877819995 174.22778668557294,104.77594383448013 172.8150439094752,104.64151006672182 171.9818879130762,104.46226496336749 170.60536931082606,104.32783107613795 168.9390573182609,104.01415180644835 165.0630707272794,103.56603808002546 164.59215646865778,103.43160385094234 163.2156378661748,102.62499740038766 162.34625769616105,101.90801233964157 161.98401595884934,101.4150842645904 161.69422256876715,100.87734376036678 160.57127318251878,99.26411732647102 160.10035892389715,98.45750134144328 159.95546222873963,98.00938055224833 159.95546222873963,97.33719830069458 159.66566883889027,96.44095330490381 159.7381171863526,95.67914326710161 159.81056553404778,95.49989360722248 159.70189301250502,95.14139401394641 159.70189301250502,94.60364394070348 159.7743413602002,94.51401884874213 160.20903144520707,94.37958116814843 160.89729074621573,94.28995601917268" stroke="#4dd2ff" stroke-linecap="round" stroke-linejoin="round" stroke-width="0.5"><title>2023-10-23 3.1km</title><desc>10389486351</desc></polyline><polyline fill="none" points="20.189873050665483,134.5986852759961 19.901277135824785,134.82182252401253 19.756979178171605,135.04495963006048 19.756979178171605,135.13421443285188 20.045575093245134,135.3127239702444 20.62276692315936,135.44660606369143 20.91136283823289,135.44660606369143 21.01958630629815,135.62511544229346 21.01958630629815,135.75899741664762 20.983511816943064,137.14244149570004 20.875288348877802,137.8118479641562 20.803139370167628,138.97214948601322 20.947437327587977,140.75722126290202 20.91136283823289,143.4348119116621 20.803139370167628,143.836448747752 20.5145434550941,143.97032759108697 20.262022029375657,143.8810750345292 18.782967965118587,142.98854822159046 18.20577613520436,142.40840457647573 17.087466964730993,140.75722126290202 16.87102002836764,140.40020763350185 16.690647581592202,139.8646865087794 16.0413067729678,138.57050708535826 15.752710857894272,137.5440855298948 15.716636368539184,136.20527029587538 15.139444538624957,132.7689544937457 15.139444538624957,132.50118821367505 15.211593517335132,132.45656048037927 15.139444538624957,131.74251597744296 14.886923112906516,130.71607446024427 14.814774134196341,129.24334878075751 14.490103729767725,127.10119130965904 14.417954751290381,125.27142145275138 14.56225270871073,123.93255941802636 14.742625155486166,122.90609506689361 14.814774134196341,121.52259488849086 14.886923112906516,121.21019086780143 14.995146581204608,120.09445995313581 15.247668006690219,118.71094869461376 15.933083304669708,117.14891330120736 16.510275134816766,116.21168872914859 17.01531798602082,115.49761118527385 17.700733284000307,115.00668203129317 18.927265922771767,114.38186211514403 19.937351625179872,114.02482166368281 22.210044455481693,113.53389045008225 22.751161796273664,113.53389045008225 22.715087306685746,113.75704108690843 22.67901281733066,113.6677808490931 22.715087306685746,113.62315072183264 23.18405566876754,113.53389045008225 25.49282298842445,113.39999999999418 26.070014818338677,113.44463015568908 26.71935562696308,113.71241097085294 28.45093111693859,114.15871187546873 30.4711025217548,115.18520180313499 32.96024228865281,115.63150083532673 35.52153103379533,116.43483766372083 37.21703203441575,117.19354298032704 37.90244733262807,117.77372829255182 38.62393711996265,118.2200240342354 39.30935241794214,118.93409604058252 40.283363630995154,120.09445995313581 41.00485341856256,121.38870748502086 41.25737484404817,121.96888586427667 41.365598312113434,122.37054725753842 41.58204524847679,123.97718823474133 41.509896269766614,127.10119130965904 41.365598312113434,128.30615649552783 40.824480971554294,130.44830661435844 40.31943812035024,131.8763994324545 40.06691669486463,132.9028375572525 39.95869322656654,133.12597588304197 39.81439526914619,133.21523117367178 39.30935241794214,133.0367205697694 37.07273407676257,132.99209290466388 36.60376571514644,133.12597588304197 35.810126948868856,133.48299690915155 35.413307565730065,133.52762451194576 34.15070043783635,133.25985881037195 32.74379535228945,133.17060353112174 32.5273484159261,133.25985881037195 32.77986984164454,134.28629289066885 33.248838203493506,135.5358607643284 33.32098718220368,136.16064303339226 33.248838203493506,136.65154260778218 32.74379535228945,137.99035614004242 32.56342290551402,139.23991083100555 32.74379535228945,140.6233411943831 32.707720862934366,141.02498124656267 32.5273484159261,141.60512717763777 32.41912494786084,143.30093286422198 32.41912494786084,145.35373931599315 32.38305045850575,145.6661218542722 32.310901479795575,145.75537395707215 32.02230556495488,145.79999999998836 28.234484180575237,145.13060876130476 27.26047296775505,145.13060876130476 24.879556668922305,144.6397210418363 23.003683221526444,144.50584245385835 20.803139370167628,144.14883263609954 20.298096518963575,144.01495386092574 19.071563880192116,143.16705376564641 18.06147817778401,142.1406456476834 16.87102002836764,140.31095416945755 16.149530241033062,139.32916456731618 16.005232283612713,138.8382687367848 16.005232283612713,138.03498316992773 15.680561879184097,136.874678551103 15.716636368539184,136.69616980772116 15.897008815547451,136.16064303339226 15.933083304669708,135.5358607643284 16.077381262322888,135.08958703433746 16.47420064546168,134.9557048046554 17.700733284000307,135.00033222013735 17.80895675206557,134.9557048046554 17.95325470971875,134.5986852759961 18.277925113914534,134.10778283147374" stroke="#4dd2ff" stroke-linecap="round" stroke-linejoin="round" stroke-width="0.5"><title>2023-10-20 3.2km</title><desc>10389486346</desc></polyline><polyline fill="none" points="56.646492728963494,134.55220464724698 56.68271690257825,135.1795811681368 57.08118281397037,135.493269009894 57.11740698758513,135.76214408079977 56.718941076425835,138.8541926567268 56.900061945198104,140.82591961792787 56.79138942412101,141.9014024033968 56.900061945198104,142.61838910452207 56.900061945198104,143.46980891833664 56.718941076425835,143.96273523906711 56.465371860191226,144.09716957074124 56.21180264395662,144.052358132496 55.052629084093496,143.33537434751634 54.400593956699595,142.7976355520077 52.87917865905911,140.60186029126635 52.227143531665206,139.4815615223779 52.04602266289294,139.03344101810944 51.901125967968255,138.54050780532998 51.6837809253484,137.5098270428134 51.61133257788606,136.25508117800928 51.28531501418911,133.5215122248046 51.14041831926443,132.93894560969784 51.17664249311201,132.4460038758698 51.0317457979545,131.46011834032834 50.88684910302982,130.78792207624065 50.77817658171989,129.75721864876687 50.3797106705606,127.42692153065582 50.34348649694584,125.32067819006625 50.59705571294762,123.57293480099179 50.669504060642794,122.63183861793368 50.669504060642794,121.51148274319712 50.814400755567476,120.57038105686661 50.88684910302982,119.4948331960768 51.067969971802086,118.77779946586816 51.75622927304357,117.03002363833366 52.11847101058811,116.35779985881527 52.69805779051967,115.68557479736046 53.639886307995766,114.87890303161112 55.306198300328106,114.02741416508798 57.11740698758513,113.62407661564066 57.66076959390193,113.66889192178496 57.87811463652179,113.80333780572983 57.8418904626742,114.07222941989312 57.87811463652179,114.07222941989312 57.805666289059445,114.20667514999514 57.8418904626742,114.3859360437782 57.91433881013654,113.93778363851015 58.16790802637115,113.71370722219581 58.42147724260576,113.62407661564066 59.68932332377881,113.39999999999418 61.89899792242795,113.53444598644273 64.14489669492468,114.02741416508798 64.86938016978092,114.3859360437782 66.35457129357383,114.92371817820822 68.78159093461,115.50631456449628 71.71574900834821,116.40261481725611 72.83869839436375,116.89557898492785 73.52695769560523,117.25409794662846 74.68613125546835,118.15039375561173 76.2437707267236,119.85334951421828 76.75090915919282,120.66000989702297 77.40294428658672,121.914811268216 77.62028932920657,122.99035174574237 77.65651350282133,123.70737690775422 77.51161680812947,125.54474722870509 77.5478409815114,125.99288487865124 77.5478409815114,126.57546297204681 77.40294428658672,128.14393766911235 77.22182341804728,129.04020579144708 76.46111576934345,131.99787442869274 75.99020151048899,132.93894560969784 75.77285646810196,133.11819697843748 75.55551142524928,133.16300980641972 73.96164778061211,133.11819697843748 72.83869839436375,132.98375846046838 71.71574900834821,133.38707386064925 70.91881718556397,133.5215122248046 69.50607440946624,133.25263544527115 68.74536676076241,133.34226106124697 68.56424589199014,133.47669944248628 68.63669423968531,134.059265169024 69.10760849830694,135.58289405627875 69.14383267215453,135.94139401393477 68.96271180314943,136.97207936184714 68.60047006583773,138.04757390348823 68.45557337091304,138.8093805522367 68.45557337091304,139.61599756256328 68.34690084960312,141.45328497479204 68.45557337091304,142.17027258724556 68.49179754476063,142.88725874156808 68.45557337091304,144.36603808001382 68.3831250234507,145.5311325841467 68.20200415467843,145.79999999998836 66.86170972581021,145.79999999998836 64.90560434362851,145.5311325841467 63.529085741145536,145.26226496335585 60.73982436256483,144.9485858133121 60.01534088747576,144.76934045937378 59.65309915016405,144.5900950144569 58.81994315376505,144.4556608707935 57.44342455151491,144.36603808001382 56.82761359773576,144.1867924297694 56.68271690257825,144.052358132496 56.646492728963494,143.87311232290813 56.75516525027342,142.21508426457876 56.61026855534874,140.28817699471256 56.718941076425835,139.0782530941069 56.718941076425835,137.28576560874353 56.79138942412101,136.4343308606185 56.75516525027342,135.53808153586579 56.68271690257825,135.40364394069184 56.465371860191226,135.53808153586579 56.17557847010903,135.44845647818875 55.99445760156959,135.08995601916104 55.813336732797325,134.91070565293194" stroke="#4dd2ff" stroke-linecap="round" stroke-linejoin="round" stroke-width="0.5"><title>2023-10-19 3.1km</title><desc>10389486342</desc></polyline><polyline fill="none" points="91.46920708240941,134.91070565293194 91.36053456109948,135.1795811681368 91.43298290856183,135.3588313976361 92.8095015110448,135.62770657090005 92.99062237981707,135.94139401393477 92.99062237981707,136.658392835845 92.84572568489239,137.77870057569817 92.91817403235473,138.3612591936253 92.84572568489239,138.899004755629 92.95439820596948,140.24336507255794 92.99062237981707,142.48395420919405 92.91817403235473,143.78348938401905 92.84572568489239,143.96273523906711 92.70082898973487,144.09716957074124 92.266138904728,144.052358132496 91.46920708240941,143.60424343767227 90.31003352254629,142.66320072489907 89.62177422107197,141.76696723460918 88.24525561882183,139.5711855548725 87.73811718611978,138.0923861048941 87.66566883865744,137.64426383480895 87.30342710134573,133.7903887994471 87.15853040642105,133.38707386064925 87.01363371126354,131.99787442869274 86.86873701633886,131.01198764005676 86.68761614756659,128.81613897456555 86.54271945240907,128.2335645839048 86.47027110517956,127.20285368821351 86.47027110517956,126.03769861240289 86.36159858386964,125.45511963029276 86.47027110517956,124.42440061137313 86.54271945240907,122.81109522737097 86.72384032141417,121.6907399224292 86.83251284249127,119.80853499445948 87.08608205872588,118.68817014701199 87.55699631758034,117.52298692864133 88.28147979243658,116.31298489449546 88.86106657260098,115.68557479736046 90.20136100123636,114.69964238849934 91.68655212479644,114.02741416508798 93.75133002828807,113.48963066336 93.96867507090792,113.57926130396663 94.07734759221785,113.75852251678589 94.0048992447555,114.25149038204108 93.93245089729317,114.25149038204108 93.93245089729317,114.3859360437782 93.89622672344558,114.29630560826627 93.93245089729317,114.25149038204108 93.82377837598324,114.20667514999514 93.75133002828807,114.02741416508798 93.82377837598324,113.84815308894031 94.04112341837026,113.62407661564066 94.47581350337714,113.48963066336 96.14212549594231,113.48963066336 97.33752322965302,113.39999999999418 97.69976496696472,113.48963066336 98.09823087812401,113.53444598644273 99.76454287068918,113.98259890460758 100.88749225670472,114.34112082896172 102.01044164295308,114.83408787930966 102.9160459865816,115.10297870723298 104.4012371103745,115.41668441385264 106.2486699714791,116.17853996771737 107.95120613765903,116.62668952444801 108.89303465513512,117.03002363833366 110.41444995254278,118.01594952942105 111.60984768602066,119.18113111850107 112.00831359741278,119.7189059376542 112.26188281364739,119.94297853682656 112.55167620372958,120.52556662814459 112.95014211488888,121.06333939626347 113.23993550497107,121.73555420304183 113.38483219989575,122.49739610086544 113.63840141613036,122.99035174574237 113.63840141613036,123.57293480099179 113.56595306890085,125.18623669847148 113.38483219989575,127.15804010271677 113.348608026281,128.77132559395977 113.23993550497107,129.35389909596415 113.02259046258405,129.80203190396423 112.98636628873646,130.25016414222773 112.55167620372958,132.04268739902182 112.15321029233746,133.02857130559278 111.93586524995044,133.16300980641972 111.42872681748122,133.11819697843748 109.58129395637661,133.11819697843748 107.1904984889552,133.5215122248046 106.61091170902364,133.5215122248046 105.70530736539513,133.38707386064925 104.69103050045669,133.34226106124697 104.50990963168442,133.38707386064925 104.36501293652691,133.5215122248046 104.36501293652691,133.65595053779543 104.50990963168442,133.92482700987603 105.0532722377684,135.71733158326242 104.72725467407145,136.88245466857916 104.54613380553201,138.94381684876862 104.36501293652691,140.42261272744508 104.32878876291215,141.2292260468821 104.47368545806967,141.99102582081105 104.50990963168442,143.42499740037601 104.43746128422208,145.5311325841467 104.32878876291215,145.79999999998836 102.9160459865816,145.7551887781883 100.30790547677316,145.39669879936264 99.7283186968416,145.26226496335585 98.06200670450926,145.08301976890652 94.69315854576416,144.50047225764138 93.24419159581885,144.4108494782413 92.55593229481019,144.2316038509307 91.97634551487863,143.87311232290813 91.57787960348651,143.559431936912 90.9258444760926,143.15612817343208 90.05646430607885,142.34951926243957 89.54932587360963,141.72215550029068 88.75239405129105,140.19855314452434 88.35392814013176,139.66080956463702 87.99168640235439,138.94381684876862 87.8830138812773,138.54050780532998 87.95546222873963,137.95794948373805" stroke="#4dd2ff" stroke-linecap="round" stroke-linejoin="round" stroke-width="0.5"><title>2023-10-17 3.1km</title><desc>10389486303</desc></polyline><polyline fill="none" points="129.0887299561873,113.94002430059481 129.3433556947857,113.6250102253689 130.21635822649114,113.44500205645454 131.99873839574866,113.39999999999418 133.01724134967662,113.44500205645454 134.2176198309753,113.98502628845745 135.27249789005145,114.12003221761552 135.8544995780103,114.34504198541981 137.81875527463853,115.15507596486714 139.92851139348932,115.47008867849945 141.0197645581793,115.92010635446059 141.89276709011756,116.14511497801868 143.34777131001465,116.73013672971865 144.0025232087355,116.91014322795672 144.91190084605478,117.27015595004195 145.67577806138434,117.81017434652313 146.51240548770875,118.57519899812178 147.385408019647,119.56522844589199 148.14928523497656,120.64525741271791 148.69491181732155,121.81528507519397 149.05866287252866,123.21031300307368 149.13141308329068,123.84032381378347 148.7676620283164,128.61036928344402 147.71278396924026,132.6153578235535 147.56728354701772,132.97535457403865 147.385408019647,133.2003523572639 147.20353249227628,133.29035143056535 146.76703122630715,133.2003523572639 144.14802363072522,133.15535281202756 143.7115223647561,133.38035048090387 142.94764514942653,133.56034851283766 142.54751898907125,133.830345389375 141.5290160351433,133.38035048090387 140.80151392519474,133.29035143056535 140.51051308121532,133.33535095851403 140.14676202647388,133.2003523572639 140.00126160448417,133.29035143056535 139.89213628787547,133.42534999744385 139.78301097126678,133.78534592420328 139.78301097126678,134.32533912814688 140.00126160448417,135.1353273896093 140.1831371318549,135.58532006735913 140.21951223746873,136.0353121732769 139.85576118249446,138.15026740913163 139.78301097126678,139.2752384507039 139.60113544389606,140.1752127102518 139.7466358661186,142.51513507799245 139.71026076050475,144.0000777899695 139.81938607688062,144.7650458473945 139.78301097126678,145.53001225183834 139.6738856548909,145.79999999998836 138.72813291219063,145.75500205619028 137.23675358691253,145.53001225183834 136.6911270043347,145.53001225183834 134.36312025296502,145.17002826731186 132.79899071669206,145.03503417881439 131.3803616024088,144.81004391689203 129.48885611677542,144.6300516043848 128.32485274085775,144.36006296417327 126.79709831019863,143.55009580779006 126.14234641124494,143.05511496661347 125.19659366831183,142.02015278991894 123.81433965964243,139.95021935986006 123.23233797168359,138.82525046312367 123.23233797168359,138.28526412282372 122.90496202232316,137.20528897157055 122.86858691670932,136.71029925960465 123.08683754969388,135.4953215776477 123.19596286606975,135.40532306497335 123.41421349905431,135.31532452942338 124.65096708596684,135.27032525299" stroke="#4dd2ff" stroke-linecap="round" stroke-linejoin="round" stroke-width="0.5"><title>2023-10-16 2.0km</title><desc>10389486277</desc></polyline><polyline fill="none" points="163.4306494903285,145.79999999998836 164.2991647446761,145.44121648342116 164.96502643963322,145.0106756585883 165.8914427109994,144.6877696067677 166.96261152473744,144.14959202861064 167.71532474516425,143.8625635651988 168.98914711805992,143.10911245283205 170.55247457604855,142.42741684737848 171.2472867795732,141.99687140184687 171.9710494914325,141.74571958711022 172.43425762711558,141.45868866654928 172.7527132203104,141.35105199576356 174.8661003393354,140.2746830182732 175.9951701698592,139.8441342721053 176.63208135659806,139.48534314596327 176.74788339040242,139.52122227923246 176.95053694979288,139.70061787666054 176.95053694979288,139.66473876638338 178.36911186529323,138.983034799312 178.45596339076292,138.87539717953769 178.36911186529323,138.91127639074693 178.3980623736279,138.83951796375914 178.54281491611619,138.73188028897857 179.03497356025036,138.51660481560975 180.10614237410482,137.83489806129364 180.39564745873213,137.5478631433507 180.540400001104,137.22494850991643 180.5693505096715,136.97379242707393 180.42459796729963,136.61499763350002 179.52713220438454,135.3592122455011 179.12182508583646,135.00041538881487 178.4270128821954,133.81638250916149 177.55849762796424,132.52470458258176 177.47164610249456,132.30942435044562 177.47164610249456,132.23766423639609 177.38479457702488,132.16590410401113 176.4873288141098,130.87421858517337 175.76356610213406,129.6901683062315 175.35825898358598,128.82903769460972 175.06875389872584,128.3984713983955 174.7792488138657,128.11142683419166 174.31604067829903,127.46557549174759 174.11338711879216,127.10676854845951 173.96863457653672,126.6761996113346 173.70808000012767,126.31739165933686 173.5922779663233,126.03034496758482 173.44752542395145,125.81505975630716 173.2159213559935,125.67153619023156 172.89746576279867,125.1692031318089 170.66827660996933,121.40167654599645 169.65500881324988,119.8946517566801 169.56815728766378,119.64348017206066 169.39445423707366,119.53583513837657 169.30760271148756,119.28466323274188 169.0470481350785,119.03349110242561 168.96019660972524,118.78231874742778 168.72859254176728,118.60290978485136 168.58383999939542,118.35173704463523 168.20748338929843,117.70586325231125 167.9469288130058,117.41880775653408 167.8890277959872,117.16763395705493 167.74427525349893,116.98822396268952 167.5416216943413,116.62940363003872 167.16526508401148,116.12705439393176 166.90471050771885,115.87587943879771 166.49940338905435,115.3735288544849 165.7756406769622,114.33294264189317 165.63088813470677,114.04588369766134 165.22558101604227,113.43588246664149 165.0808284736704,113.39999999996508 164.99397694820073,113.47176492866129 164.99397694820073,113.54352983902209 165.39928406686522,114.58411897736369 166.47045288060326,116.19881862550392 166.78890847379807,116.9164599327487 167.33896813495085,117.81350898748497 167.80217627063394,118.3158552062232 168.61279050796293,119.71524350490654 168.98914711805992,120.10994150757324 169.45235525385942,120.89933584834216 170.17611796583515,121.8681349605904 170.95778169471305,123.1957431298215 171.6236433897866,124.12865322304424 172.63691118662246,125.77917887162766 172.98431728826836,126.20974918428692 173.6501789832255,127.42969481801265 174.51869423757307,128.6496351514361 174.75029830541462,129.15196198347257 175.09770440717693,129.6542879168992 175.2135064410977,130.12073262181366 175.35825898358598,130.37189483415568 175.70566508523189,130.76657785696443 175.9951701698592,131.37654143746477 176.63208135659806,132.23766423639609 177.38479457702488,133.49346358454204 177.6453491533175,133.8522623667086 177.84800271259155,134.2469404976 178.68756745860446,135.3950919060153 179.12182508583646,135.89740667090518 179.72978576365858,137.04555133078247 179.72978576365858,137.47610436801915 179.52713220438454,137.87077740539098 178.16645830590278,138.73188028897857 176.8636854244396,139.19830991505296 175.03980339015834,140.05940872768406 173.9975850849878,140.31056205072673 172.3763566102134,140.99226279498544 172.05790101690218,141.06402067185263 169.9155633894261,142.14038662365056" stroke="#4dd2ff" stroke-linecap="round" stroke-linejoin="round" stroke-width="0.5"><title>2023-10-15 2.7km</title><desc>10389486353</desc></polyline><polyline fill="none" points="19.57787853293121,176.0243937339692 20.44725881330669,176.0243937339692 20.809500596718863,176.06920629413798 20.954397310269997,176.15883139750804 21.06306984531693,176.3828940561798 20.990621488541365,177.45839283577516 20.88194895349443,177.99614099526661 20.84572477522306,178.80276169639546 20.773276418447495,179.34050780537655 20.954397310269997,181.13298891138402 20.990621488541365,183.2391425660171 20.88194895349443,184.58348938406562 20.809500596718863,184.8075466887094 20.62837970512919,184.8971695706714 20.266137921484187,184.8523581326299 19.831447781296447,184.58348938406562 18.780946609098464,183.7768819082121 18.20135975535959,183.2391425660171 17.875342150218785,182.7910258207994 17.259531118208542,181.76035514543764 16.716168442973867,181.08817699475912 16.317702481057495,180.32637354143662 16.136581589467824,179.8334410180105 15.99168487591669,178.98201049049385 15.846788162598386,178.57870057574473 15.701891449047253,177.50320521366666 15.774339805589989,176.3828940561798 15.484546378953382,175.4866425669461 15.194752952083945,174.23188665433554 15.194752952083945,173.2011909567227 14.977407881990075,171.63273520031362 14.615166098577902,170.06427246582462 14.470269385026768,169.0783780326601 14.361596849979833,167.86841291430756 14.325372671708465,166.07586436514976 14.470269385026768,164.865888941742 14.796286990400404,163.118139331782 14.723838633624837,162.40111134402105 14.796286990400404,161.54963871455402 14.977407881990075,160.83260753643117 15.194752952083945,159.5777994657692 16.064133232459426,157.8300236382347 16.752392621245235,156.75446497567464 17.29575529647991,156.17186932993354 18.02023886376992,155.58927272135043 18.998291679192334,155.09630560834194 19.396757641108707,154.9618599122914 21.2804149154108,154.60333780563087 22.40336444438435,154.28963066329015 23.272744724759832,154.24481533450307 24.359470075462013,154.20000000001164 26.170678993221372,154.42407661571633 27.54719777056016,154.82741416507633 28.742595656076446,155.14112082883366 29.28595833131112,155.36519684630912 30.372683682013303,155.72371817810927 32.4736860266421,156.2614994919859 33.74153226870112,156.79927998557105 34.68336090585217,157.02335494887666 36.05987968342379,157.42668952434906 37.219053390668705,157.96446824027225 38.16088202805258,158.6366904815659 39.682297518709674,160.11557490023552 40.69657451263629,161.54963871455402 41.1674888310954,162.44592563607148 41.38483390118927,163.3422102786717 41.5659547932446,164.46256287777214 41.674627328058705,167.016953489976 41.457282257964835,169.1231914757518 41.09504047431983,170.64684515324188 40.91391958273016,171.63273520031362 40.69657451263629,172.39455743925646 40.116987659130245,173.7389456096571 39.97209094557911,173.87338414471014 39.75474587525241,173.96300980632077 38.74046888155863,173.7389456096571 37.907312779454514,173.87338414471014 37.14660503389314,173.87338414471014 35.226723581319675,174.23188665433554 34.21244658739306,174.09744825601229 33.30684212851338,174.09744825601229 32.90837616682984,174.00782262862776 32.763479453278705,174.0526354450849 32.69103109650314,174.14226106111892 32.65480691823177,174.63520154188154 32.763479453278705,175.4866425669461 33.05327288014814,176.4277065708884 33.05327288014814,177.01026874303352 32.61858273972757,179.20607135508908 32.4012376696337,180.90892927141977 32.4374618481379,182.11884963521152 32.61858273972757,182.7910258207994 32.65480691823177,183.37357747845817 32.546134383184835,184.58348938406562 32.50991020468064,185.74858581344597 32.4012376696337,186.28632132834173 32.22011677804403,186.5551887783513 31.857874994399026,186.60000000000582 29.684424293227494,186.15188752644463 25.011505285743624,185.52452910674037 23.852331578498706,185.43490638429648 22.475812800927088,185.16603808000218 21.352863271953538,185.16603808000218 21.06306984531693,185.12122667609947 20.84572477522306,184.94198100306676 20.700828061671928,184.7179237838718 20.84572477522306,184.269808918325 20.91817313199863,183.73207032773644 20.62837970512919,181.6707314659434 20.809500596718863,180.46080956459627 20.84572477522306,178.8475739035057 21.026845666812733,177.7720793617773 20.84572477522306,176.29326900976594 20.773276418447495,176.2036439406802 20.66460388340056,176.2036439406802" stroke="#4dd2ff" stroke-linecap="round" stroke-linejoin="round" stroke-width="0.5"><title>2023-10-13 3.0km</title><desc>10389482249</desc></polyline><polyline fill="none" points="63.41115149972029,186.25311511114705 63.24290907080285,186.59999999997672 63.355070689925924,186.39186909317505 63.29898988059722,185.97560704121133 63.467232309281826,184.58806457550963 63.41115149972029,184.1718011480407 63.24290907080285,183.8249147158349 63.63547473796643,182.71487665147288 63.57939392817207,182.29861179547152 63.69155554729514,181.39670351799577 63.57939392817207,180.8416822986328 63.63547473796643,179.80101599131012 63.41115149972029,177.71967742423294 63.467232309281826,177.16465246566804 63.41115149972029,176.6096269429545 63.69155554729514,175.49957420415012 63.467232309281826,173.9732480017119 63.747636356856674,172.65505375538487 63.747636356856674,171.8918872102513 63.52331311884336,170.9899617356714 63.63547473796643,169.53300205158303 63.57939392817207,168.4229349194211 63.69155554729514,167.59038308874005 63.69155554729514,166.6190710143419 63.467232309281826,165.57837758807 63.69155554729514,164.81520114740124 63.63547473796643,164.05202363961143 63.80371716641821,163.0807052680757 63.747636356856674,162.31752533483086 63.52331311884336,161.3462038761936 63.467232309281826,159.05665359838167 63.52331311884336,158.2240874794079 63.97195959533565,157.53028141020332 64.19628283334896,155.4488579101162 64.58884850051254,154.33876213111216 64.75709092919715,154.19999999995343" stroke="#4dd2ff" stroke-linecap="round" stroke-linejoin="round" stroke-width="0.5"><title>2023-10-12 0.5km</title><desc>10389482244</desc></polyline><polyline fill="none" points="91.96110066398978,175.62033217484714 91.81560022360645,175.98032668314409 91.88835044391453,176.16032380005345 92.07022599433549,176.29532157760696 92.83410330675542,176.47531853435794 92.94322863710113,177.15030630707042 92.87047841679305,177.82529279275332 92.7977281967178,179.5352527970099 92.94322863710113,181.47019757775706 92.87047841679305,182.68515750041115 92.87047841679305,183.67512176200398 92.76135308668017,184.62008506583516 92.65222775610164,184.80007779004518 92.47035220568068,184.8900741179241 92.07022599433549,184.80007779004518 91.52459934260696,184.44009224991896 90.17872026818804,183.2701367168047 88.32358965231106,180.61522328099818 87.95983855077066,179.80524572677677 87.59608744992875,178.72527277181507 87.55971233965829,177.1953054461046 87.19596123858355,175.1703385245928 87.15958612854593,174.36034851288423 87.05046079820022,173.46035743740504 87.08683590823784,173.37035820394522 87.12321101827547,173.41535782348365 87.12321101827547,173.32535857876064 86.79583502723835,171.43536915199365 86.46845903620124,168.3753648774582 86.32295859558508,166.75535190603114 86.35933370585553,165.90034207116696 86.57758436654694,164.01031300309114 86.68670969689265,161.76026524076588 87.05046079820022,159.46520178965875 87.81433811062016,157.80014644289622 88.10533899138682,157.3501301399374 88.68734075361863,156.630102865136 89.5967185064219,155.86507228104165 91.2699735716451,154.8750302469707 92.97960374737158,154.47001225332497 94.03448194079101,154.33500615233788 94.32548282155767,154.20000000001164 97.59924273239449,154.33500615233788 99.78174933930859,154.78502628853312 102.25525682745501,155.7300667121308 103.92851189267822,156.0000777983223 104.69238920509815,156.27008867860422 105.71089228847995,156.72010635453626 107.7115233449731,157.3501301399374 108.80277664843015,157.80014644289622 110.00315528246574,158.43016830593115 110.87615792523138,159.1951933465316 112.29478721995838,160.9052433411416 113.02228942234069,162.16527489342843 113.2405400830321,162.75028801814187 113.56791607406922,164.23531699262094 113.67704140441492,165.22533284823294 113.67704140441492,166.35034750483464 113.56791607406922,167.07035500882193 113.53154096379876,167.8803617004014 113.3860405231826,169.0503680940892 113.20416497276165,169.8603702551918 112.87678898172453,170.80537043418735 112.58578810072504,172.74036292964593 112.44028766034171,173.19035966851516 112.29478721995838,173.41535782348365 112.00378633895889,173.64035583552322 110.25778105319478,173.95535281204502 109.74852951150388,174.00035235719406 109.27565308008343,173.91035326107522 108.65727620804682,173.91035326107522 106.62027004151605,174.49534697682247 106.40201938082464,174.49534697682247 105.56539184809662,174.18035048080492 104.9106398660224,174.1353509585315 104.76513942540623,174.27034950826783 104.72876431536861,174.94534148505772 104.87426475575194,175.62033217484714 105.20164074678905,176.56531697846367 105.23801585705951,177.78029373375466 104.9106398660224,180.03023967769695 104.6196389850229,181.38020038054674 104.58326387475245,182.37016829120694 104.65601409506053,182.86515120841796 104.5105136546772,184.12510460213525 104.47413854440674,185.92503024361213 104.40138832433149,186.37501022420474 104.29226299398579,186.55500205638236 103.96488700271584,186.60000000000582 101.96425594645552,186.24001629004488 100.83662753272802,186.24001629004488 100.0,186.15002030547475 97.63561784219928,185.7900361379434 96.07148810732178,185.6100439169386 94.43460815190338,185.34005541386432 93.96173172048293,185.34005541386432 93.37972995848395,185.20506108526024 92.94322863710113,184.98007042286918 92.72497797640972,184.6650832554733 92.6886028663721,183.180139977223 92.57947753602639,182.59516061207978 92.61585264606401,181.9201832204708 92.50672731571831,181.47019757775706 92.7977281967178,180.30023223016178 92.87047841679305,178.72527277181507 93.01597885740921,177.73529466910986 92.7977281967178,176.34032082528574 92.76135308668017,176.2503223241656 92.6886028663721,176.34032082528574" stroke="#4dd2ff" stroke-linecap="round" stroke-linejoin="round" stroke-width="0.5"><title>2023-10-10 3.0km</title><desc>10389482309</desc></polyline><polyline fill="none" points="127.576606731629,175.9788418256503 127.576606731629,176.15735134037095 127.68483019992709,176.2466060637089 128.6227669233922,176.42511544231093 128.87528834911063,176.3804881061078 129.01958630653098,176.6036247300508 128.87528834911063,177.45154260779964 128.80313937040046,179.1919992043986 128.80313937040046,180.2184182810306 128.9835118171759,181.4679678894754 129.01958630653098,184.41331722895848 128.91136283846572,184.68107503454667 128.69491590210237,184.8149538609432 128.40631998726167,184.77032759110443 128.15379856154323,184.63644874776946 126.78296796535142,183.6992954154266 126.27792511414737,183.2084045764932 125.73680777382106,182.49438031262252 124.43812615610659,180.39692564023426 124.04130677320063,179.41513404151192 123.71663636877201,178.2102042362676 123.71663636877201,177.13915204897057 123.57233841135167,175.9788418256503 123.53626392199658,174.59539000925724 123.28374249627814,173.3904436629964 123.21159351756796,173.43507137929555 123.28374249627814,173.43507137929555 123.1033700495027,172.45326031243894 123.06729556014761,171.29293460279587 122.742625155719,169.32929774274817 122.49010373000056,166.11605009940104 122.56225270894356,165.66976337844972 122.59832719829865,164.1970131745329 122.77869964507408,162.50111134693725 122.95907209208235,161.56389892747393 122.99514658143744,160.93908925791038 123.13944453885779,159.86798438019468 123.46411494305357,158.79687623440986 123.78878534748219,158.12743198371027 124.32990268827416,157.27946743372013 124.90709451818839,156.56539043437806 125.95325470995158,155.80668203131063 127.2158618378453,155.2711221711943 129.45248017902486,154.6463013018365 130.0296720089391,154.4231507218501 130.82331077498384,154.4231507218501 132.84348218003288,154.20000000001164 133.8174933930859,154.4231507218501 134.79150460613891,154.73556149407523 136.1623352020979,155.04797198838787 139.33689026720822,156.07446165499277 140.7077208631672,156.3868709577655 141.53743411856703,156.78853965265444 143.52153103402816,157.50261619806406 144.7841381621547,157.85965392610524 145.93852182198316,158.52909868728602 147.38150139688514,159.86798438019468 148.355512610171,161.02834785022424 148.9327044398524,162.0994491876918 149.257374844281,163.17054725755588 149.50989626999944,164.3755286798405 149.47382178064436,166.8301076727803 149.04092790815048,169.9987206334772 148.60803403542377,171.78384210192598 148.355512610171,173.3011882136925 148.13906567380764,173.70283755726996 147.8865442480892,173.92597588305944 147.63402282260358,173.9706035311392 146.55178814125247,173.92597588305944 145.9024473328609,174.01523117368924 145.25310652400367,173.9706035311392 144.35124428966083,174.10448644155986 143.70190348103642,174.10448644155986 142.83611573604867,174.28299690916901 142.15070043806918,174.23836930078687 141.3570616717916,174.32762451196322 140.88809330994263,174.28299690916901 140.63557188445702,174.41687970043859 140.5994973948691,174.77390022738837 140.5994973948691,175.1755478862906 140.81594433123246,175.84495963007794 141.03239126736298,176.96064303340972 140.9963167780079,177.31766097378568 140.7077208631672,178.38871261640452 140.49127392680384,179.95065707198228 140.23875250131823,180.93244717325433 140.3109014800284,181.82498124658014 140.49127392680384,182.89601913976367 140.52734841615893,183.6992954154266 140.49127392680384,186.2429914981185 140.45519943768159,186.46612185428967 140.3469759693835,186.60000000000582 140.20267801196314,186.60000000000582 139.9501565862447,186.51074790858547 139.44511373504065,186.37686972884694 137.46101681957953,186.06448711111443 133.96179135050625,185.66285190847702 132.1580668820534,185.3504686554661 131.14798117941245,185.3058424538758 130.60686383885331,185.1719638147042 129.77715058322065,185.0827113603591 129.16388426395133,184.90420638327487 129.01958630653098,184.68107503454667 128.9474373278208,184.4579435440246 128.91136283846572,183.87780100494274 128.9835118171759,182.89601913976367 128.76706488081254,181.73572794135544 128.9474373278208,180.039910831023 128.83921385975555,179.5490148756653 128.9474373278208,178.70110206349636 128.87528834911063,178.2548313398147 128.9474373278208,177.76393288862891 128.83921385975555,177.22840652274317 128.80313937040046,176.33586076434585 128.69491590210237,176.15735134037095 128.44239447638392,176.15735134037095" stroke="#4dd2ff" stroke-linecap="round" stroke-linejoin="round" stroke-width="0.5"><title>2023-10-08 3.0km</title><desc>10389482199</desc></polyline><polyline fill="none" points="165.93512033647858,154.33519391325535 166.51793159544468,154.42532316001598 167.9021083356347,154.20000000001164 169.50483929761685,154.2450646435318 170.77973892656155,154.56051698717056 171.83608433348127,155.01116270554485 173.32953818445094,155.4167433620023 174.93226914666593,155.912452423363 175.733634627657,156.09271009181975 179.84973914409056,157.39957544763456 180.32327329204418,157.5798323600029 181.8531528469175,158.48111554665957 182.83664684626274,159.38239644202986 183.31018099421635,159.96822779503418 184.5122292158194,161.63558865475352 184.98576336354017,162.67205226336955 185.20431758579798,163.66344940132694 185.35002040071413,164.880160280969 185.0950404747855,167.89938775839983 185.05861477111466,168.66545631198096 184.84006054908969,169.7920247068687 184.4393778082449,170.7834019329748 183.96584366052411,173.08158393058693 183.78371514216997,173.57726829053718 183.56516091991216,173.8476412857708 183.31018099421635,173.89270343151293 180.54182751406915,173.89270343151293 178.5019881078042,174.56863493131823 176.42572299786843,174.4334487344895 176.28002018295228,174.4334487344895 176.1707430719398,174.56863493131823 176.1343173685018,174.70382107669138 176.31644588685594,174.88406919015688 176.57142581231892,175.74024647806073 176.6442772198934,176.68654528522165 176.20716877561063,179.02975050805253 175.952188849682,181.4630626164435 175.91576314601116,182.3192240158678 176.09789166459814,183.40068809161312 176.02504025725648,184.12166230913135 176.02504025725648,186.014212654758 175.952188849682,186.50987893296406 175.87933744257316,186.60000000000582 172.5645984071307,186.1944550179469 171.25327307451516,185.92409143882105 169.03130514966324,185.7438489382912 167.53785129869357,185.47348501550732 164.6966464112047,185.20312088672654 164.2231122632511,185.0679387448763 162.87536122696474,184.34696645155782 161.89186722738668,183.35562715426204 161.01765033905394,182.22910186080844 160.07058204314671,180.8322055253957 159.56062219152227,179.79579501019907 159.19636515481398,178.44395065429853 159.19636515481398,177.81308819085825 159.05066234013066,177.13716287713032 158.83210811787285,175.0192552153021 158.6499795995187,173.98282770597143 158.68640530318953,173.57726829053718 158.90495952544734,173.39701951257302 160.58054189477116,173.66739264520584 162.87536122696474,173.53220610474818 164.00455804122612,173.57726829053718 164.33238937449642,173.66739264520584 164.44166648527607,173.98282770597143 164.25953796692193,175.6951845670119 164.25953796692193,176.23592712066602 163.71315241162665,176.2809889628552 163.49459818960167,176.19086527265608" stroke="#4dd2ff" stroke-linecap="round" stroke-linejoin="round" stroke-width="0.5"><title>2023-10-07 2.2km</title><desc>10389482165</desc></polyline><polyline fill="none" points="19.961102707777172,215.43034538949723 20.943230431061238,215.970338524814 21.125105935614556,216.55533015858964 21.015980632975698,217.00532306509558 20.79773002769798,217.45531539982767 20.87048022937961,217.50031460175524 20.72497982601635,218.53529466912732 20.76135492697358,220.69524332447327 20.83410512865521,221.73021405172767 20.688604725059122,223.66515120846452 20.79773002769798,225.1050975782273 20.72497982601635,225.55507961765397 20.543104321695864,225.82506856688997 20.14297821209766,225.73507227332448 19.45185129554011,225.33008866928867 19.051725185941905,225.0151011015696 18.251472966745496,224.25013012753334 17.742221554508433,223.57515436594258 16.396342822583392,221.59521804153337 16.032591813709587,220.92023721817532 15.632465704111382,219.25527901857276 15.486965300748125,216.96032380024553 15.232339594513178,215.8803397261363 15.268714695470408,215.83534031829913 15.232339594513178,215.11534901356208 15.12321429187432,214.5753545742773 15.195964493788779,214.1703582041955 14.650337980594486,210.8403704840166 14.432087375316769,208.50036037390237 14.35933717363514,207.0153459351277 14.504837577231228,205.80032948800363 14.613962879870087,203.41528507540352 14.832213485147804,202.38026080207783 14.977713888511062,200.35520455837832 15.959841611795127,198.42013999036863 16.57821832667105,197.56510809066822 17.560346050187945,196.7100741257891 18.797099479706958,195.9900439218618 19.633726799860597,195.63002827065066 21.707107549533248,195.18000819176086 24.071489106165245,194.9999999999709 24.944491527043283,194.9999999999709 26.6541212676093,195.36001629199018 30.21888115303591,196.57506857416593 32.76513821398839,197.0250868794683 34.111016946146265,197.79011668564635 36.47539850277826,198.5551448383194 38.07590294093825,199.45517584247864 38.94890536181629,200.1751989981567 40.36753429588862,201.84024693648098 40.73128530452959,202.38026080207783 41.1314114141278,203.32528308482142 41.60428772540763,205.17031931804377 41.56791262468323,207.19534801700502 41.64066282636486,207.69035327041638 41.531537523726,208.2753585865139 41.349662019405514,209.94036842597416 40.87678570789285,211.83037010522094 40.622160002123564,213.3603640740912 40.36753429588862,214.35035664815223 40.29478409420699,214.5303550004901 40.1492836906109,214.71035326141282 39.96740818629041,214.80035235741525 39.2035310678184,214.66535370468046 37.821277235168964,214.80035235741525 37.13015031837858,214.80035235741525 36.07527239318006,214.980350480997 34.9840193670243,215.0253499976825 34.22014224878512,214.89035143065848 32.94701371854171,214.89035143065848 32.728763113263994,214.93535095878178 32.656012911349535,215.11534901356208 32.619637810625136,215.43034538949723 32.692388012306765,215.8803397261363 33.09251412190497,217.14032082559424 33.27438962622546,218.13030282923137 33.310764726949856,219.07528306849417 33.201639424311,219.75026740925387 32.83788841590285,220.92023721817532 32.692388012306765,222.00020591769135 32.728763113263994,222.9901743316732 32.80151331494562,222.9901743316732 32.94701371854171,223.57515436594258 32.51051250798628,226.86002429790096 32.43776230630465,227.13001225184416 32.25588680175133,227.39999999999418 31.964885994791985,227.39999999999418 28.436501210322604,226.9050223044469 25.562868241686374,226.63503417896573 23.380362189607695,226.23005160444882 21.52523204521276,226.05005920055555 21.379731641616672,225.73507227332448 21.343356540659443,224.07013671690947 21.234231238253415,222.0902031607402 21.343356540659443,221.50522067278507 21.48885694425553,219.48027382741566 21.45248184353113,218.76028993568616 21.379731641616672,218.53529466912732 21.125105935614556,218.13030282923137 20.76135492697358,217.14032082559424 20.470354119781405,217.27531853452092 20.17935331305489,217.27531853452092" stroke="#4dd2ff" stroke-linecap="round" stroke-linejoin="round" stroke-width="0.5"><title>2023-10-03 3.0km</title><desc>10389482190</desc></polyline><polyline fill="none" points="55.52993973274715,216.89949466168764 55.602488428819925,217.12386769920704 56.618170173838735,217.25849145339453 56.87209061020985,217.43798971225624 56.76326756598428,218.15598183547263 56.87209061020985,219.18809295425308 56.79954191413708,220.48944615121582 56.87209061020985,225.51531691025593 56.83581626228988,225.7396844723262 56.654444521991536,225.8294314572704 56.36424973770045,225.78455796756316 56.11032930132933,225.64993746465188 55.02209886023775,224.8422133686836 54.07896581105888,223.94473998362082 52.48289449745789,221.47667641122825 52.228974061086774,221.02793572610244 51.86623058072291,219.9958299860009 51.648584492271766,219.18809295425308 51.648584492271766,218.0662328999315 51.32211536006071,215.0596303747734 51.14074361999519,214.47625676947064 51.14074361999519,214.20700708799995 51.17701796791516,214.07238217032864 51.14074361999519,213.57875703278114 50.77800013963133,210.93111951605533 50.560354051413015,208.37321356506436 50.37898231111467,207.02693983065546 50.560354051413015,205.5909088551707 50.560354051413015,204.9626434664824 50.77800013963133,202.85345862651593 50.923097531776875,202.27006485019228 50.886823183624074,201.64179355133092 51.03192057576962,200.87889118524618 51.46721275220625,199.57746569660958 52.301522757159546,198.05165039291023 52.990735369734466,197.10923176363576 53.75249667884782,196.52582849407918 54.8407271199394,195.9424242603709 55.71131147281267,195.62828311981866 56.980913654435426,195.26926433117478 57.996595399454236,195.1346321912133 58.79463105625473,195.1346321912133 59.84658714942634,194.9999999999709 61.11618933081627,195.04487740271725 62.60343760042451,195.31414169966592 63.47402195329778,195.58340579117066 64.34460630617104,195.80779237727984 66.4122441445943,196.5707057028776 68.91517415945418,197.06435462320223 70.07595329661854,197.64775700270548 70.98281199741177,197.91701931424905 73.23182157613337,198.8594357869879 74.13868027715944,199.44283519985038 74.9729902818799,200.11598717031302 75.62592854653485,200.83401452409453 76.13376941927709,201.41741067366092 76.85925637977198,202.76370580072398 77.22199986036867,203.7061093346274 77.51219464465976,204.87289117681212 77.58474334096536,206.48842889943626 77.6210176886525,206.71280855391524 77.6210176886525,207.25131914307713 77.47592029673979,207.83470468738233 77.33082290459424,209.3156021243194 77.1131768161431,210.7964933491312 76.38768985541537,213.8928822001617 76.17004376719706,214.52113169635413 76.02494637505151,214.65575644304045 75.66220289468765,214.79038113824208 72.61515765939839,214.65575644304045 71.01908634556457,215.14938007466844 70.36614808090962,215.194254916074 69.38674068381079,215.0596303747734 68.87889981130138,214.88013090656023 68.77007676730864,214.88013090656023 68.66125372308306,215.0147555161966 68.73380241915584,216.04687581848702 69.0602715513669,217.2136168743309 69.1328202476725,218.11110737049603 69.0965458995197,218.51497734952136 68.33478459063917,221.34205426552217 68.26223589479923,221.74592054839013 68.33478459063917,222.91264277047594 68.51615633070469,224.48322428850224 68.40733328671195,226.1884191687859 68.40733328671195,227.0410135204438 68.37105893855914,227.26538011286175 68.26223589479923,227.3551267099392 68.08086415426806,227.39999999999418 67.13773110532202,227.31025341432542 65.86812892393209,227.0410135204438 61.37010976718739,226.54740651507745 58.79463105625473,226.0986722749949 58.17796713951975,226.0986722749949 57.16228539450094,225.9191784193972 56.87209061020985,225.78455796756316 56.69071886991151,225.47044338076375 56.72699321783148,224.79733975365525 56.58189582568593,222.59852562841843 56.618170173838735,221.83566854862147 56.83581626228988,220.39969780886895 56.87209061020985,218.60472617091727 56.79954191413708,217.61748788005207 56.69071886991151,217.03411850141129 56.47307278169319,217.16874228967936 56.18287799763493,217.12386769920704" stroke="#4dd2ff" stroke-linecap="round" stroke-linejoin="round" stroke-width="0.5"><title>2023-10-01 3.0km</title><desc>10389482184</desc></polyline><polyline fill="none" points="91.34889537468553,214.73776557162637 91.49459818936884,215.45875903393608 91.8588552265428,215.77419321256457 91.93170663365163,215.99950316833565 92.11383515200578,216.1797510298784 92.40524078160524,216.40506072799326 92.44166648527607,216.81061782350298 92.69664641097188,216.99086527264444 92.73307211487554,217.30629808822414 92.69664641097188,218.83839634247124 92.91520063299686,222.12787904863944 92.76949781854637,223.16428508496028 92.76949781854637,225.46239201026037 92.73307211487554,225.6426350607071 92.55094359628856,225.77781728832633 92.15026085590944,225.73275655161706 91.42174678226002,225.32720966238412 90.18327285698615,224.2457490231027 89.74616441270337,223.7050174663309 89.0905017463956,222.6686130107264 87.88845352479257,220.55073361468385 87.56062219152227,219.33407377175172 87.30564226582646,216.08962711054482 87.15993945091031,215.0081382917415 86.97781093255617,214.4223304707848 86.94138522888534,213.25071192457108 86.75925671053119,212.5747763866675 86.72283100662753,211.76365203977912 86.54070248827338,210.72721267363522 86.35857396991923,208.74445066024782 86.3221482662484,207.03205636056373 86.39499967359006,205.81535012077074 86.94138522888534,200.22746042668587 88.1798591541592,197.97425417831982 88.58054189453833,197.4785468816117 89.60046159778722,196.5321946629847 90.54752989369445,195.9012917803193 91.3124696710147,195.58583991791238 93.89869463257492,195.0 97.3591364827007,195.0 98.23335337126628,195.1351939132437 99.58110440755263,195.49571076279972 101.29311248078011,196.17167886756943 102.5680121097248,196.4420657485898 103.5150804053992,196.75751684905845 104.60785151598975,196.9377744946978 105.08138566394337,197.07296766870422 105.80989973759279,197.4785468816117 108.35969899571501,198.3347681403975 110.07170706870966,199.19098733121064 111.01877536461689,199.91201241407543 112.25724928989075,201.48924966985942 112.87648625252768,202.4806523528532 113.24074328946881,203.29179794050287 113.53214891883545,204.4634494013153 113.64142602984793,205.45484376637614 113.67785173351876,207.12218258244684 113.49572321516462,207.93331754935207 113.27716899313964,209.82595858778222 112.84006054862402,211.9439020550344 112.58508062292822,212.93527550058207 112.40295210457407,213.29577424793388 112.11154647520743,213.61121035114047 111.63801232725382,213.70133490065928 108.76038173609413,213.47602348428336 106.82981944084167,213.65627262878115 104.93568284926005,213.5210857789789 104.82640573824756,213.56614806791185 104.64427721966058,213.92664617381524 104.60785151598975,215.09826248601894 104.68070292333141,215.99950316833565 104.89925714558922,216.99086527264444 104.93568284926005,217.62173062298098 104.7899800343439,219.8297505080409 104.46214870130643,221.04640864991234 104.49857440497726,221.45196043601027 104.7899800343439,222.3081237943552 104.71712862723507,222.80379637237638 104.7899800343439,223.0741629411932 104.71712862723507,223.61489546013763 104.82640573824756,223.97538334783167 104.49857440497726,225.4173312333587 104.35287159006111,226.7240914388094 104.24359447904862,226.99445501793525 104.09789166459814,227.17469728944707 103.18724907236174,227.39999999999418 102.6772892207373,227.39999999999418 100.23676707386039,226.85927325420198 97.50483929738402,226.58890957196127 94.663634410128,226.09324228583137 93.57086329953745,226.04818158911075 93.27945766993798,225.9129994645773 93.24303196626715,225.6876958089706 93.31588337360881,224.51611449223128 93.24303196626715,222.35318496637046 93.31588337360881,221.27171525510494 93.24303196626715,220.7760405348672 93.060903447913,220.64085640004487 92.8059235222172,220.59579501018743 92.73307211487554,220.46061080650543 92.69664641097188,220.05505788649316 92.76949781854637,218.88345795555506 92.73307211487554,217.71185415270156 92.62379500363022,216.94580341901747 92.51451789261773,216.94580341901747" stroke="#4dd2ff" stroke-linecap="round" stroke-linejoin="round" stroke-width="0.5"><title>2023-09-30 3.0km</title><desc>10389482196</desc></polyline><polyline fill="none" points="133.82353939441964,218.02135842377902 133.7509907076601,218.38035407461575 133.7509907076601,220.53432031400735 133.67844202066772,221.25230614014436 133.71471636393107,222.37415607026196 133.64216767717153,224.2139822388708 133.64216767717153,225.47044338090927 133.60589333390817,225.69481097147218 133.5333446469158,225.73968447255902 133.31569858640432,225.8294314572704 133.02550383890048,225.73968447255902 131.9009991926141,225.02170777210267 130.84904323332012,223.98961370717734 130.41375111206435,223.2267596331949 128.96277737477794,221.07280982044176 128.5637595972512,220.26507525274064 128.3823878802359,219.6368359780172 128.3461135365069,219.2778416047222 128.41866222326644,218.73934936049045 128.12846747599542,216.18149998347508 128.05591878923588,215.01475551648764 127.69317535497248,212.81588046287652 127.54807798122056,211.24524703939096 127.43925495096482,210.48236542675295 127.11278585996479,207.3859466620197 127.25788323371671,206.26404910243582 127.47552929422818,203.52660409372766 127.72944969823584,202.4495707305323 127.72944969823584,202.00080585927935 127.8382727287244,201.19302765352768 128.09219313249923,200.25061741058016 128.70885697100312,198.81455886925687 129.1078747487627,198.09652740784804 129.9784589910414,197.15410889836494 130.55884848581627,196.6604601033905 131.71962747559883,195.89754697174067 132.33629131386988,195.6731604427914 134.0411854549311,195.40389641968068 134.69412363669835,195.17950957693392 135.96372565673664,195.04487740283366 137.12450464628637,194.9999999999709 140.13527515088208,195.40389641968068 144.63329373602755,197.01947747720988 144.81466545327567,197.19898602718604 144.8872141400352,197.46824868107797 144.8872141400352,198.76968194564688 144.7421167662833,200.29549414585927 144.85093979653902,200.83401452426915 144.7421167662833,201.2827808787988 144.7421167662833,202.7188293793588 144.81466545327567,203.07784059178084 144.7421167662833,203.88561448454857 144.77839110977948,205.18702409099205 144.66956807952374,206.62305670944625 144.70584242301993,208.46296496497234 144.524470705539,213.17488140717614 144.5970193927642,213.57875703307218 144.45192201877944,213.57875703307218 144.56074504903518,214.83525602545706 144.45192201877944,216.04687581860344 144.45192201877944,217.16874228979577 144.56074504903518,218.6047261710919 144.27055030176416,222.14978636949672 144.30682464526035,223.89986625462188 144.45192201877944,225.9640518919914 144.41564767551608,226.7717734213511 144.30682464526035,227.1756334930833 144.16172727150843,227.35512671008473 143.90780686750077,227.39999999999418 141.07840808015317,226.86152014392428 139.33723959559575,226.72690005146433 137.52352242404595,226.45765971281799 134.80294666695409,226.14354572477168 134.51275191945024,226.09867227514042 134.25883151544258,225.91917841951363 134.15000848518685,225.73968447255902 134.11373414169066,225.56019043416018 134.18628282868303,224.3934769614716 134.0411854549311,222.55365172820166 134.0411854549311,222.10491241220734 134.18628282868303,221.25230614014436 134.15000848518685,220.17532685332117 134.2225571719464,219.1880929544859 134.2225571719464,218.2008562948904" stroke="#4dd2ff" stroke-linecap="round" stroke-linejoin="round" stroke-width="0.5"><title>2023-09-28 2.6km</title><desc>10389482181</desc></polyline><polyline fill="none" points="169.4254456406925,217.73071500533842 169.57362143113278,218.14315425715176 169.61066537885927,219.24298995529534 169.53657748363912,221.3051728461869 169.61066537885927,223.27569214388495 169.53657748363912,224.1463832866284 169.53657748363912,225.2003750144795 169.57362143113278,225.79610810644226 169.75884116929956,226.20853813184658 170.2404124881141,226.4376657200628 170.72198380716145,226.57514220301528 171.87034618342295,226.4376657200628 172.42600539769046,226.4376657200628 176.5008396350313,227.07922219208558 178.79756438708864,227.21669843036216 180.16819044877775,227.39999999999418 180.35341018694453,227.39999999999418 180.50158597738482,227.30834922680515 180.57567387260497,227.0333967676852 180.50158597738482,226.20853813184658 180.5386299251113,225.2003750144795 180.3904541344382,224.1463832866284 180.46454202965833,223.87142841599416 180.50158597738482,221.16769435384776 180.61271782033145,220.11369083676254 180.61271782033145,218.6014195390453 180.50158597738482,217.3182752817229 180.61271782033145,215.89764595552697 180.5386299251113,214.98110793565866 180.42749808216467,214.61449207534315 180.50158597738482,214.660319078248 180.57567387260497,214.1562217255414 180.57567387260497,213.4229879543709 180.76089361077175,212.46061636664672 180.42749808216467,211.22327769329422 180.31636623921804,210.3525553403597 180.61271782033145,208.10699851470417 180.72384966304526,206.77798890677514 180.61271782033145,205.72394332030672 180.64976176759228,204.44075322928256 180.61271782033145,203.15755857079057 180.72384966304526,202.56178806960816 180.68680571531877,201.27858672317234 180.7979375582654,200.49949796299916 180.87202545348555,199.72040751902387 180.7979375582654,198.89548639004352 180.90906940121204,198.20805067414767 180.76089361077175,197.38312608460546 180.7979375582654,197.0623215677915 180.68680571531877,196.83317530958448 180.42749808216467,196.69568748466554 178.50121280620806,196.37488235611818 176.76014726841822,195.82493004293065 175.7970046303235,195.7332712424395 175.16725752083585,195.41246525742463 174.09298304026015,195.09165898687206 171.87034618342295,195.0 171.01833538804203,195.04582949640462 170.2404124881141,195.274976890767 170.01814880245365,195.41246525742463 169.0179622170981,195.54995357166626 168.3141272123903,195.82493004293065 167.9066437885631,196.0999063042982 167.27689667907543,196.64985819812864 166.2026221982669,197.10815080194152 165.5358311412856,197.52061364724068 164.9801719270181,198.02473426194047 164.49860060797073,198.6205122610554 164.2763369223103,199.12463133750134 163.79476560349576,200.91195692805923 163.64658981305547,201.96601658390136 163.49841402238235,202.5159595287987 163.53545797010884,202.6534451339976 163.38728217966855,204.34909661943675 163.09093059878796,205.90725581755396 163.16501849377528,209.4360032233526 163.4613700748887,211.81903388095088 163.75772165576927,213.14802490570582 163.90589744620956,213.4229879543709 164.20224902709015,213.4688151087321 167.7214240503963,213.23967927854392 169.0179622170981,213.33133362812805 169.61066537885927,213.1938520950789 169.53657748363912,213.23967927854392 169.53657748363912,213.33133362812805 169.46248958841898,213.65212366817286 169.57362143113278,214.79780005218345 169.53657748363912,216.4017408733489" stroke="#4dd2ff" stroke-linecap="round" stroke-linejoin="round" stroke-width="0.5"><title>2023-09-27 2.2km</title><desc>10389482166</desc></polyline><polyline fill="none" points="26.03011581301689,235.84642039451865 25.804986191680655,235.80000000001746 25.617378173628822,235.80000000001746 24.266600445611402,236.26420367974788 22.72821469930932,237.0533485810447 21.940261024516076,237.61039101384813 21.264872160507366,238.30669285991462 20.551961692981422,239.28151321373298 20.176745657110587,240.02423173640273 19.87657282873988,241.23114611388883 19.576400000136346,242.94867123485892 19.27622717176564,245.17679989416501 19.163662360981107,247.96194159943843 19.238705568015575,249.2152484364633 19.126140757463872,250.00436534924665 19.313748775050044,251.86110429972177 19.764008017955348,254.08917857857887 19.68896481068805,254.13559664809145 20.326832071412355,258.8237912838522 20.36435367492959,260.07706084259553 20.439396881964058,260.7733198501228 21.114785746205598,262.5835870570154 21.339915367541835,262.9085058622004 22.80325790680945,265.043679390481 23.628733184887096,266.01842837248114 24.041470824042335,266.34334412173484 25.617378173628822,266.9003418763168 27.080720712663606,267.22525684093125 28.168847216060385,267.22525684093125 29.2194521157071,267.41092240504804 30.757837861776352,267.41092240504804 31.99605077970773,267.7822532503924 33.309306904207915,267.87508590272046 36.57368641416542,268.20000000001164 36.686251224717125,268.15358371817274 36.761294431984425,267.87508590272046 36.72377282846719,267.22525684093125 36.72377282846719,265.22934606371564 36.87385924276896,263.5583426054509 36.83633763901889,261.9337485793221 36.761294431984425,261.5624117871339 36.61120801791549,261.2839089453046 36.423599999863654,261.191074617469 36.16094877501018,261.191074617469 35.52308151451871,261.23749178426806 34.997779064578936,261.37674324956606 34.059738975483924,261.42316039287834 31.24561870843172,261.23749178426806 29.782276169164106,261.23749178426806 28.919279287336394,261.3303261003166 27.981239198241383,261.23749178426806" stroke="#4dd2ff" stroke-linecap="round" stroke-linejoin="round" stroke-width="0.5"><title>2023-09-25 1.5km</title><desc>10389482075</desc></polyline></svg>