<svg version="1.1" xmlns="http://www.w3.org/2000/svg" xmlns:xlink="http://www.w3.org/1999/xlink" x="0px" y="0px"
	 viewBox="0 0 230 48" style="enable-background:new 0 0 230 48;" xml:space="preserve">
<g>
	<path d="M22.62,46.14c-4.33,0-8.43-0.62-12.19-1.81s-7-3-9.71-5.38l7.62-9.1c2.33,1.81,4.76,3.05,7.33,3.86
		c2.57,0.76,5.1,1.14,7.62,1.14c1.29,0,2.24-0.14,2.81-0.48c0.57-0.33,0.86-0.76,0.86-1.33V32.9c0-0.62-0.43-1.14-1.24-1.52
		c-0.81-0.43-2.38-0.81-4.67-1.29c-2.38-0.48-4.67-1.05-6.86-1.71c-2.19-0.67-4.1-1.48-5.71-2.52c-1.71-0.95-3-2.24-4-3.81
		C3.52,20.52,3,18.62,3,16.38v-0.14c0-2.05,0.38-3.9,1.19-5.67S6.14,7.29,7.67,6c1.52-1.29,3.43-2.33,5.67-3.05s4.86-1.1,7.76-1.1
		c4.14,0,7.76,0.48,10.9,1.48c3.1,0.95,5.9,2.43,8.38,4.38l-6.9,9.62c-2.05-1.43-4.19-2.52-6.43-3.19c-2.29-0.67-4.38-1-6.38-1
		c-1.05,0-1.86,0.14-2.33,0.48c-0.52,0.33-0.76,0.76-0.76,1.29v0.14c0,0.57,0.38,1.05,1.14,1.48c0.76,0.38,2.29,0.81,4.52,1.29
		c2.71,0.48,5.19,1.1,7.43,1.76c2.24,0.71,4.14,1.57,5.76,2.67s2.86,2.38,3.71,3.86c0.86,1.52,1.33,3.33,1.33,5.48v0.14
		c0,2.24-0.43,4.24-1.33,6.05c-0.9,1.81-2.14,3.29-3.76,4.52c-1.62,1.24-3.62,2.19-5.9,2.86C28.1,45.81,25.48,46.14,22.62,46.14z"/>
	<path d="M53.24,14.71H40.67V2.67H80.1v12.05H67.52v30.62H53.24V14.71z"/>
	<path d="M102.52,22.95c1.71,0,3.05-0.38,4.05-1.1c0.95-0.71,1.48-1.76,1.48-3.05v-0.14c0-1.38-0.48-2.43-1.48-3.1
		c-0.95-0.67-2.29-1-3.95-1h-6.24v8.33h6.14V22.95z M82.1,2.67h20.86c3.81,0,6.95,0.43,9.43,1.33c2.48,0.86,4.43,2.05,5.95,3.57
		c1.29,1.29,2.29,2.76,2.95,4.38c0.67,1.62,0.95,3.52,0.95,5.71v0.14c0,3.14-0.76,5.76-2.24,7.9c-1.52,2.14-3.57,3.86-6.14,5.14
		l9.95,14.52h-16.29l-8.05-12.19h-0.19h-2.95v12.19H82.05L82.1,2.67z"/>
	<path d="M206.29,27l9.29,18.38h13.71L206.29,0l-23,45.38h13.67L206.29,27z"/>
	<path d="M142.33,27l9.29,18.38h13.67L142.29,0l-22.95,45.38H133L142.33,27z"/>
	<path d="M174.33,21l-9.29-18.38h-13.67l23,45.38l22.95-45.38h-13.67L174.33,21z"/>
</g>
</svg>
