<?xml version="1.0" encoding="utf-8" ?>
<svg baseProfile="full" height="200mm" version="1.1" viewBox="0,0,200,200" width="200mm" xmlns="http://www.w3.org/2000/svg" xmlns:ev="http://www.w3.org/2001/xml-events" xmlns:xlink="http://www.w3.org/1999/xlink"><defs /><rect fill="#1a1a1a" height="200" width="200" x="0" y="0" /><text alignment-baseline="middle" fill="#e1ed5e" style="dominant-baseline: central; font-size:9.0px; font-family:Arial;" text-anchor="middle" x="100.0" y="100.0">2023</text><line stroke="#e1ed5e" stroke-width="0.3" x1="100.0" x2="100.0" y1="15.0" y2="10.0" /><path d="M 100.0 14.0 a86.0,86.0 0 0,1 42.46469731375804,11.215312516191453" fill="none" id="id1" stroke="none" /><text fill="#e1ed5e" style="font-size:6.75px; font-family:Arial;" text-anchor="middle"><textPath startOffset="22.20632615414155" xlink:href="#id1">January</textPath></text><line stroke="#e1ed5e" stroke-width="0.3" x1="143.23703022742887" x2="145.7803849466894" y1="26.81831364943548" y2="22.513508569990506" /><path d="M 143.74570117128098 25.957352633546492 a86.0,86.0 0 0,1 28.547481713284135,27.462654790039103" fill="none" id="id2" stroke="none" /><text fill="#e1ed5e" style="font-size:6.75px; font-family:Arial;" text-anchor="middle"><textPath startOffset="19.985693538727396" xlink:href="#id2">February</textPath></text><line stroke="#e1ed5e" stroke-width="0.3" x1="172.23445277983987" x2="176.4835382374775" y1="55.19839476539836" y2="52.563006222186495" /><path d="M 173.08426987136738 54.67131705675599 a86.0,86.0 0 0,1 12.851231095245387,41.99856678651699" fill="none" id="id3" stroke="none" /><text fill="#e1ed5e" style="font-size:6.75px; font-family:Arial;" text-anchor="middle"><textPath startOffset="22.20632615414155" xlink:href="#id3">March</textPath></text><line stroke="#e1ed5e" stroke-width="0.3" x1="184.98032266829074" x2="189.97916517819016" y1="98.17113171792111" y2="98.06355123074" /><path d="M 185.9800911702706 98.14961562048488 a86.0,86.0 0 0,1 -9.607161424134198,41.387399972396054" fill="none" id="id4" stroke="none" /><text fill="#e1ed5e" style="font-size:6.75px; font-family:Arial;" text-anchor="middle"><textPath startOffset="21.466115282336823" xlink:href="#id4">April</textPath></text><line stroke="#e1ed5e" stroke-width="0.3" x1="174.80103733775053" x2="179.2010983576182" y1="140.37084112569926" y2="142.7455964860345" /><path d="M 175.68104954172406 140.8457921977663 a86.0,86.0 0 0,1 -30.038265399797805,32.042727171017184" fill="none" id="id5" stroke="none" /><text fill="#e1ed5e" style="font-size:6.75px; font-family:Arial;" text-anchor="middle"><textPath startOffset="22.206326154141568" xlink:href="#id5">May</textPath></text><line stroke="#e1ed5e" stroke-width="0.3" x1="143.8653032363475" x2="146.44561519142675" y1="172.8068346515853" y2="177.08958963109032" /><path d="M 144.38136562736335 173.6633856474863 a86.0,86.0 0 0,1 -40.68145358897372,12.25698825130547" fill="none" id="id6" stroke="none" /><text fill="#e1ed5e" style="font-size:6.75px; font-family:Arial;" text-anchor="middle"><textPath startOffset="21.466115282336833" xlink:href="#id6">June</textPath></text><line stroke="#e1ed5e" stroke-width="0.3" x1="102.19456741930631" x2="102.32365962044197" y1="184.97166512339345" y2="189.96999836594603" /><path d="M 102.22038585953345 185.97133177190398 a86.0,86.0 0 0,1 -42.740103519485714,-10.115201625700543" fill="none" id="id7" stroke="none" /><text fill="#e1ed5e" style="font-size:6.75px; font-family:Arial;" text-anchor="middle"><textPath startOffset="22.20632615414155" xlink:href="#id7">July</textPath></text><line stroke="#e1ed5e" stroke-width="0.3" x1="58.666819895761336" x2="56.23545636021788" y1="174.27360380694188" y2="178.64263932499728" /><path d="M 58.180547188652646 175.14741091055294 a86.0,86.0 0 0,1 -31.652253787137756,-30.449443065178592" fill="none" id="id8" stroke="none" /><text fill="#e1ed5e" style="font-size:6.75px; font-family:Arial;" text-anchor="middle"><textPath startOffset="22.20632615414155" xlink:href="#id8">August</textPath></text><line stroke="#e1ed5e" stroke-width="0.3" x1="26.63291911575756" x2="22.317208475507996" y1="142.92168965132927" y2="145.44649492493687" /><path d="M 25.769776987707644 143.4266507060508 a86.0,86.0 0 0,1 -11.730757126820373,-40.83630448921669" fill="none" id="id9" stroke="none" /><text fill="#e1ed5e" style="font-size:6.75px; font-family:Arial;" text-anchor="middle"><textPath startOffset="21.46611528233685" xlink:href="#id9">September</textPath></text><path d="M 79.1416061653843 102.43462659150553 l -26.36786669783751 3.077701472741951 a47.546876286114085,47.546876286114085 0 0,0 -0.08788858610672202,-0.8137391533389826 l 26.416937585445282 -2.6233659975181864" fill="#ff0000" stroke="none" /><path d="M 79.07016306316243 101.71520430193888 l -38.58987137913916 3.1624476387711686 a59.71923615112355,59.71923615112355 0 0,0 -0.075142273002377,-1.0252566143035162 l 38.63859021080587 -2.4977178879708917" fill="#ebff1a" stroke="none" /><path d="M 79.04373962182676 101.35467743843564 l -44.29810871445113 2.863566655400913 a65.39056712486624,65.39056712486624 0 0,0 -0.06294199900606455,-1.1238716742966823 l 44.340837064344726 -2.1006232647687932" fill="#7eff26" stroke="none" /><path d="M 79.0095281055655 100.63252640178507 l -52.656729930585264 1.5867566999097662 a73.68063215079431,73.68063215079431 0 0,0 -0.027289682771328688,-1.268044325634206 l 52.676241676041606 -0.6801225584854312" fill="#37ff7a" stroke="none" /><line stroke="#e1ed5e" stroke-width="0.3" x1="15.007084014347285" x2="10.007500721073583" y1="101.09737516637583" y2="101.16192664675087" /><path d="M 14.007167355692545 101.11028546245083 a86.0,86.0 0 0,1 10.666146001902534,-42.60595125391555" fill="none" id="id10" stroke="none" /><text fill="#e1ed5e" style="font-size:6.75px; font-family:Arial;" text-anchor="middle"><textPath startOffset="22.20632615414155" xlink:href="#id10">October</textPath></text><path d="M 79.00175016825051 100.2711162175752 l -52.17673602114198 0.6736732550959149 a73.18108486295169,73.18108486295169 0 0,0 -0.005421333908495426,-1.259727073939501 l 52.18060165233997 0.22456329704726138" fill="#36ff70" stroke="none" /><path d="M 79.00486145842228 99.54816195383935 l -52.50599179428395 -1.1299856248661602 a73.51814964194585,73.51814964194585 0 0,0 0.038118479826529286,-1.2649667700814997 l 52.47876162000178 2.033622542372654" fill="#37ff76" stroke="none" /><path d="M 79.08570108090925 98.10471618934814 l -37.378563867825974 -3.3872991506036483 a58.53173100666722,58.53173100666722 0 0,0 0.09956769858822724,-1.002633136824972 l 37.31471904355552 4.030207818133051" fill="#fffa17" stroke="none" /><path d="M 79.12142395522702 97.74499172005258 l -51.86905771531305 -5.6021614869843726 a73.17071363898262,73.17071363898262 0 0,0 0.14602660852786875,-1.251066804919769 l 51.764940753781595 6.494172030229003" fill="#36ff70" stroke="none" /><path d="M 79.21141760316559 97.0276538004421 l -51.32892469815144 -7.3389965386565486 a72.85093423327022,72.85093423327022 0 0,0 0.18817780188551886,-1.2398565980017193 l 51.19499100282662 8.22145224905036" fill="#35ff69" stroke="none" /><path d="M 79.3925641242962 95.95851677861259 l -51.19376262775672 -10.040003712626014 a73.16898510165446,73.16898510165446 0 0,0 0.25302777215559136,-1.2338532780149125 l 51.01335555968613 10.919732646804327" fill="#36ff70" stroke="none" /><path d="M 79.62865764111835 94.90015583598534 l -32.82152072868133 -8.216672126629584 a54.834389661700556,54.834389661700556 0 0,0 0.2371030343302527,-0.9136547116893072 l 32.67522136248076 8.780423263867755" fill="#ffab0f" stroke="none" /><path d="M 79.71946130924805 94.55025226153421 l -51.283103886623664 -13.780698022339905 a74.10239525886905,74.10239525886905 0 0,0 0.3416234377990052,-1.2290012694402777 l 51.0382936782583 14.661410595199126" fill="#38ff82" stroke="none" /><path d="M 79.91906864156998 93.8553929516997 l -50.77009528401816 -15.535249822667891 a74.09375257222817,74.09375257222817 0 0,0 0.3836804418697788,-1.216371850862766 l 50.49515935838018 16.406871839957073" fill="#38ff81" stroke="none" /><path d="M 80.02781315780177 93.51064311812611 l -52.25745948965325 -16.97947786328153 a75.94674458803195,75.94674458803195 0 0,0 0.41467901255655915,-1.2398374662031388 l 51.95744318332492 17.87648843240699" fill="#3cffa4" stroke="none" /><path d="M 80.38941819471856 92.48833698450439 l -49.42757638155593 -18.93280378611337 a73.92954152605154,73.92954152605154 0 0,0 0.46542677352539896,-1.1844603720971438 l 49.09435605814884 19.780813163106277" fill="#38ff7e" stroke="none" /><path d="M 80.65960295795068 91.81776055985345 l -50.33852126649451 -21.29645183446159 a75.65807885422669,75.65807885422669 0 0,0 0.5177508955622573,-1.195040451184834 l 49.96447966108957 22.15979143023302" fill="#3bff9f" stroke="none" /><path d="M 80.95270993114464 91.15688171328213 l -57.141870206566075 -26.529354860153617 a84.0,84.0 0 0,0 0.6201672246329939,-1.3062303374378712 l 56.676744788091334 27.50902761323202" fill="#4dd2ff" stroke="none" /><line stroke="#e1ed5e" stroke-width="0.3" x1="26.266209847984243" x2="21.928928074336255" y1="57.711370442889674" y2="55.22380399835377" /><path d="M 25.398753493254645 57.213857153982495 a86.0,86.0 0 0,1 29.58750427330803,-30.492523968695096" fill="none" id="id11" stroke="none" /><text fill="#e1ed5e" style="font-size:6.75px; font-family:Arial;" text-anchor="middle"><textPath startOffset="21.46611528233685" xlink:href="#id11">November</textPath></text><path d="M 81.96595687620814 89.24020034530311 l -50.00665443693312 -29.835882028761958 a79.23096551156475,79.23096551156475 0 0,0 0.7088688907691724,-1.165194071899525 l 49.48566974787773 30.692243873868556" fill="#43ffdf" stroke="none" /><path d="M 82.15384107792192 88.93136811851018 l -45.005401025156665 -27.913469716444574 a73.95892666063051,73.95892666063051 0 0,0 0.6803249353382168,-1.076110667318451 l 44.518248493572486 28.68402803147724" fill="#38ff7f" stroke="none" /><path d="M 83.17141714833178 87.43820079747576 l -34.27634230508931 -25.58578658872847 a63.772656185694295,63.772656185694295 0 0,0 0.6642197268393882,-0.874035301559421 l 33.83084663802581 26.172006666168915" fill="#9cff22" stroke="none" /><path d="M 85.83668400450813 84.49514656593479 l -25.282725655957876 -27.677484272332897 a58.48678903613466,58.48678903613466 0 0,0 0.7491573153101253,-0.6726008345775523 l 24.802557353051778 28.10858411567973" fill="#fff917" stroke="none" /><line stroke="#e1ed5e" stroke-width="0.3" x1="56.762969772571076" x2="54.21961505331055" y1="26.818313649435495" y2="22.513508569990535" /><path d="M 56.25429882871897 25.957352633546506 a86.0,86.0 0 0,1 42.265352541879196,-11.944610805530505" fill="none" id="id12" stroke="none" /><text fill="#e1ed5e" style="font-size:6.75px; font-family:Arial;" text-anchor="middle"><textPath startOffset="22.20632615414155" xlink:href="#id12">December</textPath></text><path d="M 95.33964822691252 79.52364482259891 l -6.3827140630836 -28.043960309225188 a49.76113260350647,49.76113260350647 0 0,0 0.8368336206328455,-0.18289941697391934 l 5.899037718297233 28.149673224294975" fill="#ff3605" stroke="none" /><path d="M 96.75951476605007 79.25152402106235 l -6.758101438191546 -43.271391544846736 a64.79595028397398,64.79595028397398 0 0,0 1.1034781792453427,-0.16262399923795517 l 6.012254278517555 43.381310028245665" fill="#89ff24" stroke="none" /></svg>