<?xml version="1.0" encoding="utf-8" ?>
<svg baseProfile="full" height="200mm" version="1.1" viewBox="0,0,200,200" width="200mm" xmlns="http://www.w3.org/2000/svg" xmlns:ev="http://www.w3.org/2001/xml-events" xmlns:xlink="http://www.w3.org/1999/xlink"><defs /><rect fill="#1a1a1a" height="200" width="200" x="0" y="0" /><text alignment-baseline="middle" fill="#e1ed5e" style="dominant-baseline: central; font-size:9.0px; font-family:Arial;" text-anchor="middle" x="100.0" y="100.0">2025</text><line stroke="#e1ed5e" stroke-width="0.3" x1="100.0" x2="100.0" y1="15.0" y2="10.0" /><path d="M 100.0 14.0 a86.0,86.0 0 0,1 42.46469731375804,11.215312516191453" fill="none" id="id25" stroke="none" /><text fill="#e1ed5e" style="font-size:6.75px; font-family:Arial;" text-anchor="middle"><textPath startOffset="22.20632615414155" xlink:href="#id25">January</textPath></text><line stroke="#e1ed5e" stroke-width="0.3" x1="143.23703022742887" x2="145.7803849466894" y1="26.81831364943548" y2="22.513508569990506" /><path d="M 143.74570117128098 25.957352633546492 a86.0,86.0 0 0,1 28.547481713284135,27.462654790039103" fill="none" id="id26" stroke="none" /><text fill="#e1ed5e" style="font-size:6.75px; font-family:Arial;" text-anchor="middle"><textPath startOffset="19.985693538727396" xlink:href="#id26">February</textPath></text><line stroke="#e1ed5e" stroke-width="0.3" x1="172.23445277983987" x2="176.4835382374775" y1="55.19839476539836" y2="52.563006222186495" /><path d="M 173.08426987136738 54.67131705675599 a86.0,86.0 0 0,1 12.851231095245387,41.99856678651699" fill="none" id="id27" stroke="none" /><text fill="#e1ed5e" style="font-size:6.75px; font-family:Arial;" text-anchor="middle"><textPath startOffset="22.20632615414155" xlink:href="#id27">March</textPath></text><line stroke="#e1ed5e" stroke-width="0.3" x1="184.98032266829074" x2="189.97916517819016" y1="98.17113171792111" y2="98.06355123074" /><path d="M 185.9800911702706 98.14961562048488 a86.0,86.0 0 0,1 -9.607161424134198,41.387399972396054" fill="none" id="id28" stroke="none" /><text fill="#e1ed5e" style="font-size:6.75px; font-family:Arial;" text-anchor="middle"><textPath startOffset="21.466115282336823" xlink:href="#id28">April</textPath></text><path d="M 120.92983693683757 101.71520430193887 l 26.373054718061574 2.161277082291656 a47.46146507259772,47.46146507259772 0 0,0 -0.07373568853690421,0.8136671787089118 l -26.331944433247596 -2.6149256495491384" fill="#ff0000" stroke="none" /><path d="M 120.81339534386255 102.79330883721812 l 50.3471819929128 6.756957529819973 a71.79857487850691,71.79857487850691 0 0,0 -0.1749353437768768,1.2234973869346348 l -50.223412598119324 -7.622600388735017" fill="#33ff55" stroke="none" /><path d="M 120.76222939487914 103.15116336523771 l 35.73671111252388 5.42389801740864 a57.14597060314243,57.14597060314243 0 0,0 -0.15597651334730991,0.9712658975049078 l -35.63805284481528 -6.038243144606753" fill="#ffdf14" stroke="none" /><path d="M 120.49622156327973 104.57218783832717 l 45.87405267780302 10.233339110853569 a68.00159506275901,68.00159506275901 0 0,0 -0.2646862807737921,1.14026157008993 l -45.69110583109868 -11.021469338292064" fill="#50ff2b" stroke="none" /><path d="M 120.41448212921028 104.9243191809786 l 49.60224330947755 11.964902004490705 a72.02490981187205,72.02490981187205 0 0,0 -0.30109391287623916,1.2027205114731843 l -49.388938082306254 -12.816950355361286" fill="#34ff5a" stroke="none" /><path d="M 120.32669344350535 105.2749913415812 l 50.73976839999425 13.16750507049752 a73.42048537610685,73.42048537610685 0 0,0 -0.327986522335857,1.2205598635929034 l -50.505593801316614 -14.03895586726597" fill="#37ff75" stroke="none" /><path d="M 120.23288151984713 105.62410040840565 l 36.32852151726286 10.098178675221913 a58.70589726006977,58.70589726006977 0 0,0 -0.2790133716553869,0.9712821498479659 l -36.14931550872137 -10.72201830057446" fill="#ffff18" stroke="none" /><path d="M 120.02730092923936 106.31721596034902 l 44.90065815798399 14.163024530763112 a68.08142273635252,68.08142273635252 0 0,0 -0.36215345149948774,1.114593715611178 l -44.65021245546826 -14.933817146352084" fill="#4eff2b" stroke="none" /><path d="M 119.9155931802556 106.66101706037122 l 44.59321066824353 14.914752191884547 a68.02131719388211,68.02131719388211 0 0,0 -0.38094907587235255,1.1072163327947628 l -44.32987076142795 -15.68014122776861" fill="#4fff2b" stroke="none" /><path d="M 119.79798401119884 107.00284435728193 l 44.452940427399 15.723672817419882 a68.15185891893503,68.15185891893503 0 0,0 -0.4007191020896682,1.102606866944549 l -44.1756970643041 -16.486527481370562" fill="#4dff2c" stroke="none" /><path d="M 119.67450827220406 107.3425965602758 l 44.649067809829546 16.66319112956658 a68.65712113532692,68.65712113532692 0 0,0 -0.4227504052113962,1.1036679078270684 l -44.35562312502464 -17.429282604226792" fill="#44ff2d" stroke="none" /><path d="M 119.41010516605496 108.01547362559984 l 43.74348243789724 18.064030399280842 a68.32654065173966,68.32654065173966 0 0,0 -0.45827267663434995,1.0832212360033615 l -43.42605878007058 -18.814326160950365" fill="#4aff2c" stroke="none" /><line stroke="#e1ed5e" stroke-width="0.3" x1="174.80103733775053" x2="179.2010983576182" y1="140.37084112569926" y2="142.7455964860345" /><path d="M 175.68104954172406 140.8457921977663 a86.0,86.0 0 0,1 -30.038265399797805,32.042727171017184" fill="none" id="id29" stroke="none" /><text fill="#e1ed5e" style="font-size:6.75px; font-family:Arial;" text-anchor="middle"><textPath startOffset="22.206326154141568" xlink:href="#id29">May</textPath></text><path d="M 118.12598468904814 110.60418214915192 l 38.536023946781235 22.544596845138795 a65.64620911719985,65.64620911719985 0 0,0 -0.5789968269723242,0.9704319858408791 l -38.14224624411068 -23.204590924865776" fill="#79ff26" stroke="none" /><path d="M 117.35343817320211 111.8261652097733 l 35.33368205723078 24.079491182542327 a63.758519423988545,63.758519423988545 0 0,0 -0.6258630168926818,0.9016023549034302 l -34.91395813317596 -24.684134799632776" fill="#9cff22" stroke="none" /><path d="M 117.14729908036423 112.12312394758627 l 38.0189377391684 26.879352392896706 a67.56113413434305,67.56113413434305 0 0,0 -0.6795369894855089,0.9438174444107015 l -37.550620957307295 -27.52980344275854" fill="#57ff2a" stroke="none" /><path d="M 116.0416608686014 113.55231037782055 l 36.357383403588905 30.715432052006552 a68.59513729465431,68.59513729465431 0 0,0 -0.7697599005002912,0.8954046675535189 l -35.823280993517834 -31.3367138187216" fill="#45ff2d" stroke="none" /><path d="M 115.56566222782051 114.09645910891815 l 46.696986683461546 42.289377326754476 a84.0,84.0 0 0,0 -0.9798143680171121,1.0633949807946608 l -45.96212590744871 -43.08692356235047" fill="#4dd2ff" stroke="none" /><path d="M 115.32070863581623 114.36230785411682 l 21.156473029578745 19.8330107295289 a49.99904594377031,49.99904594377031 0 0,0 -0.5940206857272787,0.6228283141216465 l -20.811945792472503 -20.194246160233057" fill="#ff3e05" stroke="none" /><line stroke="#e1ed5e" stroke-width="0.3" x1="143.8653032363475" x2="146.44561519142675" y1="172.8068346515853" y2="177.08958963109032" /><path d="M 144.38136562736335 173.6633856474863 a86.0,86.0 0 0,1 -40.68145358897372,12.25698825130547" fill="none" id="id30" stroke="none" /><text fill="#e1ed5e" style="font-size:6.75px; font-family:Arial;" text-anchor="middle"><textPath startOffset="21.466115282336833" xlink:href="#id30">June</textPath></text><line stroke="#e1ed5e" stroke-width="0.3" x1="102.19456741930631" x2="102.32365962044197" y1="184.97166512339345" y2="189.96999836594603" /><path d="M 102.22038585953345 185.97133177190398 a86.0,86.0 0 0,1 -42.740103519485714,-10.115201625700543" fill="none" id="id31" stroke="none" /><text fill="#e1ed5e" style="font-size:6.75px; font-family:Arial;" text-anchor="middle"><textPath startOffset="22.20632615414155" xlink:href="#id31">July</textPath></text><line stroke="#e1ed5e" stroke-width="0.3" x1="58.666819895761336" x2="56.23545636021788" y1="174.27360380694188" y2="178.64263932499728" /><path d="M 58.180547188652646 175.14741091055294 a86.0,86.0 0 0,1 -31.652253787137756,-30.449443065178592" fill="none" id="id32" stroke="none" /><text fill="#e1ed5e" style="font-size:6.75px; font-family:Arial;" text-anchor="middle"><textPath startOffset="22.20632615414155" xlink:href="#id32">August</textPath></text><line stroke="#e1ed5e" stroke-width="0.3" x1="26.63291911575756" x2="22.317208475507996" y1="142.92168965132927" y2="145.44649492493687" /><path d="M 25.769776987707644 143.4266507060508 a86.0,86.0 0 0,1 -11.730757126820373,-40.83630448921669" fill="none" id="id33" stroke="none" /><text fill="#e1ed5e" style="font-size:6.75px; font-family:Arial;" text-anchor="middle"><textPath startOffset="21.46611528233685" xlink:href="#id33">September</textPath></text><line stroke="#e1ed5e" stroke-width="0.3" x1="15.007084014347285" x2="10.007500721073583" y1="101.09737516637583" y2="101.16192664675087" /><path d="M 14.007167355692545 101.11028546245083 a86.0,86.0 0 0,1 10.666146001902534,-42.60595125391555" fill="none" id="id34" stroke="none" /><text fill="#e1ed5e" style="font-size:6.75px; font-family:Arial;" text-anchor="middle"><textPath startOffset="22.20632615414155" xlink:href="#id34">October</textPath></text><line stroke="#e1ed5e" stroke-width="0.3" x1="26.266209847984243" x2="21.928928074336255" y1="57.711370442889674" y2="55.22380399835377" /><path d="M 25.398753493254645 57.213857153982495 a86.0,86.0 0 0,1 29.58750427330803,-30.492523968695096" fill="none" id="id35" stroke="none" /><text fill="#e1ed5e" style="font-size:6.75px; font-family:Arial;" text-anchor="middle"><textPath startOffset="21.46611528233685" xlink:href="#id35">November</textPath></text><line stroke="#e1ed5e" stroke-width="0.3" x1="56.762969772571076" x2="54.21961505331055" y1="26.818313649435495" y2="22.513508569990535" /><path d="M 56.25429882871897 25.957352633546506 a86.0,86.0 0 0,1 42.265352541879196,-11.944610805530505" fill="none" id="id36" stroke="none" /><text fill="#e1ed5e" style="font-size:6.75px; font-family:Arial;" text-anchor="middle"><textPath startOffset="22.20632615414155" xlink:href="#id36">December</textPath></text></svg>